<svg style="position: absolute; width: 0; height: 0; overflow: hidden;" version="1.1" xmlns="http://www.w3.org/2000/svg" xmlns:xlink="http://www.w3.org/1999/xlink">
<defs>
<symbol id="video" viewBox="0 0 46 32">
<title>video</title>
<path class="path1" d="M43.556 0h-40.889c-1.473 0-2.667 1.194-2.667 2.667v26.667c0 1.473 1.194 2.667 2.667 2.667h40.889c1.473 0 2.667-1.194 2.667-2.667v-26.667c0-1.473-1.194-2.667-2.667-2.667zM28.178 16.622l-9.867 5.867c-0.622 0.356-0.444 0.089-0.444-0.622v-11.733c0-0.711-0.089-0.978 0.444-0.622l9.6 5.867c0.533 0.356 0.8 0.889 0.267 1.244z"></path>
</symbol>
<symbol id="title_icon" viewBox="0 0 32 32">
<title>title_icon</title>
<path class="path1" d="M29.433 27.859h-26.87c-1.065 0-1.928-0.863-1.928-1.928s0.863-1.928 1.928-1.928h26.87c1.064 0 1.927 0.864 1.927 1.928s-0.863 1.928-1.927 1.928z"></path>
<path class="path2" d="M12.452 18.816h-9.889c-1.065 0-1.928-0.864-1.928-1.928v-10.8c0-1.064 0.863-1.928 1.928-1.928h9.889c1.064 0 1.928 0.864 1.928 1.928v10.8c0 1.064-0.864 1.928-1.928 1.928zM4.491 14.959h6.033v-6.943h-6.033v6.943z"></path>
<path class="path3" d="M29.433 8.602h-9.762c-1.065 0-1.928-0.864-1.928-1.928s0.864-1.928 1.928-1.928h9.762c1.064 0 1.927 0.863 1.927 1.928s-0.863 1.928-1.927 1.928z"></path>
<path class="path4" d="M29.433 18.23h-9.762c-1.065 0-1.928-0.863-1.928-1.928s0.864-1.928 1.928-1.928h9.762c1.064 0 1.927 0.863 1.927 1.928s-0.863 1.928-1.927 1.928z"></path>
</symbol>
<symbol id="text" viewBox="0 0 32 32">
<title>text</title>
<path class="path1" d="M7.459 7.459h7.972v17.082h-2.088v1.139h5.315v-1.139h-2.088v-17.082h7.972v3.416h1.139v-4.555h-19.36v4.555h1.139z"></path>
</symbol>
<symbol id="notifications" viewBox="0 0 32 32">
<title>notifications</title>
<path class="path1" d="M16 32c1.76 0 3.2-1.44 3.2-3.2h-6.4c0 1.76 1.44 3.2 3.2 3.2zM26.4 22.4v-8.8c0-4.96-3.36-8.96-8-10.080v-1.12c0-1.28-1.12-2.4-2.4-2.4s-2.4 1.12-2.4 2.4v1.12c-4.64 1.12-8 5.12-8 10.080v8.8l-3.2 3.2v1.6h27.2v-1.6l-3.2-3.2zM23.2 24h-14.4v-10.4c0-4 3.2-7.2 7.2-7.2s7.2 3.2 7.2 7.2v10.4z"></path>
</symbol>
<symbol id="lists" viewBox="0 0 32 32">
<title>lists</title>
<path class="path1" d="M11.392 9.312h16.128c0.704 0 1.28-0.576 1.28-1.28s-0.576-1.28-1.28-1.28h-16.128c-0.704 0-1.28 0.576-1.28 1.28s0.576 1.28 1.28 1.28z"></path>
<path class="path2" d="M6.4 8.032c0 0.707-0.573 1.28-1.28 1.28s-1.28-0.573-1.28-1.28c0-0.707 0.573-1.28 1.28-1.28s1.28 0.573 1.28 1.28z"></path>
<path class="path3" d="M11.392 17.312h16.128c0.704 0 1.28-0.576 1.28-1.28s-0.576-1.28-1.28-1.28h-16.128c-0.704 0-1.28 0.576-1.28 1.28s0.576 1.28 1.28 1.28z"></path>
<path class="path4" d="M6.4 16.032c0 0.707-0.573 1.28-1.28 1.28s-1.28-0.573-1.28-1.28c0-0.707 0.573-1.28 1.28-1.28s1.28 0.573 1.28 1.28z"></path>
<path class="path5" d="M11.392 25.312h16.128c0.704 0 1.28-0.576 1.28-1.28s-0.576-1.28-1.28-1.28h-16.128c-0.704 0-1.28 0.576-1.28 1.28s0.576 1.28 1.28 1.28z"></path>
<path class="path6" d="M6.4 24.032c0 0.707-0.573 1.28-1.28 1.28s-1.28-0.573-1.28-1.28c0-0.707 0.573-1.28 1.28-1.28s1.28 0.573 1.28 1.28z"></path>
</symbol>
<symbol id="icon" viewBox="0 0 32 32">
<title>icon</title>
<path class="path1" d="M16.040 11.84c-0.331 0-0.6 0.269-0.6 0.6v0.187c0 0.332 0.269 0.6 0.6 0.6s0.6-0.268 0.6-0.6v-0.187c0-0.331-0.269-0.6-0.6-0.6zM16.040 14.24c-0.331 0-0.6 0.269-0.6 0.6v4.8c0 0.331 0.269 0.6 0.6 0.6s0.6-0.269 0.6-0.6v-4.8c0-0.331-0.269-0.6-0.6-0.6zM16.040 23.84c-4.301 0-7.8-3.499-7.8-7.8s3.499-7.8 7.8-7.8c4.301 0 7.8 3.499 7.8 7.8s-3.499 7.8-7.8 7.8zM16.040 7.040c-4.963 0-9 4.037-9 9s4.037 9 9 9c4.963 0 9-4.037 9-9s-4.037-9-9-9z"></path>
</symbol>
<symbol id="icon_group" viewBox="0 0 32 32">
<title>icon_group</title>
<path class="path1" d="M15.997 0.582c-2.11 0-3.828 1.716-3.828 3.828s1.718 3.828 3.828 3.828c2.112 0 3.829-1.717 3.829-3.828 0.001-2.112-1.717-3.828-3.829-3.828zM15.997 6.452c-1.124 0-2.042-0.915-2.042-2.042 0-1.125 0.918-2.042 2.042-2.042 1.126 0 2.042 0.917 2.042 2.042 0.001 1.126-0.916 2.042-2.042 2.042z"></path>
<path class="path2" d="M15.997 22.488c-2.11 0-3.828 1.718-3.828 3.828 0 2.111 1.718 3.827 3.828 3.827 2.112 0 3.829-1.716 3.829-3.827s-1.717-3.828-3.829-3.828zM15.997 28.357c-1.124 0-2.042-0.915-2.042-2.040 0-1.126 0.918-2.043 2.042-2.043 1.126 0 2.042 0.917 2.042 2.043s-0.916 2.040-2.042 2.040z"></path>
<path class="path3" d="M4.573 13.338c0.572 0.322 1.219 0.488 1.871 0.488v0c1.382 0 2.662-0.747 3.339-1.953 1.035-1.841 0.378-4.179-1.463-5.213-1.78-1.003-4.214-0.312-5.212 1.462-1.034 1.839-0.377 4.179 1.464 5.215zM4.667 8.999c0.363-0.643 1.045-1.043 1.785-1.043 0.346 0 0.691 0.090 0.995 0.262 0.982 0.552 1.332 1.798 0.781 2.78-0.361 0.643-1.043 1.042-1.782 1.042v0c-0.346 0-0.691-0.090-0.995-0.26-0.985-0.554-1.335-1.802-0.785-2.782z"></path>
<path class="path4" d="M27.424 17.387c-1.788-1.004-4.218-0.307-5.212 1.464-0.499 0.893-0.626 1.923-0.348 2.908 0.276 0.987 0.92 1.804 1.809 2.306 0.573 0.321 1.218 0.49 1.873 0.49 1.384 0 2.664-0.749 3.343-1.954 1.032-1.841 0.378-4.179-1.465-5.215zM27.329 21.725c-0.531 0.947-1.827 1.319-2.78 0.781-0.475-0.268-0.817-0.705-0.966-1.229s-0.083-1.078 0.186-1.553c0.36-0.643 1.043-1.044 1.784-1.044 0.345 0 0.691 0.092 0.996 0.262 0.982 0.552 1.332 1.8 0.78 2.783z"></path>
<path class="path5" d="M23.679 6.664c-0.891 0.5-1.534 1.318-1.813 2.301-0.278 0.985-0.152 2.016 0.346 2.908 0.677 1.208 1.959 1.956 3.343 1.956 0.652 0 1.301-0.169 1.871-0.49 0.892-0.499 1.533-1.317 1.814-2.301 0.276-0.985 0.152-2.019-0.346-2.909-0.996-1.773-3.428-2.465-5.214-1.465zM27.517 10.556c-0.147 0.523-0.489 0.96-0.966 1.227-0.305 0.172-0.652 0.262-0.997 0.262-0.739 0-1.422-0.399-1.784-1.043-0.266-0.476-0.333-1.028-0.186-1.554 0.147-0.523 0.491-0.959 0.966-1.226 0.303-0.171 0.649-0.262 0.998-0.262 0.739 0 1.423 0.402 1.784 1.041 0.268 0.477 0.335 1.028 0.186 1.554z"></path>
<path class="path6" d="M4.573 17.385c-0.891 0.5-1.534 1.318-1.81 2.303-0.278 0.985-0.155 2.018 0.346 2.91 0.677 1.205 1.957 1.954 3.345 1.954 0.652 0 1.297-0.168 1.869-0.486 1.84-1.034 2.495-3.374 1.463-5.213-0.996-1.774-3.427-2.467-5.213-1.467zM7.447 22.506c-0.305 0.172-0.65 0.259-0.995 0.259-0.739 0-1.425-0.4-1.787-1.041-0.266-0.476-0.333-1.027-0.186-1.554 0.147-0.525 0.489-0.963 0.967-1.228 0.303-0.171 0.647-0.262 0.993-0.262 0.741 0 1.425 0.401 1.788 1.044 0.552 0.983 0.202 2.23-0.78 2.781z"></path>
</symbol>
<symbol id="gmaps" viewBox="0 0 44 32">
<title>gmaps</title>
<path class="path1" d="M38.794 24.476c0.504-1.519 0.797 1.308 0.797 1.308-11.665 5.591-34.611 0.117-34.98 0s0.452-1.308 0.452-1.308 10.869 2.845 20.636 2.834c4.772-0.005 12.929-2.335 13.095-2.834z"></path>
<path class="path2" fill="none" stroke="#000" stroke-width="0.8808" stroke-miterlimit="1.41421" stroke-linecap="round" stroke-linejoin="round" d="M14.871 15.479h-7.123c-0.905 5.583-3.404 10.859-7.135 15.899 14.263-0.707 28.523-0.719 42.782 0-4.024-5.254-6.507-10.55-7.079-15.899h-7.145"></path>
<path class="path3" d="M19.007 0.62c-0.010 0.004-0.020 0.008-0.030 0.013-2.12 0.874-3.754 2.611-4.481 4.762s-0.477 4.509 0.686 6.465c3.192 5.365 6.865 11.542 6.865 11.542l1.8-3.027c0 0 2.574-4.328 5.068-8.52 1.163-1.955 1.413-4.311 0.686-6.461s-2.36-3.886-4.478-4.759c-0.012-0.005-0.024-0.009-0.035-0.015-1.946-0.802-4.135-0.802-6.081 0zM22.047 3.794c2.214 0 3.948 1.725 3.948 3.941s-1.734 3.941-3.948 3.941c-2.214 0-3.962-1.724-3.962-3.941s1.748-3.941 3.962-3.941z"></path>
</symbol>
<symbol id="empty_space" viewBox="0 0 32 32">
<title>empty_space</title>
<path class="path1" d="M27.2 2.4c0-0.448-0.352-0.8-0.8-0.8s-0.8 0.352-0.8 0.8v10.4h-19.2v-10.4c0-0.448-0.352-0.8-0.8-0.8s-0.8 0.352-0.8 0.8v11.2c0 0.448 0.352 0.8 0.8 0.8h20.8c0.448 0 0.8-0.352 0.8-0.8v-11.2z"></path>
<path class="path2" d="M26.4 30.4c0.448 0 0.8-0.352 0.8-0.8v-9.6c0-0.448-0.352-0.8-0.8-0.8h-20.8c-0.448 0-0.8 0.352-0.8 0.8v9.6c0 0.448 0.352 0.8 0.8 0.8s0.8-0.352 0.8-0.8v-8.8h19.2v8.8c0 0.448 0.352 0.8 0.8 0.8z"></path>
<path class="path3" d="M16.8 17.6c0.448 0 0.8-0.352 0.8-0.8s-0.352-0.8-0.8-0.8h-1.6c-0.448 0-0.8 0.352-0.8 0.8s0.352 0.8 0.8 0.8h1.6z"></path>
<path class="path4" d="M12 17.6c0.448 0 0.8-0.352 0.8-0.8s-0.352-0.8-0.8-0.8h-1.6c-0.448 0-0.8 0.352-0.8 0.8s0.352 0.8 0.8 0.8h1.6z"></path>
<path class="path5" d="M5.6 17.6h1.6c0.448 0 0.8-0.352 0.8-0.8s-0.352-0.8-0.8-0.8h-1.6c-0.448 0-0.8 0.352-0.8 0.8s0.352 0.8 0.8 0.8z"></path>
<path class="path6" d="M26.4 16h-1.6c-0.448 0-0.8 0.352-0.8 0.8s0.352 0.8 0.8 0.8h1.6c0.448 0 0.8-0.352 0.8-0.8s-0.352-0.8-0.8-0.8z"></path>
<path class="path7" d="M21.6 17.6c0.448 0 0.8-0.352 0.8-0.8s-0.352-0.8-0.8-0.8h-1.6c-0.448 0-0.8 0.352-0.8 0.8s0.352 0.8 0.8 0.8h1.6z"></path>
</symbol>
<symbol id="dropcap" viewBox="0 0 32 32">
<title>dropcap</title>
<path class="path1" d="M17.024 6.784h-5.664v18.4h5.664c4.192 0 5.664-4.96 5.664-9.216 0-4.224-1.472-9.184-5.664-9.184z"></path>
<path class="path2" d="M16 0.512c-8.608 0-15.616 6.976-15.616 15.616s7.008 15.584 15.616 15.584 15.616-6.976 15.616-15.616-7.008-15.584-15.616-15.584zM17.024 26.624h-6.4c-0.384 0-0.704-0.32-0.704-0.704v-19.84c0-0.384 0.32-0.704 0.704-0.704h6.368c4.32 0 7.072 4.16 7.072 10.624 0.032 6.464-2.752 10.624-7.040 10.624z"></path>
</symbol>
<symbol id="divider" viewBox="0 0 32 32">
<title>divider</title>
<path class="path1" d="M17.472 14.080l-1.472 1.472-1.472-1.472-0.448 0.448 1.472 1.472-1.472 1.472 0.448 0.448 1.472-1.472 1.472 1.472 0.448-0.448-1.472-1.472 1.472-1.472z"></path>
<path class="path2" d="M19.136 15.68h8v0.64h-8v-0.64z"></path>
<path class="path3" d="M4.864 15.68h8v0.64h-8v-0.64z"></path>
</symbol>
<symbol id="call_to_action" viewBox="0 0 32 32">
<title>call_to_action</title>
<path class="path1" d="M24.444 16c0-2.325-1.675-4.262-3.881-4.681v-8.363c0-0.7-0.775-1.119-1.363-0.737l-12.694 8.206h-5.5c-0.488 0-0.881 0.394-0.881 0.881v9.388c0 0.488 0.394 0.881 0.881 0.881h5.5l12.694 8.212c0.587 0.381 1.363-0.044 1.363-0.738v-8.369c2.2-0.419 3.881-2.356 3.881-4.681zM1.887 12.188h3.994v7.625h-3.994v-7.625zM18.794 27.425l-11.144-7.213v-1.569h1.762c0.488 0 0.881-0.394 0.881-0.881s-0.394-0.881-0.881-0.881h-1.763v-1.762h3.531c0.488 0 0.881-0.394 0.881-0.881s-0.394-0.881-0.881-0.881h-3.531v-1.569l11.144-7.213v22.85zM20.556 18.869v-5.738c1.225 0.375 2.119 1.519 2.119 2.869s-0.894 2.487-2.119 2.869z"></path>
<path class="path2" d="M28.306 7.369c-0.344-0.344-0.906-0.344-1.25 0s-0.337 0.9 0.006 1.244c1.887 1.894 3.050 4.506 3.050 7.381s-1.169 5.487-3.050 7.381c-0.344 0.344-0.35 0.9-0.006 1.244s0.906 0.35 1.25 0c2.2-2.206 3.569-5.256 3.569-8.619s-1.369-6.412-3.569-8.631z"></path>
<path class="path3" d="M25.637 9.956c-0.325-0.319-0.881-0.275-1.206 0.044-0.331 0.331-0.35 0.9-0.012 1.231 1.219 1.225 1.981 2.906 1.981 4.769s-0.756 3.544-1.981 4.769c-0.331 0.331-0.319 0.9 0.012 1.231 0.325 0.325 0.881 0.369 1.206 0.044 1.556-1.544 2.525-3.688 2.525-6.044-0.006-2.363-0.969-4.5-2.525-6.044z"></path>
</symbol>
<symbol id="button" viewBox="0 0 19 32">
<title>button</title>
<path class="path1" d="M16.205 17.514l-6.326-0.639c0-3.035-0.24-6.070-0.24-9.106 0-0.914-0.763-1.677-1.677-1.677s-1.246 0.763-1.246 1.677c0 3.982 0 8.799 0 12.781-0.515-0.696-2.491-2.763-2.516-2.796-0.651-0.88-2.869-1.404-3.893-0.804-0.869 0.51 0.723 1.74 1.377 2.624 2.373 3.208 4.253 6.4 6.626 9.608 0.275 0.548 0.646 1.040 1.092 1.454 0.224 0.251 0.487 0.454 0.772 0.592 0.783 0.489 1.708 0.772 2.699 0.772 2.68 0 4.876-2.067 5.086-4.693 0.011-0.077 0.018-0.156 0.018-0.236l0.865-7.545c0-0.953-1.683-2.013-2.636-2.013z"></path>
<path class="path2" d="M5.717 15.261c0-0.604 0-1.207 0-1.808-2.325-0.842-3.992-3.072-3.992-5.684 0-3.332 2.711-6.044 6.044-6.044s6.044 2.711 6.044 6.044c0 2.215-1.198 4.153-2.98 5.206 0.025 0.633 0.050 1.266 0.074 1.899 2.725-1.208 4.631-3.937 4.631-7.104 0-4.284-3.484-7.769-7.769-7.769s-7.769 3.485-7.769 7.769c0 3.574 2.426 6.59 5.717 7.492z"></path>
</symbol>
<symbol id="button_group" viewBox="0 0 32 32">
<title>button_group</title>
<path class="path1" d="M16 2.133h3.2v3.2h-3.2v-3.2z"></path>
<path class="path2" d="M20.267 2.133h3.2v3.2h-3.2v-3.2z"></path>
<path class="path3" d="M16 6.4h3.2v3.2h-3.2v-3.2z"></path>
<path class="path4" d="M20.267 6.4h3.2v3.2h-3.2v-3.2z"></path>
<path class="path5" d="M21.867 14.933c-0.883 0-1.6 0.717-1.6 1.6v-1.067c0-0.883-0.717-1.6-1.6-1.6s-1.6 0.717-1.6 1.6v-1.067c0-0.883-0.717-1.6-1.6-1.6s-1.6 0.717-1.6 1.6v-8.533c0-0.883-0.717-1.6-1.6-1.6s-1.6 0.717-1.6 1.6v13.517l-2.758-2.758c-0.832-0.833-2.185-0.833-3.017 0-0.833 0.833-0.833 2.183 0 3.017l5.775 5.775v0.183c0 2.356 1.91 4.267 4.267 4.267h4.267c2.356 0 4.267-1.91 4.267-4.267v-9.067c0-0.883-0.717-1.6-1.6-1.6z"></path>
</symbol>
<symbol id="bubble_testimonial" viewBox="0 0 32 32">
<title>bubble_testimonial</title>
<path class="path1" d="M27.077 1.231h-22.154c-2.715 0-4.923 2.208-4.923 4.923v12.308c0 2.715 2.208 4.923 4.923 4.923h2.859l2.153 5.38c0.187 0.468 0.639 0.774 1.142 0.774s0.955-0.306 1.143-0.774l2.151-5.38h12.705c2.715 0 4.923-2.208 4.923-4.923v-12.308c0-2.715-2.208-4.923-4.923-4.923zM29.538 18.462c0 1.358-1.104 2.462-2.462 2.462h-13.538c-0.503 0-0.955 0.306-1.143 0.774l-1.318 3.297-1.318-3.297c-0.188-0.468-0.64-0.774-1.143-0.774h-3.692c-1.358 0-2.462-1.104-2.462-2.462v-12.308c0-1.358 1.104-2.462 2.462-2.462h22.154c1.358 0 2.462 1.104 2.462 2.462v12.308z"></path>
</symbol>
<symbol id="animated_numbers" viewBox="0 0 32 32">
<title>animated_numbers</title>
<path class="path1" d="M16 0.512c-8.608 0-15.616 6.976-15.616 15.616s7.008 15.584 15.616 15.584 15.616-6.976 15.616-15.616-7.008-15.584-15.616-15.584zM18.4 6.208v19.84c0 0.384-0.32 0.704-0.704 0.704s-0.704-0.32-0.704-0.704v-18.144l-5.152 5.184c-0.288 0.256-0.736 0.256-1.024 0-0.256-0.288-0.256-0.736 0-1.024l6.368-6.368c0.224-0.192 0.512-0.256 0.8-0.128 0.256 0.096 0.416 0.352 0.416 0.64z"></path>
</symbol>
<symbol id = "inline_text" viewBox="0 0 96 96">
	<title> Inline Text Module</title>
	<path d="M31.524 74.164c-0.212 0-0.42-0.032-0.632-0.1-1.048-0.352-1.608-1.484-1.256-2.532l17.436-52.328c0.548-1.632 3.252-1.632 3.796 0l17.44 52.328c0.348 1.056-0.224 2.18-1.264 2.532-1.048 0.344-2.18-0.22-2.532-1.256l-15.544-46.64-15.548 46.636c-0.28 0.828-1.060 1.36-1.896 1.36z"></path><path d="M60 60h-16c-1.1 0-2-0.9-2-2s0.9-2 2-2h16c1.1 0 2 0.9 2 2s-0.9 2-2 2z"></path><path d="M36 56h16v4h-16v-4z"></path><path d="M94 20h-16c-1.1 0-2-0.9-2-2v-16c0-1.1 0.9-2 2-2h16c1.1 0 2 0.9 2 2v16c0 1.1-0.9 2-2 2zM80 16h12v-12h-12v12z"></path><path d="M94 96h-16c-1.1 0-2-0.9-2-2v-16c0-1.1 0.9-2 2-2h16c1.1 0 2 0.9 2 2v16c0 1.1-0.9 2-2 2zM80 92h12v-12h-12v12z"></path><path d="M18 20h-16c-1.1 0-2-0.9-2-2v-16c0-1.1 0.9-2 2-2h16c1.1 0 2 0.9 2 2v16c0 1.1-0.9 2-2 2zM4 16h12v-12h-12v12z"></path><path d="M18 96h-16c-1.1 0-2-0.9-2-2v-16c0-1.1 0.9-2 2-2h16c1.1 0 2 0.9 2 2v16c0 1.1-0.9 2-2 2zM4 92h12v-12h-12v12z"></path><path d="M76 8h-56c-1.1 0-2-0.9-2-2s0.9-2 2-2h56c1.1 0 2 0.9 2 2s-0.9 2-2 2z"></path><path d="M76 92h-56c-1.1 0-2-0.9-2-2s0.9-2 2-2h56c1.1 0 2 0.9 2 2s-0.9 2-2 2z"></path><path d="M6 78c-1.1 0-2-0.9-2-2v-56c0-1.1 0.9-2 2-2s2 0.9 2 2v56c0 1.1-0.9 2-2 2z"></path><path d="M90 78c-1.1 0-2-0.9-2-2v-56c0-1.1 0.9-2 2-2s2 0.9 2 2v56c0 1.1-0.9 2-2 2z"></path>
</symbol>
<symbol id="code" viewBox="0 0 100 100">
    <title>Code</title>
    <g><path d="M80.998,32c0-2.2-1.311-5.233-2.912-6.741L66.911,14.741C65.309,13.233,62.199,12,59.999,12H23c-2.2,0-4,1.8-4,4v67   c0,2.2,1.8,4,4,4h54c2.2,0,4-1.8,4-4L80.998,32z M76.029,27.443c0.386,0.363,0.766,0.926,1.09,1.557H65.498   c-0.687,0-1.305-0.277-1.764-0.735c-0.458-0.46-0.735-1.078-0.735-1.765V15.777c0.738,0.331,1.414,0.732,1.855,1.148L76.029,27.443   z M77,84H23c-0.542,0-1-0.458-1-1V16c0-0.542,0.458-1,1-1h36.999v11.5c0.006,3.035,2.464,5.494,5.499,5.5h12.5L78,83   C78,83.542,77.542,84,77,84z"></path><path d="M54.557,47.107c-0.769-0.308-1.642,0.066-1.949,0.836l-8,20c-0.308,0.769,0.066,1.642,0.836,1.949   c0.769,0.308,1.642-0.066,1.949-0.836l8-20C55.7,48.288,55.326,47.415,54.557,47.107z"></path><path d="M43.248,49.668c-0.46-0.689-1.391-0.876-2.08-0.416l-12,8c-0.405,0.27-0.654,0.72-0.667,1.206   c-0.014,0.486,0.21,0.95,0.599,1.242l12,9c0.663,0.497,1.604,0.362,2.101-0.3c0.497-0.663,0.362-1.604-0.3-2.101l-10.305-7.728   l10.236-6.824C43.521,51.288,43.707,50.357,43.248,49.668z"></path><path d="M70.832,57.252l-12-8c-0.689-0.46-1.621-0.273-2.08,0.416c-0.46,0.689-0.273,1.621,0.416,2.08l10.236,6.824L57.1,66.3   c-0.662,0.497-0.797,1.438-0.3,2.101c0.497,0.662,1.438,0.797,2.101,0.3l12-9c0.389-0.292,0.612-0.756,0.599-1.242   C71.486,57.972,71.236,57.521,70.832,57.252z"></path></g>
</symbol>
<symbol id="image" viewBox="0 0 100 100">
    <title>Image</title>
    <g transform="translate(0,-952.36218)"><path style="text-indent:0;text-transform:none;direction:ltr;block-progression:tb;baseline-shift:baseline;color:#000000;enable-background:accumulate;" d="m 3.9999985,970.36219 0,3 0,58.00001 0,3 3,0 86.0000025,0 3,0 0,-3 0,-58.00002 0,-3 -3,0 -86.0000025,0 z m 6,6 80.0000005,0 0,40.25001 -15.78125,-17.28126 c -0.61022,-0.66815 -1.535111,-1.03573 -2.4375,-0.96875 -0.74193,0.0539 -1.45926,0.39548 -1.96875,0.9375 l -13.562501,14.40631 -20,-22.34381 c -0.60423,-0.67938 -1.53023,-1.05928 -2.4375,-1 -0.75259,0.0462 -1.48302,0.38863 -2,0.9375 L 9.9999985,1014.7372 z m 46.9999995,2 c -4.93503,0 -9,4.06497 -9,9 0,4.93503 4.06497,9 9,9 4.93503,0 9.000001,-4.06497 9.000001,-9 0,-4.93503 -4.064971,-9 -9.000001,-9 z m 0,6 c 1.69239,0 3,1.30761 3,3 0,1.69239 -1.30761,3 -3,3 -1.69239,0 -3,-1.30761 -3,-3 0,-1.69239 1.30761,-3 3,-3 z m -23.0625,13.4375 27.34375,30.56251 -51.2812495,0 0,-4.8438 z m 38.031251,7.96881 18.03125,19.7499 0,2.8438 -20.65625,0 -9.093751,-10.1563 z" fill-opacity="1" stroke="none" marker="none" visibility="visible" display="inline" overflow="visible"></path></g>
</symbol>
<symbol id="inner_row" viewBox="0 0 100 100">
<title>Inner Row</title>
<path d="M87.24,41.86V18.64a2,2,0,0,0-2-2H5.41a2,2,0,0,0-2,2v42a2,2,0,0,0,2,2H50.69a23,23,0,1,0,36.56-20.8ZM7.41,20.64H83.24V39.48a23,23,0,0,0-32.6,19.17H7.41ZM73.58,79.36a19,19,0,1,1,19-19A19,19,0,0,1,73.58,79.36Z"></path><polygon points="75.58 47.75 71.58 47.75 71.58 58.35 60.98 58.35 60.98 62.35 71.58 62.35 71.58 72.96 75.58 72.96 75.58 62.35 86.18 62.35 86.18 58.35 75.58 58.35 75.58 47.75"></polygon>
</symbol>
<symbol id="icon_card" viewBox="0 0 32 32">
<title>icon_card</title>
<path class="path1" d="M10 12h-5.333c-0.368 0-0.667 0.3-0.667 0.667v6.667c0 0.367 0.299 0.667 0.667 0.667h5.333c0.368 0 0.667-0.3 0.667-0.667v-6.667c0-0.367-0.299-0.667-0.667-0.667z"></path>
<path class="path2" d="M31.333 6.667h-30.667c-0.368 0-0.667 0.299-0.667 0.667v17.333c0 0.368 0.299 0.667 0.667 0.667h30.667c0.367 0 0.667-0.299 0.667-0.667v-17.333c0-0.368-0.3-0.667-0.667-0.667zM12 19.333c0 1.103-0.897 2-2 2h-5.333c-1.103 0-2-0.897-2-2v-6.667c0-1.103 0.897-2 2-2h5.333c1.103 0 2 0.897 2 2v6.667zM26.667 18.667h-12c-0.368 0-0.667-0.299-0.667-0.667 0-0.367 0.299-0.667 0.667-0.667h12c0.367 0 0.667 0.3 0.667 0.667 0 0.368-0.3 0.667-0.667 0.667zM26.667 14.667h-12c-0.368 0-0.667-0.299-0.667-0.667 0-0.367 0.299-0.667 0.667-0.667h12c0.367 0 0.667 0.3 0.667 0.667 0 0.368-0.3 0.667-0.667 0.667z"></path>
</symbol>
<symbol id="search_lens">
  <svg xmlns="http://www.w3.org/2000/svg" width="31" height="32" viewBox="0 0 31 32">
    <g fill="none" fill-rule="evenodd" stroke="currentColor" transform="scale(-1 1) rotate(45 -4.01 -16.51)">
      <ellipse cx="10.5" cy="10.606" stroke-width="3" rx="10.5" ry="10.606"/>
      <path stroke-linecap="round" stroke-width="3" d="M11.025,22.8030303 L11.025,34.469697"/>
      <path stroke-linecap="round" stroke-opacity=".48" stroke-width="2" d="M14.5640297,8.27746218 C15.7112174,9.77444486 16.2567573,11.3748113 16.2006493,13.0785615 C16.1445413,14.7823118 15.4937097,16.3791904 14.2481543,17.8691976" transform="rotate(25 15.226 13.073)"/>
    </g>
  </svg>
</symbol>
<symbol id="shopping_cart" >
  <svg xmlns="http://www.w3.org/2000/svg" width="29" height="36" viewBox="0 0 29 36">
    <g fill="none" fill-rule="evenodd" stroke="currentColor" stroke-width="3" transform="translate(0 2)">
      <path d="M4.07301913,9 C3.81297482,9 3.59634176,9.1993312 3.57474625,9.45847726 L1.70072796,31.9466967 C1.69957705,31.9605077 1.69900084,31.9743606 1.69900084,31.9882195 C1.69900084,32.2643619 1.92285847,32.4882195 2.19900084,32.4882195 L26.5473738,32.4882195 C26.5612326,32.4882195 26.5750855,32.4876433 26.5888965,32.4864924 C26.864085,32.46356 27.068579,32.2218853 27.0456466,31.9466967 L25.1716283,9.45847726 C25.1500328,9.1993312 24.9333998,9 24.6733555,9 L4.07301913,9 Z"/>
      <path stroke-linecap="round" d="M8.75,11.5909091 C8.11410478,3.86363636 9.98910478,5.41760616e-16 14.375,0 C18.7608952,0 20.6358952,3.86363636 20,11.5909091"/>
    </g>
  </svg>
</symbol>
<symbol id="lang_selector" >
  <svg xmlns="http://www.w3.org/2000/svg" width="35" height="22" viewBox="0 0 35 22">
    <path fill="currentColor" fill-rule="evenodd" d="M13.1516409,14.9747784 L4.66222191,14.9747784 L2.75558191,20.263269 L0,20.263269 L7.73789667,0 L10.0759662,0 L17.8277799,20.263269 L15.0861151,20.263269 L13.1516409,14.9747784 Z M5.46941257,12.7758797 L12.3583673,12.7758797 L8.90693142,3.29834804 L5.46941257,12.7758797 Z M35,6.94623588 L35,21.2746892 L33.6888997,21.2746892 L33.6888997,20.0759689 L30.0178188,20.0759689 L30.0178188,21.3121492 L28.7254485,21.3121492 L28.7254485,6.94623588 L35,6.94623588 Z M30.0178188,18.8210586 L33.6888997,18.8210586 L33.6888997,8.20114617 L30.0178188,8.20114617 L30.0178188,18.8210586 Z M21.6455069,8.7630463 C21.1772568,9.77446654 20.6528167,10.7109668 20.0721865,11.572547 L18.8921963,10.8233468 C20.1283765,9.02526636 21.0086868,7.0586159 21.5705869,4.9046654 L22.9004172,5.18561547 C22.6756571,5.99100566 22.4321671,6.75893584 22.169947,7.470676 L27.5829183,7.470676 L27.5829183,8.7630463 L24.8483376,8.7630463 C24.8296076,10.1116066 24.7546876,11.3665169 24.6235776,12.4903172 L27.7514883,12.4903172 L27.7514883,13.7826875 L24.4362775,13.7826875 C24.3426275,14.2696676 24.2489775,14.7566477 24.1365975,15.2061678 C25.3353178,16.4236181 26.571498,17.8096384 27.8076783,19.3454988 L27.0022881,20.581679 C25.7286478,18.7835986 24.6610376,17.4163083 23.7807274,16.4423481 C23.0127972,18.5401086 21.6455069,20.300729 19.6601264,21.7242093 L18.7798162,20.6378691 C20.7651967,19.1956587 22.076297,17.3788483 22.7131171,15.1874378 C22.8254972,14.7379177 22.9378772,14.2696676 23.0315272,13.7826875 L19.1169563,13.7826875 L19.1169563,12.4903172 L23.2188273,12.4903172 C23.3686673,11.3665169 23.4435873,10.1116066 23.4623173,8.7630463 L21.6455069,8.7630463 Z"/>
  </svg>
</symbol>
<symbol id="hamburger_menu">
  <svg xmlns="http://www.w3.org/2000/svg" width="35" height="25" viewBox="0 0 35 25">
    <g fill="currentColor" fill-rule="evenodd">
      <rect width="30.625" height="3.448" rx="1.724"/>
      <rect width="30.625" height="3.448" x="4.375" y="10.345" rx="1.724"/>
      <rect width="30.625" height="3.448" y="21.552" rx="1.724"/>
    </g>
  </svg>
</symbol>
<symbol id="horizontal_nav_menu" >
  <svg xmlns="http://www.w3.org/2000/svg" width="33" height="29" viewBox="0 0 33 29">
    <g fill="currentColor" fill-rule="evenodd">
      <g transform="rotate(90 16.5 16.5)">
        <rect width="3" height="20" x="3" y="7" rx="1.5"/>
        <polygon points="4.5 0 9 9 0 9"/>
        <polygon points="4.5 24 9 33 0 33" transform="matrix(1 0 0 -1 0 57)"/>
      </g>
      <rect width="23" height="3" x="5" y="12" fill-opacity=".48" rx="1.5"/>
      <rect width="16" height="3" x="5" y="19" fill-opacity=".48" rx="1.5"/>
      <rect width="9" height="3" x="5" y="26" fill-opacity=".48" rx="1.5"/>
    </g>
  </svg>
</symbol>
<symbol id="vertical_nav_menu" >
  <svg xmlns="http://www.w3.org/2000/svg" width="35" height="33" viewBox="0 0 35 33">
    <g fill="currentColor" fill-rule="evenodd">
      <rect width="3" height="20" x="3" y="7" rx="1.5"/>
      <polygon points="4.5 0 9 9 0 9"/>
      <polygon points="4.5 24 9 33 0 33" transform="matrix(1 0 0 -1 0 57)"/>
      <rect width="23" height="3" x="12" y="8" fill-opacity=".48" rx="1.5"/>
      <rect width="16" height="3" x="12" y="15" fill-opacity=".48" rx="1.5"/>
      <rect width="9" height="3" x="12" y="22" fill-opacity=".48" rx="1.5"/>
    </g>
  </svg>
</symbol>
<symbol id="header_links" >
  <svg xmlns="http://www.w3.org/2000/svg" width="35" height="20" viewBox="0 0 35 20">
    <g fill="none" fill-rule="evenodd" stroke="currentColor" stroke-width="2" transform="rotate(90 17.5 17.5)">
      <rect width="11.276" height="20.931" x="1" y="1" rx="5.638"/>
      <rect width="11.276" height="20.931" x="7.034" y="13.069" rx="5.638"/>
    </g>
  </svg>
</symbol>
<symbol id="header_logo" >
  <svg xmlns="http://www.w3.org/2000/svg" width="35" height="35" viewBox="0 0 35 35">
    <g fill="none" fill-rule="evenodd">
      <rect width="35" height="35" fill="currentColor" fill-opacity=".48"/>
      <path fill="#FFF" d="M27.5320434,8.32 C27.2720421,8.42400052 27.0943773,8.62333186 26.9990434,8.918 C26.9037096,9.21266814 26.8560434,9.68933004 26.8560434,10.348 L26.8560434,23.244 C26.8560434,23.90267 26.9037096,24.3793319 26.9990434,24.674 C27.0943773,24.9686681 27.2763754,25.1679995 27.5450434,25.272 C27.8137115,25.3760005 28.2340406,25.4453332 28.8060434,25.48 L28.8060434,26 C27.8527053,25.9479997 26.4920523,25.922 24.7240434,25.922 C22.8693675,25.922 21.5000479,25.9479997 20.6160434,26 L20.6160434,25.48 C21.2400466,25.4453332 21.695042,25.3760005 21.9810434,25.272 C22.2670449,25.1679995 22.4620429,24.9686681 22.5660434,24.674 C22.670044,24.3793319 22.7220434,23.90267 22.7220434,23.244 L22.7220434,9.646 L16.4560434,26.026 L16.0400434,26.026 L9.02004345,9.282 L9.02004345,21.736 C9.02004345,22.7586718 9.07204293,23.508331 9.17604345,23.985 C9.28004397,24.4616691 9.50537505,24.8083323 9.85204345,25.025 C10.1987118,25.2416678 10.7620395,25.3933329 11.5420434,25.48 L11.5420434,26 C10.8660401,25.9479997 9.93004943,25.922 8.73404345,25.922 C7.78070535,25.922 7.02671289,25.9479997 6.47204345,26 L6.47204345,25.48 C7.04404631,25.3933329 7.46437544,25.246001 7.73304345,25.038 C8.00171146,24.829999 8.18370964,24.5006689 8.27904345,24.05 C8.37437726,23.5993311 8.42204345,22.9320044 8.42204345,22.048 L8.42204345,10.348 C8.42204345,9.68933004 8.37437726,9.21266814 8.27904345,8.918 C8.18370964,8.62333186 8.00171146,8.42400052 7.73304345,8.32 C7.46437544,8.21599948 7.04404631,8.14666684 6.47204345,8.112 L6.47204345,7.592 C7.02671289,7.64400026 7.78070535,7.67 8.73404345,7.67 C10.3287181,7.67 11.6980377,7.64400026 12.8420434,7.592 L18.0940434,20.254 L22.8780434,7.67 L24.7240434,7.67 C26.4920523,7.67 27.8527053,7.64400026 28.8060434,7.592 L28.8060434,8.112 C28.2167072,8.14666684 27.7920447,8.21599948 27.5320434,8.32 Z"/>
    </g>
  </svg>
</symbol>
<symbol id="header_separator" >
  <svg xmlns="http://www.w3.org/2000/svg" width="35" height="29" viewBox="0 0 35 29">
    <g fill="currentColor" fill-rule="evenodd">
      <rect width="2" height="28.269" x="16.154" rx="1"/>
      <path fill-opacity=".48" d="M5.38461538,9.42307692 L9.42307692,9.42307692 L9.42307692,20.1923077 L5.38461538,20.1923077 C2.41077442,20.1923077 3.64190481e-16,17.7815333 0,14.8076923 L0,14.8076923 C-3.64190481e-16,11.8338513 2.41077442,9.42307692 5.38461538,9.42307692 Z" transform="matrix(-1 0 0 1 9.423 0)"/>
      <path fill-opacity=".48" d="M30.9615385,9.42307692 L35,9.42307692 L35,20.1923077 L30.9615385,20.1923077 C27.9876975,20.1923077 25.5769231,17.7815333 25.5769231,14.8076923 L25.5769231,14.8076923 C25.5769231,11.8338513 27.9876975,9.42307692 30.9615385,9.42307692 Z"/>
    </g>
  </svg>
</symbol>
<symbol id="skills" viewBox="0 0 32 32">
<title>skills</title>
<path class="path1" d="M27.171 11.741h-22.342c-0.883 0.003-1.597 0.717-1.6 1.6v5.338c0.003 0.883 0.717 1.597 1.6 1.6h22.342c0.883-0.003 1.597-0.717 1.6-1.6v-5.338c-0.003-0.883-0.717-1.597-1.6-1.6zM4.602 18.902c-0.061-0.061-0.093-0.138-0.093-0.224v-1.299l4.358-4.358h1.821l-5.955 5.955c-0.048-0.013-0.093-0.038-0.131-0.074zM12.499 13.021h1.811l-5.978 5.978h-1.811l5.978-5.978zM16.118 13.021h1.811l-5.978 5.978h-1.811l5.978-5.978zM19.722 13.037v1.786l-4.173 4.176h-1.786l5.958-5.962zM19.722 16.634v2.365h-2.365l2.365-2.365zM4.602 13.117c0.061-0.061 0.138-0.093 0.227-0.096h2.227l-2.547 2.547v-2.227c0-0.086 0.035-0.163 0.093-0.224zM27.398 18.902c-0.061 0.061-0.138 0.093-0.224 0.096h-6.173v-5.978h6.17c0.086 0 0.163 0.035 0.224 0.096s0.093 0.138 0.096 0.224v5.338c0 0.086-0.035 0.163-0.093 0.224z"></path>
</symbol>
<symbol id = "gallery" viewBox = "0 0 35 35">
  <g>
    <path d="M29.75,0 L5.25,0 C2.275,0 0,2.275 0,5.25 L0,29.75 C0,32.725 2.275,35 5.25,35 L29.75,35 C32.725,35 35,32.725 35,29.75 L35,5.25 C35,2.275 32.725,0 29.75,0 Z M3.5,5.25 C3.5,4.2 4.2,3.5 5.25,3.5 L29.75,3.5 C30.8,3.5 31.5,4.2 31.5,5.25 L31.5,18.55 L25.725,12.775 C25.025,12.075 23.975,12.075 23.275,12.775 L4.725,31.325 C4.025,31.15 3.5,30.45 3.5,29.75 L3.5,5.25 Z M29.75,31.5 L9.45,31.5 L24.5,16.45 L31.5,23.45 L31.5,29.75 C31.5,30.8 30.8,31.5 29.75,31.5 Z"/>
    <path d="M11.375,15.75 C13.825,15.75 15.75,13.825 15.75,11.375 C15.75,8.925 13.825,7 11.375,7 C8.925,7 7,8.925 7,11.375 C7,13.825 8.925,15.75 11.375,15.75 Z M11.375,9.25 C12.65,9.25 13.5,10.1 13.5,11.375 C13.5,12.65 12.65,13.5 11.375,13.5 C10.1,13.5 9.25,12.65 9.25,11.375 C9.25,10.1 10.1,9.25 11.375,9.25 Z"/>
  </g>
</symbol>
<symbol id = "accordion" viewBox="0 0 35 28">
  <g fill-rule="evenodd">
    <polygon points="34.926 3.636 32.371 3.636 32.371 6.15 31.192 6.15 31.192 3.636 28.636 3.636 28.636 2.527 31.192 2.527 31.192 0 32.371 0 32.371 2.527 34.926 2.527"/>
    <polygon points="34.926 26.564 28.636 26.564 28.636 25.455 34.926 25.455"/>
    <rect width="24.394" height="3.182" y="1.061" rx="1.591"/>
    <rect width="24.394" height="3.182" y="24.394" rx="1.591"/>
    <rect width="25.515" height="1.121" x=".5" y="10.045" stroke="currentColor" stroke-opacity=".48" rx=".561"/>
    <rect width="20.212" height="1.121" x=".5" y="16.409" stroke="currentColor" stroke-opacity=".48" rx=".561"/>
  </g>
</symbol>

<symbol id = "image_carousel" viewBox="0 0 26 35">
    <g fill-rule="evenodd">
        <g fill-rule="nonzero">
            <path d="M21.5431034,0 L3.80172414,0 C1.64741379,0 0,1.64741379 0,3.80172414 L0,21.5431034 C0,23.6974138 1.64741379,25.3448276 3.80172414,25.3448276 L21.5431034,25.3448276 C23.6974138,25.3448276 25.3448276,23.6974138 25.3448276,21.5431034 L25.3448276,3.80172414 C25.3448276,1.64741379 23.6974138,0 21.5431034,0 Z M2.53448276,3.80172414 C2.53448276,3.04137931 3.04137931,2.53448276 3.80172414,2.53448276 L21.5431034,2.53448276 C22.3034483,2.53448276 22.8103448,3.04137931 22.8103448,3.80172414 L22.8103448,13.4327586 L18.6284483,9.25086207 C18.1215517,8.74396552 17.3612069,8.74396552 16.8543103,9.25086207 L3.42155172,22.6836207 C2.91465517,22.5568966 2.53448276,22.05 2.53448276,21.5431034 L2.53448276,3.80172414 Z M21.5431034,22.8103448 L6.84310345,22.8103448 L17.7413793,11.912069 L22.8103448,16.9810345 L22.8103448,21.5431034 C22.8103448,22.3034483 22.3034483,22.8103448 21.5431034,22.8103448 Z"/>
            <path d="M7.84482759,10.862069 C9.53448276,10.862069 10.862069,9.53448276 10.862069,7.84482759 C10.862069,6.15517241 9.53448276,4.82758621 7.84482759,4.82758621 C6.15517241,4.82758621 4.82758621,6.15517241 4.82758621,7.84482759 C4.82758621,9.53448276 6.15517241,10.862069 7.84482759,10.862069 Z M7.84482759,6.37931034 C8.72413793,6.37931034 9.31034483,6.96551724 9.31034483,7.84482759 C9.31034483,8.72413793 8.72413793,9.31034483 7.84482759,9.31034483 C6.96551724,9.31034483 6.37931034,8.72413793 6.37931034,7.84482759 C6.37931034,6.96551724 6.96551724,6.37931034 7.84482759,6.37931034 Z"/>
        </g>
        <rect width="6.034" height="4.828" y="30.172" rx="2.414"/>
        <rect width="6.034" height="4.828" x="9.655" y="30.172" fill-opacity=".48" rx="2.414"/>
        <rect width="6.034" height="4.828" x="19.31" y="30.172" fill-opacity=".48" rx="2.414"/>
    </g>
</symbol>

<symbol id = "icon_card" viewBox = "0 0 37 27">
  <g fill-rule="evenodd" transform="translate(1)">
    <rect width="9.333" height="9.333" rx="4.667"/>
    <rect width="19.833" height="4.667" x="12.833" y="2.333" rx="2.333"/>
    <rect width="35" height="3.5" y="14" rx="1.75"/>
    <rect width="24.5" height="3.5" y="22.167" rx="1.75"/>
  </g>
</symbol>
<symbol id = "interactive_box" viewBox = "0 0 31 35">
  <g fill-rule="evenodd">
    <rect width="21.761" height="20.481" x="5.12" y="14.519" opacity=".3" rx="2"/>
    <rect width="26.881" height="25.601" x="2.56" y="6.62" opacity=".6" rx="2"/>
    <rect width="30.721" height="28.44" rx="3"/>
  </g>
</symbol>
<symbol id = "process" viewBox = "0 0 35 7">
  <g fill-rule="evenodd">
    <path stroke-dasharray="1 1 1 2" stroke-linecap="square" d="M3.38888889,3.16666667 L32.1666667,3.16666667"/>
    <circle cx="31.889" cy="3.111" r="3.111" fill="currentColor"/>
    <circle cx="17.889" cy="3.111" r="3.111" fill="currentColor"/>
    <circle cx="3.111" cy="3.111" r="3.111" fill="currentColor"/>
  </g>
</symbol>
<symbol id = "special_title" viewBox = "0 0 35 19">
  <g>
    <path d="M17.1888889 0L1.01111111 0C.404444444 0 0 .404444444 0 1.01111111L0 4.04444444C0 4.65111111.404444444 5.05555556 1.01111111 5.05555556 1.61777778 5.05555556 2.02222222 4.65111111 2.02222222 4.04444444L2.02222222 2.02222222 8.08888889 2.02222222 8.08888889 16.1777778 6.06666667 16.1777778C5.46 16.1777778 5.05555556 16.5822222 5.05555556 17.1888889 5.05555556 17.7955556 5.46 18.2 6.06666667 18.2L12.1333333 18.2C12.74 18.2 13.1444444 17.7955556 13.1444444 17.1888889 13.1444444 16.5822222 12.74 16.1777778 12.1333333 16.1777778L10.1111111 16.1777778 10.1111111 2.02222222 16.1777778 2.02222222 16.1777778 4.04444444C16.1777778 4.65111111 16.5822222 5.05555556 17.1888889 5.05555556 17.7955556 5.05555556 18.2 4.65111111 18.2 4.04444444L18.2 1.01111111C18.2.404444444 17.7955556 0 17.1888889 0zM32.8272003 8.4L18.5808 8.4C17.51232 8.4 16.8 8.96 16.8 9.8 16.8 10.64 17.51232 11.2 18.5808 11.2L32.8272003 11.2C33.8956804 11.2 34.6080004 10.64 34.6080004 9.8 34.6080004 8.96 33.8956804 8.4 32.8272003 8.4zM26.5271997 15.4L17.8808 15.4C17.23232 15.4 16.8 15.96 16.8 16.8 16.8 17.64 17.23232 18.2 17.8808 18.2L26.5271997 18.2C27.1756797 18.2 27.6079997 17.64 27.6079997 16.8 27.6079997 15.96 27.1756797 15.4 26.5271997 15.4zM32.1271997 1.4L23.4808 1.4C22.83232 1.4 22.4 1.96 22.4 2.8 22.4 3.64 22.83232 4.2 23.4808 4.2L32.1271997 4.2C32.7756797 4.2 33.2079997 3.64 33.2079997 2.8 33.2079997 1.96 32.7756797 1.4 32.1271997 1.4z"/>
  </g>
</symbol>
<symbol id = "star_rating" viewBox = "0 0 34 26">
  <g>
    <path d="M16.0394648,6.32163434 C15.9686742,6.03847229 15.7563027,5.89689126 15.4731407,5.82610075 L10.9425478,5.18898613 L8.88962298,1.0831364 C8.67725144,0.587602807 7.82776528,0.587602807 7.61539375,1.0831364 L5.56246888,5.11819562 L1.10266658,5.82610075 C0.819504525,5.82610075 0.607132987,6.03847229 0.465551962,6.32163434 C0.394761449,6.60479639 0.465551962,6.88795844 0.6779235,7.02953946 L3.93428709,10.2151125 L3.15559145,14.7457054 C3.08480093,15.0288674 3.22638196,15.3120295 3.4387535,15.4536105 C3.65112503,15.5951915 3.93428709,15.665982 4.21744914,15.524401 L8.25250836,13.4006856 L12.2875676,15.524401 C12.4291486,15.524401 12.4999391,15.524401 12.6415202,15.524401 C12.7831012,15.524401 12.9246822,15.4536105 13.0662632,15.38282 C13.2786348,15.2412389 13.4202158,14.9580769 13.3494253,14.6749148 L12.5707296,10.144322 L15.8270932,6.95874895 C16.0394648,6.81716793 16.1102553,6.53400588 16.0394648,6.32163434 Z" transform="translate(8.574)"/>
    <path d="M11.247583,4.24497019 C11.1965446,4.03071302 11.0434295,3.92358443 10.839276,3.87002014 L7.57281965,3.38794151 L6.09270662,0.281212536 C5.93959148,-0.093737512 5.32713092,-0.093737512 5.17401578,0.281212536 L3.69390276,3.33437721 L0.478484813,3.87002014 C0.274331293,3.87002014 0.121216153,4.03071302 0.0191393925,4.24497019 C-0.0318989876,4.45922736 0.0191393925,4.67348453 0.172254533,4.78061311 L2.52002002,7.19100628 L1.95859784,10.619121 C1.90755946,10.8333782 2.00963622,11.0476353 2.16275136,11.1547639 C2.3158665,11.2618925 2.52002002,11.3154568 2.72417354,11.2083282 L5.6333612,9.60139945 L8.54254887,11.2083282 C8.64462563,11.2083282 8.69566401,11.2083282 8.79774077,11.2083282 C8.89981753,11.2083282 9.00189429,11.1547639 9.10397105,11.1011996 C9.25708619,10.9940711 9.35916295,10.7798139 9.30812457,10.5655567 L8.74670239,7.13744199 L11.0944679,4.72704882 C11.247583,4.61992024 11.2986214,4.40566307 11.247583,4.24497019 Z M7.82801155,6.60179906 C7.72593479,6.76249194 7.67489641,6.92318482 7.67489641,7.0838777 L8.08320345,9.70852803 L5.83751472,8.4765493 C5.68439958,8.36942072 5.53128444,8.36942072 5.3781693,8.4765493 L3.13248058,9.70852803 L3.591826,7.0838777 C3.591826,6.92318482 3.54078762,6.76249194 3.43871086,6.60179906 L1.60132918,4.78061311 L4.1022098,4.40566307 C4.25532494,4.40566307 4.40844008,4.24497019 4.51051684,4.1378416 L5.6333612,1.72744844 L6.75620557,4.08427731 C6.80724395,4.24497019 6.96035909,4.35209877 7.16451261,4.35209877 L9.66539323,4.72704882 L7.82801155,6.60179906 Z" transform="translate(22.387 14.018)"/>
    <path d="M11.247583,4.24497019 C11.1965446,4.03071302 11.0434295,3.92358443 10.839276,3.87002014 L7.57281965,3.38794151 L6.09270662,0.281212536 C5.93959148,-0.093737512 5.32713092,-0.093737512 5.17401578,0.281212536 L3.69390276,3.33437721 L0.478484813,3.87002014 C0.274331293,3.87002014 0.121216153,4.03071302 0.0191393925,4.24497019 C-0.0318989876,4.45922736 0.0191393925,4.67348453 0.172254533,4.78061311 L2.52002002,7.19100628 L1.95859784,10.619121 C1.90755946,10.8333782 2.00963622,11.0476353 2.16275136,11.1547639 C2.3158665,11.2618925 2.52002002,11.3154568 2.72417354,11.2083282 L5.6333612,9.60139945 L8.54254887,11.2083282 C8.64462563,11.2083282 8.69566401,11.2083282 8.79774077,11.2083282 C8.89981753,11.2083282 9.00189429,11.1547639 9.10397105,11.1011996 C9.25708619,10.9940711 9.35916295,10.7798139 9.30812457,10.5655567 L8.74670239,7.13744199 L11.0944679,4.72704882 C11.247583,4.61992024 11.2986214,4.40566307 11.247583,4.24497019 Z M7.82801155,6.60179906 C7.72593479,6.76249194 7.67489641,6.92318482 7.67489641,7.0838777 L8.08320345,9.70852803 L5.83751472,8.4765493 C5.68439958,8.36942072 5.53128444,8.36942072 5.3781693,8.4765493 L3.13248058,9.70852803 L3.591826,7.0838777 C3.591826,6.92318482 3.54078762,6.76249194 3.43871086,6.60179906 L1.60132918,4.78061311 L4.1022098,4.40566307 C4.25532494,4.40566307 4.40844008,4.24497019 4.51051684,4.1378416 L5.6333612,1.72744844 L6.75620557,4.08427731 C6.80724395,4.24497019 6.96035909,4.35209877 7.16451261,4.35209877 L9.66539323,4.72704882 L7.82801155,6.60179906 Z" transform="translate(0 14.018)"/>
  </g>
</symbol>
<symbol id = "tabs" viewBox = "0 0 35 33">
  <g fill-rule="evenodd">
    <rect width="13.837" height="5" rx="2.5"/>
    <rect width="34" height="2" x=".5" y="9.5" rx="1"/>
    <rect width="34" height="2" x=".5" y="16.5" rx="1"/>
    <rect width="23.419" height="2" x=".5" y="23.5" rx="1"/>
    <rect width="14.465" height="2" x=".5" y="30.5" rx="1"/>
    <rect width="8.14" height="5" x="16.279" fill-opacity=".481" rx="2.5"/>
    <rect width="8.14" height="5" x="26.86" fill-opacity=".481" rx="2.5"/>
  </g>
</symbol>
<symbol id = "team" viewBox = "0 0 35 30">
  <g>
    <path d="M18.9583333 17.5L7.29166667 17.5C3.20833333 17.5 0 20.7083333 0 24.7916667L0 27.7083333C0 28.5833333.583333333 29.1666667 1.45833333 29.1666667 2.33333333 29.1666667 2.91666667 28.5833333 2.91666667 27.7083333L2.91666667 24.7916667C2.91666667 22.3125 4.8125 20.4166667 7.29166667 20.4166667L18.9583333 20.4166667C21.4375 20.4166667 23.3333333 22.3125 23.3333333 24.7916667L23.3333333 27.7083333C23.3333333 28.5833333 23.9166667 29.1666667 24.7916667 29.1666667 25.6666667 29.1666667 26.25 28.5833333 26.25 27.7083333L26.25 24.7916667C26.25 20.7083333 23.0416667 17.5 18.9583333 17.5zM13.125 14.5833333C17.2083333 14.5833333 20.4166667 11.375 20.4166667 7.29166667 20.4166667 3.20833333 17.2083333 0 13.125 0 9.04166667 0 5.83333333 3.20833333 5.83333333 7.29166667 5.83333333 11.375 9.04166667 14.5833333 13.125 14.5833333zM13.125 2.91666667C15.6041667 2.91666667 17.5 4.8125 17.5 7.29166667 17.5 9.77083333 15.6041667 11.6666667 13.125 11.6666667 10.6458333 11.6666667 8.75 9.77083333 8.75 7.29166667 8.75 4.8125 10.6458333 2.91666667 13.125 2.91666667zM29.4583333 17.7916667C28.7291667 17.6458333 27.8541667 18.0833333 27.7083333 18.8125 27.5625 19.5416667 28 20.4166667 28.7291667 20.5625 30.625 21 31.9375 22.75 31.9375 24.7916667L31.9375 27.7083333C31.9375 28.5833333 32.5208333 29.1666667 33.3958333 29.1666667 34.2708333 29.1666667 34.8541667 28.5833333 34.8541667 27.7083333L34.8541667 24.7916667C35 21.4375 32.8125 18.5208333 29.4583333 17.7916667zM23.625.291666667C22.8958333-8.32667268e-17 22.1666667.4375 21.875 1.3125 21.7291667 2.04166667 22.1666667 2.91666667 22.8958333 3.0625 25.2291667 3.64583333 26.6875 5.97916667 26.1041667 8.45833333 25.6666667 10.0625 24.5 11.2291667 22.8958333 11.6666667 22.1666667 11.8125 21.5833333 12.6875 21.875 13.4166667 22.0208333 14.1458333 22.6041667 14.5833333 23.3333333 14.5833333 23.4791667 14.5833333 23.625 14.5833333 23.625 14.5833333 26.25 13.8541667 28.2916667 11.9583333 28.875 9.33333333 29.8958333 5.25 27.5625 1.16666667 23.625.291666667z"/>
  </g>
</symbol>
<symbol id = "testimonial" viewBox = "0 0 35 27">
  <path fill-rule="evenodd" d="M17.5,25.8695652 C15.1272596,25.8695652 12.8648106,25.520538 10.8015042,24.8881564 C9.73619687,24.5616509 8.72397639,24.1596098 7.77707192,23.6910718 C7.14085113,23.3762633 4.54849383,24.499069 0,27.0594889 C2.39083299,22.9042762 3.37329079,20.5915448 2.94737342,20.1212947 C2.31346915,19.4214088 1.7695311,18.6732458 1.32778843,17.8858447 C0.47221326,16.3607922 7.88084875e-14,14.6885472 7.88084875e-14,12.9347826 C7.88084875e-14,5.79109943 7.83501688,0 17.5,0 C27.1649831,0 35,5.79109943 35,12.9347826 C35,20.0784658 27.1649831,25.8695652 17.5,25.8695652 Z M11.6666667,10.0611004 C12.5937346,10.2357654 13.2453596,10.9075437 13.6215611,12.0764555 C13.8096618,12.6541935 13.9037108,13.2252051 13.9037108,13.7895074 C13.9037108,13.8566862 13.9003519,13.9137874 13.893634,13.9608125 C13.8869162,14.0078377 13.8768395,14.1119634 13.8634037,14.2731926 L11.6666667,14.2731926 L11.6666667,18.6666667 L15.959373,18.6666667 L15.959373,14.6158029 C15.959373,12.6273093 15.5630238,11.0956548 14.7703135,10.0207933 C13.9776032,8.94593193 12.9430646,8.32789588 11.6666667,8.16666667 L11.6666667,10.0611004 Z M18.4382598,10.0611004 C19.177227,10.1820224 19.7381619,10.5985249 20.1210813,11.3106206 C20.5040006,12.0227163 20.6954575,12.8422858 20.6954575,13.7693538 C20.6954575,13.8499684 20.6920986,13.9305818 20.6853807,14.0111964 C20.6786628,14.091811 20.6618683,14.1791422 20.6349968,14.2731926 L18.4382598,14.2731926 L18.4382598,18.6666667 L22.7511196,18.6666667 L22.7511196,14.6158029 C22.7511196,13.0169466 22.4152305,11.5894177 21.7434421,10.3331734 C21.0716537,9.0769291 19.9699373,8.35476742 18.4382598,8.16666667 L18.4382598,10.0611004 Z" transform="matrix(-1 0 0 1 35 0)"/>

</symbol>
<symbol id="svg_icon" viewBox="0 0 50 50">
    <path d="M42.042,13.723c-0.124,0.017-0.247,0.037-0.383,0.037c-0.089,0-0.167-0.018-0.251-0.025v30.859c0,1.102-0.896,2-2,2H10.575  c-1.103,0-2-0.898-2-2V5.426c0-1.103,0.897-2,2-2h22.519c-0.653-0.454-0.991-1.219-1.014-2H10.575c-2.205,0-4,1.794-4,4v39.167  c0,2.205,1.795,4,4,4h28.833c2.207,0,4-1.795,4-4v-30.09C42.817,14.401,42.362,14.115,42.042,13.723z"></path><path d="M42.407,15.531c-0.004,0-0.012,0.001-0.021,0H32.21c-0.563,0-1.018-0.448-1.018-1V2.407c0-0.422,0.27-0.798,0.674-0.941  c0.402-0.144,0.855-0.021,1.129,0.305L43.067,13.77c0.22,0.184,0.357,0.457,0.357,0.762C43.425,15.083,42.97,15.531,42.407,15.531z   M33.228,13.531h7.001l-7.001-8.34V13.531z"></path><path d="M34.213,32.635H15.771c-2.206,0-4-1.794-4-4V23.26c0-2.206,1.794-4,4-4h18.441c2.206,0,4,1.794,4,4v5.375  C38.213,30.841,36.419,32.635,34.213,32.635z M15.771,21.26c-1.103,0-2,0.897-2,2v5.375c0,1.103,0.897,2,2,2h18.441  c1.103,0,2-0.897,2-2V23.26c0-1.103-0.897-2-2-2H15.771z"></path><path d="M20.59,24.108c-0.045,0.072-0.092,0.126-0.142,0.162s-0.113,0.054-0.191,0.054c-0.069,0-0.143-0.022-0.223-0.065  s-0.169-0.092-0.27-0.146c-0.101-0.054-0.215-0.103-0.344-0.146s-0.276-0.065-0.441-0.065c-0.285,0-0.497,0.061-0.637,0.183  c-0.14,0.121-0.209,0.286-0.209,0.493c0,0.132,0.042,0.241,0.126,0.328c0.084,0.087,0.194,0.162,0.331,0.225  c0.136,0.063,0.292,0.121,0.468,0.173c0.176,0.053,0.355,0.111,0.538,0.175c0.183,0.064,0.362,0.141,0.538,0.228  c0.175,0.087,0.332,0.198,0.468,0.333c0.137,0.135,0.247,0.299,0.331,0.492s0.126,0.428,0.126,0.7c0,0.304-0.053,0.587-0.158,0.851  s-0.257,0.494-0.457,0.691c-0.2,0.195-0.446,0.35-0.738,0.463c-0.292,0.112-0.625,0.169-0.997,0.169  c-0.204,0-0.412-0.021-0.623-0.063c-0.212-0.042-0.417-0.102-0.614-0.178c-0.198-0.076-0.384-0.167-0.558-0.271  c-0.174-0.105-0.326-0.223-0.455-0.352l0.45-0.711c0.036-0.051,0.083-0.094,0.142-0.129c0.059-0.033,0.122-0.051,0.191-0.051  c0.09,0,0.181,0.028,0.272,0.085c0.092,0.058,0.195,0.12,0.311,0.188c0.116,0.07,0.248,0.133,0.398,0.189  c0.15,0.057,0.327,0.086,0.531,0.086c0.276,0,0.491-0.061,0.644-0.183s0.229-0.313,0.229-0.578c0-0.153-0.042-0.277-0.126-0.374  c-0.084-0.096-0.194-0.175-0.331-0.238c-0.137-0.063-0.292-0.118-0.466-0.166c-0.174-0.049-0.353-0.102-0.536-0.16  s-0.361-0.131-0.536-0.216c-0.174-0.085-0.329-0.198-0.465-0.337c-0.137-0.141-0.247-0.314-0.331-0.522  c-0.084-0.208-0.126-0.466-0.126-0.772c0-0.246,0.05-0.486,0.148-0.72c0.099-0.234,0.245-0.442,0.437-0.625s0.428-0.329,0.707-0.439  c0.279-0.109,0.599-0.164,0.958-0.164c0.201,0,0.397,0.016,0.587,0.047c0.19,0.031,0.371,0.078,0.542,0.139  c0.171,0.062,0.331,0.135,0.479,0.221s0.281,0.182,0.398,0.29L20.59,24.108z"></path><path d="M27.686,22.776l-2.627,6.557h-1.377l-2.628-6.557h1.224c0.132,0,0.239,0.031,0.319,0.092  c0.081,0.062,0.143,0.14,0.185,0.236l1.27,3.51c0.06,0.152,0.118,0.32,0.176,0.502c0.057,0.182,0.109,0.371,0.162,0.568  c0.041-0.197,0.088-0.387,0.141-0.568s0.109-0.35,0.17-0.502l1.26-3.51c0.033-0.084,0.092-0.16,0.178-0.227  c0.084-0.068,0.191-0.102,0.316-0.102H27.686z"></path><path d="M31.115,25.936h2.331v2.768c-0.336,0.246-0.693,0.424-1.073,0.535c-0.379,0.111-0.776,0.167-1.19,0.167  c-0.54,0-1.031-0.085-1.474-0.255c-0.442-0.169-0.821-0.403-1.136-0.701c-0.315-0.299-0.559-0.652-0.729-1.063  s-0.256-0.854-0.256-1.334c0-0.489,0.081-0.938,0.242-1.348c0.162-0.409,0.395-0.763,0.695-1.06  c0.302-0.297,0.666-0.528,1.094-0.693s0.905-0.248,1.434-0.248c0.272,0,0.529,0.022,0.77,0.067s0.461,0.106,0.663,0.185  c0.203,0.078,0.388,0.171,0.557,0.279c0.168,0.108,0.317,0.225,0.449,0.351l-0.44,0.67c-0.069,0.105-0.158,0.17-0.268,0.194  c-0.11,0.024-0.228-0.003-0.354-0.081c-0.12-0.072-0.233-0.134-0.34-0.187c-0.106-0.052-0.216-0.095-0.326-0.128  c-0.111-0.033-0.229-0.057-0.352-0.072c-0.123-0.015-0.261-0.022-0.413-0.022c-0.285,0-0.542,0.05-0.77,0.151  c-0.229,0.101-0.423,0.242-0.583,0.425c-0.161,0.183-0.284,0.403-0.371,0.659s-0.131,0.542-0.131,0.857  c0,0.348,0.048,0.656,0.144,0.927c0.097,0.271,0.232,0.498,0.408,0.685c0.175,0.186,0.385,0.327,0.63,0.425  c0.244,0.098,0.515,0.146,0.812,0.146c0.184,0,0.349-0.018,0.498-0.053c0.148-0.037,0.293-0.084,0.434-0.145v-0.994h-0.647  c-0.097,0-0.171-0.025-0.226-0.077c-0.054-0.051-0.081-0.115-0.081-0.193V25.936z"></path>
</symbol>  
<symbol id = "modules_background_video" viewBox = "0 0 15 15">
  <path fill-rule="evenodd" clip-rule="evenodd" d="M12.8181 0H2.18194C0.954694 0 0 0.954694 0 2.18194V12.8181C0 14.0453 0.954694 15 2.18194 15H12.8181C14.0453 15 15 14.0453 15 12.8181V2.18194C15 0.954694 14.0453 0 12.8181 0ZM11.5908 4.77245H13.6362V6.81786H11.5908V4.77245ZM4.77245 6.81786H10.227V1.36326H4.77245V6.81786ZM3.40918 6.81786H1.36378V4.77245H3.40918V6.81786ZM3.40918 8.18163H1.36378V10.227H3.40918V8.18163ZM4.77296 8.18163H10.2276V13.6362H4.77296V8.18163ZM13.6362 8.18163H11.5908V10.227H13.6362V8.18163ZM13.6362 2.18194V3.40918H11.5908V1.36378H12.8181C13.2952 1.36378 13.6362 1.70485 13.6362 2.18194ZM3.40918 1.36378H2.18194C1.70485 1.36378 1.36378 1.70485 1.36378 2.18194V3.40918H3.40918V1.36378ZM1.36378 12.8181V11.5908H3.40918V13.6362H2.18194C1.70485 13.6362 1.36378 13.2952 1.36378 12.8181ZM11.5908 13.6362H12.8181C13.2952 13.6362 13.6362 13.2952 13.6362 12.8181V11.5908H11.5908V13.6362Z" />
</symbol>
<symbol id = "modules_background_color" viewBox = "0 0 15 15">
  <path fill-rule="evenodd" clip-rule="evenodd" d="M5.7 6.82265C7.62 4.93452 14.0719 -0.234851 14.6541 0.337962V0.33843C15.2377 0.910774 9.97875 7.2539 8.05781 9.14109C7.27551 9.90915 6.79109 10.258 6.43107 10.5173C6.35253 10.5739 6.27991 10.6262 6.2114 10.6776C6.06505 10.7879 6.00817 10.6716 5.96942 10.5923C5.96435 10.582 5.9596 10.5722 5.955 10.5637C5.76 10.192 5.57812 9.93234 5.23593 9.59718C4.89468 9.26202 4.63031 9.08343 4.2525 8.88984C4.24394 8.8854 4.23413 8.88081 4.22365 8.87591C4.14341 8.8384 4.02441 8.78276 4.13718 8.63765C4.18981 8.56997 4.24329 8.49813 4.3012 8.42033C4.56418 8.06709 4.91864 7.59094 5.7 6.82265ZM1.38677 11.6539C1.46811 11.0658 1.54118 10.5375 2.07234 10.0158H2.07187C2.80406 9.29484 3.8714 9.49874 4.65656 10.2698C5.44218 11.0423 5.6489 12.0905 4.91625 12.8114C3.19078 14.5083 -0.293909 14.7422 0.387185 13.9748C1.19072 13.0712 1.29411 12.3238 1.38677 11.6539Z"/>
</symbol>
<symbol id = "modules_background_image" viewBox = "0 0 15 15">
  <path fill-rule="evenodd" clip-rule="evenodd" d="M12.75 0H2.24997C0.9748 0 0 0.9748 0 2.24997V12.75C0 14.0252 0.9748 15 2.24997 15H12.75C14.0252 15 15 14.0252 15 12.75V2.24997C15 0.9748 14.0252 0 12.75 0ZM1.50017 2.24997C1.50017 1.79998 1.79998 1.50017 2.24997 1.50017H12.75C13.2 1.50017 13.4998 1.79998 13.4998 2.24997V7.94971L11.0249 5.47474C10.7251 5.17494 10.2751 5.17494 9.97469 5.47474L2.02497 13.4245C1.72517 13.3496 1.50017 13.0493 1.50017 12.7495V2.24997ZM4.04995 13.4998H12.75V13.4993C13.2 13.4993 13.4998 13.1995 13.4998 12.7495V10.0495L10.5001 7.04972L4.04995 13.4998ZM4.87513 6.74992C5.9253 6.74992 6.74992 5.92474 6.74992 4.87513C6.74992 3.82551 5.92474 3.00034 4.87513 3.00034C3.82551 3.00034 3.00034 3.82551 3.00034 4.87513C3.00034 5.92474 3.82551 6.74992 4.87513 6.74992ZM5.25031 4.87513C5.25031 4.65013 5.10012 4.49994 4.87513 4.49994C4.65013 4.49994 4.49994 4.65013 4.49994 4.87513C4.49994 5.10012 4.65013 5.25031 4.87513 5.25031C5.10012 5.25031 5.25031 5.10012 5.25031 4.87513Z"/>
</symbol>
<symbol id = "animated_link" viewBox = "0 0 35 35">
<path d="M28.133 4.4c-3.067-3.067-8-3.067-11.067 0l-2.4 2.267c-0.533 0.533-0.533 1.333 0 1.867s1.333 0.533 1.867 0l2.267-2.267c2.133-2 5.333-2 7.467 0s2.133 5.467 0.133 7.467l-4 4c-0.133 0.133-0.4 0.4-0.533 0.533-2.4 1.733-5.733 1.333-7.467-1.067-0.4-0.533-1.333-0.667-1.867-0.267s-0.667 1.333-0.267 1.867c1.6 2.133 4 3.2 6.4 3.2 1.6 0 3.333-0.533 4.8-1.6 0.267-0.267 0.533-0.533 0.933-0.8l4-4c3.067-3.067 2.933-8.267-0.267-11.2zM15.333 24.8l-2.267 2.267c-2.133 2-5.333 2-7.467 0s-2.133-5.467-0.133-7.467l4-4c0.133-0.133 0.4-0.4 0.533-0.533 1.2-0.8 2.533-1.2 4-1.067 1.467 0.267 2.667 0.933 3.467 2.133 0.4 0.533 1.333 0.667 1.867 0.267s0.667-1.333 0.267-1.867c-1.333-1.733-3.2-2.8-5.2-3.067-2-0.4-4.133 0.133-5.867 1.467-0.267 0.267-0.533 0.533-0.8 0.8l-4 4c-3.067 3.2-2.933 8.267 0.133 11.333 1.6 1.467 3.6 2.267 5.6 2.267s4-0.8 5.6-2.267l2.267-2.267c0.533-0.533 0.533-1.333 0-1.867s-1.467-0.667-2-0.133z"></path>
</symbol>
<symbol id = "multi_layer_image" viewBox = "0 0 35 35">
<path d="M34 4h-2v-2c0-1.1-0.9-2-2-2h-28c-1.1 0-2 0.9-2 2v24c0 1.1 0.9 2 2 2h2v2c0 1.1 0.9 2 2 2h28c1.1 0 2-0.9 2-2v-24c0-1.1-0.9-2-2-2zM4 6v20h-1.996c-0.001-0.001-0.003-0.002-0.004-0.004v-23.993c0.001-0.001 0.002-0.003 0.004-0.004h27.993c0.001 0.001 0.003 0.002 0.004 0.004v1.996h-24c-1.1 0-2 0.9-2 2v0zM34 29.996c-0.001 0.001-0.002 0.003-0.004 0.004h-27.993c-0.001-0.001-0.003-0.002-0.004-0.004v-23.993c0.001-0.001 0.002-0.003 0.004-0.004h27.993c0.001 0.001 0.003 0.002 0.004 0.004v23.993z"></path>
<path d="M30 11c0 1.657-1.343 3-3 3s-3-1.343-3-3 1.343-3 3-3 3 1.343 3 3z"></path>
<path d="M32 28h-24v-4l7-12 8 10h2l7-6z"></path>
</symbol>
<symbol id = "typed_text" viewBox = "-10 -5 35 35">
<path d="M13 2c-3.313 0-5 1.172-5 3.5v6.5h2v2h-2v8.5c0 2.328 1.687 3.5 5 3.5h1v2h-1c-2.812 0-4.875-0.812-6-2.281-1.125 1.469-3.187 2.281-6 2.281h-1v-2h1c3.313 0 5-1.172 5-3.5v-8.5h-2v-2h2v-6.5c0-2.328-1.687-3.5-5-3.5h-1v-2h1c2.812 0 4.875 0.812 6 2.281 1.125-1.469 3.187-2.281 6-2.281h1v2h-1z"></path>
</symbol>
<symbol id="sidebar" viewBox="0 0 32 32">
    <title>sidebar</title>
<path d="M25.333 3.333h-18.667c-2.267 0-4 1.733-4 4v18.667c0 2.267 1.733 4 4 4h18.667c2.267 0 4-1.733 4-4v-18.667c0-2.267-1.733-4-4-4zM5.333 26v-18.667c0-0.8 0.533-1.333 1.333-1.333h4v21.333h-4c-0.8 0-1.333-0.533-1.333-1.333zM26.667 26c0 0.8-0.533 1.333-1.333 1.333h-12v-21.333h12c0.8 0 1.333 0.533 1.333 1.333v18.667z"></path>
</symbol>
<symbol id = "wpforms" viewBox = "0 0 31 37">
    <g>
    <path d="M29.9255445,11.0339996 C29.7583626,10.8668178 29.7583626,10.699636 29.5911808,10.5324542 L19.5602721,0.501545438 C19.3930903,0.334363625 19.2259085,0.167181813 19.0587266,0.167181813 C18.8915448,0 18.5571812,0 18.3899994,0 L5.01545438,0 C2.17336356,0 -1.77635684e-15,2.17336356 -1.77635684e-15,5.01545438 L-1.77635684e-15,31.7645444 C-1.77635684e-15,34.6066352 2.17336356,36.7799988 5.01545438,36.7799988 L25.0772719,36.7799988 C27.9193627,36.7799988 30.0927263,34.6066352 30.0927263,31.7645444 L30.0927263,11.7027269 C30.0927263,11.5355451 30.0927263,11.2011814 29.9255445,11.0339996 Z M20.0618175,5.68418163 L24.4085446,10.0309088 L20.0618175,10.0309088 L20.0618175,5.68418163 Z M25.0772719,33.4363625 L5.01545438,33.4363625 C4.0123635,33.4363625 3.34363625,32.7676353 3.34363625,31.7645444 L3.34363625,5.01545438 C3.34363625,4.0123635 4.0123635,3.34363625 5.01545438,3.34363625 L16.7181813,3.34363625 L16.7181813,11.7027269 C16.7181813,12.7058178 17.3869085,13.374545 18.3899994,13.374545 L26.74909,13.374545 L26.74909,31.7645444 C26.74909,32.7676353 26.0803628,33.4363625 25.0772719,33.4363625 Z"/>
    <path d="M21.7336356 18.3899994L8.35909063 18.3899994C7.35599976 18.3899994 6.68727251 19.0587266 6.68727251 20.0618175 6.68727251 21.0649084 7.35599976 21.7336356 8.35909063 21.7336356L21.7336356 21.7336356C22.7367265 21.7336356 23.4054538 21.0649084 23.4054538 20.0618175 23.4054538 19.0587266 22.7367265 18.3899994 21.7336356 18.3899994zM21.7336356 25.0772719L8.35909063 25.0772719C7.35599976 25.0772719 6.68727251 25.7459991 6.68727251 26.74909 6.68727251 27.7521809 7.35599976 28.4209081 8.35909063 28.4209081L21.7336356 28.4209081C22.7367265 28.4209081 23.4054538 27.7521809 23.4054538 26.74909 23.4054538 25.7459991 22.7367265 25.0772719 21.7336356 25.0772719zM8.35909063 15.0463631L11.7027269 15.0463631C12.7058178 15.0463631 13.374545 14.3776359 13.374545 13.374545 13.374545 12.3714541 12.7058178 11.7027269 11.7027269 11.7027269L8.35909063 11.7027269C7.35599976 11.7027269 6.68727251 12.3714541 6.68727251 13.374545 6.68727251 14.3776359 7.35599976 15.0463631 8.35909063 15.0463631z"/>
    </g>
</symbol>
</defs>
</svg>
