<svg width="50" height="25" viewBox="0 0 50 25" fill="none" xmlns="http://www.w3.org/2000/svg">
<rect width="50" height="25" rx="5" fill="#DB4B52"/>
<path d="M12.262 12.568V10.104H13.564C14.516 10.104 14.922 10.58 14.922 11.336C14.922 12.092 14.516 12.568 13.564 12.568H12.262ZM17.358 11.336C17.358 9.53 16.154 8.172 13.746 8.172H9.868V18H12.262V14.472H13.746C16.252 14.472 17.358 12.96 17.358 11.336ZM24.4983 11.364C24.4983 12.134 24.0783 12.596 23.1823 12.596H21.6983V10.16H23.1823C24.0783 10.16 24.4983 10.636 24.4983 11.364ZM19.3043 8.172V18H21.6983V14.29H22.2723L24.3163 18H27.0183L24.7503 14.108C26.2623 13.66 26.9343 12.498 26.9343 11.266C26.9343 9.558 25.7303 8.172 23.3223 8.172H19.3043ZM38.8111 13.058C38.8111 10.104 36.5851 8.032 33.7851 8.032C30.9991 8.032 28.7311 10.104 28.7311 13.058C28.7311 16.012 30.9991 18.098 33.7851 18.098C36.5711 18.098 38.8111 16.012 38.8111 13.058ZM31.1811 13.058C31.1811 11.308 32.1891 10.202 33.7851 10.202C35.3531 10.202 36.3751 11.308 36.3751 13.058C36.3751 14.78 35.3531 15.914 33.7851 15.914C32.1891 15.914 31.1811 14.78 31.1811 13.058Z" fill="white"/>
</svg>
