<svg style="position: absolute; width: 0; height: 0; overflow: hidden;" version="1.1" xmlns="http://www.w3.org/2000/svg" xmlns:xlink="http://www.w3.org/1999/xlink" xmlns:rdf="http://www.w3.org/1999/02/22-rdf-syntax-ns#">
<defs>
<symbol id="icon-drag-module" viewBox="0 0 32 32">
<title>drag-module</title>
<path class="path1" d="M7.232 30.4c-0.448-1.856-0.576-2.016-0.928-2.432-0.16-0.224-0.416-0.512-0.768-1.088-0.64-1.056-1.216-2.784-1.728-4.32-0.32-0.928-0.64-1.824-0.896-2.432-0.16-0.384-0.352-0.736-0.544-1.088-0.576-1.088-1.152-2.24-0.128-2.88 0.928-0.576 2.432-0.704 3.904 0.768 0.384 0.384 0.8 0.928 1.184 1.44-0.064-1.568-0.128-2.816-0.16-3.84-0.096-2.24-0.16-3.488-0.128-4.48v-0.16c0.032-1.152 0.064-2.912 1.024-3.808 0.384-0.352 0.864-0.544 1.472-0.512 2.304 0.064 2.464 2.944 2.592 4.64v0.224c0 0.128 0.032 0.32 0.032 0.544 0.032 0.544 0.096 1.344 0.16 2.368 0.352-0.32 0.832-0.48 1.536-0.48 1.248 0.032 1.728 0.928 1.952 1.76 0.48-0.448 1.088-0.512 1.536-0.512 1.184 0.032 2.016 0.992 2.016 2.368 0.256-0.096 0.544-0.128 0.928-0.128 0.928 0.064 1.92 1.536 1.92 2.912 0 0.704-0.032 0.864-0.064 1.056 0 0.032-0.032 0.064-0.032 0.224-0.064 1.824-0.672 4.96-1.184 6.336-0.448 1.28-1.024 2.848-2.784 3.328l-0.32-1.088c1.12-0.32 1.568-1.28 2.048-2.656 0.448-1.312 1.056-4.352 1.12-6.016 0-0.256 0.032-0.352 0.064-0.448 0.032-0.064 0.032-0.16 0.032-0.8 0-0.896-0.64-1.76-0.896-1.792-0.48-0.032-0.736-0.032-0.896 1.024-0.032 0.224-0.032 0.512-0.096 0.928l-1.088-0.096c0.032-0.352 0.032-0.704 0.096-1.056 0.032-0.288 0.032-0.448 0.032-0.8 0-0.224 0-0.48 0-0.864 0-0.608-0.256-1.312-0.96-1.344-0.576-0.032-1.088 0.16-1.216 1.408-0.064 0.672-0.064 0.832-0.096 1.696v0.16h-1.088c0-0.512 0-0.768 0-0.96 0-0.352 0-0.576-0.032-1.632-0.064-1.888-0.672-1.92-1.024-1.92-0.864-0.032-1.088 0.32-1.248 1.92l-0.096 0.864c-0.032 0.448-0.032 0.448-0.064 0.704v0.256h-1.088c0-3.296-0.16-5.472-0.256-6.624-0.032-0.224-0.032-0.416-0.032-0.544v-0.224c-0.128-1.952-0.32-3.584-1.536-3.616-0.288 0-0.512 0.064-0.672 0.224-0.608 0.576-0.64 2.112-0.672 3.040v0.192c-0.032 0.96 0.032 2.176 0.128 4.384 0.064 1.472 0.16 3.36 0.256 5.888l0.096 2.688-1.152-2.432c-0.16-0.32-1.248-2.112-2.080-2.912-1.024-1.024-1.984-0.992-2.56-0.608-0.192 0.128 0.192 0.832 0.512 1.472 0.192 0.352 0.384 0.736 0.576 1.152 0.288 0.64 0.608 1.536 0.928 2.528 0.512 1.472 1.088 3.136 1.664 4.128 0.288 0.512 0.512 0.768 0.672 0.992 0.448 0.576 0.64 0.864 1.12 2.848l-1.088 0.128zM6.304 11.36c0-0.512-0.032-0.96 0-1.376v-0.16c0-0.128 0-0.288 0-0.448-0.512-0.672-0.832-1.504-0.832-2.432 0-2.176 1.76-3.936 3.936-3.936s3.936 1.76 3.936 3.936c0 0.768-0.224 1.472-0.608 2.080 0.032 0.384 0.064 0.736 0.096 1.056v0.224c0 0.128 0.032 0.256 0.032 0.448v0.096c0 0.064 0 0.128 0.032 0.224 1.152-0.992 1.92-2.464 1.92-4.096-0.032-2.944-2.432-5.376-5.408-5.376s-5.376 2.4-5.376 5.376c0 1.824 0.896 3.424 2.272 4.384zM30.336 6.144h-8.896v-2.176l-5.024 2.88 5.024 2.88v-2.176h8.896v-1.408z"></path>
</symbol>
<symbol id="icon-back-to-layout" viewBox="0 0 32 32">
<title>back-to-layout</title>
<path class="path1" d="M29.714 14.476h-27.429c-1.262 0-2.286-1.023-2.286-2.286v-9.143c0-1.262 1.023-2.286 2.286-2.286h27.429c1.262 0 2.286 1.023 2.286 2.286v9.143c0 1.262-1.023 2.286-2.286 2.286zM3.048 11.429h25.905v-7.619h-25.905v7.619z"></path>
<path class="path2" d="M29.714 31.238h-27.429c-1.262 0-2.286-1.023-2.286-2.286v-9.143c0-1.262 1.023-2.286 2.286-2.286h27.429c1.262 0 2.286 1.023 2.286 2.286v9.143c0 1.262-1.023 2.286-2.286 2.286zM3.048 28.19h25.905v-7.619h-25.905v7.619z"></path>
</symbol>
<symbol id="icon-delete" viewBox="0 0 32 32">
<title>delete</title>
<path class="path1" d="M13 2l-1 2h-6c-1.108 0-2 0.892-2 2v2h24v-2c0-1.108-0.892-2-2-2h-6l-1-2zM6 10l1.75 18c0.122 1.098 1.146 2 2.25 2h12c1.105 0 2.128-0.902 2.25-2l1.75-18z"></path>
</symbol>
<symbol id="icon-desktop" viewBox="0 0 24 24">
<title>desktop</title>
<path d="M21 2H3c-1.1 0-2 .9-2 2v12c0 1.1.9 2 2 2h7l-2 3v1h8v-1l-2-3h7c1.1 0 2-.9 2-2V4c0-1.1-.9-2-2-2zm0 12H3V4h18v10z"/>
</symbol>
<symbol id="icon-duplicate" viewBox="0 0 32 32">
<title>duplicate</title>
<path class="path1" d="M7.111 7.111v-7.111h24.889v24.889h-7.111v7.111h-24.889v-24.889h7.111zM10.667 7.111h14.222v14.222h3.556v-17.778h-17.778v3.556zM3.556 10.667v17.778h17.778v-17.778h-17.778z"></path>
</symbol>
<symbol id="icon-edit" viewBox="0 0 32 32">
<title>edit</title>
<path class="path1" d="M5.379 22.095l16.97-16.97 4.525 4.525-16.97 16.97-4.525-4.525z"></path>
<path class="path2" d="M4.248 23.226l4.526 4.526-5.657 1.131z"></path>
<path class="path3" d="M23.48 3.992l1.006-1.006 4.526 4.525-1.006 1.006-4.526-4.525z"></path>
</symbol>
<symbol id="icon-editor" viewBox="0 0 32 32">
<title>editor</title>
<path class="path1" d="M4.571 23.474v-22.331c0-0.316-0.256-0.571-0.571-0.571s-0.571 0.255-0.571 0.571v22.331c-1.935 0.279-3.429 1.943-3.429 3.954 0 2.205 1.794 4 4 4s4-1.795 4-4c0-2.011-1.493-3.675-3.429-3.954z"></path>
<path class="path2" d="M16.571 11.826v-10.683c0-0.316-0.256-0.571-0.571-0.571s-0.571 0.255-0.571 0.571v10.647c-2.058 0.226-3.665 1.975-3.665 4.092s1.607 3.866 3.665 4.092v10.883c0 0.316 0.256 0.571 0.571 0.571s0.571-0.255 0.571-0.571v-10.919c1.943-0.33 3.429-2.021 3.429-4.056s-1.486-3.726-3.429-4.056z"></path>
<path class="path3" d="M32 4.571c0-2.205-1.794-4-4-4s-4 1.795-4 4c0 2.011 1.493 3.675 3.429 3.954v22.331c0 0.316 0.256 0.571 0.571 0.571s0.571-0.255 0.571-0.571v-22.331c1.935-0.279 3.429-1.943 3.429-3.954z"></path>
</symbol>
<symbol id="icon-export" viewBox="0 0 30 30">
<title>export</title>
<path d="M28 19.333c-0.8 0-1.333 0.533-1.333 1.333v5.333c0 0.8-0.533 1.333-1.333 1.333h-18.667c-0.8 0-1.333-0.533-1.333-1.333v-5.333c0-0.8-0.533-1.333-1.333-1.333s-1.333 0.533-1.333 1.333v5.333c0 2.267 1.733 4 4 4h18.667c2.267 0 4-1.733 4-4v-5.333c0-0.8-0.533-1.333-1.333-1.333zM15.067 21.6c0.133 0.133 0.267 0.267 0.4 0.267 0.133 0.133 0.4 0.133 0.533 0.133s0.4 0 0.533-0.133c0.133-0.133 0.267-0.133 0.4-0.267l6.667-6.667c0.533-0.533 0.533-1.333 0-1.867s-1.333-0.533-1.867 0l-4.4 4.4v-12.8c0-0.8-0.533-1.333-1.333-1.333s-1.333 0.533-1.333 1.333v12.8l-4.4-4.4c-0.533-0.533-1.333-0.533-1.867 0s-0.533 1.333 0 1.867l6.667 6.667z"></path>
</symbol>
<symbol id="icon-import" viewBox="0 0 30 30">
<title>import</title>
<path d="M28 19.333c-0.8 0-1.333 0.533-1.333 1.333v5.333c0 0.8-0.533 1.333-1.333 1.333h-18.667c-0.8 0-1.333-0.533-1.333-1.333v-5.333c0-0.8-0.533-1.333-1.333-1.333s-1.333 0.533-1.333 1.333v5.333c0 2.267 1.733 4 4 4h18.667c2.267 0 4-1.733 4-4v-5.333c0-0.8-0.533-1.333-1.333-1.333zM10.267 12.267l4.4-4.4v12.8c0 0.8 0.533 1.333 1.333 1.333s1.333-0.533 1.333-1.333v-12.8l4.4 4.4c0.267 0.267 0.533 0.4 0.933 0.4s0.667-0.133 0.933-0.4c0.533-0.533 0.533-1.333 0-1.867l-6.667-6.667c-0.133-0.133-0.267-0.267-0.4-0.267-0.267-0.133-0.667-0.133-1.067 0-0.133 0.133-0.267 0.133-0.4 0.267l-6.667 6.667c-0.533 0.533-0.533 1.333 0 1.867s1.333 0.533 1.867 0z"></path>
</symbol>
<symbol id="icon-laptop" viewBox="0 0 24 24">
<title>laptop</title>
<path d="M0 0h24v24H0z" fill="none" /><path d="M20 18c1.1 0 1.99-.9 1.99-2L22 5c0-1.1-.9-2-2-2H4c-1.1 0-2 .9-2 2v11c0 1.1.9 2 2 2H0c0 1.1.9 2 2 2h20c1.1 0 2-.9 2-2h-4zM4 5h16v11H4V5zm8 14c-.55 0-1-.45-1-1s.45-1 1-1 1 .45 1 1-.45 1-1 1z"/>
</symbol>
<symbol id="icon-layout-manager" viewBox="0 0 32 32">
<title>layout-manager</title>
<path class="path1" d="M26.434 27.955l-13.445-0v-14.986h14.966v13.465c0 0.91-0.612 1.521-1.521 1.521zM4.045 26.434v-13.465h5.993v14.987l-4.471-0c-0.91 0-1.521-0.611-1.521-1.521zM5.567 4.045h20.867c0.91 0 1.521 0.612 1.521 1.521v4.452h-23.909v-4.451c0-0.91 0.611-1.522 1.521-1.522zM26.434 1.095h-20.867c-2.534 0-4.472 1.938-4.472 4.472v20.867c0 2.534 1.938 4.472 4.472 4.472l20.867-0c2.534 0 4.471-1.938 4.471-4.472v-20.867c0-2.534-1.938-4.472-4.471-4.472z"></path>
</symbol>
<symbol id="icon-mobile" viewBox="0 0 24 24">
<title>mobile</title>
  <path d="M15.5 1h-8C6.12 1 5 2.12 5 3.5v17C5 21.88 6.12 23 7.5 23h8c1.38 0 2.5-1.12 2.5-2.5v-17C18 2.12 16.88 1 15.5 1zm-4 21c-.83 0-1.5-.67-1.5-1.5s.67-1.5 1.5-1.5 1.5.67 1.5 1.5-.67 1.5-1.5 1.5zm4.5-4H7V4h9v14z"/><path d="M0 0h24v24H0z" fill="none"/>
</symbol>
<symbol id="icon-modules-list" viewBox="0 0 32 32">
<title>modules-list</title>
<path class="path1" d="M10.996 1.981l-1 1v5.035h-9.996v16c0 2.083 0.229 3.643 1.293 4.707s2.624 1.293 4.707 1.293h20c2.083 0 3.643-0.229 4.707-1.293s1.293-2.624 1.293-4.707v-16h-9.996v-5.035l-1-1h-10.008zM11.996 3.981h8.008v4.035h-8.008v-4.035zM2 10.016h28v6.004h-10v-2h-8v2h-10v-6.004zM14 16.020h4v2h-4v-2zM2 18.020h10v2h8v-2h10v5.996c0 1.917-0.271 2.857-0.707 3.293s-1.376 0.707-3.293 0.707h-20c-1.917 0-2.857-0.271-3.293-0.707s-0.707-1.376-0.707-3.293v-5.996z"></path>
</symbol>
<symbol id="icon-redo" viewBox="0 0 24 24">
<title>redo</title>
<path fill="none" d="M0 0h24v24H0V0z"/><path d="M18.4 10.6C16.55 8.99 14.15 8 11.5 8c-4.65 0-8.58 3.03-9.96 7.22L3.9 16c1.05-3.19 4.05-5.5 7.6-5.5 1.95 0 3.73.72 5.12 1.88L13 16h9V7l-3.6 3.6z"/>
</symbol>
<symbol id="icon-save" viewBox="0 0 32 32">
<title>save</title>
<path class="path1" d="M4.060 3.2c-0.485 0.052-0.86 0.46-0.86 0.955 0 0.002 0 0.004 0 0.005v23.68c0 0.53 0.43 0.96 0.96 0.96h23.68c0.53-0 0.96-0.43 0.96-0.96v-19.2c0-0.001 0-0.002 0-0.002 0-0.265-0.107-0.504-0.28-0.678l-4.48-4.48c-0.174-0.173-0.413-0.28-0.678-0.28-0.001 0-0.002 0-0.002 0h-19.2c-0.015-0.001-0.032-0.001-0.050-0.001s-0.035 0-0.052 0.001zM5.12 5.12h2.88v6.72c0 0.503 0.457 0.96 0.96 0.96h14.080c0.503-0 0.96-0.457 0.96-0.96v-5.69l2.88 2.88v17.85h-2.88v-6.72c-0-0.503-0.457-0.96-0.96-0.96h-14.080c-0.033-0.003-0.067-0.003-0.1 0-0.468 0.049-0.863 0.489-0.86 0.96v6.72h-2.88v-21.76zM9.92 5.12h12.16v5.76h-12.16v-5.76zM9.92 21.12h12.16v5.76h-12.16v-5.76z"></path>
</symbol>
<symbol id="icon-settings" viewBox="0 0 32 32">
<title>settings</title>
<path class="path1" d="M6.368 21.952c-0.928 1.056-1.696 1.952-2.272 2.688l3.264 3.264c0.736-0.576 1.664-1.344 2.688-2.272 1.024 0.64 2.144 1.088 3.36 1.376 0.096 1.408 0.192 2.592 0.288 3.52h4.608c0.096-0.928 0.224-2.144 0.288-3.52 1.216-0.288 2.336-0.768 3.36-1.376 1.056 0.928 1.952 1.696 2.688 2.272l3.264-3.264c-0.576-0.736-1.344-1.664-2.272-2.688 0.64-1.024 1.088-2.144 1.376-3.36 1.408-0.096 2.592-0.192 3.52-0.288v-4.608c-0.928-0.096-2.144-0.224-3.52-0.288-0.288-1.216-0.768-2.336-1.376-3.36 0.928-1.056 1.696-1.952 2.272-2.688l-3.264-3.264c-0.736 0.576-1.664 1.344-2.688 2.272-1.024-0.64-2.144-1.088-3.36-1.376-0.096-1.408-0.192-2.592-0.288-3.52h-4.608c-0.096 0.928-0.224 2.144-0.288 3.52-1.216 0.288-2.336 0.768-3.36 1.376-1.056-0.928-1.952-1.696-2.688-2.272l-3.264 3.264c0.576 0.736 1.344 1.664 2.272 2.688-0.64 1.024-1.088 2.144-1.376 3.36-1.408 0.096-2.592 0.192-3.52 0.288v4.608c0.928 0.096 2.144 0.224 3.52 0.288 0.256 1.216 0.736 2.336 1.376 3.36zM16 8.736c4.032 0 7.264 3.264 7.264 7.264 0 4.032-3.264 7.264-7.264 7.264s-7.264-3.232-7.264-7.264c0-4.032 3.232-7.264 7.264-7.264z"></path>
</symbol>
<symbol id="icon-tablet" viewBox="0 0 24 24">
<title>tablet</title>
<path d="M18.5 0h-14C3.12 0 2 1.12 2 2.5v19C2 22.88 3.12 24 4.5 24h14c1.38 0 2.5-1.12 2.5-2.5v-19C21 1.12 19.88 0 18.5 0zm-7 23c-.83 0-1.5-.67-1.5-1.5s.67-1.5 1.5-1.5 1.5.67 1.5 1.5-.67 1.5-1.5 1.5zm7.5-4H4V3h15v16z"/>
</symbol>
<symbol id="icon-undo" viewBox="0 0 24 24">
<title>undo</title>
<path fill="none" d="M0 0h24v24H0V0z"/><path d="M12.5 8c-2.65 0-5.05.99-6.9 2.6L2 7v9h9l-3.62-3.62c1.39-1.16 3.16-1.88 5.12-1.88 3.54 0 6.55 2.31 7.6 5.5l2.37-.78C21.08 11.03 17.15 8 12.5 8z"/>
</symbol>
<symbol id="icon-revisions" viewBox="0 0 24 24">
<title>revisions</title>
<path d="M6 12c0-0.563 0.422-0.984 0.984-0.984s1.031 0.422 1.031 0.984-0.469 0.984-1.031 0.984-0.984-0.422-0.984-0.984zM18 12c0 0.563-0.422 0.984-0.984 0.984s-1.031-0.422-1.031-0.984 0.469-0.984 1.031-0.984 0.984 0.422 0.984 0.984zM11.016 3h0.984c4.969 0 9 4.031 9 9s-4.031 9-9 9-9-4.031-9-9c0-2.953 1.406-5.531 3.609-7.172v-0.047l6.797 6.797-1.406 1.406-5.438-5.391c-0.984 1.219-1.547 2.719-1.547 4.406 0 3.891 3.094 6.984 6.984 6.984s6.984-3.094 6.984-6.984c0-3.516-2.625-6.469-6-6.938v1.922h-1.969v-3.984zM11.016 17.016c0-0.563 0.422-1.031 0.984-1.031s0.984 0.469 0.984 1.031-0.422 0.984-0.984 0.984-0.984-0.422-0.984-0.984z"></path>
</symbol>
<symbol id="icon-dragon" viewBox="0 0 32 32">
<title>dragon</title>
<path class="path1" d="M21.501 19.929c1.138 1.423 1.423 3.537 1.423 3.537 0.569-8.006-5.602-9.064-5.602-9.064 1.95-0.812 4.471 0.163 4.471 0.163-4.885-2.764-8.909-0.326-8.909-0.326 0.446-1.015 2.845-2.113 2.845-2.113-9.104 2.439-8.495 8.332-8.495 8.332 0.285-1.504 2.845-2.276 3.699-2.602 0.394-0.13 0.673-0.495 0.673-0.925 0-0.076-0.009-0.149-0.025-0.22 2.4-2.147 4.797-0.279 4.797-0.279 1.751 2.236-1.584 4.268-6.138 7.353-2.537 1.737-3.873 3.237-4.552 4.438 2.759 2.345 6.363 3.771 10.299 3.771 0.011 0 0.021 0 0.032-0q0.816 0 1.613-0.081c5.816-5.075 3.869-11.986 3.869-11.986z"></path>
<path class="path2" d="M22.646 17.534c0.187 0.342 0.368 0.746 0.517 1.166l0.22 0.049c3.915-0.2 6.931-2.357 8.605-3.894-0.159-2.227-0.753-4.281-1.696-6.127-0.562 6.114-6.362 8.376-7.646 8.805z"></path>
<path class="path3" d="M23.691 21.023c0.807-0.017 5.221-0.079 7.812-0.959 0.334-1.221 0.525-2.624 0.525-4.071 0-0.002 0-0.005 0-0.007 0-0.029 0-0.057 0-0.087-1.837 1.565-4.361 3.256-8.603 3.652 0.11 0.411 0.203 0.911 0.261 1.422z"></path>
<path class="path4" d="M23.773 21.667c0.020 0.308 0.032 0.667 0.032 1.029s-0.011 0.722-0.034 1.078c1.743 0.562 3.775 0.991 5.44 1.275 0.775-1.105 1.435-2.373 1.917-3.726-1.674 0.163-4.113 0.352-7.355 0.344z"></path>
<path class="path5" d="M22.509 24.496c-0.378 2.835-1.643 5.321-3.504 7.224 3.959-0.776 7.317-2.917 9.641-5.903-1.913-0.386-4.252-0.911-6.101-1.694-0.005 0.124-0.019 0.247-0.037 0.373z"></path>
<path class="path6" d="M24.183 6.639c1.632 5.48-2.236 9.104-2.577 9.408 0.206 0.232 0.405 0.485 0.587 0.749l0.192-0.033c1.094-0.366 6.579-2.469 7.136-8.034l0.116-1.157c-2.554-4.087-6.802-6.91-11.737-7.489 2.008 0.894 5.175 2.833 6.284 6.556z"></path>
<path class="path7" d="M12.518 4.443c3.74-0.098 9.429 1.050 11.080 6.506 0.109-0.5 0.172-1.075 0.172-1.664 0-0.862-0.134-1.693-0.382-2.473-1.537-5.158-7.616-6.602-7.677-6.616l-0.625-0.196c-8.435 0.505-15.085 7.469-15.086 15.986 0 0.473 0.021 0.938 0.061 1.401 0.445-6.037 2.938-12.691 12.457-12.943z"></path>
<path class="path8" d="M16.347 5.602c-0.924 0.378-6.653 2.861-8.896 7.238 0 0 3.82-5.252 10.188-4.634 2.787 0.273 4.289 1.595 5.102 2.728-0.529-1.539-2.071-4.342-6.394-5.331z"></path>
<path class="path9" d="M11.942 7.047c0.836-0.563 1.808-1.124 2.817-1.62-0.424-0.135-1.088-0.175-1.761-0.175-0.015 0-0.029 0-0.044 0-0.134 0-0.273 0-0.407 0q-3.029 0.081-5.289 1.080c-0.818 0.875-2.581 2.847-3.414 6.697-0.142 0.808-0.232 1.75-0.25 2.71-0.001 0.055-0.001 0.099-0.001 0.143 0 0.852 0.052 1.692 0.154 2.516 0.153 1.253 0.399 2.46 0.731 3.631-0.526-6.205 2.415-11.626 7.464-14.982z"></path>
<path class="path10" d="M3.892 22.872c-0.937-2.985-2.523-10.132 1.5-15.529-3.768 2.404-5.175 9.464-4.568 13.728 0.894 2.611 2.355 4.83 4.244 6.597 0.895-1.482 2.472-3.008 4.722-4.544l0.812-0.55c-2.18 0.413-5.674 0.474-6.711 0.298z"></path>
</symbol>
<symbol id = "icon-align-left" viewBox="0 0 32 32">
<path d="M1.683,3.39h16.676C18.713,3.39,19,3.103,19,2.749s-0.287-0.642-0.642-0.642H1.683
	c-0.354,0-0.641,0.287-0.641,0.642S1.328,3.39,1.683,3.39z M1.683,7.879h11.545c0.354,0,0.642-0.287,0.642-0.641
	s-0.287-0.642-0.642-0.642H1.683c-0.354,0-0.641,0.287-0.641,0.642S1.328,7.879,1.683,7.879z M18.358,11.087H1.683
	c-0.354,0-0.641,0.286-0.641,0.641s0.287,0.642,0.641,0.642h16.676c0.354,0,0.642-0.287,0.642-0.642S18.713,11.087,18.358,11.087z
	 M11.304,15.576H1.683c-0.354,0-0.641,0.287-0.641,0.642s0.287,0.641,0.641,0.641h9.621c0.354,0,0.642-0.286,0.642-0.641
	S11.657,15.576,11.304,15.576z"></path>
</symbol>
<symbol id = "icon-align-right" viewBox="0 0 32 32">
<path d="M1.321,3.417h17.024C18.707,3.417,19,3.124,19,2.762c0-0.362-0.293-0.655-0.654-0.655H1.321
		c-0.362,0-.655,0.293-0.655,0.655C0.667,3.124,0.959,3.417,1.321,3.417z M18.346,15.857H8.523c-0.361,0-0.655,0.293-0.655,0.654
		c0,0.362,0.293,0.655,0.655,0.655h9.822c0.361,0,0.654-0.293,0.654-0.655C19,16.15,18.707,15.857,18.346,15.857z M18.346,11.274
		H1.321c-0.362,0-0.655,0.292-0.655,0.654s0.292,0.654,0.655,0.654h17.024c0.361,0,0.654-0.292,0.654-0.654
		S18.707,11.274,18.346,11.274z M18.346,6.69H6.56c-0.362,0-0.655,0.293-0.655,0.655C5.904,7.708,6.198,8,6.56,8h11.786
		C18.707,8,19,7.708,19,7.345C19,6.983,18.707,6.69,18.346,6.69z">
</path>
</symbol>
<symbol id = "icon-align-center" viewBox="0 0 32 32">
<path d="M1.686,3.327h16.754c0.356,0,0.645-0.288,0.645-0.644c0-0.356-0.288-0.645-0.645-0.645H1.686
		c-0.356,0-0.644,0.288-0.644,0.645C1.042,3.039,1.33,3.327,1.686,3.327z M4.263,6.549c-0.356,0-0.644,0.288-0.644,0.645
		c0,0.356,0.288,0.644,0.644,0.644h11.599c0.356,0,0.645-0.288,0.645-0.644c0-0.356-0.288-0.645-0.645-0.645H4.263z M18.439,11.06
		H1.686c-0.356,0-0.644,0.288-0.644,0.644c0,0.356,0.288,0.645,0.644,0.645h16.754c0.356,0,0.645-0.288,0.645-0.645
		C19.084,11.348,18.796,11.06,18.439,11.06z M15.218,15.57H5.552c-0.356,0-0.645,0.288-0.645,0.645c0,0.355,0.289,0.644,0.645,0.644
		h9.666c0.355,0,0.645-0.288,0.645-0.644C15.862,15.858,15.573,15.57,15.218,15.57z">
</path>
</symbol>
<symbol id = "icon-save-template" viewBox = "0 0 32 32">
	<path d="M18.271,9.212H3.615l4.184-4.184c0.306-0.306,0.306-0.801,0-1.107c-0.306-0.306-0.801-0.306-1.107,0L1.21,9.403C1.194,9.417,1.174,9.421,1.158,9.437c-0.181,0.181-0.242,0.425-0.209,0.66c0.005,0.038,0.012,0.071,0.022,0.109c0.028,0.098,0.075,0.188,0.142,0.271c0.021,0.026,0.021,0.061,0.045,0.085c0.015,0.016,0.034,0.02,0.05,0.033l5.484,5.483c0.306,0.307,0.801,0.307,1.107,0c0.306-0.305,0.306-0.801,0-1.105l-4.184-4.185h14.656c0.436,0,0.788-0.353,0.788-0.788S18.707,9.212,18.271,9.212z">
	</path>
</symbol>
<symbol id = "icon-load-template" viewBox = "0 0 32 32">
	<path d="M18.271,9.212H3.615l4.184-4.184c0.306-0.306,0.306-0.801,0-1.107c-0.306-0.306-0.801-0.306-1.107,0
	L1.21,9.403C1.194,9.417,1.174,9.421,1.158,9.437c-0.181,0.181-0.242,0.425-0.209,0.66c0.005,0.038,0.012,0.071,0.022,0.109
	c0.028,0.098,0.075,0.188,0.142,0.271c0.021,0.026,0.021,0.061,0.045,0.085c0.015,0.016,0.034,0.02,0.05,0.033l5.484,5.483
	c0.306,0.307,0.801,0.307,1.107,0c0.306-0.305,0.306-0.801,0-1.105l-4.184-4.185h14.656c0.436,0,0.788-0.353,0.788-0.788
	S18.707,9.212,18.271,9.212z">
	</path>
</symbol>
<symbol id="icon-column-layout" viewBox="0 0 32 32">
<title>column-layout</title>
<path class="path1" d="M6.651 0.010h-6.651v32h6.651v-32zM5.651 31.010h-4.651v-30h4.651v30z"></path>
<path class="path2" d="M12.675 32.010h6.651v-32h-6.651v32zM13.675 1.010h4.651v30h-4.651v-30z"></path>
<path class="path3" d="M32 32.010v-32h-6.651v32h6.651zM26.349 1.010h4.651v30h-4.651v-30z"></path>
</symbol>
<symbol id = "icon-duplicate-title">
<title>Duplicate icon used in title area </title>
<path d="M18.783,13.198H15.73c-0.431,0-0.78-0.35-0.78-0.779c0-0.433,0.349-0.78,0.78-0.78h2.273V3.652H7.852v0.922c0,0.433-0.349,0.78-0.78,0.78c-0.431,0-0.78-0.347-0.78-0.78V2.872c0-0.43,0.349-0.78,0.78-0.78h11.711c0.431,0,0.78,0.35,0.78,0.78v9.546C19.562,12.848,19.214,13.198,18.783,13.198z"></path>
<path d="M12.927,17.908H1.217c-0.431,0-0.78-0.351-0.78-0.78V7.581c0-0.43,0.349-0.78,0.78-0.78h11.709c0.431,0,0.78,0.35,0.78,0.78v9.546C13.706,17.557,13.357,17.908,12.927,17.908z M1.997,16.348h10.15V8.361H1.997V16.348z"></path>
</symbol>
<symbol id = "icon-link">
<title>Link in input group</title>
<path d="M28.2491495,16.9224234 C29.0266034,16.1449695 30.2845739,16.1424383 31.0710678,16.9289322 C31.8521164,17.7099808 31.8501493,18.9782778 31.0775766,19.7508505 L19.7508505,31.0775766 C18.9733966,31.8550305 17.7154261,31.8575617 16.9289322,31.0710678 C16.1478836,30.2900192 16.1498507,29.0217222 16.9224234,28.2491495 L28.2491495,16.9224234 L28.2491495,16.9224234 Z M22.5857864,33.8994949 L16.9289608,39.5563206 C14.5882373,41.8970441 10.782879,41.8955773 8.44365081,39.5563492 C6.10245057,37.2151489 6.10363611,33.4110825 8.44367944,31.0710392 L14.1005051,25.4142136 C14.8815536,24.633165 14.8815536,23.366835 14.1005051,22.5857864 C13.3194565,21.8047379 12.0531265,21.8047379 11.2720779,22.5857864 L5.61525231,28.2426121 C1.71350633,32.144358 1.71153149,38.4810841 5.61522369,42.3847763 C9.51606112,46.2856137 15.8540789,46.2880567 19.7573879,42.3847477 L25.4142136,36.7279221 C26.1952621,35.9468735 26.1952621,34.6805435 25.4142136,33.8994949 C24.633165,33.1184464 23.366835,33.1184464 22.5857864,33.8994949 L22.5857864,33.8994949 Z M36.7279221,25.4142136 L42.3847477,19.7573879 C46.2880567,15.8540789 46.2856137,9.51606112 42.3847763,5.61522369 C38.4810841,1.71153149 32.144358,1.71350633 28.2426121,5.61525231 L22.5857864,11.2720779 C21.8047379,12.0531265 21.8047379,13.3194565 22.5857864,14.1005051 C23.366835,14.8815536 24.633165,14.8815536 25.4142136,14.1005051 L31.0710392,8.44367944 C33.4110825,6.10363611 37.2151489,6.10245057 39.5563492,8.44365081 C41.8955773,10.782879 41.8970441,14.5882373 39.5563206,16.9289608 L33.8994949,22.5857864 C33.1184464,23.366835 33.1184464,24.633165 33.8994949,25.4142136 C34.6805435,26.1952621 35.9468735,26.1952621 36.7279221,25.4142136 L36.7279221,25.4142136 Z"></path>
</symbol>
<symbol id = "icon-unlink">
<title>Unlink in input group</title>
<path  d="M28.2491495,16.9224234 C29.0266034,16.1449695 30.2845739,16.1424383 31.0710678,16.9289322 C31.8521164,17.7099808 31.8501493,18.9782778 31.0775766,19.7508505 L19.7508505,31.0775766 C18.9733966,31.8550305 17.7154261,31.8575617 16.9289322,31.0710678 C16.1478836,30.2900192 16.1498507,29.0217222 16.9224234,28.2491495 L28.2491495,16.9224234 L28.2491495,16.9224234 Z M22.5857864,33.8994949 L16.9289608,39.5563206 C14.5882373,41.8970441 10.782879,41.8955773 8.44365081,39.5563492 C6.10245057,37.2151489 6.10363611,33.4110825 8.44367944,31.0710392 L14.1005051,25.4142136 C14.8815536,24.633165 14.8815536,23.366835 14.1005051,22.5857864 C13.3194565,21.8047379 12.0531265,21.8047379 11.2720779,22.5857864 L5.61525231,28.2426121 C1.71350633,32.144358 1.71153149,38.4810841 5.61522369,42.3847763 C9.51606112,46.2856137 15.8540789,46.2880567 19.7573879,42.3847477 L25.4142136,36.7279221 C26.1952621,35.9468735 26.1952621,34.6805435 25.4142136,33.8994949 C24.633165,33.1184464 23.366835,33.1184464 22.5857864,33.8994949 L22.5857864,33.8994949 Z M36.7279221,25.4142136 L42.3847477,19.7573879 C46.2880567,15.8540789 46.2856137,9.51606112 42.3847763,5.61522369 C38.4810841,1.71153149 32.144358,1.71350633 28.2426121,5.61525231 L22.5857864,11.2720779 C21.8047379,12.0531265 21.8047379,13.3194565 22.5857864,14.1005051 C23.366835,14.8815536 24.633165,14.8815536 25.4142136,14.1005051 L31.0710392,8.44367944 C33.4110825,6.10363611 37.2151489,6.10245057 39.5563492,8.44365081 C41.8955773,10.782879 41.8970441,14.5882373 39.5563206,16.9289608 L33.8994949,22.5857864 C33.1184464,23.366835 33.1184464,24.633165 33.8994949,25.4142136 C34.6805435,26.1952621 35.9468735,26.1952621 36.7279221,25.4142136 L36.7279221,25.4142136 Z M29.1737012,37.3603776 L30.5879148,41.6030183 C30.9372103,42.6509049 32.0698503,43.2172249 33.1177369,42.8679293 C34.1656235,42.5186338 34.7319435,41.3859939 34.382648,40.3381072 L32.9684344,36.0954665 C32.6191389,35.0475799 31.4864989,34.4812599 30.4386123,34.8305555 C29.3907256,35.179851 28.8244057,36.312491 29.1737012,37.3603776 L29.1737012,37.3603776 Z M36.0954665,32.9684344 L40.3381072,34.382648 C41.3859939,34.7319435 42.5186338,34.1656235 42.8679293,33.1177369 C43.2172249,32.0698503 42.6509049,30.9372103 41.6030183,30.5879148 L37.3603776,29.1737012 C36.312491,28.8244057 35.179851,29.3907256 34.8305555,30.4386123 C34.4812599,31.4864989 35.0475799,32.6191389 36.0954665,32.9684344 L36.0954665,32.9684344 Z M18.8262988,10.6396224 L17.4120852,6.39698172 C17.0627897,5.34909508 15.9301497,4.78277511 14.8822631,5.13207066 C13.8343765,5.4813662 13.2680565,6.61400615 13.617352,7.66189278 L15.0315656,11.9045335 C15.3808611,12.9524201 16.5135011,13.5187401 17.5613877,13.1694445 C18.6092744,12.820149 19.1755943,11.687509 18.8262988,10.6396224 L18.8262988,10.6396224 Z M11.9045335,15.0315656 L7.66189278,13.617352 C6.61400615,13.2680565 5.4813662,13.8343765 5.13207066,14.8822631 C4.78277511,15.9301497 5.34909508,17.0627897 6.39698172,17.4120852 L10.6396224,18.8262988 C11.687509,19.1755943 12.820149,18.6092744 13.1694445,17.5613877 C13.5187401,16.5135011 12.9524201,15.3808611 11.9045335,15.0315656 L11.9045335,15.0315656 Z"></path>
</symbol>
<symbol id = "icon-wp-logo">
<title>Wordpress logo in top bar</title>
<path style = "transform:matrix(1.0755,0,0,1.0755,-3.5103,-1.6684)" d="m5.8465 1.9131c0.57932 0 1.1068 0.222 1.5022 0.58547-0.1938-0.0052-0.3872 0.11-0.3952 0.3738-0.0163 0.5333 0.6377 0.6469 0.2853 1.7196l-0.2915 0.8873-0.7939-2.3386c-0.0123-0.0362 0.002-0.0568 0.0465-0.0568h0.22445c0.011665 0 0.021201-0.00996 0.021201-0.022158v-0.13294c0-0.012193-0.00956-0.022657-0.021201-0.022153-0.42505 0.018587-0.8476 0.018713-1.2676 0-0.0117-0.0005-0.0212 0.01-0.0212 0.0222v0.13294c0 0.012185 0.00954 0.022158 0.021201 0.022158h0.22568c0.050201 0 0.064256 0.016728 0.076091 0.049087l0.3262 0.8921-0.4907 1.4817-0.8066-2.3758c-0.01-0.0298 0.0021-0.0471 0.0308-0.0471h0.25715c0.011661 0 0.021197-0.00996 0.021197-0.022158v-0.13294c0-0.012193-0.00957-0.022764-0.021197-0.022153-0.2698 0.014331-0.54063 0.017213-0.79291 0.019803 0.39589-0.60984 1.0828-1.0134 1.8639-1.0134l-0.0000029-0.0000062zm1.9532 1.1633c0.17065 0.31441 0.26755 0.67464 0.26755 1.0574 0 0.84005-0.46675 1.5712-1.1549 1.9486l0.6926-1.9617c0.1073-0.3036 0.2069-0.7139 0.1947-1.0443h-0.000004zm-1.2097 3.1504c-0.2325 0.0827-0.4827 0.1278-0.7435 0.1278-0.2247 0-0.4415-0.0335-0.6459-0.0955l0.68415-1.9606 0.70524 1.9284v-1e-7zm-1.6938-0.0854c-0.75101-0.35617-1.2705-1.1213-1.2705-2.0075 0-0.32852 0.071465-0.64038 0.19955-0.92096l1.071 2.9285 0.000003-0.000003zm0.95023-4.4367c1.3413 0 2.4291 1.0878 2.4291 2.4291s-1.0878 2.4291-2.4291 2.4291-2.4291-1.0878-2.4291-2.4291 1.0878-2.4291 2.4291-2.4291zm0-0.15354c1.4261 0 2.5827 1.1566 2.5827 2.5827s-1.1566 2.5827-2.5827 2.5827-2.5827-1.1566-2.5827-2.5827 1.1566-2.5827 2.5827-2.5827z"></path>
</symbol>
<symbol id = "icon-inline-bold">
	<title> Bold svg icon for inline editor </title>
	<path d="M30.112,24.151C31.288,22.758,32,20.961,32,19c0-4.411-3.589-8-8-8h-9v12v4v12h11c4.411,0,8-3.589,8-8  C34,28.094,32.437,25.552,30.112,24.151z M19,15h5c2.206,0,4,1.794,4,4s-1.794,4-4,4h-5V15z M26,35h-7v-8h5h2c2.206,0,4,1.794,4,4  S28.206,35,26,35z"></path>
</symbol>
<symbol id = "icon-inline-underline">
	<title> Underline svg icon for inline editor</title>
	<path d="M36,35H14c-1.104,0-2,0.896-2,2s0.896,2,2,2h22c1.104,0,2-0.896,2-2S37.104,35,36,35z M25,33c4.963,0,9-4.038,9-9V11  c0-1.104-0.896-2-2-2s-2,0.896-2,2v13c0,2.757-2.243,5-5,5s-5-2.243-5-5V11c0-1.104-0.896-2-2-2s-2,0.896-2,2v13  C16,28.962,20.037,33,25,33z"></path>
</symbol>
<symbol id = "icon-inline-italic">
	<title> Italic icon used in inline editor</title>
    <path d="M26.393,15.039c-1.088-0.222-2.138,0.486-2.354,1.569l-4,20c-0.217,1.083,0.485,2.137,1.568,2.353  C21.74,38.988,21.872,39,22.002,39c0.934,0,1.77-0.658,1.959-1.608l4-20C28.178,16.309,27.476,15.255,26.393,15.039z M27,9  c-1.105,0-2,0.895-2,2s0.895,2,2,2s2-0.895,2-2S28.105,9,27,9z"></path>
</symbol>
<symbol id = "icon-inline-link">
	<title> Link icon used in inline editor</title>
	<path d="M23.034,31.209c0.042,0.819-0.238,1.652-0.862,2.276l-3.536,3.536c-1.133,1.133-3.109,1.133-4.242,0l-1.414-1.415  c-0.566-0.566-0.879-1.32-0.879-2.121s0.312-1.555,0.879-2.122l3.535-3.536c0.566-0.566,1.32-0.878,2.121-0.878  c0.053,0,0.104,0.013,0.157,0.015l3.174-3.174c-1.011-0.548-2.148-0.841-3.331-0.841c-1.87,0-3.628,0.728-4.949,2.05l-3.535,3.535  c-1.322,1.322-2.051,3.08-2.051,4.95c0,1.87,0.729,3.628,2.051,4.95l1.414,1.414c1.321,1.322,3.079,2.05,4.949,2.05  s3.628-0.728,4.949-2.05L25,36.314c2.237-2.237,2.637-5.624,1.205-8.276L23.034,31.209z M18.636,31.364  c0.391,0.391,0.902,0.586,1.414,0.586s1.023-0.195,1.414-0.586l9.9-9.899c0.781-0.781,0.781-2.047,0-2.828  c-0.781-0.781-2.047-0.781-2.828,0l-9.9,9.899C17.854,29.316,17.854,30.583,18.636,31.364z M39.849,11.565l-1.414-1.414  c-1.321-1.322-3.079-2.05-4.949-2.05c-1.87,0-3.628,0.728-4.949,2.05L25,13.687c-2.237,2.237-2.637,5.624-1.205,8.276l3.172-3.172  c-0.042-0.819,0.238-1.652,0.862-2.276l3.536-3.536c0.566-0.566,1.32-0.878,2.121-0.878s1.555,0.312,2.121,0.878l1.414,1.415  c0.566,0.566,0.879,1.32,0.879,2.121s-0.312,1.555-0.879,2.121l-3.535,3.536c-0.599,0.599-1.432,0.872-2.252,0.838l-3.2,3.2  c1.011,0.548,2.148,0.841,3.331,0.841c1.87,0,3.628-0.728,4.949-2.05l3.535-3.536c1.322-1.322,2.051-3.08,2.051-4.95  C41.899,14.645,41.171,12.887,39.849,11.565z"></path>
</symbol>
<symbol id = "icon-inline-alignment">
	<title> Alignment toggle icon used in inline editor</title>
	<path d="M36,27c1.104,0,2-0.896,2-2s-0.896-2-2-2H13c-1.104,0-2,0.896-2,2s0.896,2,2,2H36z M44,14H6c-1.104,0-2,0.896-2,2    s0.896,2,2,2h38c1.104,0,2-0.896,2-2S45.104,14,44,14z M39,32H11c-1.104,0-2,0.896-2,2s0.896,2,2,2h28c1.104,0,2-0.896,2-2    S40.104,32,39,32z"></path>
</symbol>

<symbol id = "icon-inline-text-color">
	<title> Text color toggle icon used in inline editor</title>
	<path d="M15 26c-.912 0-1.77-.355-2.415-1.001l-7.585-7.584c-.654-.655-1-1.49-1-2.415 0-.912.355-1.77 1-2.415l8.586-8.585-2.293-2.293c-.391-.391-.391-1.023 0-1.414s1.023-.391 1.414 0l12.938 12.937c.976.976.976 2.563 0 3.539l-8.229 8.229c-.646.647-1.504 1.002-2.416 1.002zm0-20.586l-8.585 8.586c-.271.271-.415.617-.415 1 0 .399.132.718.415 1l7.585 7.585c.535.535 1.466.535 2 0l8.23-8.229c.196-.196.196-.515 0-.711l-9.23-9.231zM24 32h-18c-.552 0-1-.447-1-1s.448-1 1-1h18c.553 0 1 .447 1 1s-.447 1-1 1zM23.5 24.333c0-1.929 2.145-3.433 2.5-5.333.359 1.903 2.5 3.417 2.5 5.333 0 1.473-1.119 2.667-2.5 2.667s-2.5-1.194-2.5-2.667zM24.966 16.034l-8.259 8.259c-.943.943-2.472.943-3.415 0l-7.585-7.585c-.471-.472-.707-1.708-.707-1.708h19.538c.539 0 .81.652.428 1.034z"></path>
</symbol>
<symbol id = "icon-inline-font">
	<title> Font toggle icon used in inline editor</title>
	<path d="M37,11h-4h-2H19h-2h-4c-1.104,0-2,0.896-2,2v4c0,1.104,0.896,2,2,2s2-0.896,2-2c0-1.103,0.897-2,2-2h2h4v20h-2  c-1.104,0-2,0.896-2,2s0.896,2,2,2h8c1.104,0,2-0.896,2-2s-0.896-2-2-2h-2V15h4h2c1.103,0,2,0.897,2,2c0,1.104,0.896,2,2,2  s2-0.896,2-2v-4C39,11.896,38.104,11,37,11z"></path>
</symbol>
<symbol id = "icon-inline-bullet-list">
	<title>Bullet lists used in inline editor</title>
	<path d="M44,23H16c-1.104,0-2,0.896-2,2s0.896,2,2,2h28c1.104,0,2-0.896,2-2S45.104,23,44,23z M16,18h28c1.104,0,2-0.896,2-2  s-0.896-2-2-2H16c-1.104,0-2,0.896-2,2S14.896,18,16,18z M44,32H16c-1.104,0-2,0.896-2,2s0.896,2,2,2h28c1.104,0,2-0.896,2-2  S45.104,32,44,32z M8,13c-1.657,0-3,1.343-3,3s1.343,3,3,3s3-1.343,3-3S9.657,13,8,13z M8,22c-1.657,0-3,1.343-3,3s1.343,3,3,3  s3-1.343,3-3S9.657,22,8,22z M8,31c-1.657,0-3,1.343-3,3s1.343,3,3,3s3-1.343,3-3S9.657,31,8,31z"></path>
</symbol>
<symbol id = "icon-inline-blockquote">
	<title> Blockquotes icon used in inline editor</title>
	<path d="M32,14c-3.314,0-6,2.686-6,6s2.686,6,6,6c0.702,0,1.374-0.127,2-0.349V26c0,3.309-2.691,6-6,6c-1.104,0-2,0.896-2,2  s0.896,2,2,2c5.514,0,10-4.486,10-10v-6C38,16.686,35.314,14,32,14z M18,14c-3.314,0-6,2.686-6,6s2.686,6,6,6  c0.702,0,1.374-0.127,2-0.349V26c0,3.309-2.691,6-6,6c-1.104,0-2,0.896-2,2s0.896,2,2,2c5.514,0,10-4.486,10-10v-6  C24,16.686,21.314,14,18,14z"></path>
</symbol>
<symbol id="group_modules" viewBox="0 0 60 60" >
	<title>Group Modules</title>
	<g>
		<g>
			<path d="M10.5,6.5C8.019,6.5,6,8.519,6,11s2.019,4.5,4.5,4.5S15,13.481,15,11S12.981,6.5,10.5,6.5z M10.5,13.5   C9.122,13.5,8,12.379,8,11s1.122-2.5,2.5-2.5S13,9.621,13,11S11.878,13.5,10.5,13.5z" data-original="#000000" class="active-path" data-old_color="#1b86f1" fill="#1b86f1"/>
			<circle cx="50" cy="9.5" r="1" data-original="#000000" class="active-path" data-old_color="#1b86f1" fill="#1b86f1"/>
			<circle cx="46" cy="9.5" r="1" data-original="#000000" class="active-path" data-old_color="#1b86f1" fill="#1b86f1"/>
			<circle cx="52" cy="12.5" r="1" data-original="#000000" class="active-path" data-old_color="#1b86f1" fill="#1b86f1"/>
			<circle cx="48" cy="12.5" r="1" data-original="#000000" class="active-path" data-old_color="#1b86f1" fill="#1b86f1"/>
			<circle cx="42" cy="9.5" r="1" data-original="#000000" class="active-path" data-old_color="#1b86f1" fill="#1b86f1"/>
			<circle cx="44" cy="12.5" r="1" data-original="#000000" class="active-path" data-old_color="#1b86f1" fill="#1b86f1"/>
			<circle cx="38" cy="9.5" r="1" data-original="#000000" class="active-path" data-old_color="#1b86f1" fill="#1b86f1"/>
			<circle cx="40" cy="12.5" r="1" data-original="#000000" class="active-path" data-old_color="#1b86f1" fill="#1b86f1"/>
			<circle cx="34" cy="9.5" r="1" data-original="#000000" class="active-path" data-old_color="#1b86f1" fill="#1b86f1"/>
			<circle cx="36" cy="12.5" r="1" data-original="#000000" class="active-path" data-old_color="#1b86f1" fill="#1b86f1"/>
			<path d="M60,16.892V5.108C60,2.567,57.933,0.5,55.392,0.5H4.608C2.067,0.5,0,2.567,0,5.108v11.783c0,1.469,0.703,2.764,1.777,3.608   C0.703,21.344,0,22.64,0,24.108v11.783c0,1.469,0.703,2.764,1.777,3.608C0.703,40.344,0,41.64,0,43.108v11.783   C0,57.433,2.067,59.5,4.608,59.5h50.783c2.541,0,4.608-2.067,4.608-4.608V43.108c0-1.469-0.703-2.764-1.777-3.608   C59.297,38.656,60,37.36,60,35.892V24.108c0-1.469-0.703-2.764-1.777-3.608C59.297,19.656,60,18.36,60,16.892z M58,43.108v11.783   c0,1.438-1.17,2.608-2.608,2.608H4.608C3.17,57.5,2,56.33,2,54.892V43.108C2,41.67,3.17,40.5,4.608,40.5h50.783   C56.83,40.5,58,41.67,58,43.108z M58,24.108v11.783c0,1.438-1.17,2.608-2.608,2.608H4.608C3.17,38.5,2,37.33,2,35.892V24.108   C2,22.67,3.17,21.5,4.608,21.5h50.783C56.83,21.5,58,22.67,58,24.108z M4.608,19.5C3.17,19.5,2,18.33,2,16.892V5.108   C2,3.67,3.17,2.5,4.608,2.5h50.783C56.83,2.5,58,3.67,58,5.108v11.783c0,1.438-1.17,2.608-2.608,2.608H4.608z" data-original="#000000" class="active-path" data-old_color="#1b86f1" fill="#1b86f1"/>
			<path d="M10.5,34.5c2.481,0,4.5-2.019,4.5-4.5s-2.019-4.5-4.5-4.5S6,27.519,6,30S8.019,34.5,10.5,34.5z M10.5,27.5   c1.378,0,2.5,1.121,2.5,2.5s-1.122,2.5-2.5,2.5S8,31.379,8,30S9.122,27.5,10.5,27.5z" data-original="#000000" class="active-path" data-old_color="#1b86f1" fill="#1b86f1"/>
			<circle cx="50" cy="28.5" r="1" data-original="#000000" class="active-path" data-old_color="#1b86f1" fill="#1b86f1"/>
			<circle cx="46" cy="28.5" r="1" data-original="#000000" class="active-path" data-old_color="#1b86f1" fill="#1b86f1"/>
			<circle cx="52" cy="31.5" r="1" data-original="#000000" class="active-path" data-old_color="#1b86f1" fill="#1b86f1"/>
			<circle cx="48" cy="31.5" r="1" data-original="#000000" class="active-path" data-old_color="#1b86f1" fill="#1b86f1"/>
			<circle cx="42" cy="28.5" r="1" data-original="#000000" class="active-path" data-old_color="#1b86f1" fill="#1b86f1"/>
			<circle cx="44" cy="31.5" r="1" data-original="#000000" class="active-path" data-old_color="#1b86f1" fill="#1b86f1"/>
			<circle cx="38" cy="28.5" r="1" data-original="#000000" class="active-path" data-old_color="#1b86f1" fill="#1b86f1"/>
			<circle cx="40" cy="31.5" r="1" data-original="#000000" class="active-path" data-old_color="#1b86f1" fill="#1b86f1"/>
			<circle cx="34" cy="28.5" r="1" data-original="#000000" class="active-path" data-old_color="#1b86f1" fill="#1b86f1"/>
			<circle cx="36" cy="31.5" r="1" data-original="#000000" class="active-path" data-old_color="#1b86f1" fill="#1b86f1"/>
			<path d="M10.5,53.5c2.481,0,4.5-2.019,4.5-4.5s-2.019-4.5-4.5-4.5S6,46.519,6,49S8.019,53.5,10.5,53.5z M10.5,46.5   c1.378,0,2.5,1.121,2.5,2.5s-1.122,2.5-2.5,2.5S8,50.379,8,49S9.122,46.5,10.5,46.5z" data-original="#000000" class="active-path" data-old_color="#1b86f1" fill="#1b86f1"/>
			<circle cx="50" cy="47.5" r="1" data-original="#000000" class="active-path" data-old_color="#1b86f1" fill="#1b86f1"/>
			<circle cx="46" cy="47.5" r="1" data-original="#000000" class="active-path" data-old_color="#1b86f1" fill="#1b86f1"/>
			<circle cx="52" cy="50.5" r="1" data-original="#000000" class="active-path" data-old_color="#1b86f1" fill="#1b86f1"/>
			<circle cx="48" cy="50.5" r="1" data-original="#000000" class="active-path" data-old_color="#1b86f1" fill="#1b86f1"/>
			<circle cx="42" cy="47.5" r="1" data-original="#000000" class="active-path" data-old_color="#1b86f1" fill="#1b86f1"/>
			<circle cx="44" cy="50.5" r="1" data-original="#000000" class="active-path" data-old_color="#1b86f1" fill="#1b86f1"/>
			<circle cx="38" cy="47.5" r="1" data-original="#000000" class="active-path" data-old_color="#1b86f1" fill="#1b86f1"/>
			<circle cx="40" cy="50.5" r="1" data-original="#000000" class="active-path" data-old_color="#1b86f1" fill="#1b86f1"/>
			<circle cx="34" cy="47.5" r="1" data-original="#000000" class="active-path" data-old_color="#1b86f1" fill="#1b86f1"/>
			<circle cx="36" cy="50.5" r="1" data-original="#000000" class="active-path" data-old_color="#1b86f1" fill="#1b86f1"/>
		</g>
	</g>
</symbol>
<symbol id="tooltip" viewBox="0 0 24 24">
<title>Tooltip</title>
<path d="M23 12c0-1.488-0.296-2.91-0.833-4.207-0.558-1.347-1.375-2.558-2.388-3.571s-2.224-1.831-3.571-2.388c-1.298-0.538-2.72-0.834-4.208-0.834s-2.91 0.296-4.207 0.833c-1.347 0.558-2.558 1.375-3.571 2.389s-1.831 2.224-2.389 3.571c-0.537 1.297-0.833 2.719-0.833 4.207s0.296 2.91 0.833 4.207c0.558 1.347 1.375 2.558 2.388 3.571s2.224 1.831 3.571 2.388c1.298 0.538 2.72 0.834 4.208 0.834s2.91-0.296 4.207-0.833c1.347-0.558 2.558-1.375 3.571-2.388s1.831-2.224 2.388-3.571c0.538-1.298 0.834-2.72 0.834-4.208zM21 12c0 1.221-0.243 2.383-0.681 3.442-0.456 1.101-1.124 2.092-1.955 2.922s-1.822 1.499-2.922 1.955c-1.059 0.438-2.221 0.681-3.442 0.681s-2.383-0.243-3.442-0.681c-1.101-0.456-2.092-1.124-2.922-1.955-0.831-0.831-1.499-1.822-1.955-2.922-0.438-1.059-0.681-2.221-0.681-3.442s0.243-2.383 0.681-3.442c0.456-1.101 1.124-2.092 1.955-2.922s1.822-1.499 2.922-1.955c1.059-0.438 2.221-0.681 3.442-0.681s2.383 0.243 3.442 0.681c1.101 0.456 2.092 1.124 2.922 1.955 0.831 0.831 1.499 1.822 1.955 2.922 0.438 1.059 0.681 2.221 0.681 3.442zM13 16v-4c0-0.552-0.448-1-1-1s-1 0.448-1 1v4c0 0.552 0.448 1 1 1s1-0.448 1-1zM13 8c0-0.552-0.448-1-1-1s-1 0.448-1 1 0.448 1 1 1 1-0.448 1-1z"></path>
</symbol>
</defs>
</svg>


