<?xml version="1.0" encoding="UTF-8"?> <svg xmlns="http://www.w3.org/2000/svg" width="323" height="87" viewBox="0 0 323 87"> <g fill="none" fill-rule="evenodd" transform="translate(0 3)"> <path fill="#FFF" d="M33.04,70.69 L0,70.69 L0,24 L33.04,24 L33.04,32.75 L9.94,32.75 L9.94,42.55 L32.55,42.55 L32.55,51.3 L9.94,51.3 L9.94,61.94 L33.04,61.94 L33.04,70.69 Z M74.47,70.69 L64.53,70.69 L56.83,59.28 L49.06,70.69 L39.19,70.69 L51.23,53.33 L39.89,36.88 L49.83,36.88 L74.47,70.69 Z M59.8070286,43.1348849 L65.13,36.8474512 L75,36.8474512 L64.6513093,49.8048849 L59.8070286,43.1348849 Z M101.2,71.53 C96.999979,71.53 93.5233471,69.8033506 90.77,66.35 L90.77,83.57 L81.88,83.57 L81.88,36.88 L90.77,36.88 L90.77,45.8944731 C91.9800699,37.9879214 96.9066452,36.04 101.2,36.04 C105.633356,36.04 109.238319,37.6149843 112.015,40.765 C114.791681,43.9150158 116.18,48.2433058 116.18,53.75 C116.18,59.2566942 114.791681,63.5966508 112.015,66.77 C109.238319,69.9433492 105.633356,71.53 101.2,71.53 Z M98.4,63.62 C100.96668,63.62 103.043325,62.7100091 104.63,60.89 C106.216675,59.0699909 107.01,56.6900147 107.01,53.75 C107.01,50.8566522 106.216675,48.5000091 104.63,46.68 C103.043325,44.8599909 100.96668,43.95 98.4,43.95 C96.9533261,43.95 95.5066739,44.3116631 94.06,45.035 C92.6133261,45.758337 91.5166704,46.6799944 90.77,47.8 L90.77,59.7 C91.5166704,60.7733387 92.6249927,61.6949962 94.095,62.465 C95.5650074,63.2350039 96.999993,63.62 98.4,63.62 Z M141.37,71.53 C135.95664,71.53 131.62835,69.8150172 128.385,66.385 C125.14165,62.9549829 123.52,58.7433583 123.52,53.75 C123.52,48.7566417 125.14165,44.5566837 128.385,41.15 C131.62835,37.7433163 135.95664,36.04 141.37,36.04 C146.78336,36.04 151.123317,37.7433163 154.39,41.15 C157.656683,44.5566837 159.29,48.7566417 159.29,53.75 C159.29,58.7433583 157.656683,62.9549829 154.39,66.385 C151.123317,69.8150172 146.78336,71.53 141.37,71.53 Z M141.37,63.62 C144.07668,63.62 146.199992,62.6750095 147.74,60.785 C149.280008,58.8949906 150.05,56.550014 150.05,53.75 C150.05,50.9966529 149.280008,48.6750095 147.74,46.785 C146.199992,44.8949906 144.07668,43.95 141.37,43.95 C138.709987,43.95 136.610008,44.8949906 135.07,46.785 C133.529992,48.6750095 132.76,50.9966529 132.76,53.75 C132.76,56.550014 133.529992,58.8949906 135.07,60.785 C136.610008,62.6750095 138.709987,63.62 141.37,63.62 Z M200.72,70.69 L191.76,70.69 L191.76,50.25 C191.76,46.049979 189.683354,43.95 185.53,43.95 C182.449985,43.95 179.883344,45.2566536 177.83,47.87 L177.83,70.69 L168.94,70.69 L168.94,36.88 L177.83,36.88 L177.83,45.0449672 C178.552185,38.91 180.688323,38.5483384 182.765,37.545 C184.841677,36.5416617 187.139987,36.04 189.66,36.04 C193.300018,36.04 196.053324,36.9966571 197.92,38.91 C199.786676,40.8233429 200.72,43.4599832 200.72,46.82 L200.72,70.69 Z M228.36,71.53 C223.133307,71.53 218.816684,69.896683 215.41,66.63 C212.003316,63.363317 210.3,59.0700266 210.3,53.75 C210.3,48.8033086 211.95665,44.6150172 215.27,41.185 C218.58335,37.7549829 222.759975,36.04 227.8,36.04 C232.840025,36.04 236.923318,37.7549829 240.05,41.185 C243.176682,44.6150172 244.74,49.0833058 244.74,54.59 L244.74,56.69 L219.61,56.69 C219.936668,58.8833443 220.951658,60.6916596 222.655,62.115 C224.358342,63.5383405 226.586653,64.25 229.34,64.25 C230.880008,64.25 232.501658,63.9583363 234.205,63.375 C235.908342,62.7916638 237.273328,61.9866718 238.3,60.96 L242.29,66.84 C238.883316,69.9666823 234.240029,71.53 228.36,71.53 Z M236.2,50.53 C236.013332,48.6166571 235.231674,46.9366739 233.855,45.49 C232.478326,44.0433261 230.460013,43.32 227.8,43.32 C225.233321,43.32 223.261674,44.0316596 221.885,45.455 C220.508326,46.8783405 219.726668,48.5699902 219.54,50.53 L236.2,50.53 Z M285.96,70.69 L277,70.69 L277,50.25 C277,46.049979 274.923354,43.95 270.77,43.95 C267.689985,43.95 265.123344,45.2566536 263.07,47.87 L263.07,70.69 L254.18,70.69 L254.18,36.88 L263.07,36.88 L263.07,45.0232789 C263.573224,39.4154712 265.928323,38.5483384 268.005,37.545 C270.081677,36.5416617 272.379987,36.04 274.9,36.04 C278.540018,36.04 281.293324,36.9966571 283.16,38.91 C285.026676,40.8233429 285.96,43.4599832 285.96,46.82 L285.96,70.69 Z M309.05,71.53 C302.703302,71.53 299.53,68.4266977 299.53,62.22 L299.53,44.65 L293.93,44.65 L293.93,36.88 L299.53,36.88 L299.53,27.64 L308.42,27.64 L308.42,36.88 L315.28,36.88 L315.28,44.65 L308.42,44.65 L308.42,59.84 C308.42,60.9600056 308.688331,61.8699965 309.225,62.57 C309.761669,63.2700035 310.519995,63.62 311.5,63.62 C312.946674,63.62 313.97333,63.2700035 314.58,62.57 L316.47,69.36 C314.836659,70.8066739 312.36335,71.53 309.05,71.53 Z"></path> <polyline stroke="#FFF" stroke-width="4" points="305 8.048 313.245 0 321.49 8.048"></polyline> </g> </svg> 