<svg viewBox="0 0 1920 119.18" xmlns="http://www.w3.org/2000/svg" preserveAspectRatio="none">
  <g id="Layer_2" data-name="Layer 2" transform="matrix(1, 0, 0, -1, 0, 119.453003)">
    <g id="Layer_1-2" data-name="Layer 1">
      <path class="cls-1" d="M 1919.853 64.195 L 1920.27 120.643 L 0.078 119.894 L -0.178 63.889 L -0.205 64.018 C 323.756 97.143 645.91 117.953 966.259 117.82 C 1286.607 117.953 1590.191 96.168 1919.771 64.129 L 1919.816 64.062" style=""/>
      <g id="Layer_2-2" data-name="Layer 2">
        <g id="Layer_1-2-2" data-name="Layer 1-2">
          <path class="cls-2" fill-opacity="0.5" d="M 1919.974 37.253 L 1919.82 64.097 C 1601.387 99.829 1280.095 118.013 959.335 117.973 C 638.574 118.013 318.768 99.951 0.044 63.873 L 0.008 36.899 L 0.02 36.998 C 317.096 78.982 638.516 97.979 959.349 98.94 C 1280.182 99.901 1600.797 77.297 1919.953 37.102 L 1919.974 37.253 Z"/>
          <path class="cls-3" fill-opacity="0.7" d="M 1920 0 L 1920 37.1 C 1601.574 77.438 1281.012 99.369 960 99.3 C 638.988 99.369 318.319 78.592 0 37.1 L 0 0 L 4.83 0.88 C 319.953 58.508 639.652 87.433 960 87.3 C 1280.348 87.433 1600.047 58.508 1915.17 0.88 L 1920 0 Z"/>
        </g>
      </g>
    </g>
  </g>
</svg>