<svg xmlns="http://www.w3.org/2000/svg" width="23" height="29" viewBox="0 0 23 29">
  <g fill="none" fill-rule="evenodd" stroke="#212121" stroke-width="2" transform="translate(0 1)">
    <path d="M3.62646846,7 C3.10637982,7 2.67311371,7.3986624 2.6299227,7.91695452 L1.19737474,25.1075301 C1.1950729,25.1351521 1.19392049,25.1628579 1.19392049,25.1905756 C1.19392049,25.7428603 1.64163574,26.1905756 2.19392049,26.1905756 L20.8031792,26.1905756 C20.8308969,26.1905756 20.8586027,26.1894232 20.8862247,26.1871213 C21.4366017,26.1412566 21.8455897,25.6579071 21.7997249,25.1075301 L20.367177,7.91695452 C20.323986,7.3986624 19.8907199,7 19.3706312,7 L3.62646846,7 Z"/>
    <path stroke-linecap="round" d="M7,9.27272727 C6.49128382,3.09090909 7.99128382,4.33408493e-16 11.5,0 C15.0087162,0 16.5087162,3.09090909 16,9.27272727"/>
  </g>
</svg>
