<svg style="position: absolute; width: 0; height: 0; overflow: hidden;" version="1.1" xmlns="http://www.w3.org/2000/svg" xmlns:xlink="http://www.w3.org/1999/xlink">
<defs>
<symbol id = "blog_carousel" viewBox="0 0 32 35">>
    <g fill-rule="evenodd">
        <rect width="4.5" height="4.436" x=".499" y="30.405" rx="2.218"/>
        <rect width="4.5" height="4.436" x="13.785" y="30.405" fill-opacity=".2" rx="2.218"/>
        <rect width="4.5" height="4.436" x="27.071" y="30.405" fill-opacity=".2" rx="2.218"/>
        <rect width="31.613" height="4.516" rx="2.258"/>
        <rect width="28.226" height="4.516" y="9.032" fill-opacity=".48" rx="2.258"/>
        <rect width="18.065" height="4.516" y="18.065" fill-opacity=".2" rx="2.258"/>
    </g>
</symbol>
<symbol id = "wpcf7" viewBox = "0 0 31 37">
    <g>
    <path d="M29.9255445,11.0339996 C29.7583626,10.8668178 29.7583626,10.699636 29.5911808,10.5324542 L19.5602721,0.501545438 C19.3930903,0.334363625 19.2259085,0.167181813 19.0587266,0.167181813 C18.8915448,0 18.5571812,0 18.3899994,0 L5.01545438,0 C2.17336356,0 -1.77635684e-15,2.17336356 -1.77635684e-15,5.01545438 L-1.77635684e-15,31.7645444 C-1.77635684e-15,34.6066352 2.17336356,36.7799988 5.01545438,36.7799988 L25.0772719,36.7799988 C27.9193627,36.7799988 30.0927263,34.6066352 30.0927263,31.7645444 L30.0927263,11.7027269 C30.0927263,11.5355451 30.0927263,11.2011814 29.9255445,11.0339996 Z M20.0618175,5.68418163 L24.4085446,10.0309088 L20.0618175,10.0309088 L20.0618175,5.68418163 Z M25.0772719,33.4363625 L5.01545438,33.4363625 C4.0123635,33.4363625 3.34363625,32.7676353 3.34363625,31.7645444 L3.34363625,5.01545438 C3.34363625,4.0123635 4.0123635,3.34363625 5.01545438,3.34363625 L16.7181813,3.34363625 L16.7181813,11.7027269 C16.7181813,12.7058178 17.3869085,13.374545 18.3899994,13.374545 L26.74909,13.374545 L26.74909,31.7645444 C26.74909,32.7676353 26.0803628,33.4363625 25.0772719,33.4363625 Z"/>
    <path d="M21.7336356 18.3899994L8.35909063 18.3899994C7.35599976 18.3899994 6.68727251 19.0587266 6.68727251 20.0618175 6.68727251 21.0649084 7.35599976 21.7336356 8.35909063 21.7336356L21.7336356 21.7336356C22.7367265 21.7336356 23.4054538 21.0649084 23.4054538 20.0618175 23.4054538 19.0587266 22.7367265 18.3899994 21.7336356 18.3899994zM21.7336356 25.0772719L8.35909063 25.0772719C7.35599976 25.0772719 6.68727251 25.7459991 6.68727251 26.74909 6.68727251 27.7521809 7.35599976 28.4209081 8.35909063 28.4209081L21.7336356 28.4209081C22.7367265 28.4209081 23.4054538 27.7521809 23.4054538 26.74909 23.4054538 25.7459991 22.7367265 25.0772719 21.7336356 25.0772719zM8.35909063 15.0463631L11.7027269 15.0463631C12.7058178 15.0463631 13.374545 14.3776359 13.374545 13.374545 13.374545 12.3714541 12.7058178 11.7027269 11.7027269 11.7027269L8.35909063 11.7027269C7.35599976 11.7027269 6.68727251 12.3714541 6.68727251 13.374545 6.68727251 14.3776359 7.35599976 15.0463631 8.35909063 15.0463631z"/>
    </g>
</symbol>
<symbol id = "featured_posts" viewBox = "0 0 34 35">
    <g fill-rule="evenodd">
        <rect width="33.108" height="2.838" y="23.032" rx="1.419"/>
        <rect width="24.471" height="2.838" x="4.318" y="31.669" fill-opacity=".5" rx="1.419"/>
        <path fill-rule="nonzero" d="M25.993941,6.2162217 C25.9155029,5.90246919 25.6801885,5.74559293 25.366436,5.6671548 L20.3463958,4.96121164 L18.07169,0.411800176 C17.8363757,-0.137266725 16.8951181,-0.137266725 16.6598037,0.411800176 L14.385098,4.88277351 L9.44349589,5.6671548 C9.12974337,5.6671548 8.89442899,5.90246919 8.73755273,6.2162217 C8.6591146,6.52997422 8.73755273,6.84372673 8.97286711,7.00060299 L12.581021,10.5303188 L11.7182016,15.550359 C11.6397635,15.8641115 11.7966397,16.177864 12.0319541,16.3347403 C12.2672685,16.4916166 12.581021,16.5700547 12.8947735,16.4131784 L17.3657469,14.0600346 L21.8367202,16.4131784 C21.9935965,16.4131784 22.0720346,16.4131784 22.2289109,16.4131784 C22.3857871,16.4131784 22.5426634,16.3347403 22.6995396,16.2563022 C22.934854,16.0994259 23.0917303,15.7856734 23.0132922,15.4719209 L22.1504727,10.4518807 L25.7586267,6.92216486 C25.993941,6.7652886 26.0723792,6.45153609 25.993941,6.2162217 Z"/>
    </g>
</symbol>

<symbol id="newsletter" viewBox="0 0 32 32">
    <title>newsletter</title>
    <path class="path1" d="M11.456 9.856l-0.704-0.896h-8.672l-0.704 0.896z"></path>
    <path class="path2" d="M14.016 13.152l-0.672-0.864h-8.704l-0.672 0.864z"></path>
    <path class="path3" d="M16.608 16.48l-0.704-0.896h-8.704l-0.672 0.896z"></path>
    <path class="path4" d="M19.168 19.776l-0.704-0.896h-8.672l-0.704 0.896z"></path>
    <path class="path5" d="M12.352 22.176l-0.704 0.896h10.080l-0.704-0.896z"></path>
    <path class="path6" d="M12.384 8.928l8.672 11.232h1.216l7.36-9.696v11.616h-7.36l0.736 0.96h7.616v-14.112h-18.24zM21.664 19.36l-7.328-9.472h14.528l-7.2 9.472z"></path>
</symbol>
<symbol id="countdown" viewBox="0 0 32 32">
    <title>countdown</title>
    <path class="path1" d="M27.462 6.688h-22.925c-2.431 0-4.412 1.981-4.412 4.412v9.8c0 2.431 1.981 4.413 4.412 4.413h22.931c2.431 0 4.412-1.975 4.412-4.413v-9.8c-0.006-2.431-1.988-4.412-4.419-4.412zM30.113 20.9c0 1.456-1.188 2.644-2.644 2.644h-22.931c-1.456 0-2.644-1.188-2.644-2.644v-9.8c0-1.456 1.188-2.644 2.644-2.644h22.931c1.456 0 2.644 1.188 2.644 2.644v9.8z"></path>
    <path class="path2" d="M6.175 11.431c-1.456 0-2.644 1.188-2.644 2.644v3.85c0 1.456 1.188 2.644 2.644 2.644s2.644-1.188 2.644-2.644v-3.85c0-1.456-1.188-2.644-2.644-2.644zM7.056 17.925c0 0.488-0.394 0.881-0.881 0.881s-0.881-0.394-0.881-0.881v-3.85c0-0.488 0.394-0.881 0.881-0.881s0.881 0.394 0.881 0.881v3.85z"></path>
    <path class="path3" d="M12.787 11.431c-1.456 0-2.644 1.188-2.644 2.644v3.85c0 1.456 1.188 2.644 2.644 2.644s2.644-1.188 2.644-2.644v-3.85c0-1.456-1.188-2.644-2.644-2.644zM13.669 17.925c0 0.488-0.394 0.881-0.881 0.881s-0.881-0.394-0.881-0.881v-3.85c0-0.488 0.394-0.881 0.881-0.881s0.881 0.394 0.881 0.881v3.85z"></path>
    <path class="path4" d="M22.144 11.431c-1.456 0-2.644 1.188-2.644 2.644v3.85c0 1.456 1.188 2.644 2.644 2.644s2.644-1.188 2.644-2.644v-3.85c0-1.456-1.188-2.644-2.644-2.644zM23.025 17.925c0 0.488-0.394 0.881-0.881 0.881s-0.881-0.394-0.881-0.881v-3.85c0-0.488 0.394-0.881 0.881-0.881s0.881 0.394 0.881 0.881v3.85z"></path>
    <path class="path5" d="M18.344 13.681c0 0.487-0.395 0.881-0.881 0.881s-0.881-0.395-0.881-0.881c0-0.487 0.395-0.881 0.881-0.881s0.881 0.395 0.881 0.881z"></path>
    <path class="path6" d="M18.344 18.319c0 0.487-0.395 0.881-0.881 0.881s-0.881-0.395-0.881-0.881c0-0.487 0.395-0.881 0.881-0.881s0.881 0.395 0.881 0.881z"></path>
    <path class="path7" d="M27.594 11.919c-0.488 0-0.881 0.394-0.881 0.881v6.4c0 0.488 0.394 0.881 0.881 0.881s0.881-0.394 0.881-0.881v-6.4c0-0.488-0.394-0.881-0.881-0.881z"></path>
</symbol>
<symbol id="blog" viewBox="0 0 32 32">
    <title>blog</title>
<path d="M13.875 18.5l1.813-1.813-2.375-2.375-1.813 1.813v0.875h1.5v1.5h0.875zM20.75 7.25c-0.141-0.141-0.375-0.125-0.516 0.016l-5.469 5.469c-0.141 0.141-0.156 0.375-0.016 0.516s0.375 0.125 0.516-0.016l5.469-5.469c0.141-0.141 0.156-0.375 0.016-0.516zM22 16.531v2.969c0 2.484-2.016 4.5-4.5 4.5h-13c-2.484 0-4.5-2.016-4.5-4.5v-13c0-2.484 2.016-4.5 4.5-4.5h13c0.625 0 1.25 0.125 1.828 0.391 0.141 0.063 0.25 0.203 0.281 0.359 0.031 0.172-0.016 0.328-0.141 0.453l-0.766 0.766c-0.141 0.141-0.328 0.187-0.5 0.125-0.234-0.063-0.469-0.094-0.703-0.094h-13c-1.375 0-2.5 1.125-2.5 2.5v13c0 1.375 1.125 2.5 2.5 2.5h13c1.375 0 2.5-1.125 2.5-2.5v-1.969c0-0.125 0.047-0.25 0.141-0.344l1-1c0.156-0.156 0.359-0.187 0.547-0.109s0.313 0.25 0.313 0.453zM20.5 5l4.5 4.5-10.5 10.5h-4.5v-4.5zM27.438 7.063l-1.437 1.437-4.5-4.5 1.437-1.437c0.578-0.578 1.547-0.578 2.125 0l2.375 2.375c0.578 0.578 0.578 1.547 0 2.125z"></path>
</symbol>
</defs>
</svg>