<?xml version="1.0" encoding="utf-8"?>
<!-- Generator: Adobe Illustrator 17.0.0, SVG Export Plug-In . SVG Version: 6.00 Build 0)  -->
<!DOCTYPE svg PUBLIC "-//W3C//DTD SVG 1.1//EN" "http://www.w3.org/Graphics/SVG/1.1/DTD/svg11.dtd">
<svg version="1.1" id="Layer_1" xmlns="http://www.w3.org/2000/svg" xmlns:xlink="http://www.w3.org/1999/xlink" x="0px" y="0px"
	 width="20px" height="20px" viewBox="0 0 20 20" enable-background="new 0 0 20 20" xml:space="preserve">
<g>
	<g>
		<path fill="#777777" d="M3.184,11.345l-1.127,2.864L0.01,8.987l1.127-2.864L3.184,11.345z M12.251,11.345l-1.127,2.864
			L9.087,8.987l1.117-2.864L12.251,11.345z"/>
		<path fill="#777777" d="M3.184,11.345L1.137,6.124L2.254,3.25l2.047,5.231L3.184,11.345z M12.251,11.345l-2.047-5.221l1.127-2.874
			l2.037,5.231L12.251,11.345z"/>
		<path fill="#777777" d="M2.502,3.25h4.094l4.28,10.959H6.792L2.502,3.25z M11.579,3.25h4.084l4.28,10.959h-4.084L11.579,3.25z"/>
	</g>
</g>
</svg>
