<?xml version="1.0" standalone="no"?>
<!DOCTYPE svg PUBLIC "-//W3C//DTD SVG 1.1//EN" "http://www.w3.org/Graphics/SVG/1.1/DTD/svg11.dtd" >
<svg xmlns="http://www.w3.org/2000/svg" xmlns:xlink="http://www.w3.org/1999/xlink" version="1.1">
<metadata></metadata>
<defs>
<font id="hans_kendricklight" horiz-adv-x="637" >
<font-face units-per-em="1000" ascent="800" descent="-200" />
<missing-glyph horiz-adv-x="300" />
<glyph unicode=" "  horiz-adv-x="300" />
<glyph unicode="&#x09;" horiz-adv-x="300" />
<glyph unicode="&#xa0;" horiz-adv-x="300" />
<glyph unicode="!" horiz-adv-x="314" d="M177 760v-563h-40v563h40zM199 42c0 -24 -19 -42 -42 -42c-24 0 -42 18 -42 42c0 23 18 42 42 42c23 0 42 -19 42 -42z" />
<glyph unicode="&#x22;" horiz-adv-x="407" d="M80 750h53l-10 -238h-13zM274 750h53l-30 -238h-13z" />
<glyph unicode="#" horiz-adv-x="745" d="M549 514h114l-5 -34h-114l-38 -274h113l-5 -35h-113l-25 -171h-47l24 171h-210l-24 -171h-47l24 171h-114l5 35h114l40 274h-114l5 34h112l25 172h47l-24 -172h210l24 172h47zM458 206l39 274h-210l-39 -274h210z" />
<glyph unicode="$" horiz-adv-x="593" d="M316 718v-324c107 -43 196 -88 196 -202c0 -101 -84 -176 -196 -200v-82h-32v80c-98 3 -181 48 -219 119l40 17c32 -55 98 -90 179 -94v330c-105 42 -191 83 -191 194c0 99 77 186 191 204v80h32v-80c70 -8 124 -42 157 -88l-41 -17c-24 29 -59 52 -116 63zM284 406v312 c-92 -23 -147 -87 -147 -162c0 -72 58 -112 147 -150zM316 350v-314c89 23 152 78 152 156c0 81 -65 118 -152 158z" />
<glyph unicode="%" horiz-adv-x="719" d="M359 623c0 -76 -63 -138 -140 -138c-76 0 -139 62 -139 138c0 75 63 137 139 137c77 0 140 -62 140 -137zM575 750h50l-482 -750h-50zM325 623c0 57 -47 104 -106 104c-58 0 -105 -47 -105 -104c0 -58 47 -104 105 -104c59 0 106 46 106 104zM639 127 c0 -75 -64 -137 -139 -137c-77 0 -141 62 -141 137c0 76 64 138 141 138c75 0 139 -62 139 -138zM605 127c0 59 -50 104 -105 104c-59 0 -107 -45 -107 -104s48 -104 107 -104c55 0 105 45 105 104z" />
<glyph unicode="&#x26;" horiz-adv-x="712" d="M635 302l31 -31l-122 -120l120 -119l-31 -31l-120 119l-64 -64c-45 -45 -105 -69 -169 -69s-124 24 -170 69c-93 93 -93 245 0 338l64 63l-11 12c-65 64 -65 169 0 233c64 64 169 64 234 0c61 -61 65 -157 7 -225l-31 30c40 51 38 120 -7 164c-47 48 -125 48 -173 0 c-47 -47 -47 -124 0 -172l320 -318zM419 87l64 64l-278 276l-64 -64c-77 -76 -77 -200 0 -276s201 -76 278 0z" />
<glyph unicode="'" horiz-adv-x="237" d="M91 750h53l-20 -238h-13z" />
<glyph unicode="(" horiz-adv-x="475" d="M365 -200v-41c-212 16 -255 347 -255 501c0 153 43 485 255 502v-41c-173 -21 -210 -361 -210 -461c0 -101 37 -439 210 -460z" />
<glyph unicode=")" horiz-adv-x="475" d="M110 721v41c212 -17 255 -349 255 -502c0 -154 -43 -485 -255 -501v41c173 21 210 359 210 460c0 100 -37 440 -210 461z" />
<glyph unicode="*" horiz-adv-x="360" d="M290 676v-45l-85 8l50 -69l-40 -23l-35 77l-35 -77l-40 23l50 69l-85 -8v45l85 -8l-50 69l40 23l35 -77l35 77l40 -23l-50 -69z" />
<glyph unicode="+" horiz-adv-x="698" d="M628 253v-30h-263v-249h-32v249h-263v30h263v249h32v-249h263z" />
<glyph unicode="," horiz-adv-x="254" d="M102 101h64l-80 -218h-28z" />
<glyph unicode="-" horiz-adv-x="418" d="M358 253v-30h-298v30h298z" />
<glyph unicode="." horiz-adv-x="274" d="M179 32c0 -24 -19 -42 -42 -42c-24 0 -42 18 -42 42c0 23 18 42 42 42c23 0 42 -20 42 -42z" />
<glyph unicode="/" horiz-adv-x="651" d="M562 760h38l-523 -1005h-38z" />
<glyph unicode="0" horiz-adv-x="692" d="M612 377c0 -184 -92 -389 -266 -389s-266 205 -266 389c0 163 80 389 266 389s266 -226 266 -389zM566 375c0 126 -45 351 -220 351c-173 0 -220 -224 -220 -348c0 -135 47 -350 220 -350c170 0 220 218 220 347z" />
<glyph unicode="1" horiz-adv-x="409" d="M254 750v-750h-44v710h-70v40h114z" />
<glyph unicode="2" horiz-adv-x="632" d="M145 558h-47c12 121 99 208 224 208c127 0 229 -90 229 -216c0 -55 -20 -103 -50 -147c-31 -46 -70 -86 -106 -128l-205 -235h360v-40h-452l288 330c55 63 119 131 119 220c0 101 -79 176 -180 176c-105 0 -171 -74 -180 -168z" />
<glyph unicode="3" horiz-adv-x="633" d="M145 595h-45c16 98 104 171 199 171c106 0 196 -85 196 -186c0 -69 -38 -120 -101 -164c98 -54 140 -126 140 -203c0 -121 -106 -225 -235 -225c-112 0 -210 82 -229 182h43c22 -85 99 -142 186 -142c102 0 192 79 192 185c0 109 -92 182 -192 182h-5v39h5 c101 0 152 75 152 146c0 78 -63 146 -152 146c-77 0 -139 -58 -154 -131z" />
<glyph unicode="4" horiz-adv-x="673" d="M592 194v-40h-102v-154h-40v154h-406l446 594v-554h102zM122 194h328v437z" />
<glyph unicode="5" horiz-adv-x="633" d="M230 458l15 3c22 6 52 8 68 8c137 0 239 -109 239 -242c0 -141 -110 -239 -256 -239c-85 0 -163 40 -211 108l34 25c39 -55 108 -93 180 -93c106 0 207 80 207 202c0 116 -96 201 -207 201c-28 0 -59 -5 -87 -13l-32 25l78 307h277v-40h-241z" />
<glyph unicode="6" horiz-adv-x="700" d="M462 750l-224 -312c43 24 80 31 125 31c132 0 237 -110 237 -241c0 -135 -114 -240 -250 -240c-139 0 -250 105 -250 240c0 58 27 116 64 169l250 353h48zM554 228c0 112 -91 201 -204 201s-204 -89 -204 -201c0 -111 91 -200 204 -200s204 89 204 200z" />
<glyph unicode="7" horiz-adv-x="583" d="M73 750h510l-467 -750h-46l443 710h-440v40z" />
<glyph unicode="8" horiz-adv-x="628" d="M548 213c0 -121 -109 -225 -234 -225s-234 104 -234 225c0 81 48 152 139 203c-69 48 -101 103 -101 164c0 101 90 186 196 186s196 -85 196 -186c0 -61 -33 -116 -102 -164c94 -51 140 -122 140 -203zM466 580c0 80 -70 146 -152 146c-84 0 -152 -66 -152 -146 c0 -82 69 -146 152 -146c82 0 152 64 152 146zM505 213c0 105 -86 182 -191 182s-191 -77 -191 -182s85 -185 191 -185s191 80 191 185z" />
<glyph unicode="9" horiz-adv-x="700" d="M237 0l224 312c-43 -24 -80 -31 -125 -31c-132 0 -237 110 -237 241c0 135 114 240 250 240c139 0 250 -105 250 -240c0 -58 -27 -116 -64 -169l-250 -353h-48zM553 522c0 111 -91 200 -204 200s-204 -89 -204 -200c0 -112 91 -201 204 -201s204 89 204 201z" />
<glyph unicode=":" horiz-adv-x="274" d="M179 438c0 -22 -19 -42 -42 -42c-24 0 -42 19 -42 42s18 42 42 42c23 0 42 -19 42 -42zM179 32c0 -24 -19 -42 -42 -42c-24 0 -42 18 -42 42c0 23 18 42 42 42c23 0 42 -20 42 -42z" />
<glyph unicode=";" horiz-adv-x="254" d="M170 438c0 -22 -19 -42 -42 -42c-24 0 -42 19 -42 42s18 42 42 42c23 0 42 -19 42 -42zM102 101h64l-80 -218h-28z" />
<glyph unicode="&#x3c;" horiz-adv-x="575" d="M118 243l381 -200l-20 -38l-409 215v48l409 198l19 -38z" />
<glyph unicode="=" horiz-adv-x="575" d="M505 350v-34h-435v34h435zM505 153v-34h-435v34h435z" />
<glyph unicode="&#x3e;" horiz-adv-x="575" d="M503 268v-48l-408 -215l-20 38l380 200l-379 185l19 38z" />
<glyph unicode="?" horiz-adv-x="501" d="M93 582h-43c8 100 95 178 200 178c109 0 200 -87 200 -194c0 -66 -40 -112 -84 -154c-11 -11 -22 -21 -33 -31c-29 -29 -61 -62 -61 -105v-89h-43v90c0 55 38 92 84 134c48 43 94 88 94 155c0 84 -71 152 -157 152c-80 0 -148 -60 -157 -136zM285 23 c0 -19 -14 -33 -35 -33c-20 0 -34 14 -34 33c0 20 14 34 34 34c21 0 35 -14 35 -34z" />
<glyph unicode="@" horiz-adv-x="541" d="M461 126h-40v27c-26 -27 -57 -37 -84 -37c-69 0 -126 56 -126 124s57 124 126 124c27 0 60 -12 84 -38v47c0 53 -62 66 -100 66c-110 0 -201 -89 -201 -199s91 -200 201 -200h135v-40h-135c-132 0 -241 108 -241 240s109 240 241 240c68 0 140 -34 140 -107v-247z M337 324c-47 0 -84 -37 -84 -84s37 -84 84 -84s84 37 84 84s-37 84 -84 84z" />
<glyph unicode="A" horiz-adv-x="652" d="M327 760l321 -760h-47l-71 169h-406l-72 -169h-47zM139 205h376l-188 454z" />
<glyph unicode="B" horiz-adv-x="590" d="M90 750h232c113 0 207 -91 207 -201c0 -59 -28 -133 -112 -167c93 -32 133 -115 133 -181c0 -110 -93 -201 -206 -201h-254v750zM131 400h215c92 0 140 67 140 149c0 88 -74 159 -164 159h-191v-308zM131 42h213c90 0 163 71 163 159c0 85 -71 163 -161 163h-215v-322z " />
<glyph unicode="C" horiz-adv-x="761" d="M693 122l31 -28c-71 -68 -167 -104 -266 -104c-214 0 -388 173 -388 385s174 385 388 385c96 0 194 -35 265 -104l-30 -28c-75 66 -156 90 -235 90c-190 0 -346 -154 -346 -343s156 -343 346 -343c80 0 156 24 235 90z" />
<glyph unicode="D" horiz-adv-x="715" d="M90 750h162c237 0 393 -137 393 -373c0 -235 -156 -377 -393 -377h-162v750zM130 42h122c212 0 351 122 351 335c0 215 -140 331 -351 331h-122v-666z" />
<glyph unicode="E" horiz-adv-x="542" d="M472 42v-42h-382v750h382v-42h-342v-312h300v-42h-300v-312h342z" />
<glyph unicode="F" horiz-adv-x="502" d="M472 750v-42h-342v-312h311v-42h-311v-354h-40v750h382z" />
<glyph unicode="G" horiz-adv-x="830" d="M740 396v-396h-41v65c-87 -55 -157 -75 -231 -75c-214 0 -388 173 -388 385s174 385 388 385c87 0 175 -28 242 -84l-28 -31c-61 47 -136 73 -214 73c-190 0 -346 -154 -346 -343s156 -343 346 -343c83 0 163 29 231 87v235h-225v42h266z" />
<glyph unicode="H" horiz-adv-x="713" d="M623 750v-750h-40v354h-453v-354h-40v750h40v-354h453v354h40z" />
<glyph unicode="I" horiz-adv-x="250" d="M149 750v-750h-49v750h49z" />
<glyph unicode="J" horiz-adv-x="357" d="M267 750v-630c0 -71 -65 -130 -145 -130c-26 0 -52 1 -77 6v45c26 -7 58 -9 77 -9c55 0 103 39 103 88v630h42z" />
<glyph unicode="K" horiz-adv-x="605" d="M190 375l382 -375h-60l-379 374v-374h-43v750h43v-374l379 374h60z" />
<glyph unicode="L" horiz-adv-x="446" d="M406 42v-42h-316v750h49v-708h267z" />
<glyph unicode="M" horiz-adv-x="871" d="M781 760v-760h-40v632l-306 -441l-305 441v-632h-40v769c11 -24 345 -508 345 -508z" />
<glyph unicode="N" horiz-adv-x="740" d="M610 750h40v-765l-520 651v-636h-40v760l520 -659v649z" />
<glyph unicode="O" horiz-adv-x="914" d="M844 375c0 -213 -175 -385 -387 -385s-387 172 -387 385c0 212 175 385 387 385s387 -173 387 -385zM802 375c0 189 -157 343 -345 343c-190 0 -345 -154 -345 -343c0 -190 157 -343 345 -343s345 153 345 343z" />
<glyph unicode="P" horiz-adv-x="554" d="M90 750h226c114 0 208 -91 208 -202s-94 -201 -208 -201h-186v-347h-40v750zM130 389h186c91 0 165 71 165 159c0 89 -74 160 -165 160h-186v-319z" />
<glyph unicode="Q" horiz-adv-x="914" d="M788 -4l-83 83c-79 -60 -163 -89 -248 -89c-212 0 -387 172 -387 385c0 212 175 385 387 385s387 -173 387 -385c0 -97 -33 -183 -108 -267l82 -82zM602 243l104 -106c67 74 96 155 96 238c0 189 -157 343 -345 343c-190 0 -345 -154 -345 -343c0 -190 155 -343 345 -343 c75 0 144 21 218 77l-103 104z" />
<glyph unicode="R" horiz-adv-x="581" d="M360 351l181 -351h-49l-177 347h-185v-347h-40v750h225c114 0 207 -91 207 -202c0 -86 -60 -165 -162 -197zM130 389h185c90 0 164 71 164 159s-74 160 -164 160h-185v-319z" />
<glyph unicode="S" horiz-adv-x="543" d="M454 674l-41 -17c-31 38 -78 60 -129 60c-90 0 -166 -72 -166 -160c0 -78 65 -115 128 -143c22 -9 46 -18 69 -28c95 -38 178 -81 178 -193c0 -118 -115 -203 -235 -203c-85 0 -174 46 -213 120l41 17c33 -60 107 -94 172 -94c88 0 191 60 191 160c0 79 -64 117 -128 145 c-22 10 -46 19 -69 29c-95 38 -178 81 -178 190c0 112 95 203 210 203c67 0 132 -33 170 -86z" />
<glyph unicode="T" horiz-adv-x="473" d="M468 750v-42h-212v-708h-39v708h-212v42h463z" />
<glyph unicode="U" horiz-adv-x="650" d="M565 750v-547c0 -111 -105 -213 -240 -213c-133 0 -240 102 -240 213v547h43v-547c0 -89 83 -171 197 -171c117 0 197 82 197 171v547h43z" />
<glyph unicode="V" horiz-adv-x="652" d="M601 750h47l-321 -760l-322 760h47l275 -659z" />
<glyph unicode="W" horiz-adv-x="975" d="M951 750h45l-355 -760l-153 319l-151 -319l-357 760h46l311 -665l128 272l-181 393h46l158 -344l159 344h45l-181 -393l129 -272z" />
<glyph unicode="X" horiz-adv-x="564" d="M308 377l252 -377h-51l-227 340l-226 -340h-51l252 377l-249 373h51l223 -336l225 336h50z" />
<glyph unicode="Y" horiz-adv-x="559" d="M504 750h51l-254 -380v-370h-43v370l-253 380h51l223 -336z" />
<glyph unicode="Z" horiz-adv-x="628" d="M587 42v-42h-545l455 708h-446v42h523l-457 -708h470z" />
<glyph unicode="[" horiz-adv-x="308" d="M238 -204v-41h-168v995h168v-41h-129v-913h129z" />
<glyph unicode="\" horiz-adv-x="651" d="M87 760l523 -1005h-38l-523 1005h38z" />
<glyph unicode="]" horiz-adv-x="308" d="M70 750h168v-995h-170v41h131v913h-129v41z" />
<glyph unicode="^" horiz-adv-x="438" d="M412 402h-51l-143 343l-142 -343h-51l162 361h63z" />
<glyph unicode="_" horiz-adv-x="698" d="M628 30v-30h-558v30h558z" />
<glyph unicode="`" horiz-adv-x="-20" d="M-103 750l115 -177h-21l-154 177h60z" />
<glyph unicode="a" d="M547 470v-470h-40v97c-44 -64 -118 -107 -202 -107c-135 0 -245 110 -245 245s110 245 245 245c84 0 158 -43 202 -107v97h40zM507 235c0 111 -91 202 -202 202s-202 -91 -202 -202s91 -202 202 -202s202 91 202 202z" />
<glyph unicode="b" horiz-adv-x="635" d="M129 750v-378c44 65 118 108 202 108c135 0 245 -110 245 -245s-110 -245 -245 -245c-84 0 -158 42 -202 107v-97h-39v750h39zM533 235c0 111 -91 202 -202 202s-202 -91 -202 -202c0 -112 91 -203 202 -203s202 91 202 203z" />
<glyph unicode="c" horiz-adv-x="580" d="M484 139l40 -17c-41 -80 -128 -132 -218 -132c-136 0 -246 110 -246 245s110 245 246 245c92 0 175 -52 218 -134l-39 -16c-35 66 -105 107 -179 107c-112 0 -203 -91 -203 -202s91 -202 203 -202c74 0 144 41 178 106z" />
<glyph unicode="d" d="M547 750v-750h-40v97c-44 -64 -118 -107 -202 -107c-135 0 -245 110 -245 245s110 245 245 245c84 0 158 -43 202 -107v377h40zM507 235c0 111 -91 202 -202 202s-202 -91 -202 -202s91 -202 202 -202s202 91 202 202z" />
<glyph unicode="e" horiz-adv-x="610" d="M483 139l39 -18c-41 -78 -123 -131 -217 -131c-135 0 -245 110 -245 245s110 245 245 245c130 0 236 -101 245 -229h-447v-16c0 -111 91 -202 202 -202c77 0 144 43 178 106zM111 294h388c-26 82 -103 143 -194 143s-168 -61 -194 -143z" />
<glyph unicode="f" horiz-adv-x="323" d="M303 470v-38h-127v-432h-40v432h-86v38h86v164c0 71 46 130 124 130c21 0 37 -8 43 -14v-43c-7 10 -29 15 -45 15c-53 0 -82 -39 -82 -88v-164h127z" />
<glyph unicode="g" horiz-adv-x="640" d="M550 470v-475c0 -132 -110 -240 -245 -240c-93 0 -174 51 -217 129l39 17c35 -64 100 -104 178 -104c111 0 202 89 202 198v114c-54 -82 -134 -109 -202 -109c-135 0 -245 108 -245 240s110 240 245 240c68 0 147 -28 202 -109v99h43zM507 240c0 110 -90 198 -202 198 c-111 0 -202 -89 -202 -198s91 -198 202 -198s202 89 202 198z" />
<glyph unicode="h" horiz-adv-x="516" d="M451 295v-295h-43v295c0 77 -56 132 -133 132c-71 0 -145 -54 -145 -129v-298h-40v750h40v-363c34 52 91 82 153 82c98 0 168 -77 168 -174z" />
<glyph unicode="i" horiz-adv-x="274" d="M174 599c0 -21 -16 -37 -37 -37s-37 16 -37 37s16 37 37 37s37 -16 37 -37zM159 470v-470h-43v470h43z" />
<glyph unicode="j" horiz-adv-x="274" d="M174 599c0 -21 -16 -37 -37 -37s-37 16 -37 37s16 37 37 37s37 -16 37 -37zM159 470v-713h-43v713h43z" />
<glyph unicode="k" horiz-adv-x="498" d="M188 241l272 -241h-63l-258 233v-233h-41v750h41v-503l229 211h63z" />
<glyph unicode="l" horiz-adv-x="250" d="M145 750v-750h-40v750h40z" />
<glyph unicode="m" horiz-adv-x="813" d="M748 302v-302h-39v302c0 71 -56 138 -130 138s-141 -59 -141 -135v-305h-41v305c0 72 -53 135 -128 135c-72 0 -139 -62 -139 -135v-305h-40v470h40v-70c33 50 86 80 147 80c65 0 110 -38 144 -92c34 57 99 92 165 92c99 0 162 -83 162 -178z" />
<glyph unicode="n" horiz-adv-x="516" d="M451 302v-302h-40v302c0 75 -61 137 -136 137c-73 0 -145 -58 -145 -134v-305h-40v470h40v-68c36 48 93 78 153 78c100 0 168 -80 168 -178z" />
<glyph unicode="o" horiz-adv-x="610" d="M550 235c0 -135 -110 -245 -245 -245s-245 110 -245 245s110 245 245 245s245 -110 245 -245zM507 235c0 111 -91 202 -202 202s-202 -91 -202 -202s91 -202 202 -202s202 91 202 202z" />
<glyph unicode="p" d="M130 470v-97c44 64 118 107 202 107c135 0 245 -110 245 -245s-110 -245 -245 -245c-84 0 -158 43 -202 107v-340h-40v713h40zM535 235c0 111 -92 202 -203 202s-202 -91 -202 -202s91 -202 202 -202s203 91 203 202z" />
<glyph unicode="q" d="M547 470v-713h-40v340c-44 -64 -118 -107 -202 -107c-135 0 -245 110 -245 245s110 245 245 245c84 0 158 -43 202 -107v97h40zM507 235c0 111 -91 202 -202 202s-202 -91 -202 -202s91 -202 202 -202s202 91 202 202z" />
<glyph unicode="r" horiz-adv-x="355" d="M335 474v-42c-119 26 -199 -47 -199 -172v-260h-41v469h41v-85c39 87 125 110 199 90z" />
<glyph unicode="s" horiz-adv-x="383" d="M311 415l-41 -17c-18 25 -48 39 -78 39c-51 0 -94 -38 -94 -90c0 -111 245 -75 245 -224c0 -80 -80 -133 -154 -133c-59 0 -121 31 -145 86l41 17c17 -38 64 -60 104 -60c51 0 110 33 110 90c0 112 -246 76 -246 224c0 75 65 133 139 133c48 0 93 -23 119 -65z" />
<glyph unicode="t" horiz-adv-x="338" d="M289 470v-38h-100v-432h-40v432h-100v38h100v167h40v-167h100z" />
<glyph unicode="u" horiz-adv-x="517" d="M442 470v-301c0 -99 -83 -179 -184 -179s-183 80 -183 179v301h40v-301c0 -74 68 -140 143 -140c78 0 144 66 144 140v301h40z" />
<glyph unicode="v" horiz-adv-x="510" d="M423 470h47l-210 -470h-7l-215 470h48l170 -370h3z" />
<glyph unicode="w" horiz-adv-x="770" d="M685 470h47l-200 -470h-9l-139 354l-139 -354h-9l-198 470h46l155 -372l145 361l147 -361z" />
<glyph unicode="x" horiz-adv-x="537" d="M295 235l193 -235h-56l-165 202l-164 -202h-56l193 235l-193 235h56l164 -202l165 202h56z" />
<glyph unicode="y" horiz-adv-x="530" d="M443 470h49l-311 -715h-48l120 270l-214 445h50l186 -395z" />
<glyph unicode="z" horiz-adv-x="487" d="M456 36v-36h-423l330 433h-309v37h384l-328 -434h346z" />
<glyph unicode="{" horiz-adv-x="368" d="M283 -205v-37h-33c-57 0 -90 61 -90 121v187c0 33 1 71 -10 102c-10 30 -29 54 -65 72v40c73 36 75 96 75 174v186c0 60 33 121 90 121h33v-37c-53 -3 -82 -28 -82 -94v-191c0 -64 -8 -131 -77 -179c69 -48 77 -115 77 -179v-192c0 -66 29 -91 82 -94z" />
<glyph unicode="|" horiz-adv-x="250" d="M145 750v-977h-40v977h40z" />
<glyph unicode="}" horiz-adv-x="368" d="M283 280v-40c-36 -18 -55 -42 -65 -72c-11 -31 -10 -69 -10 -102v-187c0 -60 -33 -121 -90 -121h-33v37c53 3 82 28 82 94v192c0 64 8 131 77 179c-69 48 -77 115 -77 179v191c0 66 -29 91 -82 94v37h33c57 0 90 -61 90 -121v-186c0 -78 2 -138 75 -174z" />
<glyph unicode="~" horiz-adv-x="468" d="M372 297l36 -15c-18 -39 -48 -87 -97 -87c-55 0 -110 65 -155 65c-29 0 -51 -40 -61 -62l-35 14c19 38 47 87 96 87c55 0 110 -65 155 -65c27 0 51 41 61 63z" />
<glyph unicode="&#xc4;" horiz-adv-x="652" d="M276 857c0 -22 -16 -37 -38 -37s-36 15 -36 37c0 21 14 37 36 37s38 -16 38 -37zM452 857c0 -22 -16 -37 -36 -37c-22 0 -38 15 -38 37c0 21 16 37 38 37c20 0 36 -16 36 -37zM327 760l321 -760h-47l-71 169h-406l-72 -169h-47zM139 205h376l-188 454z" />
<glyph unicode="&#xc5;" horiz-adv-x="652" d="M382 825c0 31 -25 57 -55 57c-32 0 -55 -26 -55 -57c0 -30 24 -56 55 -56c30 0 55 26 55 56zM139 205h376l-188 454zM321 745c-42 3 -75 38 -75 80c0 45 36 81 81 81c44 0 81 -36 81 -81c0 -42 -33 -77 -75 -80l315 -745h-47l-71 169h-406l-72 -169h-47z" />
<glyph unicode="&#xc7;" horiz-adv-x="761" d="M693 122l31 -28c-69 -66 -162 -102 -258 -104c-9 -9 -16 -32 -18 -44c54 1 100 -29 100 -81c0 -91 -111 -96 -178 -87l16 39c34 -5 117 -7 117 48c0 50 -55 54 -90 51l27 74c-205 10 -370 179 -370 385c0 212 174 385 388 385c96 0 194 -35 265 -104l-30 -28 c-75 66 -156 90 -235 90c-190 0 -346 -154 -346 -343s156 -343 346 -343c80 0 156 24 235 90z" />
<glyph unicode="&#xc9;" horiz-adv-x="542" d="M386 997h60l-154 -177h-22zM472 42v-42h-382v750h382v-42h-342v-312h300v-42h-300v-312h342z" />
<glyph unicode="&#xd1;" horiz-adv-x="740" d="M516 921l36 -14c-18 -40 -48 -87 -97 -87c-55 0 -110 65 -155 65c-28 0 -51 -40 -61 -63l-35 15c19 38 47 86 96 86c55 0 110 -65 155 -65c27 0 51 42 61 63zM610 750h40v-765l-520 651v-636h-40v760l520 -659v649z" />
<glyph unicode="&#xd6;" horiz-adv-x="914" d="M406 857c0 -22 -16 -37 -38 -37s-36 15 -36 37c0 21 14 37 36 37s38 -16 38 -37zM582 857c0 -22 -16 -37 -36 -37c-22 0 -38 15 -38 37c0 21 16 37 38 37c20 0 36 -16 36 -37zM844 375c0 -213 -175 -385 -387 -385s-387 172 -387 385c0 212 175 385 387 385 s387 -173 387 -385zM802 375c0 189 -157 343 -345 343c-190 0 -345 -154 -345 -343c0 -190 157 -343 345 -343s345 153 345 343z" />
<glyph unicode="&#xdc;" horiz-adv-x="650" d="M274 857c0 -22 -16 -37 -38 -37s-36 15 -36 37c0 21 14 37 36 37s38 -16 38 -37zM450 857c0 -22 -16 -37 -36 -37c-22 0 -38 15 -38 37c0 21 16 37 38 37c20 0 36 -16 36 -37zM565 750v-547c0 -111 -105 -213 -240 -213c-133 0 -240 102 -240 213v547h43v-547 c0 -89 83 -171 197 -171c117 0 197 82 197 171v547h43z" />
<glyph unicode="&#xe1;" d="M410 717h60l-154 -177h-22zM547 470v-470h-40v97c-44 -64 -118 -107 -202 -107c-135 0 -245 110 -245 245s110 245 245 245c84 0 158 -43 202 -107v97h40zM507 235c0 111 -91 202 -202 202s-202 -91 -202 -202s91 -202 202 -202s202 91 202 202z" />
<glyph unicode="&#xe0;" d="M200 717l116 -177h-22l-154 177h60zM547 470v-470h-40v97c-44 -64 -118 -107 -202 -107c-135 0 -245 110 -245 245s110 245 245 245c84 0 158 -43 202 -107v97h40zM507 235c0 111 -91 202 -202 202s-202 -91 -202 -202s91 -202 202 -202s202 91 202 202z" />
<glyph unicode="&#xe2;" d="M340 653l88 -113h-41l-83 88l-82 -88h-40l88 113h70zM547 470v-470h-40v97c-44 -64 -118 -107 -202 -107c-135 0 -245 110 -245 245s110 245 245 245c84 0 158 -43 202 -107v97h40zM507 235c0 111 -91 202 -202 202s-202 -91 -202 -202s91 -202 202 -202s202 91 202 202z " />
<glyph unicode="&#xe4;" d="M254 577c0 -22 -16 -37 -38 -37s-36 15 -36 37c0 21 14 37 36 37s38 -16 38 -37zM430 577c0 -22 -16 -37 -36 -37c-22 0 -38 15 -38 37c0 21 16 37 38 37c20 0 36 -16 36 -37zM547 470v-470h-40v97c-44 -64 -118 -107 -202 -107c-135 0 -245 110 -245 245 s110 245 245 245c84 0 158 -43 202 -107v97h40zM507 235c0 111 -91 202 -202 202s-202 -91 -202 -202s91 -202 202 -202s202 91 202 202z" />
<glyph unicode="&#xe3;" d="M443 641l36 -14c-18 -40 -48 -87 -97 -87c-55 0 -110 65 -155 65c-28 0 -51 -40 -61 -63l-35 15c19 38 47 86 96 86c55 0 110 -65 155 -65c27 0 51 42 61 63zM547 470v-470h-40v97c-44 -64 -118 -107 -202 -107c-135 0 -245 110 -245 245s110 245 245 245 c84 0 158 -43 202 -107v97h40zM507 235c0 111 -91 202 -202 202s-202 -91 -202 -202s91 -202 202 -202s202 91 202 202z" />
<glyph unicode="&#xe5;" d="M386 620c0 -44 -37 -80 -81 -80c-45 0 -81 36 -81 80c0 45 36 81 81 81c44 0 81 -36 81 -81zM360 620c0 31 -25 57 -55 57c-32 0 -55 -26 -55 -57c0 -30 24 -56 55 -56c30 0 55 26 55 56zM547 470v-470h-40v97c-44 -64 -118 -107 -202 -107c-135 0 -245 110 -245 245 s110 245 245 245c84 0 158 -43 202 -107v97h40zM507 235c0 111 -91 202 -202 202s-202 -91 -202 -202s91 -202 202 -202s202 91 202 202z" />
<glyph unicode="&#xe7;" horiz-adv-x="580" d="M484 139l40 -17c-40 -78 -123 -129 -210 -132c-9 -9 -16 -32 -18 -44c54 1 100 -29 100 -81c0 -91 -111 -96 -178 -87l16 39c34 -5 117 -7 117 48c0 50 -55 54 -90 51l27 75c-127 9 -228 115 -228 244c0 135 110 245 246 245c92 0 175 -52 218 -134l-39 -16 c-35 66 -105 107 -179 107c-112 0 -203 -91 -203 -202s91 -202 203 -202c74 0 144 41 178 106z" />
<glyph unicode="&#xe9;" horiz-adv-x="610" d="M410 717h60l-154 -177h-22zM483 139l39 -18c-41 -78 -123 -131 -217 -131c-135 0 -245 110 -245 245s110 245 245 245c130 0 236 -101 245 -229h-447v-16c0 -111 91 -202 202 -202c77 0 144 43 178 106zM111 294h388c-26 82 -103 143 -194 143s-168 -61 -194 -143z" />
<glyph unicode="&#xe8;" horiz-adv-x="610" d="M200 717l116 -177h-22l-154 177h60zM483 139l39 -18c-41 -78 -123 -131 -217 -131c-135 0 -245 110 -245 245s110 245 245 245c130 0 236 -101 245 -229h-447v-16c0 -111 91 -202 202 -202c77 0 144 43 178 106zM111 294h388c-26 82 -103 143 -194 143 s-168 -61 -194 -143z" />
<glyph unicode="&#xea;" horiz-adv-x="610" d="M340 653l88 -113h-41l-83 88l-82 -88h-40l88 113h70zM483 139l39 -18c-41 -78 -123 -131 -217 -131c-135 0 -245 110 -245 245s110 245 245 245c130 0 236 -101 245 -229h-447v-16c0 -111 91 -202 202 -202c77 0 144 43 178 106zM111 294h388c-26 82 -103 143 -194 143 s-168 -61 -194 -143z" />
<glyph unicode="&#xeb;" horiz-adv-x="610" d="M254 577c0 -22 -16 -37 -38 -37s-36 15 -36 37c0 21 14 37 36 37s38 -16 38 -37zM430 577c0 -22 -16 -37 -36 -37c-22 0 -38 15 -38 37c0 21 16 37 38 37c20 0 36 -16 36 -37zM483 139l39 -18c-41 -78 -123 -131 -217 -131c-135 0 -245 110 -245 245s110 245 245 245 c130 0 236 -101 245 -229h-447v-16c0 -111 91 -202 202 -202c77 0 144 43 178 106zM111 294h388c-26 82 -103 143 -194 143s-168 -61 -194 -143z" />
<glyph unicode="&#xed;" horiz-adv-x="253" d="M230 717h60l-154 -177h-20zM148 470v-470h-43v470h43z" />
<glyph unicode="&#xec;" horiz-adv-x="253" d="M22 717l114 -177h-20l-154 177h60zM148 470v-470h-43v470h43z" />
<glyph unicode="&#xee;" horiz-adv-x="253" d="M161 653l88 -113h-41l-83 88l-82 -88h-40l88 113h70zM148 470v-470h-43v470h43z" />
<glyph unicode="&#xef;" horiz-adv-x="253" d="M74 577c0 -22 -16 -37 -36 -37c-22 0 -38 15 -38 37c0 21 16 37 38 37c20 0 36 -16 36 -37zM252 577c0 -22 -16 -37 -38 -37s-36 15 -36 37c0 21 14 37 36 37s38 -16 38 -37zM148 470v-470h-43v470h43z" />
<glyph unicode="&#xf1;" horiz-adv-x="516" d="M408 641l36 -14c-18 -40 -48 -87 -96 -87c-56 0 -110 65 -156 65c-28 0 -50 -40 -60 -63l-36 15c20 38 48 86 96 86c56 0 110 -65 156 -65c26 0 50 42 60 63zM451 302v-302h-40v302c0 75 -61 137 -136 137c-73 0 -145 -58 -145 -134v-305h-40v470h40v-68 c36 48 93 78 153 78c100 0 168 -80 168 -178z" />
<glyph unicode="&#xf3;" horiz-adv-x="610" d="M410 717h60l-154 -177h-22zM550 235c0 -135 -110 -245 -245 -245s-245 110 -245 245s110 245 245 245s245 -110 245 -245zM507 235c0 111 -91 202 -202 202s-202 -91 -202 -202s91 -202 202 -202s202 91 202 202z" />
<glyph unicode="&#xf2;" horiz-adv-x="610" d="M200 717l116 -177h-22l-154 177h60zM550 235c0 -135 -110 -245 -245 -245s-245 110 -245 245s110 245 245 245s245 -110 245 -245zM507 235c0 111 -91 202 -202 202s-202 -91 -202 -202s91 -202 202 -202s202 91 202 202z" />
<glyph unicode="&#xf4;" horiz-adv-x="610" d="M340 653l88 -113h-41l-83 88l-82 -88h-40l88 113h70zM550 235c0 -135 -110 -245 -245 -245s-245 110 -245 245s110 245 245 245s245 -110 245 -245zM507 235c0 111 -91 202 -202 202s-202 -91 -202 -202s91 -202 202 -202s202 91 202 202z" />
<glyph unicode="&#xf6;" horiz-adv-x="610" d="M254 577c0 -22 -16 -37 -38 -37s-36 15 -36 37c0 21 14 37 36 37s38 -16 38 -37zM430 577c0 -22 -16 -37 -36 -37c-22 0 -38 15 -38 37c0 21 16 37 38 37c20 0 36 -16 36 -37zM550 235c0 -135 -110 -245 -245 -245s-245 110 -245 245s110 245 245 245s245 -110 245 -245z M507 235c0 111 -91 202 -202 202s-202 -91 -202 -202s91 -202 202 -202s202 91 202 202z" />
<glyph unicode="&#xf5;" horiz-adv-x="610" d="M443 641l36 -14c-18 -40 -48 -87 -97 -87c-55 0 -110 65 -155 65c-28 0 -51 -40 -61 -63l-35 15c19 38 47 86 96 86c55 0 110 -65 155 -65c27 0 51 42 61 63zM550 235c0 -135 -110 -245 -245 -245s-245 110 -245 245s110 245 245 245s245 -110 245 -245zM507 235 c0 111 -91 202 -202 202s-202 -91 -202 -202s91 -202 202 -202s202 91 202 202z" />
<glyph unicode="&#xfa;" horiz-adv-x="517" d="M363 717h60l-154 -177h-21zM442 470v-301c0 -99 -83 -179 -184 -179s-183 80 -183 179v301h40v-301c0 -74 68 -140 143 -140c78 0 144 66 144 140v301h40z" />
<glyph unicode="&#xf9;" horiz-adv-x="517" d="M154 717l115 -177h-21l-154 177h60zM442 470v-301c0 -99 -83 -179 -184 -179s-183 80 -183 179v301h40v-301c0 -74 68 -140 143 -140c78 0 144 66 144 140v301h40z" />
<glyph unicode="&#xfb;" horiz-adv-x="517" d="M294 653l88 -113h-42l-82 88l-82 -88h-40l88 113h70zM442 470v-301c0 -99 -83 -179 -184 -179s-183 80 -183 179v301h40v-301c0 -74 68 -140 143 -140c78 0 144 66 144 140v301h40z" />
<glyph unicode="&#xfc;" horiz-adv-x="517" d="M207 577c0 -22 -16 -37 -37 -37c-22 0 -37 15 -37 37c0 21 15 37 37 37c21 0 37 -16 37 -37zM384 577c0 -22 -16 -37 -37 -37c-22 0 -37 15 -37 37c0 21 15 37 37 37c21 0 37 -16 37 -37zM442 470v-301c0 -99 -83 -179 -184 -179s-183 80 -183 179v301h40v-301 c0 -74 68 -140 143 -140c78 0 144 66 144 140v301h40z" />
<glyph unicode="&#x2020;" horiz-adv-x="418" d="M368 460v-42h-140v-498h-44v498h-134v42h134v290h44v-290h140z" />
<glyph unicode="&#xb0;" horiz-adv-x="477" d="M417 578c0 -98 -80 -178 -178 -178c-99 0 -179 80 -179 178c0 99 80 179 179 179c98 0 178 -80 178 -179zM380 578c0 78 -64 142 -141 142c-78 0 -142 -64 -142 -142c0 -77 64 -141 142 -141c77 0 141 64 141 141z" />
<glyph unicode="&#xa2;" horiz-adv-x="570" d="M319 563v-87c95 -11 167 -60 205 -131l-39 -16c-30 55 -85 93 -166 105v-399c79 13 136 51 165 106l40 -18c-37 -70 -110 -118 -205 -129v-85h-32v85c-134 17 -227 119 -227 241s93 223 227 241v87h32zM287 36v398c-112 -21 -184 -102 -184 -199s72 -178 184 -199z" />
<glyph unicode="&#xa3;" horiz-adv-x="808" d="M663 28v-39h-504v13l36 23c135 87 147 136 111 366c-1 7 -2 13 -4 33h-86v39h84c3 108 37 168 69 205c44 51 109 82 170 82h124v-39h-124c-40 0 -97 -18 -141 -69c-27 -31 -55 -83 -59 -179h324v-39h-322l4 -27c28 -188 27 -268 -75 -369h393z" />
<glyph unicode="&#xa7;" horiz-adv-x="619" d="M284 565l129 -63c64 -31 126 -64 126 -145c0 -64 -53 -117 -97 -156c43 -37 62 -61 62 -121c0 -200 -290 -245 -414 -47l35 26c44 -70 98 -111 183 -111c74 0 143 54 143 132c0 171 -371 147 -371 334c0 69 53 117 102 157c-26 33 -52 72 -52 116c0 174 229 212 339 90 l-33 -27c-83 88 -254 75 -254 -61c0 -69 47 -98 102 -124zM221 313l189 -90c39 28 80 72 80 123c0 60 -39 91 -89 115l-189 90c-39 -30 -80 -70 -80 -122c0 -62 38 -92 89 -116z" />
<glyph unicode="&#x2022;" horiz-adv-x="314" d="M239 239c0 -47 -35 -82 -82 -82c-45 0 -82 35 -82 82c0 45 37 81 82 81c47 0 82 -36 82 -81z" />
<glyph unicode="&#xb6;" horiz-adv-x="509" d="M420 750v-750h-31v720h-102v-720h-31v286c-133 16 -226 114 -226 232c0 128 108 232 241 232h149z" />
<glyph unicode="&#xdf;" horiz-adv-x="559" d="M90 0v587c0 90 75 163 167 163s167 -73 167 -163c0 -50 -23 -95 -78 -139c100 -50 153 -130 153 -221c0 -125 -100 -228 -231 -236v39c109 8 191 93 191 197s-82 189 -191 196v41c67 7 116 59 116 123c0 68 -57 124 -127 124s-127 -56 -127 -124v-587h-40z" />
<glyph unicode="&#xae;" horiz-adv-x="491" d="M446 560c0 -110 -91 -199 -201 -199c-109 0 -200 89 -200 199c0 111 91 200 200 200c110 0 201 -90 201 -200zM422 560c0 98 -79 176 -177 176c-96 0 -175 -78 -175 -176c0 -97 79 -175 175 -175c98 0 177 78 177 175zM271 551l47 -86h-25l-46 84h-26v-84h-23v191h53 c33 0 60 -25 60 -54c0 -19 -12 -37 -40 -51zM221 568h30c19 0 37 14 37 34s-18 35 -37 35h-30v-69z" />
<glyph unicode="&#xa9;" horiz-adv-x="767" d="M697 375c0 -172 -142 -312 -314 -312c-171 0 -313 140 -313 312s142 312 313 312c172 0 314 -140 314 -312zM659 375c0 152 -124 274 -276 274c-150 0 -275 -122 -275 -274s125 -274 275 -274c152 0 276 122 276 274zM528 441l-42 -19c-26 48 -63 70 -105 70 c-63 0 -115 -52 -115 -115s52 -115 115 -115c41 0 77 22 103 65c15 -4 30 -9 44 -15c-34 -65 -87 -97 -147 -97c-89 0 -162 73 -162 162s73 162 162 162c60 0 113 -32 147 -98z" />
<glyph unicode="&#x2122;" horiz-adv-x="713" d="M270 750v-40h-90v-285h-41v285h-89v40h220zM653 750v-325h-40v222l-122 -172l-122 172v-222h-40v325h13l149 -209l148 209h14z" />
<glyph unicode="&#xb4;" horiz-adv-x="-20" d="M84 750h60l-154 -177h-21z" />
<glyph unicode="&#xa8;" d="M269 849c0 -22 -16 -37 -37 -37c-22 0 -37 15 -37 37c0 21 15 37 37 37c21 0 37 -16 37 -37zM446 849c0 -22 -16 -37 -37 -37c-22 0 -37 15 -37 37c0 21 15 37 37 37c21 0 37 -16 37 -37z" />
<glyph unicode="&#x2260;" horiz-adv-x="575" d="M505 153v-34h-237l-68 -129h-38l67 129h-159v34h177l85 163h-262v34h279l68 130h39l-68 -130h117v-34h-135l-84 -163h219z" />
<glyph unicode="&#xc6;" horiz-adv-x="945" d="M890 39v-39h-360v220h-279l-135 -220h-45l467 750h352v-39h-321v-309h272v-39h-272v-324h321zM274 259h256v401z" />
<glyph unicode="&#xd8;" horiz-adv-x="914" d="M734 760l-49 -74c103 -81 159 -186 159 -311c0 -213 -175 -385 -387 -385c-67 0 -129 16 -199 54l-35 -54h-25l43 65c-108 81 -171 191 -171 320c0 212 175 385 387 385c72 0 138 -20 211 -63l41 63h25zM264 90l381 573c-66 38 -123 55 -188 55 c-190 0 -345 -154 -345 -343c0 -113 55 -213 152 -285zM662 652l-381 -573c64 -33 118 -47 176 -47c188 0 345 153 345 343c0 109 -49 201 -140 277z" />
<glyph unicode="&#x221e;" horiz-adv-x="1184" d="M592 273l23 32c65 88 160 173 271 173c131 0 238 -110 238 -244s-107 -244 -238 -244c-111 0 -205 85 -271 173l-23 31l-23 -31c-65 -88 -160 -173 -270 -173c-132 0 -239 110 -239 244s107 244 239 244c110 0 205 -85 270 -173zM570 234c-60 95 -159 205 -271 205 c-110 0 -200 -92 -200 -205s90 -205 200 -205c112 0 211 110 271 205zM1085 234c0 113 -89 205 -199 205c-113 0 -211 -110 -271 -205c60 -95 158 -205 271 -205c110 0 199 92 199 205z" />
<glyph unicode="&#xb1;" horiz-adv-x="698" d="M628 253v-30h-263v-149h-32v149h-263v30h263v149h32v-149h263zM628 30v-30h-558v30h558z" />
<glyph unicode="&#xa5;" d="M530 750h48l-240 -379h203v-31h-204v-121h204v-31h-204v-188h-40v188h-203v31h203v121h-203v31h202l-239 379h48l212 -336z" />
<glyph unicode="&#x2211;" horiz-adv-x="798" d="M723 39v-39h-643l395 381l-395 369h643v-39h-548l355 -331l-355 -341h548z" />
<glyph unicode="&#x220f;" horiz-adv-x="474" d="M404 750v-750h-35v715h-264v-715h-35v750h334z" />
<glyph unicode="&#x3c0;" horiz-adv-x="602" d="M528 471v-40h-77v-311c0 -46 32 -83 77 -90v-40c-66 8 -114 63 -114 130v311h-229v-431h-37v431h-73v40h453z" />
<glyph unicode="&#xe6;" horiz-adv-x="951" d="M127 374l-37 15c34 61 102 91 169 91c77 0 160 -38 178 -119c44 72 125 119 209 119c129 0 238 -99 246 -229h-447v-23c-4 -113 90 -195 202 -195c73 0 143 42 178 106l39 -18c-43 -81 -127 -131 -218 -131c-73 0 -145 35 -190 93c-44 -23 -210 -93 -254 -93 c-78 0 -147 54 -147 136c0 58 38 107 90 128h257v71c0 80 -71 117 -143 117c-51 0 -104 -23 -132 -68zM454 294h387c-26 83 -106 143 -194 143c-87 0 -168 -60 -193 -143zM402 219h-247c-33 -17 -59 -51 -59 -89c0 -58 52 -102 109 -102c64 0 169 57 231 83 c-19 32 -31 71 -34 108z" />
<glyph unicode="&#xf8;" horiz-adv-x="610" d="M470 511l-35 -68c74 -52 115 -125 115 -208c0 -135 -110 -245 -245 -245c-28 0 -54 5 -92 18l-25 -51h-39l33 66c-78 52 -122 127 -122 212c0 135 110 245 245 245c30 0 59 -5 99 -21l27 52h39zM201 61l184 361c-37 12 -58 15 -80 15c-111 0 -202 -91 -202 -202 c0 -67 33 -126 98 -174zM415 405l-183 -360c36 -10 54 -12 73 -12c111 0 202 91 202 202c0 64 -30 121 -92 170z" />
<glyph unicode="&#xbf;" horiz-adv-x="501" d="M285 727c0 -20 -15 -34 -35 -34s-35 14 -35 34c0 19 15 33 35 33s35 -14 35 -33zM407 168h43c-8 -100 -94 -178 -200 -178c-109 0 -200 87 -200 194c0 66 40 112 84 154c12 11 23 21 33 31c29 29 61 62 61 105v89h44v-90c0 -55 -39 -92 -85 -134 c-47 -43 -94 -88 -94 -155c0 -84 71 -152 157 -152c80 0 149 60 157 136z" />
<glyph unicode="&#xa1;" horiz-adv-x="314" d="M199 718c0 -23 -19 -42 -42 -42c-24 0 -42 19 -42 42c0 24 18 42 42 42c23 0 42 -18 42 -42zM177 563v-563h-40v563h40z" />
<glyph unicode="&#x221a;" horiz-adv-x="907" d="M854 750h43l-437 -906h-43l-171 478h-236v39h263l168 -468z" />
<glyph unicode="&#x192;" horiz-adv-x="542" d="M502 537v-39h-70c-48 0 -90 -34 -99 -81l-18 -95h132v-39h-139l-49 -259c-19 -105 -108 -182 -219 -189v40c92 6 165 70 181 156l47 252h-112v39h119l19 102c13 66 71 113 138 113h70z" />
<glyph unicode="&#x2248;" horiz-adv-x="488" d="M382 364l36 -14c-18 -40 -48 -87 -97 -87c-55 0 -110 65 -155 65c-28 0 -51 -40 -61 -63l-35 15c20 38 48 86 96 86c56 0 111 -65 155 -65c28 0 52 42 61 63zM382 215l36 -14c-18 -40 -48 -87 -97 -87c-55 0 -110 65 -155 65c-28 0 -51 -40 -61 -63l-35 15 c20 38 48 86 96 86c56 0 111 -65 155 -65c28 0 52 42 61 63z" />
<glyph unicode="&#xab;" horiz-adv-x="405" d="M96 239l115 -110l-25 -25l-141 136l141 126l24 -26zM246 239l115 -110l-25 -25l-141 136l141 126l24 -26z" />
<glyph unicode="&#xbb;" horiz-adv-x="405" d="M69 366l142 -126l-142 -136l-24 25l114 110l-113 101zM219 366l142 -126l-142 -136l-24 25l114 110l-113 101z" />
<glyph unicode="&#x2026;" horiz-adv-x="822" d="M727 32c0 -24 -19 -42 -42 -42c-24 0 -42 18 -42 42c0 23 18 42 42 42c23 0 42 -20 42 -42zM453 32c0 -24 -19 -42 -42 -42c-24 0 -42 18 -42 42c0 23 18 42 42 42c23 0 42 -20 42 -42zM179 32c0 -24 -19 -42 -42 -42c-24 0 -42 18 -42 42c0 23 18 42 42 42 c23 0 42 -20 42 -42z" />
<glyph unicode="&#xc0;" horiz-adv-x="652" d="M222 997l116 -177h-22l-154 177h60zM327 760l321 -760h-47l-71 169h-406l-72 -169h-47zM139 205h376l-188 454z" />
<glyph unicode="&#xc3;" horiz-adv-x="652" d="M465 921l36 -14c-18 -40 -48 -87 -97 -87c-55 0 -110 65 -155 65c-28 0 -51 -40 -61 -63l-35 15c19 38 47 86 96 86c55 0 110 -65 155 -65c27 0 51 42 61 63zM327 760l321 -760h-47l-71 169h-406l-72 -169h-47zM139 205h376l-188 454z" />
<glyph unicode="&#xd5;" horiz-adv-x="914" d="M595 921l36 -14c-18 -40 -48 -87 -97 -87c-55 0 -110 65 -155 65c-28 0 -51 -40 -61 -63l-35 15c19 38 47 86 96 86c55 0 110 -65 155 -65c27 0 51 42 61 63zM844 375c0 -213 -175 -385 -387 -385s-387 172 -387 385c0 212 175 385 387 385s387 -173 387 -385zM802 375 c0 189 -157 343 -345 343c-190 0 -345 -154 -345 -343c0 -190 157 -343 345 -343s345 153 345 343z" />
<glyph unicode="&#x152;" horiz-adv-x="1255" d="M1185 708h-342v-305v-7h300v-42h-300v-7v-305h342v-42h-382v203c-64 -126 -196 -213 -346 -213c-212 0 -387 172 -387 385c0 212 175 385 387 385c150 0 282 -87 346 -213v203h382v-42zM457 32c188 0 345 153 345 343c0 189 -157 343 -345 343 c-190 0 -345 -154 -345 -343c0 -190 157 -343 345 -343z" />
<glyph unicode="&#x153;" horiz-adv-x="1057" d="M998 251h-447v-16c0 -111 91 -202 202 -202c77 0 144 43 178 106l39 -18c-41 -78 -123 -131 -217 -131c-100 0 -186 60 -224 146c-38 -86 -124 -146 -224 -146c-135 0 -245 110 -245 245s110 245 245 245c100 0 186 -60 224 -146c38 86 124 146 224 146 c130 0 236 -101 245 -229zM305 33c111 0 202 91 202 202s-91 202 -202 202s-202 -91 -202 -202s91 -202 202 -202zM559 294h388c-26 82 -103 143 -194 143s-168 -61 -194 -143z" />
<glyph unicode="&#x2013;" horiz-adv-x="634" d="M544 258v-40h-454v40h454z" />
<glyph unicode="&#x2014;" horiz-adv-x="768" d="M768 258v-40h-768v40h768z" />
<glyph unicode="&#x201c;" horiz-adv-x="336" d="M125 750h23l-50 -238h-53zM269 750h23l-50 -238h-53z" />
<glyph unicode="&#x201d;" horiz-adv-x="336" d="M95 750h53l-80 -238h-23zM239 750h53l-80 -238h-23z" />
<glyph unicode="&#x2018;" horiz-adv-x="193" d="M125 750h23l-50 -238h-53z" />
<glyph unicode="&#x2019;" horiz-adv-x="193" d="M95 750h53l-80 -238h-23z" />
<glyph unicode="&#xf7;" horiz-adv-x="698" d="M389 403c0 -20 -14 -34 -34 -34c-19 0 -33 14 -33 34c0 21 14 35 33 35c20 0 34 -14 34 -35zM628 250v-32h-558v32h558zM389 67c0 -21 -14 -35 -34 -35c-19 0 -33 14 -33 35c0 20 14 34 33 34c20 0 34 -14 34 -34z" />
<glyph unicode="&#xff;" horiz-adv-x="530" d="M214 577c0 -22 -16 -37 -37 -37c-22 0 -37 15 -37 37c0 21 15 37 37 37c21 0 37 -16 37 -37zM391 577c0 -22 -16 -37 -37 -37c-22 0 -37 15 -37 37c0 21 15 37 37 37c21 0 37 -16 37 -37zM443 470h49l-311 -715h-48l120 270l-214 445h50l186 -395z" />
<glyph unicode="&#x178;" horiz-adv-x="559" d="M228 857c0 -22 -16 -37 -36 -37c-22 0 -38 15 -38 37c0 21 16 37 38 37c20 0 36 -16 36 -37zM406 857c0 -22 -16 -37 -38 -37s-36 15 -36 37c0 21 14 37 36 37s38 -16 38 -37zM504 750h51l-254 -380v-370h-43v370l-253 380h51l223 -336z" />
<glyph unicode="&#x2044;" horiz-adv-x="358" d="M-2 -10h-38l401 770h38z" />
<glyph unicode="&#xa4;" horiz-adv-x="630" d="M552 506l-40 -40c42 -65 58 -109 58 -166s-16 -101 -58 -166l40 -40l-23 -23l-42 43c-62 -45 -108 -64 -172 -64s-110 19 -172 64l-42 -43l-23 23l40 40c-42 65 -58 109 -58 166s16 101 58 166l-40 40l23 23l42 -43c62 45 108 64 172 64s110 -19 172 -64l42 43zM528 300 c2 120 -93 209 -213 209c-121 0 -216 -89 -214 -209c2 -112 96 -209 214 -209c117 0 211 97 213 209z" />
<glyph unicode="&#x2039;" horiz-adv-x="255" d="M96 239l115 -110l-25 -25l-141 136l141 126l24 -26z" />
<glyph unicode="&#x203a;" horiz-adv-x="255" d="M69 366l142 -126l-142 -136l-24 25l114 110l-113 101z" />
<glyph unicode="&#xfb01;" horiz-adv-x="597" d="M497 599c0 -21 -16 -37 -37 -37s-37 16 -37 37s16 37 37 37s37 -16 37 -37zM482 470v-470h-43v470h43zM303 470v-38h-127v-432h-40v432h-86v38h86v164c0 71 46 130 124 130c21 0 37 -8 43 -14v-43c-7 10 -29 15 -45 15c-53 0 -82 -39 -82 -88v-164h127z" />
<glyph unicode="&#xfb02;" horiz-adv-x="573" d="M468 750v-750h-40v750h40zM303 470v-38h-127v-432h-40v432h-86v38h86v164c0 71 46 130 124 130c21 0 37 -8 43 -14v-43c-7 10 -29 15 -45 15c-53 0 -82 -39 -82 -88v-164h127z" />
<glyph unicode="&#x2021;" horiz-adv-x="418" d="M368 202v-41h-140v-241h-44v241h-134v41h134v266h-134v42h134v240h44v-240h140v-42h-140v-266h140z" />
<glyph unicode="&#xb7;" horiz-adv-x="-20" d="M32 239c0 -25 -17 -42 -42 -42c-24 0 -42 18 -42 42c0 22 18 41 42 41c25 0 42 -18 42 -41z" />
<glyph unicode="&#x201a;" horiz-adv-x="197" d="M89 101h64l-80 -218h-28z" />
<glyph unicode="&#x201e;" horiz-adv-x="317" d="M89 101h64l-80 -218h-28zM209 101h64l-80 -218h-28z" />
<glyph unicode="&#x2030;" horiz-adv-x="1008" d="M353 623c0 -76 -61 -138 -136 -138c-76 0 -137 62 -137 138c0 75 61 137 137 137c75 0 136 -62 136 -137zM565 750h49l-472 -750h-49zM320 623c0 57 -46 104 -103 104c-58 0 -104 -47 -104 -104c0 -58 46 -104 104 -104c57 0 103 46 103 104zM627 127 c0 -75 -62 -137 -136 -137c-76 0 -138 62 -138 137c0 76 62 138 138 138c74 0 136 -62 136 -138zM968 127c0 -75 -62 -137 -136 -137c-76 0 -138 62 -138 137c0 76 62 138 138 138c74 0 136 -62 136 -138zM594 127c0 59 -48 104 -103 104c-57 0 -105 -45 -105 -104 s48 -104 105 -104c55 0 103 45 103 104zM935 127c0 59 -49 104 -103 104c-57 0 -105 -45 -105 -104s48 -104 105 -104c54 0 103 45 103 104z" />
<glyph unicode="&#xc2;" horiz-adv-x="652" d="M362 933l88 -113h-41l-83 88l-82 -88h-40l88 113h70zM327 760l321 -760h-47l-71 169h-406l-72 -169h-47zM139 205h376l-188 454z" />
<glyph unicode="&#xca;" horiz-adv-x="542" d="M316 933l88 -113h-41l-83 88l-82 -88h-40l88 113h70zM472 42v-42h-382v750h382v-42h-342v-312h300v-42h-300v-312h342z" />
<glyph unicode="&#xc1;" horiz-adv-x="652" d="M432 997h60l-154 -177h-22zM327 760l321 -760h-47l-71 169h-406l-72 -169h-47zM139 205h376l-188 454z" />
<glyph unicode="&#xcb;" horiz-adv-x="542" d="M230 857c0 -22 -16 -37 -38 -37s-36 15 -36 37c0 21 14 37 36 37s38 -16 38 -37zM406 857c0 -22 -16 -37 -36 -37c-22 0 -38 15 -38 37c0 21 16 37 38 37c20 0 36 -16 36 -37zM472 42v-42h-382v750h382v-42h-342v-312h300v-42h-300v-312h342z" />
<glyph unicode="&#xc8;" horiz-adv-x="542" d="M176 997l116 -177h-22l-154 177h60zM472 42v-42h-382v750h382v-42h-342v-312h300v-42h-300v-312h342z" />
<glyph unicode="&#xcd;" horiz-adv-x="250" d="M229 997h60l-154 -177h-21zM149 750v-750h-49v750h49z" />
<glyph unicode="&#xce;" horiz-adv-x="250" d="M160 933l88 -113h-42l-82 88l-82 -88h-40l88 113h70zM149 750v-750h-49v750h49z" />
<glyph unicode="&#xcf;" horiz-adv-x="250" d="M73 857c0 -22 -16 -37 -37 -37c-22 0 -37 15 -37 37c0 21 15 37 37 37c21 0 37 -16 37 -37zM250 857c0 -22 -16 -37 -37 -37c-22 0 -37 15 -37 37c0 21 15 37 37 37c21 0 37 -16 37 -37zM149 750v-750h-49v750h49z" />
<glyph unicode="&#xcc;" horiz-adv-x="250" d="M20 997l115 -177h-21l-154 177h60zM149 750v-750h-49v750h49z" />
<glyph unicode="&#xd3;" horiz-adv-x="914" d="M562 997h60l-154 -177h-22zM844 375c0 -213 -175 -385 -387 -385s-387 172 -387 385c0 212 175 385 387 385s387 -173 387 -385zM802 375c0 189 -157 343 -345 343c-190 0 -345 -154 -345 -343c0 -190 157 -343 345 -343s345 153 345 343z" />
<glyph unicode="&#xd4;" horiz-adv-x="914" d="M492 933l88 -113h-41l-83 88l-82 -88h-40l88 113h70zM844 375c0 -213 -175 -385 -387 -385s-387 172 -387 385c0 212 175 385 387 385s387 -173 387 -385zM802 375c0 189 -157 343 -345 343c-190 0 -345 -154 -345 -343c0 -190 157 -343 345 -343s345 153 345 343z" />
<glyph unicode="&#xd2;" horiz-adv-x="914" d="M352 997l116 -177h-22l-154 177h60zM844 375c0 -213 -175 -385 -387 -385s-387 172 -387 385c0 212 175 385 387 385s387 -173 387 -385zM802 375c0 189 -157 343 -345 343c-190 0 -345 -154 -345 -343c0 -190 157 -343 345 -343s345 153 345 343z" />
<glyph unicode="&#xda;" horiz-adv-x="650" d="M430 997h60l-154 -177h-22zM565 750v-547c0 -111 -105 -213 -240 -213c-133 0 -240 102 -240 213v547h43v-547c0 -89 83 -171 197 -171c117 0 197 82 197 171v547h43z" />
<glyph unicode="&#xdb;" horiz-adv-x="650" d="M360 933l88 -113h-41l-83 88l-82 -88h-40l88 113h70zM565 750v-547c0 -111 -105 -213 -240 -213c-133 0 -240 102 -240 213v547h43v-547c0 -89 83 -171 197 -171c117 0 197 82 197 171v547h43z" />
<glyph unicode="&#xd9;" horiz-adv-x="650" d="M220 997l116 -177h-22l-154 177h60zM565 750v-547c0 -111 -105 -213 -240 -213c-133 0 -240 102 -240 213v547h43v-547c0 -89 83 -171 197 -171c117 0 197 82 197 171v547h43z" />
<glyph unicode="&#x131;" horiz-adv-x="253" d="M148 470v-470h-43v470h43z" />
<glyph unicode="&#x2c6;" horiz-adv-x="-20" d="M25 676l88 -113h-41l-83 88l-82 -88h-40l88 113h70z" />
<glyph unicode="&#x2dc;" horiz-adv-x="-20" d="M128 669l36 -14c-18 -40 -48 -87 -97 -87c-55 0 -110 65 -155 65c-28 0 -51 -40 -61 -63l-35 15c19 38 47 86 96 86c55 0 110 -65 155 -65c27 0 51 42 61 63z" />
<glyph unicode="&#xaf;" horiz-adv-x="383" d="M364 629v-40h-344v40h344z" />
<glyph unicode="&#x2d8;" horiz-adv-x="-20" d="M90 760h35c0 -86 -62 -115 -135 -115s-135 29 -135 115h35c0 -55 32 -80 100 -80s100 25 100 80z" />
<glyph unicode="&#x2d9;" horiz-adv-x="0" d="M37 599c0 -21 -16 -37 -37 -37s-37 16 -37 37s16 37 37 37s37 -16 37 -37z" />
<glyph unicode="&#x2da;" horiz-adv-x="-20" d="M71 636c0 -44 -37 -80 -81 -80c-45 0 -81 36 -81 80c0 45 36 81 81 81c44 0 81 -36 81 -81zM45 636c0 31 -25 57 -55 57c-32 0 -55 -26 -55 -57c0 -30 24 -56 55 -56c30 0 55 26 55 56z" />
<glyph unicode="&#xb8;" horiz-adv-x="579" d="M284 4l30 -4c-13 0 -22 -33 -25 -47c54 1 100 -29 100 -81c0 -91 -111 -96 -178 -87l16 39c34 -5 117 -7 117 48c0 50 -55 54 -90 51z" />
<glyph unicode="&#x2dd;" horiz-adv-x="-20" d="M24 750h60l-154 -177h-21zM154 750h60l-154 -177h-21z" />
<glyph unicode="&#x2db;" horiz-adv-x="-20" d="M-10 15l40 -5c-32 0 -95 -82 -95 -126c0 -39 44 -52 76 -52v-28c-51 0 -123 13 -123 78c0 53 60 110 102 133z" />
<glyph unicode="&#x2c7;" horiz-adv-x="-20" d="M103 676l-88 -113h-70l-88 113h40l82 -88l83 88h41z" />
<glyph unicode="&#x141;" horiz-adv-x="446" d="M138 42h267v-42h-316v309l-52 -31l-15 26l67 39v407h49v-378l70 41l15 -25l-85 -50v-296z" />
<glyph unicode="&#x142;" horiz-adv-x="250" d="M223 388l-79 -47v-341h-40v318l-67 -40l-15 26l82 48v398h40v-375l64 38z" />
<glyph unicode="&#x3bc;" horiz-adv-x="544" d="M440 470v-470h-37v48c-54 -47 -91 -59 -131 -59c-39 0 -77 12 -130 59v-253h-37v675h37v-307c0 -76 59 -135 130 -135c72 0 131 59 131 135v307h37z" />
<glyph unicode="&#xd0;" horiz-adv-x="715" d="M89 750h162c237 0 393 -137 393 -373c0 -235 -156 -377 -393 -377h-162v354h-87v30h87v366zM129 42h122c212 0 351 122 351 335c0 215 -140 331 -351 331h-122v-324h177v-30h-177v-312z" />
<glyph unicode="&#xa6;" horiz-adv-x="200" d="M120 840v-469h-40v469h40zM120 228v-469h-40v469h40z" />
<glyph unicode="&#x2212;" horiz-adv-x="558" d="M488 253v-30h-418v30h418z" />
<glyph unicode="&#xd7;" d="M340 235l189 -189l-22 -23l-190 190l-189 -190l-22 23l189 189l-189 189l22 23l189 -190l190 190l22 -23z" />
<glyph unicode="&#x160;" horiz-adv-x="543" d="M407 933l-88 -113h-70l-88 113h40l82 -88l83 88h41zM454 674l-41 -17c-31 38 -78 60 -129 60c-90 0 -166 -72 -166 -160c0 -78 65 -115 128 -143c22 -9 46 -18 69 -28c95 -38 178 -81 178 -193c0 -118 -115 -203 -235 -203c-85 0 -174 46 -213 120l41 17 c33 -60 107 -94 172 -94c88 0 191 60 191 160c0 79 -64 117 -128 145c-22 10 -46 19 -69 29c-95 38 -178 81 -178 190c0 112 95 203 210 203c67 0 132 -33 170 -86z" />
<glyph unicode="&#xdd;" horiz-adv-x="559" d="M384 997h60l-154 -177h-20zM504 750h51l-254 -380v-370h-43v370l-253 380h51l223 -336z" />
<glyph unicode="&#x17d;" horiz-adv-x="628" d="M436 933l-88 -113h-70l-88 113h40l82 -88l82 88h42zM587 42v-42h-545l455 708h-446v42h523l-457 -708h470z" />
<glyph unicode="&#x161;" horiz-adv-x="383" d="M315 653l-88 -113h-70l-88 113h40l82 -88l83 88h41zM311 415l-41 -17c-18 25 -48 39 -78 39c-51 0 -94 -38 -94 -90c0 -111 245 -75 245 -224c0 -80 -80 -133 -154 -133c-59 0 -121 31 -145 86l41 17c17 -38 64 -60 104 -60c51 0 110 33 110 90c0 112 -246 76 -246 224 c0 75 65 133 139 133c48 0 93 -23 119 -65z" />
<glyph unicode="&#xfd;" horiz-adv-x="530" d="M370 717h60l-154 -177h-21zM443 470h49l-311 -715h-48l120 270l-214 445h50l186 -395z" />
<glyph unicode="&#x17e;" horiz-adv-x="487" d="M369 653l-88 -113h-70l-88 113h40l82 -88l83 88h41zM456 36v-36h-423l330 433h-309v37h384l-328 -434h346z" />
<glyph d="M637 593v-30h-305v30h305z" />
<glyph horiz-adv-x="-20" d="M142 384v-30h-304v30h304z" />
<glyph horiz-adv-x="250" d="M208 413l15 -25l-186 -110l-15 26z" />
<glyph unicode="&#x104;" horiz-adv-x="652" d="M604 7l40 -5c-32 0 -95 -82 -95 -126c0 -39 44 -52 76 -52v-28c-51 0 -123 13 -123 78c0 53 60 110 102 133zM327 760l321 -760h-47l-71 169h-406l-72 -169h-47zM139 205h376l-188 454z" />
<glyph unicode="&#x13d;" horiz-adv-x="446" d="M444 760h64l-80 -218h-28zM406 42v-42h-316v750h49v-708h267z" />
<glyph unicode="&#x15a;" horiz-adv-x="543" d="M388 997h60l-154 -177h-20zM454 674l-41 -17c-31 38 -78 60 -129 60c-90 0 -166 -72 -166 -160c0 -78 65 -115 128 -143c22 -9 46 -18 69 -28c95 -38 178 -81 178 -193c0 -118 -115 -203 -235 -203c-85 0 -174 46 -213 120l41 17c33 -60 107 -94 172 -94 c88 0 191 60 191 160c0 79 -64 117 -128 145c-22 10 -46 19 -69 29c-95 38 -178 81 -178 190c0 112 95 203 210 203c67 0 132 -33 170 -86z" />
<glyph unicode="&#x15e;" horiz-adv-x="543" d="M454 674l-41 -17c-31 38 -78 60 -129 60c-90 0 -166 -72 -166 -160c0 -78 65 -115 128 -143c22 -9 46 -18 69 -28c95 -38 178 -81 178 -193c0 -115 -110 -199 -227 -203c-9 -9 -16 -32 -18 -44c54 1 100 -29 100 -81c0 -91 -111 -96 -178 -87l16 39c34 -5 117 -7 117 48 c0 50 -55 54 -90 51l27 75c-79 5 -159 50 -195 119l41 17c33 -60 107 -94 172 -94c88 0 191 60 191 160c0 79 -64 117 -128 145c-22 10 -46 19 -69 29c-95 38 -178 81 -178 190c0 112 95 203 210 203c67 0 132 -33 170 -86z" />
<glyph unicode="&#x164;" horiz-adv-x="473" d="M360 933l-88 -113h-70l-88 113h40l82 -88l82 88h42zM468 750v-42h-212v-708h-39v708h-212v42h463z" />
<glyph unicode="&#x179;" horiz-adv-x="628" d="M417 997h60l-154 -177h-21zM587 42v-42h-545l455 708h-446v42h523l-457 -708h470z" />
<glyph unicode="&#x17b;" horiz-adv-x="628" d="M350 857c0 -21 -16 -37 -38 -37c-20 0 -36 16 -36 37s16 37 36 37c22 0 38 -16 38 -37zM587 42v-42h-545l455 708h-446v42h523l-457 -708h470z" />
<glyph unicode="&#x105;" d="M507 -3l40 -5c-32 0 -95 -82 -95 -126c0 -39 44 -52 76 -52v-28c-51 0 -123 13 -123 78c0 53 60 110 102 133zM547 470v-470h-40v97c-44 -64 -118 -107 -202 -107c-135 0 -245 110 -245 245s110 245 245 245c84 0 158 -43 202 -107v97h40zM507 235 c0 111 -91 202 -202 202s-202 -91 -202 -202s91 -202 202 -202s202 91 202 202z" />
<glyph unicode="&#x13e;" horiz-adv-x="250" d="M259 750h64l-80 -218h-28zM145 750v-750h-40v750h40z" />
<glyph unicode="&#x15b;" horiz-adv-x="383" d="M296 717h60l-154 -177h-20zM311 415l-41 -17c-18 25 -48 39 -78 39c-51 0 -94 -38 -94 -90c0 -111 245 -75 245 -224c0 -80 -80 -133 -154 -133c-59 0 -121 31 -145 86l41 17c17 -38 64 -60 104 -60c51 0 110 33 110 90c0 112 -246 76 -246 224c0 75 65 133 139 133 c48 0 93 -23 119 -65z" />
<glyph unicode="&#x15f;" horiz-adv-x="383" d="M311 415l-41 -17c-18 25 -48 39 -78 39c-51 0 -94 -38 -94 -90c0 -111 245 -75 245 -224c0 -77 -74 -129 -146 -133c-9 -8 -16 -32 -18 -44c54 1 100 -29 100 -81c0 -91 -111 -96 -178 -87l16 39c34 -5 117 -7 117 48c0 50 -55 54 -90 51l28 75c-54 5 -106 35 -128 85 l41 17c17 -38 64 -60 104 -60c51 0 110 33 110 90c0 112 -246 76 -246 224c0 75 65 133 139 133c48 0 93 -23 119 -65z" />
<glyph unicode="&#x165;" horiz-adv-x="338" d="M302 739h64l-80 -218h-28zM289 470v-38h-100v-432h-40v432h-100v38h100v167h40v-167h100z" />
<glyph unicode="&#x17a;" horiz-adv-x="487" d="M350 717h60l-154 -177h-20zM456 36v-36h-423l330 433h-309v37h384l-328 -434h346z" />
<glyph unicode="&#x17c;" horiz-adv-x="487" d="M283 577c0 -21 -16 -37 -37 -37s-37 16 -37 37s16 37 37 37s37 -16 37 -37zM456 36v-36h-423l330 433h-309v37h384l-328 -434h346z" />
<glyph unicode="&#x154;" horiz-adv-x="581" d="M307 997h60l-154 -177h-21zM360 351l181 -351h-49l-177 347h-185v-347h-40v750h225c114 0 207 -91 207 -202c0 -86 -60 -165 -162 -197zM130 389h185c90 0 164 71 164 159s-74 160 -164 160h-185v-319z" />
<glyph unicode="&#x102;" horiz-adv-x="652" d="M427 935h35c0 -86 -62 -115 -135 -115s-135 29 -135 115h35c0 -55 32 -80 100 -80s100 25 100 80zM327 760l321 -760h-47l-71 169h-406l-72 -169h-47zM139 205h376l-188 454z" />
<glyph unicode="&#x139;" horiz-adv-x="446" d="M218 997h60l-154 -177h-20zM406 42v-42h-316v750h49v-708h267z" />
<glyph unicode="&#x106;" horiz-adv-x="761" d="M562 997h60l-154 -177h-20zM693 122l31 -28c-71 -68 -167 -104 -266 -104c-214 0 -388 173 -388 385s174 385 388 385c96 0 194 -35 265 -104l-30 -28c-75 66 -156 90 -235 90c-190 0 -346 -154 -346 -343s156 -343 346 -343c80 0 156 24 235 90z" />
<glyph unicode="&#x10c;" horiz-adv-x="761" d="M581 933l-88 -113h-70l-88 113h40l82 -88l83 88h41zM693 122l31 -28c-71 -68 -167 -104 -266 -104c-214 0 -388 173 -388 385s174 385 388 385c96 0 194 -35 265 -104l-30 -28c-75 66 -156 90 -235 90c-190 0 -346 -154 -346 -343s156 -343 346 -343c80 0 156 24 235 90z " />
<glyph unicode="&#x118;" horiz-adv-x="542" d="M423 0h-333v750h382v-42h-342v-312h300v-42h-300v-312h342v-42c-32 0 -95 -82 -95 -126c0 -39 44 -52 76 -52v-28c-51 0 -123 13 -123 78c0 49 52 102 93 128z" />
<glyph unicode="&#x11a;" horiz-adv-x="542" d="M404 933l-88 -113h-70l-88 113h40l82 -88l83 88h41zM472 42v-42h-382v750h382v-42h-342v-312h300v-42h-300v-312h342z" />
<glyph unicode="&#x10e;" horiz-adv-x="715" d="M490 933l-88 -113h-70l-88 113h40l82 -88l84 88h40zM90 750h162c237 0 393 -137 393 -373c0 -235 -156 -377 -393 -377h-162v750zM130 42h122c212 0 351 122 351 335c0 215 -140 331 -351 331h-122v-666z" />
<glyph unicode="&#x110;" horiz-adv-x="715" d="M89 750h162c237 0 393 -137 393 -373c0 -235 -156 -377 -393 -377h-162v354h-87v30h87v366zM129 42h122c212 0 351 122 351 335c0 215 -140 331 -351 331h-122v-324h177v-30h-177v-312z" />
<glyph unicode="&#x143;" horiz-adv-x="740" d="M462 997h60l-154 -177h-20zM610 750h40v-765l-520 651v-636h-40v760l520 -659v649z" />
<glyph unicode="&#x147;" horiz-adv-x="740" d="M513 933l-88 -113h-70l-88 113h40l82 -88l83 88h41zM610 750h40v-765l-520 651v-636h-40v760l520 -659v649z" />
<glyph unicode="&#x150;" horiz-adv-x="914" d="M496 997h60l-154 -177h-20zM626 997h60l-154 -177h-20zM844 375c0 -213 -175 -385 -387 -385s-387 172 -387 385c0 212 175 385 387 385s387 -173 387 -385zM802 375c0 189 -157 343 -345 343c-190 0 -345 -154 -345 -343c0 -190 157 -343 345 -343s345 153 345 343z" />
<glyph unicode="&#x158;" horiz-adv-x="581" d="M326 933l-88 -113h-70l-88 113h40l82 -88l82 88h42zM360 351l181 -351h-49l-177 347h-185v-347h-40v750h225c114 0 207 -91 207 -202c0 -86 -60 -165 -162 -197zM130 389h185c90 0 164 71 164 159s-74 160 -164 160h-185v-319z" />
<glyph unicode="&#x16e;" horiz-adv-x="650" d="M406 900c0 -44 -37 -80 -81 -80c-45 0 -81 36 -81 80c0 45 36 81 81 81c44 0 81 -36 81 -81zM380 900c0 31 -25 57 -55 57c-32 0 -55 -26 -55 -57c0 -30 24 -56 55 -56c30 0 55 26 55 56zM565 750v-547c0 -111 -105 -213 -240 -213c-133 0 -240 102 -240 213v547h43v-547 c0 -89 83 -171 197 -171c117 0 197 82 197 171v547h43z" />
<glyph unicode="&#x170;" horiz-adv-x="650" d="M364 997h60l-154 -177h-20zM494 997h60l-154 -177h-20zM565 750v-547c0 -111 -105 -213 -240 -213c-133 0 -240 102 -240 213v547h43v-547c0 -89 83 -171 197 -171c117 0 197 82 197 171v547h43z" />
<glyph unicode="&#x162;" horiz-adv-x="473" d="M468 750v-42h-212v-708c-15 0 -27 -28 -30 -44c54 0 100 -29 100 -81c0 -91 -110 -96 -178 -87l16 39c34 -5 118 -7 118 48c0 50 -56 51 -90 51l25 74v708h-212v42h463z" />
<glyph unicode="&#x155;" horiz-adv-x="355" d="M320 718h60l-154 -177h-22zM335 474v-42c-119 26 -199 -47 -199 -172v-260h-41v469h41v-85c39 87 125 110 199 90z" />
<glyph unicode="&#x103;" d="M405 655h35c0 -86 -62 -115 -135 -115s-135 29 -135 115h35c0 -55 32 -80 100 -80s100 25 100 80zM547 470v-470h-40v97c-44 -64 -118 -107 -202 -107c-135 0 -245 110 -245 245s110 245 245 245c84 0 158 -43 202 -107v97h40zM507 235c0 111 -91 202 -202 202 s-202 -91 -202 -202s91 -202 202 -202s202 91 202 202z" />
<glyph unicode="&#x13a;" horiz-adv-x="250" d="M230 987h60l-154 -177h-22zM145 750v-750h-40v750h40z" />
<glyph unicode="&#x107;" horiz-adv-x="580" d="M410 717h60l-154 -177h-20zM484 139l40 -17c-41 -80 -128 -132 -218 -132c-136 0 -246 110 -246 245s110 245 246 245c92 0 175 -52 218 -134l-39 -16c-35 66 -105 107 -179 107c-112 0 -203 -91 -203 -202s91 -202 203 -202c74 0 144 41 178 106z" />
<glyph unicode="&#x10d;" horiz-adv-x="580" d="M429 653l-88 -113h-70l-88 113h40l82 -88l83 88h41zM484 139l40 -17c-41 -80 -128 -132 -218 -132c-136 0 -246 110 -246 245s110 245 246 245c92 0 175 -52 218 -134l-39 -16c-35 66 -105 107 -179 107c-112 0 -203 -91 -203 -202s91 -202 203 -202c74 0 144 41 178 106 z" />
<glyph unicode="&#x119;" horiz-adv-x="610" d="M111 294h388c-26 82 -103 143 -194 143s-168 -61 -194 -143zM483 139l39 -18c-39 -75 -117 -127 -206 -131c-34 -12 -86 -63 -86 -124c0 -39 44 -52 76 -52v-28c-51 0 -123 13 -123 78c0 49 52 102 93 128c-121 14 -216 118 -216 243c0 135 110 245 245 245 c130 0 236 -101 245 -229h-447v-16c0 -111 91 -202 202 -202c77 0 144 43 178 106z" />
<glyph unicode="&#x11b;" horiz-adv-x="610" d="M428 653l-88 -113h-70l-88 113h40l82 -88l83 88h41zM483 139l39 -18c-41 -78 -123 -131 -217 -131c-135 0 -245 110 -245 245s110 245 245 245c130 0 236 -101 245 -229h-447v-16c0 -111 91 -202 202 -202c77 0 144 43 178 106zM111 294h388c-26 82 -103 143 -194 143 s-168 -61 -194 -143z" />
<glyph unicode="&#x10f;" d="M681 750h64l-80 -218h-28zM547 750v-750h-40v97c-44 -64 -118 -107 -202 -107c-135 0 -245 110 -245 245s110 245 245 245c84 0 158 -43 202 -107v377h40zM507 235c0 111 -91 202 -202 202s-202 -91 -202 -202s91 -202 202 -202s202 91 202 202z" />
<glyph unicode="&#x111;" d="M637 593v-30h-90v-563h-40v97c-44 -64 -118 -107 -202 -107c-135 0 -245 110 -245 245s110 245 245 245c84 0 158 -43 202 -107v190h-175v30h175v157h40v-157h90zM305 33c111 0 202 91 202 202s-91 202 -202 202s-202 -91 -202 -202s91 -202 202 -202z" />
<glyph unicode="&#x144;" horiz-adv-x="516" d="M375 717h60l-154 -177h-21zM451 302v-302h-40v302c0 75 -61 137 -136 137c-73 0 -145 -58 -145 -134v-305h-40v470h40v-68c36 48 93 78 153 78c100 0 168 -80 168 -178z" />
<glyph unicode="&#x148;" horiz-adv-x="516" d="M394 653l-88 -113h-70l-88 113h40l82 -88l82 88h42zM451 302v-302h-40v302c0 75 -61 137 -136 137c-73 0 -145 -58 -145 -134v-305h-40v470h40v-68c36 48 93 78 153 78c100 0 168 -80 168 -178z" />
<glyph unicode="&#x151;" horiz-adv-x="610" d="M344 717h60l-154 -177h-20zM474 717h60l-154 -177h-20zM550 235c0 -135 -110 -245 -245 -245s-245 110 -245 245s110 245 245 245s245 -110 245 -245zM507 235c0 111 -91 202 -202 202s-202 -91 -202 -202s91 -202 202 -202s202 91 202 202z" />
<glyph unicode="&#x159;" horiz-adv-x="355" d="M338 654l-88 -113h-70l-88 113h40l82 -88l83 88h41zM335 474v-42c-119 26 -199 -47 -199 -172v-260h-41v469h41v-85c39 87 125 110 199 90z" />
<glyph unicode="&#x16f;" horiz-adv-x="517" d="M340 620c0 -44 -38 -80 -82 -80s-80 36 -80 80c0 45 36 81 80 81s82 -36 82 -81zM314 620c0 31 -26 57 -56 57c-32 0 -54 -26 -54 -57c0 -30 24 -56 54 -56s56 26 56 56zM442 470v-301c0 -99 -83 -179 -184 -179s-183 80 -183 179v301h40v-301c0 -74 68 -140 143 -140 c78 0 144 66 144 140v301h40z" />
<glyph unicode="&#x171;" horiz-adv-x="517" d="M298 717h60l-154 -177h-21zM428 717h60l-154 -177h-21zM442 470v-301c0 -99 -83 -179 -184 -179s-183 80 -183 179v301h40v-301c0 -74 68 -140 143 -140c78 0 144 66 144 140v301h40z" />
<glyph unicode="&#x163;" horiz-adv-x="338" d="M289 470v-38h-100v-432h-40v432h-100v38h100v167h40v-167h100z" />
<glyph unicode="&#x3a9;" horiz-adv-x="893" d="M824 38v-38h-217l-10 40c117 63 188 192 188 326c0 195 -151 356 -338 356s-339 -161 -339 -356c0 -134 72 -263 189 -326l-10 -40h-217v38h154c-107 102 -154 214 -154 328c0 218 170 394 377 394s377 -176 377 -394c0 -114 -47 -226 -154 -328h154z" />
<glyph unicode="&#x394;" horiz-adv-x="641" d="M321 477l275 -477h-551zM114 40h413l-206 357z" />
<glyph unicode="&#x20ac;" horiz-adv-x="703" d="M643 39v-39h-149c-172 0 -317 112 -370 277h-64v39h55c-4 33 -5 49 -5 65s1 32 5 65h-55v39h64c53 161 198 265 370 265h149v-39h-149c-145 0 -269 -81 -330 -226h414v-39h-423c-5 -30 -6 -47 -6 -65s1 -35 6 -65h423v-39h-414c59 -148 184 -238 330 -238h149z" />
<glyph horiz-adv-x="916" d="M836 378c0 -209 -169 -378 -378 -378s-378 169 -378 378s169 378 378 378s378 -169 378 -378zM801 378c0 190 -153 343 -343 343s-343 -153 -343 -343s153 -343 343 -343s343 153 343 343zM279 509v-262c0 -10 -8 -17 -18 -17c-9 0 -17 7 -17 17v262c0 10 8 18 17 18 c10 0 18 -8 18 -18zM475 509v-262c0 -10 -7 -17 -17 -17s-17 7 -17 17v262c0 10 7 18 17 18s17 -8 17 -18zM548 378l119 -119c7 -7 7 -18 0 -24c-7 -7 -18 -7 -24 0l-132 131c-6 7 -6 18 0 24l132 131c4 5 7 5 13 5h2c4 -1 5 -2 6 -2s1 -1 3 -3c7 -6 7 -17 0 -24zM327 395 h65c10 0 18 -7 18 -17s-8 -17 -18 -17h-65c-10 0 -17 7 -17 17s7 17 17 17z" />
</font>
</defs>
</svg>
