<?xml version="1.0" encoding="UTF-8"?>
<svg preserveAspectRatio="none" width="155px" height="1081px" viewBox="0 0 155 1081" version="1.1" xmlns="http://www.w3.org/2000/svg" xmlns:xlink="http://www.w3.org/1999/xlink">
    <g stroke="none" stroke-width="1" fill-rule="evenodd">
        <g transform="translate(77.500000, 540.500000) scale(-1, 1) translate(-77.500000, -540.500000) " fill-rule="nonzero">
            <path d="M-455,509.432982 C-340.607422,562.24291 -176.654785,576.742123 36.8579099,552.930623 C215.844239,460.900535 411.891604,446.401321 625,509.432982 L625,611 L-455,611 L-455,509.432982 Z" id="Shape" opacity="0.3" transform="translate(85.000000, 541.000000) rotate(90.000000) translate(-85.000000, -541.000000) "></path>
            <path d="M-461,521.348411 C-296.486328,575.146292 -116.486328,575.146292 79,521.348411 C274.486328,467.55053 454.486328,467.55053 619,521.348411 L619,601 L-461,601 L-461,521.348411 Z" id="Shape" opacity="0.6" transform="translate(79.000000, 541.000000) rotate(90.000000) translate(-79.000000, -541.000000) "></path>
            <path d="M-480,510.853601 C-317.598633,551.325069 -137.598633,551.325069 60,510.853601 C257.598634,470.382133 437.598634,470.382133 600,510.853601 L600,600.5 L-480,600.5 L-480,510.853601 Z" id="Shape" transform="translate(60.000000, 540.500000) rotate(90.000000) translate(-60.000000, -540.500000) "></path>
        </g>
    </g>
</svg>