<?xml version="1.0" standalone="no"?>
<!DOCTYPE svg PUBLIC "-//W3C//DTD SVG 1.1//EN" "http://www.w3.org/Graphics/SVG/1.1/DTD/svg11.dtd" >
<svg xmlns="http://www.w3.org/2000/svg">
<metadata>Generated by IcoMoon</metadata>
<defs>
<font id="tatsu-icons" horiz-adv-x="1024">
<font-face units-per-em="1024" ascent="870.850439882698" descent="-153.14956011730206" />
<missing-glyph horiz-adv-x="1024" />
<glyph unicode="&#x20;" horiz-adv-x="0" d="" />
<glyph unicode="&#xe800;" glyph-name="music" d="M10.25-59.382q-22.55 58.425 5.125 120.95 37.925 77.9 134.275 109.675 39.975 14.35 79.95 14.35 70.725 0 121.975-37.925v550.426q0 23.575 15.375 41t36.9 22.55l544.276 96.35h12.3q24.6 0 42.025-16.4 22.55-17.425 22.55-48.175v-672.401q0-35.875-16.4-67.65-37.925-77.9-134.275-110.7-39.975-13.325-79.95-13.325-61.5 0-109.675 28.7t-66.625 78.925q-21.525 58.425 6.15 119.925 37.925 78.925 134.275 110.7 39.975 14.35 79.95 14.35 69.7 0 121.975-38.95v388.475l-531.976-93.275h-12.3v-512.5q0-36.9-16.4-68.675-37.925-77.9-134.275-109.675-39.975-14.35-79.95-14.35-61.5 0-109.675 28.7t-65.6 78.925zM68.675-36.832q15.375-42.025 67.65-59.45t109.675 3.075 87.125 63.55 13.325 85.075-67.65 58.425-108.65-2.050-87.125-63.55-14.35-85.075zM414.1 601.744l544.276 96.35v95.325l-544.276-95.325v-96.35zM676.501 59.518q15.375-42.025 67.65-59.45t109.675 3.075 87.125 63.55 13.325 85.075-67.65 58.425-109.675-3.075-86.1-62.525-14.35-85.075z" />
<glyph unicode="&#xe801;" glyph-name="wallet" d="M0 9.293v640.626q0 71.75 52.275 124.025t124.025 52.275h656.001q41 0 68.675-28.7t27.675-67.65v-288.025q96.35-72.775 96.35-192.7t-96.35-191.675v-48.175q0-71.75-52.275-124.025t-124.025-52.275h-576.051q-71.75 0-124.025 52.275t-52.275 124.025zM64.575 9.293q0-46.125 32.8-78.925t78.925-33.825h576.051q46.125 0 79.95 33.825t32.8 78.925v48.175h-288.025q-66.625 0-113.775 47.15t-47.15 112.75 47.15 112.75 113.775 47.15h288.025v64.575q0 13.325-9.225 22.55t-23.575 9.225h-656.001q-64.575 0-111.725 39.975v-504.3zM64.575 649.919q0-46.125 31.775-77.9v126.075q0 13.325 9.225 22.55t22.55 9.225h672.401q14.35 0 23.575-9.225t9.225-22.55v-159.9q15.375 0 31.775-6.15v197.825q0 14.35-9.225 22.55t-23.575 9.225h-656.001q-46.125 0-78.925-32.8t-32.8-78.925zM128.125 549.469q23.575-11.275 48.175-11.275h624.226v31.775h-672.401v-20.5zM128.125 601.744h672.401v31.775h-672.401v-31.775zM128.125 665.294h672.401v32.8h-672.401v-32.8zM480.725 217.369q0-39.975 27.675-67.65t68.675-28.7h328q55.35 52.275 55.35 128.125 0 60.475-35.875 106.6v-2.050q-4.1-8.2-7.175-14.35-20.5-25.625-52.275-25.625h-288.025q-41 0-68.675-28.7t-27.675-67.65zM512.5 217.369q0 25.625 19.475 45.1t45.1 19.475 44.075-19.475 19.475-45.1-19.475-45.1-44.075-18.45-45.1 18.45-19.475 45.1z" />
<glyph unicode="&#xe802;" glyph-name="search" d="M0-55.282q0 48.175 33.825 82l266.5 266.5q-44.075 84.050-44.075 180.4 0 157.85 111.725 271.625t272.65 112.75 272.65-112.75 111.725-272.65-111.725-271.625-272.65-111.725q-96.35 0-180.4 44.075l-266.5-266.5q-33.825-33.825-82-33.825-46.125 0-78.925 32.8t-32.8 78.925zM56.375-54.257q0-22.55 16.4-39.975t39.975-16.4 41 17.425l258.3 258.3q-46.125 33.825-79.95 79.95l-258.3-258.3q-17.425-17.425-17.425-41zM320.825 473.619q0-132.225 93.275-226.525t226.525-93.275 226.525 93.275 93.275 226.525-93.275 226.525-226.525 93.275-226.525-93.275-93.275-226.525zM416.15 473.619q0 92.25 66.625 157.85t157.85 66.625q16.4 0 16.4-16.4t-16.4-16.4q-79.95 0-136.325-55.35t-55.35-136.325q0-16.4-16.4-16.4t-16.4 16.4z" />
<glyph unicode="&#xe803;" glyph-name="mail" d="M0 153.818v416.15q0 52.275 36.9 90.2t91.225 37.925h768.751q54.325 0 91.225-37.925t36.9-90.2v-416.15q0-54.325-36.9-91.225t-91.225-36.9h-768.751q-54.325 0-91.225 36.9t-36.9 91.225zM64.575 153.818q0-26.65 18.45-45.1t45.1-19.475h768.751q25.625 0 45.1 19.475t18.45 45.1l-250.1 187.575-139.4-103.525q-26.65-20.5-58.425-20.5t-58.425 20.5l-139.4 103.525zM64.575 193.794l223.45 168.1-223.45 168.1v-336.2zM64.575 569.969l250.1-188.6 27.675-19.475 132.225-100.45q16.4-12.3 37.925-12.3t37.925 12.3l410 308.525q0 25.625-18.45 45.1t-45.1 18.45h-768.751q-25.625 0-45.1-18.45t-18.45-45.1zM736.976 361.894l223.45-168.1v336.2z" />
<glyph unicode="&#xe804;" glyph-name="heart" d="M0 474.644q0 125.050 90.2 215.25 86.1 86.1 209.1 88.15t213.2-79.95q90.2 82 213.2 79.95t209.1-88.15q90.2-90.2 90.2-215.25t-90.2-215.25q-4.1-4.1-354.65-350.55-27.675-27.675-67.65-27.675t-67.65 27.675q-2.050 0-354.65 350.55-90.2 90.2-90.2 215.25zM64.575 474.644q0-99.425 71.75-169.125l354.65-350.55q21.525-23.575 44.075 0l353.625 350.55q71.75 69.7 71.75 169.125t-71.75 169.125q-67.65 67.65-164 69.7t-168.1-61.5l-44.075-39.975-44.075 39.975q-71.75 63.55-168.1 61.5t-164-69.7q-71.75-69.7-71.75-169.125zM159.9 481.819q0 56.375 39.975 96.35t96.35 39.975q16.4 0 16.4-16.4t-16.4-16.4q-42.025 0-72.775-29.725t-30.75-73.8q0-16.4-16.4-16.4t-16.4 16.4z" />
<glyph unicode="&#xe805;" glyph-name="star" horiz-adv-x="1026" d="M4.1 455.169q14.35 42.025 58.425 48.175l268.55 39.975 115.825 240.875q19.475 42.025 65.6 42.025t66.625-42.025l115.825-240.875 268.55-39.975q44.075-6.15 57.4-48.175t-15.375-71.75l-196.8-195.775 44.075-270.6q8.2-44.075-29.725-69.7-18.45-14.35-42.025-14.35-18.45 0-35.875 8.2l-232.675 126.075-231.65-126.075q-18.45-8.2-35.875-8.2-24.6 0-42.025 14.35-38.95 25.625-30.75 69.7l44.075 270.6-193.725 195.775q-32.8 29.725-18.45 71.75zM74.825 433.644l195.775-195.775q25.625-26.65 19.475-62.525l-45.1-270.6 231.65 126.075q16.4 8.2 35.875 8.2t35.875-8.2l232.675-126.075-46.125 270.6q-6.15 35.875 20.5 62.525l195.775 195.775-266.5 37.925q-39.975 6.15-55.35 42.025l-116.85 239.85-115.825-239.85q-16.4-35.875-56.375-39.975z" />
<glyph unicode="&#xe806;" glyph-name="key" d="M0-103.457v96.35q0 20.5 18.45 39.975l388.475 388.475q-22.55 58.425-22.55 116.85 0 131.2 94.3 225.5t226.525 94.3 225.5-94.3 94.3-225.5-94.3-226.525-225.5-94.3q-58.425 0-116.85 22.55l-75.85-74.825v-75.85q0-25.625-19.475-45.1t-44.075-18.45h-64.575v-64.575q0-25.625-19.475-45.1t-44.075-19.475h-74.825l-46.125-45.1q-17.425-18.45-39.975-18.45h-95.325q-26.65 0-45.1 19.475t-19.475 44.075zM64.575-103.457h89.175l46.125 46.125q18.45 18.45 46.125 18.45h74.825v64.575q0 25.625 18.45 44.075t45.1 19.475h64.575v75.85q0 26.65 17.425 44.075l108.65 108.65q61.5-35.875 130.175-35.875 105.575 0 180.4 74.825t74.825 181.425-74.825 180.4-180.4 74.825-181.425-74.825-74.825-180.4q0-68.675 35.875-130.175l-46.125-46.125-374.125-373.1v-92.25zM640.626 627.369q0 4.1 2.050 10.25 23.575 66.625 90.2 90.2 15.375 6.15 27.675-4.1 75.85-54.325 130.175-130.175 6.15-8.2 6.15-17.425 0-4.1-2.050-10.25-23.575-66.625-90.2-90.2-15.375-6.15-27.675 4.1-75.85 54.325-130.175 130.175-6.15 8.2-6.15 17.425zM672.401 627.369q52.275-71.75 121.975-121.975 52.275 18.45 70.725 70.725-50.225 69.7-121.975 121.975-52.275-18.45-70.725-70.725z" />
<glyph unicode="&#xe807;" glyph-name="doc" d="M0-38.882v640.626q0 39.975 27.675 67.65t68.675 28.7h31.775v63.55q0 39.975 27.675 68.675t68.675 27.675h704.176q39.975 0 68.675-27.675t27.675-68.675v-800.526q0-54.325-36.9-91.225t-91.225-36.9h-768.751q-54.325 0-91.225 36.9t-36.9 91.225zM64.575-38.882q0-25.625 18.45-45.1t45.1-19.475h768.751q25.625 0 45.1 19.475t18.45 45.1v800.526q0 14.35-8.2 23.575t-23.575 8.2h-704.176q-14.35 0-23.575-8.2t-8.2-23.575v-768.751q0-13.325-9.225-22.55t-23.575-9.225-22.55 9.225-9.225 22.55v640.626h-31.775q-14.35 0-23.575-9.225t-8.2-22.55v-640.626zM256.25-22.482q0 15.375 16.4 15.375h256.25q15.375 0 15.375-15.375t-15.375-16.4h-256.25q-16.4 0-16.4 16.4zM256.25 72.843q0 16.4 16.4 16.4h256.25q15.375 0 15.375-16.4t-15.375-15.375h-256.25q-16.4 0-16.4 15.375zM256.25 169.193q0 16.4 16.4 16.4h256.25q15.375 0 15.375-16.4 0-6.15-5.125-11.275t-10.25-4.1h-256.25q-16.4 0-16.4 15.375zM256.25 265.544q0 16.4 16.4 16.4h607.826q16.4 0 16.4-16.4t-16.4-16.4h-607.826q-16.4 0-16.4 16.4zM256.25 361.894q0 15.375 16.4 15.375h607.826q16.4 0 16.4-15.375t-16.4-16.4h-607.826q-16.4 0-16.4 16.4zM256.25 473.619v224.475q0 13.325 9.225 22.55t22.55 9.225h224.475q14.35 0 22.55-9.225t9.225-22.55v-224.475q0-14.35-9.225-22.55t-22.55-9.225h-224.475q-13.325 0-22.55 9.225t-9.225 22.55zM320.825 505.394h159.9v159.9h-159.9v-159.9zM608.851-22.482q0 15.375 15.375 15.375h256.25q16.4 0 16.4-15.375t-16.4-16.4h-256.25q-15.375 0-15.375 16.4zM608.851 72.843q0 16.4 15.375 16.4h256.25q16.4 0 16.4-16.4t-16.4-15.375h-256.25q-15.375 0-15.375 15.375zM608.851 169.193q0 16.4 15.375 16.4h256.25q16.4 0 16.4-16.4 0-6.15-5.125-11.275t-11.275-4.1h-256.25q-15.375 0-15.375 15.375zM608.851 457.219q0 16.4 15.375 16.4h256.25q16.4 0 16.4-16.4t-16.4-15.375h-256.25q-15.375 0-15.375 15.375zM608.851 553.569q0 16.4 15.375 16.4h256.25q16.4 0 16.4-16.4t-16.4-15.375h-256.25q-15.375 0-15.375 15.375zM608.851 649.919q0 15.375 15.375 15.375h256.25q16.4 0 16.4-15.375t-16.4-16.4h-256.25q-15.375 0-15.375 16.4z" />
<glyph unicode="&#xe808;" glyph-name="user" horiz-adv-x="1028" d="M4.1-120.882q-14.35 44.075 25.625 71.75 121.975 79.95 298.275 118.9-86.1 107.625-121.975 261.375-10.25 56.375-11.275 125.050t23.575 152.725 67.65 141.45q86.1 107.625 228.575 107.625t227.55-107.625q44.075-58.425 68.675-141.45t22.55-152.725-11.275-125.050q-35.875-153.75-121.975-261.375 176.3-38.95 298.275-118.9 39.975-27.675 26.65-72.775t-62.525-45.1h-896.876q-21.525 0-38.95 13.325t-22.55 32.8zM65.6-103.457h896.876q-111.725 74.825-273.675 110.7l-80.975 16.4q-46.125-30.75-93.275-30.75t-94.3 30.75l-79.95-16.4q-164-35.875-274.7-110.7zM263.425 513.594q-13.325-105.575 16.4-213.2t98.4-190.65l10.25-14.35q57.4-66.625 126.075-66.625t126.075 66.625l9.225 14.35q68.675 84.050 98.4 190.65t16.4 213.2q-14.35 115.825-77.9 197.825t-172.2 82-172.2-82-78.925-197.825z" />
<glyph unicode="&#xe809;" glyph-name="videocam" d="M0 89.243v512.5q0 39.975 27.675 67.65t68.675 28.7h608.851q39.975 0 67.65-28.7t27.675-67.65v-39.975l86.1 86.1q20.5 17.425 46.125 17.425h27.675q26.65 0 45.1-18.45t19.475-45.1v-512.5q0-27.675-19.475-46.125t-45.1-17.425h-27.675q-25.625 0-46.125 17.425l-86.1 86.1v-39.975q0-39.975-27.675-67.65t-67.65-28.7h-608.851q-39.975 0-68.675 28.7t-27.675 67.65zM64.575 89.243q0-14.35 8.2-22.55t23.575-9.225h608.851q13.325 0 22.55 9.225t9.225 22.55v512.5q0 14.35-9.225 22.55t-22.55 9.225h-608.851q-14.35 0-23.575-9.225t-8.2-22.55v-512.5zM768.751 249.144l159.9-159.9h31.775v512.5h-31.775l-159.9-159.9v-192.7z" />
<glyph unicode="&#xe80a;" glyph-name="camera" d="M0-7.107v480.725q0 35.875 23.575 62.525t56.375 31.775l138.375 23.575 44.075 110.7q12.3 27.675 35.875 44.075t54.325 15.375h319.8q30.75 0 54.325-15.375t35.875-44.075l44.075-110.7 138.375-23.575q33.825-6.15 57.4-31.775t22.55-62.525v-480.725q0-39.975-27.675-67.65t-68.675-28.7h-832.301q-39.975 0-68.675 28.7t-27.675 67.65zM64.575-7.107q0-13.325 8.2-22.55t23.575-9.225h832.301q14.35 0 23.575 9.225t8.2 22.55v480.725q0 27.675-25.625 31.775l-174.25 28.7-57.4 143.5q-8.2 20.5-30.75 20.5h-319.8q-22.55 0-30.75-20.5l-57.4-143.5-174.25-28.7q-25.625-4.1-25.625-31.775v-480.725zM256.25 281.944q0 105.575 74.825 180.4t181.425 75.85 181.425-75.85 74.825-180.4-74.825-181.425-181.425-74.825-181.425 74.825-74.825 181.425zM320.825 266.569q5.125-78.925 66.625-131.2t140.425-46.125 131.2 66.625 46.125 140.425-67.65 131.2-140.425 46.125-131.2-66.625-45.1-140.425zM384.375 281.944q0 51.25 36.9 89.175t91.225 38.95q16.4 0 16.4-16.4t-16.4-16.4q-39.975 0-67.65-27.675t-28.7-67.65q0-16.4-15.375-16.4t-16.4 16.4z" />
<glyph unicode="&#xe80b;" glyph-name="photo" horiz-adv-x="960" d="M0-38.882v768.751q0 54.325 36.9 91.225t91.225 36.9h704.176q54.325 0 91.225-36.9t36.9-91.225v-768.751q0-54.325-36.9-91.225t-91.225-36.9h-704.176q-54.325 0-91.225 36.9t-36.9 91.225zM64.575-38.882q0-25.625 18.45-45.1t45.1-19.475h704.176q26.65 0 45.1 19.475t19.475 45.1v768.751q0 25.625-19.475 45.1t-45.1 18.45h-704.176q-25.625 0-45.1-18.45t-18.45-45.1v-768.751zM128.125 121.018v577.076q0 13.325 9.225 22.55t22.55 9.225h640.626q14.35 0 23.575-9.225t9.225-22.55v-577.076q0-13.325-9.225-22.55t-23.575-9.225h-640.626q-13.325 0-22.55 9.225t-9.225 22.55zM159.9 121.018h495.075l-90.2 102.5-18.45 21.525-258.3 293.15-128.125-148.625v-268.55zM159.9 439.794l104.55 119.925q10.25 10.25 23.575 10.25t24.6-10.25l252.15-288.025 84.050 96.35q10.25 9.225 23.575 9.225t24.6-9.225l103.525-114.8v444.85h-640.626v-258.3zM512.5 538.194q0 39.975 27.675 67.65t68.675 27.675 67.65-27.675 28.7-67.65-28.7-68.675-67.65-27.675-68.675 27.675-27.675 68.675zM544.276 538.194q0-26.65 19.475-45.1t45.1-19.475 45.1 19.475 18.45 45.1-18.45 44.075-45.1 19.475-45.1-19.475-19.475-44.075zM586.301 247.094l110.7-126.075h103.525v84.050l-128.125 140.425z" />
<glyph unicode="&#xe80c;" glyph-name="attach" d="M0 88.218q0 93.275 65.6 158.875l467.4 462.275q84.050 84.050 203.975 84.050t203.975-84.050 84.050-203.975-84.050-203.975l-352.6-350.55q-21.525-23.575-45.1-1.025t1.025 45.1l346.45 348.5q66.625 64.575 66.625 156.825t-66.625 159.9-158.875 65.6-156.825-65.6l-465.35-459.2q-45.1-46.125-45.1-111.725t46.125-112.75 113.775-47.15 111.725 46.125l468.425 462.275q27.675 27.675 27.675 67.65t-27.675 68.675-67.65 27.675-68.675-27.675l-349.525-352.6q-24.6-22.55-46.125 1.025t0 45.1l349.525 352.6q48.175 45.1 114.8 45.1t112.75-46.125 47.15-113.775-46.125-113.775l-468.425-460.225q-65.6-66.625-158.875-66.625t-157.85 65.6-65.6 157.85z" />
<glyph unicode="&#xe80d;" glyph-name="lock" horiz-adv-x="769" d="M0 121.018v224.475q0 39.975 27.675 67.65t68.675 28.7v128.125q0 119.925 84.050 203.975t203.975 84.050 203.975-84.050 84.050-203.975v-128.125q39.975 0 68.675-28.7t27.675-67.65v-224.475q0-119.925-84.050-203.975t-203.975-84.050h-192.7q-119.925 0-203.975 84.050t-84.050 203.975zM64.575 121.018q0-92.25 65.6-157.85t157.85-66.625h192.7q92.25 0 157.85 66.625t66.625 157.85v224.475q0 14.35-9.225 22.55t-23.575 9.225h-576.051q-14.35 0-23.575-9.225t-8.2-22.55v-224.475zM159.9 441.844h64.575v128.125q0 65.6 47.15 112.75t112.75 47.15 112.75-47.15 47.15-112.75v-128.125h64.575v128.125q0 92.25-66.625 157.85t-157.85 65.6-157.85-65.6-66.625-157.85v-128.125zM256.25 441.844h256.25v128.125q0 53.3-36.9 91.225t-91.225 36.9-91.225-36.9-36.9-91.225v-128.125zM320.825 185.593q0 25.625 18.45 45.1t45.1 18.45 45.1-18.45 19.475-45.1q0-28.7-22.55-86.1-14.35-42.025-42.025-42.025t-42.025 42.025q-21.525 57.4-21.525 86.1z" />
<glyph unicode="&#xe80e;" glyph-name="eye" horiz-adv-x="1023" d="M0 336.269v18.45q0 1.025 2.050 3.075v4.1q71.75 133.25 211.15 218.325t297.25 85.075 298.275-85.075 210.125-220.375l2.050-2.050v-4.1q2.050-6.15 2.050-8.2t-2.050-8.2v-4.1l-2.050-2.050q-69.7-135.3-210.125-220.375t-298.275-85.075-297.25 85.075-211.15 220.375v2.050q-2.050 2.050-2.050 3.075zM67.65 345.494q66.625-115.825 187.575-186.55t256.25-69.7 256.25 69.7 187.575 186.55q-66.625 115.825-187.575 186.55t-256.25 69.7-256.25-69.7-187.575-186.55zM285.975 345.494q0 92.25 66.625 157.85t157.85 66.625 157.85-66.625 66.625-157.85-66.625-157.85-157.85-66.625-157.85 66.625-66.625 157.85zM318.775 345.494q0-79.95 55.35-136.325t136.325-55.35 136.325 55.35 56.375 136.325-56.375 136.325-136.325 56.375-136.325-56.375-55.35-136.325zM382.325 345.494q0 54.325 37.925 91.225t90.2 36.9q16.4 0 16.4-16.4t-16.4-15.375q-37.925 0-66.625-28.7t-29.725-67.65q0-16.4-15.375-16.4t-16.4 16.4z" />
<glyph unicode="&#xe80f;" glyph-name="tag" horiz-adv-x="1027" d="M0 89.243v512.5q0 52.275 36.9 90.2t91.225 37.925h608.851q69.7 0 107.625-60.475l159.9-256.25q44.075-67.65 0-135.3l-159.9-256.25q-37.925-60.475-107.625-60.475h-608.851q-54.325 0-91.225 36.9t-36.9 91.225zM64.575 89.243q0-25.625 18.45-45.1t45.1-18.45h608.851q35.875 0 53.3 29.725l160.925 256.25q21.525 33.825 0 67.65l-160.925 256.25q-17.425 29.725-53.3 29.725h-608.851q-25.625 0-45.1-18.45t-18.45-45.1v-512.5zM640.626 345.494q0 39.975 27.675 67.65t68.675 28.7 67.65-28.7 27.675-67.65-27.675-67.65-67.65-28.7-68.675 28.7-27.675 67.65zM672.401 345.494q0-25.625 19.475-45.1t45.1-18.45 45.1 18.45 18.45 45.1-18.45 45.1-45.1 19.475-45.1-19.475-19.475-45.1z" />
<glyph unicode="&#xe810;" glyph-name="thumbs-up" d="M0-70.657v512.5q0 39.975 27.675 67.65t68.675 28.7h96.35q32.8 0 61.5-24.6 12.3 6.15 33.825 16.4 126.075 65.6 128.125 231.65 0 39.975 28.7 68.675t67.65 27.675q58.425 0 107.625-65.6t50.225-150.675q0-67.65-8.2-105.575 242.925-6.15 272.65-14.35 44.075-12.3 67.65-44.075t22.55-64.575v-23.575q-2.050-39.975-27.675-69.7 17.425-34.85 11.275-76.875-7.175-55.35-42.025-88.15 16.4-37.925 0-85.075-17.425-60.475-53.3-85.075 7.175-27.675 0-55.35-6.15-18.45-14.35-34.85-33.825-61.5-113.775-61.5h-176.3q-94.3 0-190.65 21.525-94.3 22.55-130.175 30.75h-2.050q0 2.050-3.075 2.050h-4.1v2.050q-28.7-56.375-86.1-56.375h-96.35q-39.975 0-68.675 27.675t-27.675 68.675zM64.575-70.657q0-14.35 8.2-23.575t23.575-9.225h96.35q13.325 0 22.55 9.225t9.225 23.575v512.5q0 13.325-9.225 22.55t-22.55 9.225h-96.35q-14.35 0-23.575-9.225t-8.2-22.55v-512.5zM96.35-22.482q0 19.475 13.325 33.825t34.85 14.35 33.825-14.35 14.35-33.825-14.35-34.85-33.825-13.325-34.85 13.325-13.325 34.85zM128.125-22.482q0-16.4 16.4-16.4t15.375 16.4-15.375 15.375-16.4-15.375zM256.25-19.407q0-23.575 27.675-27.675 22.55-6.15 148.625-35.875 90.2-20.5 176.3-20.5h176.3q42.025 0 57.4 28.7 6.15 15.375 8.2 23.575 6.15 12.3-2.050 28.7t-29.725 15.375h-50.225q-16.4 0-16.4 16.4t16.4 16.4h52.275q31.775 0 50.225 10.25t22.55 20.5 11.275 30.75q21.525 66.625-39.975 66.625h-64.575q-15.375 0-15.375 15.375t15.375 16.4h75.85q58.425 0 70.725 67.65 2.050 22.55-9.225 41t-43.050 19.475h-62.525q-15.375 0-15.375 15.375t15.375 16.4h64.575q62.525 0 63.55 46.125v21.525q0 38.95-37.925 48.175-46.125 12.3-345.425 12.3 19.475 60.475 24.6 86.1t5.125 82q0 58.425-32.8 105.575t-61.5 46.125q-31.775 0-31.775-31.775-2.050-94.3-47.15-177.325t-145.55-125.050q-2.050 0-4.1-1.025l-2.050-1.025q-25.625-7.175-25.625-33.825v-442.8z" />
<glyph unicode="&#xe811;" glyph-name="pencil" d="M0-55.282q0 4.1 1.025 8.2t1.025 8.2 1.025 8.2 1.025 6.15v2.050l75.85 273.675q10.25 31.775 31.775 54.325l333.125 332.1v2.050l2.050 2.050 153.75 155.8q61.5 60.475 149.65 60.475 108.65 0 190.65-82 75.85-75.85 83.025-175.275t-59.45-165.025l-487.9-493.025q-24.6-23.575-56.375-31.775l-272.65-72.775q-3.075-1.025-7.175-2.050t-9.225-1.025-10.25-1.025-9.225-1.025q-46.125 0-78.925 32.8t-32.8 78.925zM64.575-55.282q0-19.475 13.325-33.825t33.825-14.35q6.15 0 22.55 4.1l117.875 32.8q4.1 59.45-44.075 107.625-46.125 46.125-107.625 44.075l-32.8-121.975q-3.075-14.35-3.075-18.45zM109.675 116.918q68.675-2.050 120.95-53.3t53.3-123l118.9 30.75 11.275 6.15q42.025 48.175 34.85 117.875t-62.525 124.025q-52.275 50.225-117.875 60.475t-114.8-24.6q-7.175-10.25-11.275-21.525zM243.95 347.544q46.125-2.050 92.25-20.5l302.375 302.375q-90.2 22.55-147.6-33.825zM365.925 311.669q38.95-20.5 66.625-46.125 21.525-22.55 42.025-56.375l304.425 306.475q-16.4 31.775-39.975 56.375-30.75 29.725-68.675 46.125zM490.975 179.443q17.425-42.025 21.525-84.050v-24.6l248.050 251.125v2.050q62.525 61.5 31.775 159.9zM594.501 700.144q108.65 0 190.65-82 71.75-74.825 79.95-170.15v-22.55l53.3 56.375q46.125 46.125 42.025 113.775-5.125 75.85-63.55 134.275-64.575 63.55-146.575 63.55-61.5 0-103.525-42.025z" />
<glyph unicode="&#xe812;" glyph-name="comment" d="M0 410.069q0 159.9 150.675 271.625t361.825 111.725 362.85-111.725 149.65-271.625-149.65-272.65-362.85-111.725q-48.175 0-98.4 7.175-29.725-35.875-91.225-79.95t-125.050-56.375h-9.225q-12.3 0-20.5 8.2t-8.2 20.5q0 6.15 2.050 12.3 0 1.025 13.325 21.525t18.45 29.725 13.325 30.75 13.325 36.9 4.1 32.8v2.050q-104.55 54.325-164 137.35t-60.475 181.425zM64.575 410.069q0-76.875 49.2-146.575t140.425-113.775q33.825-18.45 33.825-58.425v-6.15q0-42.025-21.525-94.3 61.5 37.925 97.375 82 18.45 24.6 50.225 24.6 4.1 0 8.2-2.050 46.125-6.15 90.2-6.15 186.55 0 317.75 94.3t130.175 226.525-130.175 225.5-317.75 94.3-317.75-94.3-130.175-225.5zM159.9 410.069q0 91.225 104.55 157.85t248.050 65.6q16.4 0 16.4-15.375t-16.4-16.4q-128.125 0-224.475-58.425t-95.325-133.25q0-16.4-16.4-16.4t-16.4 16.4z" />
<glyph unicode="&#xe813;" glyph-name="location" horiz-adv-x="769" d="M0 473.619q0 159.9 111.725 272.65t272.65 111.725 272.65-111.725 111.725-272.65q0-79.95-28.7-164t-87.125-170.15-103.525-144.525-112.75-136.325q-20.5-25.625-50.225-25.625h-4.1q-29.725 0-50.225 25.625-67.65 78.925-112.75 136.325t-103.525 144.525-87.125 170.15-28.7 164zM64.575 473.619q0-73.8 28.7-153.75t87.125-165.025 97.375-131.2 102.5-123h2.050q2.050-2.050 2.050-4.1l4.1 4.1q63.55 74.825 102.5 123t96.35 131.2 88.15 165.025 29.725 153.75q0 132.225-94.3 226.525t-226.525 93.275-226.525-93.275-93.275-226.525zM192.7 481.819q0 79.95 55.35 136.325t136.325 55.35 136.325-55.35 56.375-136.325-56.375-136.325-136.325-56.375-136.325 56.375-55.35 136.325zM224.475 481.819q0-66.625 47.15-113.775t112.75-46.125 112.75 46.125 47.15 113.775-47.15 112.75-112.75 47.15-112.75-47.15-47.15-112.75z" />
<glyph unicode="&#xe814;" glyph-name="cup" horiz-adv-x="897" d="M0 538.194v95.325q0 26.65 17.425 44.075t43.050 20.5l39.975 115.825q13.325 44.075 59.45 44.075h577.076q46.125 0 59.45-44.075l39.975-115.825q24.6-2.050 42.025-20.5t18.45-44.075v-95.325q0-26.65-19.475-45.1t-45.1-19.475h-33.825l1.025-3.075q1.025-3.075 1.025-5.125l-63.55-576.051q-4.1-24.6-22.55-39.975t-42.025-16.4h-447.925q-24.6 0-42.025 16.4t-22.55 39.975l-63.55 576.051q0 2.050 1.025 5.125l1.025 3.075h-33.825q-26.65 0-45.1 19.475t-19.475 45.1zM64.575 538.194h767.726v95.325h-767.726v-95.325zM128.125 698.094h640.626l-31.775 95.325h-577.076zM159.9 473.619l10.25-96.35h556.576l10.25 96.35h-577.076zM174.25 345.494l35.875-319.8h476.625l35.875 319.8h-548.376zM214.225-7.107l10.25-96.35h447.925l10.25 96.35h-468.425z" />
<glyph unicode="&#xe815;" glyph-name="trash" horiz-adv-x="897" d="M0 569.969v69.7q2.050 37.925 29.725 64.575t66.625 25.625h96.35v31.775q0 39.975 27.675 68.675t67.65 27.675h320.825q39.975 0 67.65-27.675t28.7-68.675v-31.775h95.325q37.925 0 66.625-25.625t29.725-64.575v-69.7q0-26.65-19.475-45.1t-45.1-19.475v-544.276q0-54.325-36.9-91.225t-90.2-36.9h-512.5q-54.325 0-91.225 36.9t-36.9 91.225v544.276q-26.65 0-45.1 19.475t-19.475 45.1zM64.575 569.969h767.726v63.55q0 14.35-8.2 23.575t-23.575 8.2h-704.176q-14.35 0-23.575-8.2t-8.2-23.575v-63.55zM128.125-38.882q0-25.625 19.475-45.1t45.1-19.475h512.5q25.625 0 44.075 19.475t19.475 45.1v544.276h-640.626v-544.276zM192.7-7.107v417.175q0 13.325 8.2 22.55t23.575 9.225h63.55q14.35 0 23.575-9.225t9.225-22.55v-417.175q0-13.325-9.225-22.55t-23.575-9.225h-63.55q-14.35 0-23.575 9.225t-8.2 22.55zM224.475-7.107h63.55v417.175h-63.55v-417.175zM256.25 729.869h384.375v31.775q0 14.35-9.225 23.575t-22.55 8.2h-320.825q-13.325 0-22.55-8.2t-9.225-23.575v-31.775zM384.375-7.107v417.175q0 13.325 9.225 22.55t22.55 9.225h64.575q13.325 0 22.55-9.225t9.225-22.55v-417.175q0-13.325-9.225-22.55t-22.55-9.225h-64.575q-13.325 0-22.55 9.225t-9.225 22.55zM416.15-7.107h64.575v417.175h-64.575v-417.175zM577.076-7.107v417.175q0 13.325 8.2 22.55t23.575 9.225h63.55q14.35 0 23.575-9.225t9.225-22.55v-417.175q0-13.325-9.225-22.55t-23.575-9.225h-63.55q-14.35 0-23.575 9.225t-8.2 22.55zM608.851-7.107h63.55v417.175h-63.55v-417.175z" />
<glyph unicode="&#xe816;" glyph-name="database" horiz-adv-x="897" d="M0 41.068v608.851q0 100.45 134.275 153.75t314.675 54.325 313.65-54.325 134.275-153.75v-608.851q0-100.45-134.275-153.75t-313.65-54.325-314.675 54.325-134.275 153.75zM64.575 41.068q0-60.475 111.725-102.5t272.65-42.025 271.625 42.025 111.725 102.5v119.925q-47.15-49.2-153.75-76.875t-229.6-26.65-230.625 26.65-153.75 76.875v-119.925zM64.575 233.769q0-60.475 111.725-102.5t272.65-42.025 271.625 42.025 111.725 102.5v119.925q-47.15-50.225-153.75-76.875t-229.6-27.675-230.625 27.675-153.75 76.875v-119.925zM64.575 425.444q0-59.45 111.725-101.475t272.65-42.025 271.625 42.025 111.725 101.475v110.7q-59.45-46.125-164-70.725t-219.35-23.575-220.375 23.575-164 70.725v-110.7zM64.575 649.919q0-60.475 111.725-102.5t272.65-42.025 271.625 42.025 111.725 102.5-111.725 101.475-271.625 42.025-272.65-42.025-111.725-101.475zM705.201 25.693q0 13.325 8.2 22.55t23.575 9.225 22.55-9.225 9.225-22.55-9.225-23.575-22.55-9.225-23.575 9.225-8.2 23.575zM705.201 217.369q0 14.35 8.2 22.55t23.575 9.225 22.55-9.225 9.225-22.55-9.225-22.55-22.55-9.225-23.575 9.225-8.2 22.55zM705.201 410.069q0 13.325 8.2 22.55t23.575 9.225 22.55-9.225 9.225-22.55-9.225-23.575-22.55-9.225-23.575 9.225-8.2 23.575z" />
<glyph unicode="&#xe817;" glyph-name="megaphone" d="M0 410.069q0 67.65 36.9 113.775t91.225 46.125h296.225q64.575 0 121.975 46.125t98.4 128.125h2.050q59.45 113.775 153.75 113.775 104.55 0 164-134.275t60.475-313.65-60.475-314.675-164-134.275q-94.3 0-153.75 113.775h-2.050q-79.95 158.875-203.975 172.2-6.15-2.050-8.2-2.050v-2.050q-6.15-2.050-10.25-7.175-2.050-2.050-2.050-4.1-4.1-6.15-4.1-12.3v-226.525q0-8.2 16.4-26.65t16.4-36.9v-32.8q0-25.625-19.475-44.075t-45.1-19.475h-128.125q-25.625 0-45.1 19.475t-18.45 44.075v289.050q0 25.625-19.475 45.1t-45.1 18.45q-54.325 0-91.225 46.125t-36.9 114.8zM64.575 410.069q0-41 18.45-68.675t45.1-27.675h224.475q-31.775 37.925-31.775 96.35t31.775 95.325h-224.475q-25.625 0-45.1-27.675t-18.45-67.65zM237.8 249.144q18.45-29.725 18.45-63.55v-289.050h128.125v28.7l-4.1 4.1q-27.675 33.825-27.675 63.55v224.475q0 16.4 6.15 31.775h-120.95zM352.6 410.069q0-41 18.45-68.675t45.1-27.675h8.2q88.15 0 166.050-64.575-13.325 75.85-13.325 160.925 0 82 13.325 159.9-77.9-64.575-166.050-64.575h-8.2q-25.625 0-45.1-27.675t-18.45-67.65zM640.626 410.069q0-48.175 6.15-96.35h90.2q25.625 0 45.1 27.675t18.45 68.675-18.45 67.65-45.1 27.675h-90.2q-6.15-48.175-6.15-95.325zM654.976 249.144q19.475-99.425 58.425-161.95t87.125-61.5q66.625 0 113.775 111.725t46.125 272.65-46.125 271.625-113.775 111.725q-48.175 0-87.125-61.5t-58.425-161.95h82q53.3 0 91.225-46.125t36.9-113.775-36.9-114.8-91.225-46.125h-82z" />
<glyph unicode="&#xe818;" glyph-name="graduation-cap" d="M0 601.744q0 33.825 21.525 60.475t52.275 33.825l417.175 96.35q11.275 1.025 21.525 1.025t22.55-1.025l416.15-96.35q31.775-8.2 52.275-33.825t21.525-60.475-21.525-60.475-52.275-33.825l-86.1-19.475v-270.6q0-69.7-86.1-114.8t-266.5-45.1-266.5 45.1-86.1 114.8v270.6l-86.1 19.475q-31.775 8.2-52.275 33.825t-21.525 60.475zM64.575 601.744q0-25.625 23.575-31.775l416.15-96.35h16.4l416.15 96.35q23.575 6.15 23.575 31.775t-23.575 31.775l-416.15 96.35h-16.4l-416.15-96.35q-23.575-6.15-23.575-31.775zM224.475 217.369q0-20.5 29.725-41t99.425-37.925 158.875-17.425 158.875 17.425 99.425 37.925 29.725 41v256.25l-265.475-62.525q-12.3-1.025-22.55-1.025t-21.525 1.025l-266.5 62.525v-256.25zM896.876-38.882q0 31.775 20.5 79.95t43.050 48.175 44.075-48.175 20.5-79.95q0-25.625-19.475-45.1t-45.1-19.475-44.075 19.475-19.475 45.1zM928.651 153.818v288.025q0 13.325 9.225 22.55t22.55 9.225 23.575-9.225 9.225-22.55v-288.025q0-14.35-9.225-23.575t-23.575-9.225-22.55 9.225-9.225 23.575z" />
<glyph unicode="&#xe819;" glyph-name="fire" horiz-adv-x="706" d="M0 125.118q0 77.9 18.45 171.175t33.825 159.9 13.325 174.25-33.825 227.55l20.5-14.35q19.475-13.325 52.275-45.1t65.6-70.725 66.625-99.425 49.2-120.95q64.575 96.35 66.625 190.65l31.775-35.875q29.725-36.9 62.525-108.65t31.775-142.475l15.375 20.5q16.4 21.525 33.825 61.5t16.4 76.875q98.4-121.975 138.375-257.275t10.25-255.225q-14.35-52.275-31.775-86.1t-57.4-69.7-109.675-51.25-173.225-17.425q-140.425 0-230.625 87.125t-90.2 205zM64.575 125.118q0-90.2 70.725-158.875t185.525-69.7q75.85 0 131.2 11.275t86.1 26.65 50.225 43.050 27.675 45.1 14.35 50.225q39.975 162.975-65.6 352.6-62.525-105.575-148.625-176.3 0 94.3-10.25 180.4t-25.625 115.825q-23.575-59.45-115.825-189.625 0 8.2-12.3 52.275t-45.1 125.050-76.875 140.425q8.2-128.125-33.825-317.75-31.775-146.575-31.775-230.625zM115.825 101.543q0 149.65 42.025 269.575l16.4 48.175 16.4-42.025q19.475-57.4 67.65-168.1 20.5 30.75 50.225 75.85l48.175 76.875v-54.325q0-67.65 23.575-138.375 39.975 20.5 69.7 42.025t44.075 36.9 36.9 41l27.675 30.75 6.15-32.8q21.525-121.975-20.5-223.45-4.1-10.25-13.325-10.25-4.1 0-6.15 2.050-14.35 6.15-8.2 19.475 27.675 74.825 19.475 172.2-59.45-67.65-157.85-115.825l-15.375-6.15-6.15 16.4q-24.6 67.65-28.7 113.775-31.775-46.125-59.45-86.1l-16.4-21.525-12.3 23.575q-44.075 100.45-65.6 152.725-25.625-86.1-25.625-222.425 0-16.4-16.4-16.4t-16.4 16.4z" />
<glyph unicode="&#xe81a;" glyph-name="paper-plane" d="M0 182.518q-2.050 18.45 14.35 28.7l960.426 640.626q8.2 6.15 18.45 6.15t18.45-6.15q15.375-10.25 13.325-31.775l-159.9-961.451q-4.1-13.325-16.4-21.525-7.175-4.1-15.375-4.1-6.15 0-12.3 2.050l-310.575 124.025-65.6-109.675q-10.25-16.4-28.7-16.4t-27.675 16.4l-117.875 206.025-250.1 99.425q-18.45 8.2-20.5 27.675zM100.45 193.794l193.725-78.925q2.050-2.050 5.125-3.075l3.075-2.050 540.176 578.101zM326.975 87.193l89.175-155.8 516.6 806.676zM514.55 23.643q12.3-2.050 20.5-4.1l271.625-110.7 128.125 766.701z" />
<glyph unicode="&#xe81b;" glyph-name="cloud" d="M0 169.193q0 56.375 27.675 104.55t76.875 75.85q-8.2 21.525-8.2 44.075 0 59.45 42.025 101.475t101.475 43.050q20.5 0 44.075-8.2 34.85 75.85 104.55 121.975t155.8 46.125q112.75 0 193.725-74.825t93.275-185.525q84.050-16.4 138.375-82t55.35-154.775q0-99.425-69.7-170.15t-170.15-69.7h-577.076q-86.1 0-146.575 61.5t-61.5 146.575zM64.575 169.193q0-59.45 42.025-101.475t101.475-42.025h577.076q71.75 0 124.025 51.25t51.25 124.025q0 64.575-39.975 112.75t-101.475 59.45q-35.875 8.2-43.050 15.375t-9.225 43.050q-8.2 86.1-71.75 144.525t-150.675 57.4q-63.55 0-119.925-34.85t-82-95.325q-10.25-19.475-12.3-24.6t-8.2-13.325-15.375-6.15-22.55 6.15q-21.525 10.25-44.075 8.2-33.825 0-56.375-22.55t-23.575-57.4q0-10.25 4.1-24.6 14.35-33.825 10.25-45.1t-37.925-30.75q-71.75-42.025-71.75-124.025z" />
<glyph unicode="&#xe81c;" glyph-name="globe" horiz-adv-x="993" d="M0 361.894q0 206.025 145.55 350.55t350.55 145.55 351.575-145.55 145.55-350.55-145.55-351.575-351.575-145.55-350.55 145.55-145.55 351.575zM64.575 345.494q7.175-170.15 128.125-290.075 53.3 37.925 111.725 61.5-44.075 108.65-48.175 228.575h-191.675zM64.575 377.269h191.675q4.1 106.6 37.925 200.9-63.55 25.625-119.925 69.7-104.55-115.825-109.675-270.6zM195.775 671.444q52.275-39.975 110.7-63.55 44.075 103.525 119.925 180.4-134.275-22.55-230.625-116.85zM216.275 32.868q90.2-77.9 210.125-97.375-65.6 65.6-107.625 151.7-54.325-19.475-102.5-54.325zM288.025 345.494q4.1-113.775 46.125-218.325 70.725 22.55 146.575 26.65v191.675h-192.7zM288.025 377.269h192.7v160.925q-79.95 3.075-156.825 29.725-31.775-90.2-35.875-190.65zM336.2 597.644q70.725-23.575 144.525-27.675v223.45h-2.050q-92.25-77.9-142.475-195.775zM348.5 99.493q50.225-102.5 130.175-170.15h2.050v191.675q-70.725-4.1-132.225-21.525zM512.5-70.657h2.050q79.95 67.65 130.175 170.15-62.525 17.425-132.225 21.525v-191.675zM512.5 153.818q75.85-4.1 146.575-26.65 42.025 104.55 46.125 218.325h-192.7v-191.675zM512.5 377.269h192.7q-4.1 100.45-36.9 190.65-75.85-26.65-155.8-29.725v-160.925zM512.5 569.969q73.8 4.1 144.525 27.675-50.225 117.875-142.475 195.775h-2.050v-223.45zM566.826-64.507q119.925 19.475 210.125 97.375-48.175 34.85-102.5 54.325-42.025-86.1-107.625-151.7zM566.826 788.294q75.85-76.875 119.925-180.4 58.425 23.575 109.675 63.55-95.325 94.3-229.6 116.85zM688.801 116.918q58.425-23.575 111.725-61.5 119.925 119.925 128.125 290.075h-191.675q-4.1-119.925-48.175-228.575zM699.051 578.169q33.825-94.3 37.925-200.9h191.675q-6.15 154.775-109.675 270.6-56.375-44.075-119.925-69.7z" />
<glyph unicode="&#xe81d;" glyph-name="inbox" d="M0 25.693v223.45q0 8.2 2.050 18.45l128.125 480.725q6.15 19.475 22.55 32.8t39.975 12.3h639.601q22.55 0 39.975-12.3t22.55-32.8l128.125-480.725q2.050-10.25 2.050-18.45v-223.45q0-54.325-36.9-91.225t-91.225-37.925h-768.751q-54.325 0-91.225 37.925t-36.9 91.225zM64.575 25.693q0-26.65 18.45-46.125t45.1-18.45h768.751q25.625 0 45.1 18.45t18.45 46.125v223.45l-128.125 480.725h-639.601l-128.125-480.725v-223.45zM124.025 257.344l110.7 384.375q5.125 23.575 29.725 23.575h496.1q24.6 0 29.725-23.575l110.7-384.375q4.1-16.4-5.125-27.675t-24.6-12.3h-146.575l-46.125-92.25q-17.425-35.875-58.425-35.875h-215.25q-41 0-58.425 35.875l-46.125 92.25h-146.575q-15.375 0-24.6 12.3t-5.125 27.675zM170.15 281.944h130.175q39.975 0 58.425-36.9l46.125-91.225h215.25l46.125 91.225q18.45 36.9 58.425 36.9h130.175l-94.3 351.575h-496.1z" />
<glyph unicode="&#xe81e;" glyph-name="cd" horiz-adv-x="1023" d="M5.125 269.644q-18.45 130.175 29.725 266.5 52.275 129.15 161.95 214.225t239.85 101.475 264.45-29.725q130.175-52.275 215.25-161.95t102.5-239.85-30.75-265.475q-52.275-129.15-160.925-215.25t-239.85-101.475-266.5 30.75q-130.175 52.275-214.225 160.925t-101.475 239.85zM96.35 511.544q-69.7-172.2 4.1-343.375t244.975-238.825 343.375 5.125 238.825 244.975-5.125 342.35-244.975 238.825-342.35-4.1-238.825-244.975zM154.775 487.969q58.425 147.6 205 210.125 15.375 8.2 21.525-7.175t-8.2-21.525q-134.275-57.4-187.575-193.725-6.15-14.35-21.525-8.2t-9.225 20.5zM215.25 463.369q48.175 124.025 170.15 176.3 14.35 6.15 20.5-9.225t-8.2-20.5q-108.65-46.125-154.775-157.85-6.15-14.35-19.475-8.2t-8.2 19.475zM273.675 441.844q39.975 96.35 135.3 138.375l2.050 1.025q14.35 6.15 20.5-8.2t-8.2-21.525q-86.1-35.875-119.925-121.975-6.15-16.4-21.525-10.25t-8.2 22.55zM333.125 417.244q29.725 74.825 103.525 105.575t146.575 1.025 105.575-103.525 1.025-146.575-103.525-105.575-146.575-1.025-105.575 103.525-1.025 146.575zM392.575 392.644q-19.475-49.2 2.050-98.4t69.7-67.65 98.4 2.050 67.65 69.7-2.050 98.4-69.7 67.65-98.4-2.050-67.65-69.7zM451 369.069q10.25 24.6 35.875 35.875t48.175 1.025 35.875-35.875 1.025-48.175-35.875-35.875-48.175-1.025-35.875 35.875-1.025 48.175zM482.775 333.194q5.125-11.275 16.4-16.4t24.6 0 16.4 16.4 0 24.6-16.4 16.4-24.6 0-16.4-16.4 0-24.6zM591.426 117.943q-6.15 15.375 8.2 21.525 86.1 35.875 119.925 121.975 6.15 16.4 21.525 10.25t8.2-22.55q-39.975-97.375-135.3-139.4h-2.050q-14.35-6.15-20.5 8.2zM616.026 59.518q-6.15 13.325 9.225 21.525 110.7 46.125 154.775 156.825 6.15 15.375 20.5 9.225t9.225-21.525q-50.225-121.975-172.2-174.25-14.35-6.15-21.525 8.2zM641.651 0.068q-6.15 15.375 8.2 21.525 134.275 57.4 187.575 193.725 6.15 14.35 21.525 8.2t9.225-20.5q-58.425-147.6-205-210.125v-2.050q-15.375-6.15-21.525 9.225z" />
<glyph unicode="&#xe81f;" glyph-name="mobile" horiz-adv-x="704" d="M0-70.657v832.301q0 39.975 27.675 68.675t68.675 27.675h512.5q39.975 0 67.65-27.675t28.7-68.675v-832.301q0-39.975-28.7-68.675t-67.65-27.675h-512.5q-39.975 0-68.675 27.675t-27.675 68.675zM64.575-70.657q0-14.35 8.2-23.575t23.575-9.225h512.5q13.325 0 22.55 9.225t9.225 23.575v63.55h-576.051v-63.55zM64.575 25.693h576.051v639.601h-576.051v-639.601zM64.575 698.094h576.051v63.55q0 14.35-9.225 23.575t-22.55 8.2h-512.5q-14.35 0-23.575-8.2t-8.2-23.575v-63.55zM288.025 746.269q0 15.375 16.4 15.375h96.35q15.375 0 15.375-15.375t-15.375-16.4h-96.35q-16.4 0-16.4 16.4zM320.825-55.282q0 16.4 15.375 16.4h31.775q16.4 0 16.4-16.4t-16.4-15.375h-31.775q-15.375 0-15.375 15.375z" />
<glyph unicode="&#xe820;" glyph-name="desktop" d="M0 89.243v640.626q0 39.975 27.675 67.65t68.675 28.7h832.301q39.975 0 68.675-28.7t27.675-67.65v-640.626q0-39.975-27.675-67.65t-68.675-28.7h-319.8v-37.925l199.875-25.625q23.575-6.15 23.575-32.8 0-13.325-8.2-22.55t-23.575-9.225h-576.051q-14.35 0-23.575 9.225t-8.2 22.55q0 26.65 23.575 32.8l199.875 25.625v37.925h-319.8q-39.975 0-68.675 28.7t-27.675 67.65zM64.575 89.243q0-14.35 8.2-22.55t23.575-9.225h832.301q14.35 0 23.575 9.225t8.2 22.55v640.626q0 14.35-8.2 22.55t-23.575 9.225h-832.301q-14.35 0-23.575-9.225t-8.2-22.55v-640.626zM128.125 217.369v447.925q0 14.35 9.225 23.575t22.55 9.225h705.201q13.325 0 22.55-9.225t9.225-23.575v-447.925q0-14.35-9.225-22.55t-22.55-9.225h-705.201q-13.325 0-22.55 9.225t-9.225 22.55zM159.9 217.369h705.201v447.925h-705.201v-447.925z" />
<glyph unicode="&#xe821;" glyph-name="tv" d="M36.9 34.918q-73.8 310.575 0 621.151 10.25 44.075 54.325 48.175 210.125 25.625 420.25 25.625t420.25-25.625q46.125-4.1 56.375-48.175 73.8-310.575 0-621.151-12.3-44.075-56.375-48.175-96.35-11.275-201.925-17.425 6.15-4.1 6.15-8.2 0-14.35-66.625-23.575t-157.85-8.2-157.85 8.2-66.625 23.575q0 4.1 6.15 8.2-105.575 6.15-201.925 17.425-44.075 4.1-54.325 48.175zM99.425 51.318q412.050-52.275 826.151 0 70.725 294.175 0 588.351-414.1 52.275-826.151 0-70.725-294.175 0-588.351zM160.925 137.418q-67.65 212.175 0 422.3 6.15 18.45 24.6 21.525 132.225 26.65 262.4 26.65t261.375-26.65q18.45-3.075 24.6-21.525 33.825-104.55 33.825-210.125t-33.825-212.175q-6.15-18.45-24.6-22.55-132.225-25.625-261.375-25.625t-262.4 25.625q-18.45 4.1-24.6 22.55zM193.725 147.668q254.2-52.275 510.45 0 65.6 201.925 0 401.8-256.25 54.325-510.45 0-66.625-199.875 0-401.8zM257.275 361.894l8.2 90.2q4.1 13.325 19.475 15.375l146.575 12.3q16.4 0 16.4-16.4t-16.4-15.375l-119.925-8.2q-16.4-2.050-18.45-18.45l-6.15-59.45q0-16.4-15.375-16.4t-14.35 16.4zM767.726 137.418q0 16.4 16.4 16.4h95.325q16.4 0 16.4-16.4t-16.4-16.4h-95.325q-16.4 0-16.4 16.4zM799.501 233.769q0 15.375 16.4 15.375h96.35q15.375 0 15.375-15.375t-15.375-16.4h-96.35q-16.4 0-16.4 16.4zM799.501 329.094q0 16.4 16.4 16.4h96.35q15.375 0 15.375-16.4t-15.375-15.375h-96.35q-16.4 0-16.4 15.375zM799.501 521.794q0 19.475 14.35 33.825t33.825 14.35 33.825-14.35 14.35-33.825-14.35-33.825-33.825-14.35-33.825 14.35-14.35 33.825zM832.301 521.794q0-16.4 15.375-16.4t16.4 16.4-16.4 16.4-15.375-16.4z" />
<glyph unicode="&#xe822;" glyph-name="lightbulb" horiz-adv-x="704" d="M0 505.394q0 146.575 103.525 249.075t249.075 103.525 249.075-103.525 103.525-249.075q0-55.35-30.75-124.025t-72.775-143.5-57.4-118.9q-15.375-39.975-31.775-96.35t-24.6-84.050-27.675-54.325-43.050-39.975-64.575-11.275-65.6 11.275-42.025 39.975-26.65 54.325-25.625 84.050-32.8 96.35q-13.325 44.075-56.375 119.925t-73.8 142.475-29.725 124.025zM64.575 505.394q0-65.6 84.050-218.325 37.925-65.6 53.3-101.475h300.325q16.4 35.875 54.325 101.475 84.050 154.775 84.050 218.325 0 119.925-84.050 203.975t-203.975 84.050-203.975-84.050-84.050-203.975zM159.9 505.394q0 79.95 56.375 136.325t136.325 56.375q15.375 0 15.375-16.4t-15.375-16.4q-66.625 0-113.775-46.125t-46.125-113.775q0-15.375-16.4-15.375t-16.4 15.375zM228.575 121.018q11.275-33.825 19.475-61.5l218.325 27.675q2.050 12.3 10.25 33.825h-248.050zM258.3 28.768q10.25-35.875 18.45-61.5l157.85 19.475q6.15 16.4 12.3 38.95 2.050 5.125 4.1 15.375t3.075 12.3zM288.025-62.457q12.3-26.65 25.625-33.825t38.95-7.175q29.725 0 44.075 10.25t27.675 46.125z" />
<glyph unicode="&#xe823;" glyph-name="clock" horiz-adv-x="704" d="M0 345.494q0 124.025 88.15 218.325l44.075 241.9q4.1 22.55 21.525 36.9t42.025 15.375h256.25q22.55 0 39.975-15.375t22.55-36.9l46.125-250.1q58.425-65.6 73.8-147.6l2.050 1.025q2.050 1.025 4.1 1.025 25.625 0 45.1-19.475t19.475-45.1-19.475-45.1-45.1-18.45q-2.050 0-4.1 0l-2.050 1.025q-17.425-86.1-77.9-151.7l-46.125-246q-4.1-22.55-20.5-36.9t-41-15.375h-256.25q-24.6 0-41 15.375t-21.525 36.9l-46.125 246q-84.050 92.25-84.050 214.225zM64.575 345.494q0-105.575 74.825-181.425t181.425-74.825 180.4 74.825 75.85 181.425-75.85 181.425-180.4 74.825-181.425-74.825-74.825-181.425zM96.35 345.494q0 14.35 9.225 22.55t22.55 9.225 23.575-9.225 8.2-22.55-8.2-22.55-23.575-9.225-22.55 9.225-9.225 22.55zM151.7 210.194q0 13.325 9.225 22.55t23.575 8.2 22.55-8.2 9.225-22.55-9.225-22.55-22.55-10.25-23.575 10.25-9.225 22.55zM151.7 481.819q0 13.325 9.225 22.55t23.575 9.225 22.55-9.225 9.225-22.55-9.225-23.575-22.55-8.2-23.575 8.2-9.225 23.575zM159.9 69.768l32.8-173.225h256.25l31.775 173.225q-75.85-44.075-159.9-44.075t-160.925 44.075zM164 622.244q75.85 43.050 159.9 43.050t160.925-43.050l-32.8 171.175h-256.25zM288.025 153.818q0 13.325 9.225 22.55t23.575 9.225 22.55-9.225 9.225-22.55-9.225-23.575-22.55-9.225-23.575 9.225-9.225 23.575zM288.025 345.494q0 14.35 10.25 22.55l166.050 137.35q8.2 6.15 14.35-1.025t2.050-14.35l-77.9-96.35-60.475-71.75q-8.2-8.2-21.525-8.2t-23.575 9.225-9.225 22.55zM288.025 538.194q0 13.325 9.225 22.55t23.575 9.225 22.55-9.225 9.225-22.55-9.225-23.575-22.55-9.225-23.575 9.225-9.225 23.575zM424.35 210.194q0 13.325 9.225 22.55t21.525 8.2 23.575-8.2 10.25-23.575q0-12.3-10.25-21.525t-23.575-10.25-21.525 10.25-9.225 22.55zM480.725 345.494q0 14.35 9.225 22.55t22.55 9.225 22.55-9.225 9.225-22.55-9.225-22.55-22.55-9.225-22.55 9.225-9.225 22.55z" />
<glyph unicode="&#xe824;" glyph-name="sound" horiz-adv-x="1026" d="M0 153.818q0 39.975 27.675 67.65l100.45 100.45v439.725q0 30.75 16.4 54.325t44.075 33.825q15.375 8.2 35.875 8.2 39.975 0 67.65-27.675l705.201-705.201q46.125-46.125 19.475-103.525-10.25-28.7-33.825-44.075t-54.325-16.4h-439.725l-100.45-100.45q-27.675-27.675-67.65-27.675t-68.675 27.675l-224.475 224.475q-27.675 27.675-27.675 68.675zM64.575 153.818q0-14.35 9.225-22.55l224.475-224.475q8.2-10.25 22.55-10.25t21.525 10.25l100.45 100.45h2.050l-270.6 270.6v-2.050l-100.45-100.45q-9.225-8.2-9.225-21.525zM190.65 307.569l283.925-283.925q12.3 2.050 14.35 2.050h386.425l-682.651 682.651v-386.425q0-2.050-2.050-14.35zM192.7 751.394l725.701-725.701h10.25q22.55 0 30.75 19.475t-8.2 33.825l-705.201 705.201q-8.2 9.225-21.525 9.225-6.15 0-12.3-1.025-19.475-8.2-19.475-30.75v-10.25zM544.276 826.219q0 13.325 9.225 22.55t23.575 9.225q185.525 0 316.725-131.2t131.2-316.725q0-14.35-9.225-23.575t-22.55-9.225-23.575 9.225-9.225 23.575q0 157.85-112.75 270.6t-270.6 112.75q-14.35 0-23.575 9.225t-9.225 23.575zM560.676 713.469q0 16.4 16.4 16.4 131.2 0 225.5-94.3t94.3-225.5q0-16.4-16.4-16.4t-15.375 16.4q0 119.925-84.050 203.975t-203.975 84.050q-16.4 0-16.4 15.375z" />
<glyph unicode="&#xe825;" glyph-name="calendar" d="M0-80.907v756.451q0 35.875 24.6 61.5t61.5 24.6h138.375v64.575q0 13.325 9.225 22.55t22.55 9.225 22.55-9.225 9.225-22.55v-64.575h192.7v64.575q0 13.325 9.225 22.55t22.55 9.225 22.55-9.225 9.225-22.55v-64.575h192.7v64.575q0 13.325 9.225 22.55t22.55 9.225 22.55-9.225 9.225-22.55v-64.575h138.375q35.875 0 61.5-24.6t24.6-61.5v-756.451q0-35.875-24.6-61.5t-61.5-24.6h-852.801q-35.875 0-61.5 24.6t-24.6 61.5zM64.575-80.907q0-10.25 5.125-16.4t16.4-6.15h852.801q10.25 0 16.4 6.15t5.125 16.4v756.451q0 10.25-5.125 16.4t-16.4 6.15h-138.375v-64.575q0-13.325-9.225-22.55t-22.55-9.225-22.55 9.225-9.225 22.55v64.575h-192.7v-64.575q0-13.325-9.225-22.55t-22.55-9.225-22.55 9.225-9.225 22.55v64.575h-192.7v-64.575q0-13.325-9.225-22.55t-22.55-9.225-22.55 9.225-9.225 22.55v64.575h-138.375q-10.25 0-16.4-6.15t-5.125-16.4v-756.451zM224.475 57.468v96.35h128.125v-96.35h-128.125zM224.475 217.369v96.35h128.125v-96.35h-128.125zM224.475 377.269v96.35h128.125v-96.35h-128.125zM448.95 57.468v96.35h128.125v-96.35h-128.125zM448.95 217.369v96.35h128.125v-96.35h-128.125zM448.95 377.269v96.35h128.125v-96.35h-128.125zM672.401 57.468v96.35h128.125v-96.35h-128.125zM672.401 217.369v96.35h128.125v-96.35h-128.125zM672.401 377.269v96.35h128.125v-96.35h-128.125z" />
<glyph unicode="&#xe826;" glyph-name="params" d="M0 538.194q0 77.9 64.575 127.1v96.35q0 39.975 27.675 68.675t67.65 27.675 68.675-27.675 27.675-68.675v-96.35q64.575-49.2 64.575-127.1t-64.575-128.125v-480.725q0-39.975-27.675-68.675t-68.675-27.675-67.65 27.675-27.675 68.675v480.725q-64.575 49.2-64.575 128.125zM64.575 538.194q0-12.3 3.075-26.65l2.050-6.15q4.1-13.325 12.3-23.575 8.2-12.3 20.5-21.525t25.625-12.3q16.4-6.15 31.775-6.15t32.8 6.15q13.325 4.1 25.625 13.325 12.3 8.2 19.475 20.5 8.2 10.25 12.3 23.575l2.050 6.15q4.1 14.35 4.1 26.65t-4.1 25.625q-2.050 4.1-2.050 6.15-4.1 13.325-12.3 23.575-7.175 12.3-19.475 21.525t-25.625 12.3q-16.4 6.15-32.8 6.15t-31.775-6.15q-14.35-4.1-25.625-13.325-10.25-8.2-20.5-20.5-8.2-10.25-12.3-23.575l-2.050-6.15q-3.075-14.35-3.075-25.625zM128.125-70.657q0-14.35 9.225-23.575t22.55-9.225 23.575 9.225 9.225 23.575v452.025q-16.4-4.1-32.8-4.1t-31.775 4.1v-452.025zM128.125 693.994q16.4 4.1 31.775 4.1t32.8-4.1v67.65q0 14.35-9.225 23.575t-23.575 8.2-22.55-8.2-9.225-23.575v-67.65zM352.6 153.818q0 77.9 63.55 128.125v479.7q0 39.975 28.7 68.675t67.65 27.675 67.65-27.675 28.7-68.675v-479.7q63.55-50.225 63.55-128.125t-63.55-128.125v-96.35q0-39.975-28.7-68.675t-67.65-27.675-67.65 27.675-28.7 68.675v96.35q-63.55 49.2-63.55 128.125zM416.15 153.818q0-12.3 4.1-26.65l2.050-6.15q4.1-13.325 12.3-23.575 8.2-12.3 19.475-21.525t26.65-12.3q15.375-6.15 31.775-6.15t31.775 6.15q14.35 4.1 26.65 13.325 11.275 8.2 19.475 20.5 8.2 10.25 12.3 23.575 0 2.050 2.050 6.15 4.1 14.35 4.1 26.65t-4.1 25.625l-2.050 6.15q-4.1 13.325-12.3 23.575-8.2 12.3-19.475 20.5-12.3 10.25-26.65 13.325-15.375 6.15-31.775 6.15t-31.775-6.15q-14.35-3.075-26.65-13.325-9.225-8.2-19.475-20.5-8.2-10.25-12.3-23.575l-2.050-6.15q-4.1-14.35-4.1-25.625zM480.725-70.657q0-14.35 9.225-23.575t22.55-9.225 22.55 9.225 9.225 23.575v67.65q-15.375-4.1-31.775-4.1t-31.775 4.1v-67.65zM480.725 309.619q15.375 4.1 31.775 4.1t31.775-4.1v452.025q0 14.35-9.225 23.575t-22.55 8.2-22.55-8.2-9.225-23.575v-452.025zM705.201 538.194q0 77.9 63.55 127.1v96.35q0 39.975 27.675 68.675t68.675 27.675 67.65-27.675 27.675-68.675v-96.35q64.575-49.2 64.575-127.1t-64.575-128.125v-480.725q0-39.975-27.675-68.675t-67.65-27.675-68.675 27.675-27.675 68.675v480.725q-63.55 49.2-63.55 128.125zM768.751 538.194q0-12.3 4.1-26.65l2.050-6.15q4.1-13.325 12.3-23.575 7.175-12.3 19.475-21.525t25.625-12.3q16.4-6.15 32.8-6.15t31.775 6.15q14.35 4.1 25.625 13.325 12.3 8.2 20.5 20.5 8.2 10.25 12.3 23.575 0 2.050 2.050 6.15 3.075 14.35 3.075 26.65t-3.075 25.625l-2.050 6.15q-4.1 13.325-12.3 23.575-8.2 12.3-20.5 20.5-11.275 9.225-25.625 13.325-16.4 6.15-31.775 6.15t-32.8-6.15q-13.325-4.1-25.625-13.325-12.3-8.2-19.475-20.5-8.2-10.25-12.3-23.575l-2.050-6.15q-4.1-14.35-4.1-25.625zM832.301-70.657q0-14.35 9.225-23.575t23.575-9.225 22.55 9.225 9.225 23.575v452.025q-16.4-4.1-31.775-4.1t-32.8 4.1v-452.025zM832.301 693.994q16.4 4.1 32.8 4.1t31.775-4.1v67.65q0 14.35-9.225 23.575t-22.55 8.2-23.575-8.2-9.225-23.575v-67.65z" />
<glyph unicode="&#xe827;" glyph-name="cog" d="M0 301.419v88.15q0 21.525 15.375 39.975t36.9 22.55l98.4 19.475q5.125 20.5 15.375 42.025l-54.325 82q-13.325 20.5-10.25 43.050t18.45 38.95l60.475 60.475q19.475 19.475 46.125 19.475 19.475 0 35.875-11.275l82-54.325q21.525 10.25 42.025 16.4l20.5 97.375q3.075 22.55 21.525 36.9t39.975 15.375h88.15q21.525 0 39.975-15.375t22.55-36.9l19.475-97.375q20.5-6.15 42.025-16.4l82 54.325q16.4 11.275 35.875 11.275 26.65 0 46.125-19.475l60.475-60.475q17.425-15.375 19.475-38.95t-11.275-43.050l-54.325-82q10.25-21.525 16.4-42.025l97.375-19.475q22.55-4.1 36.9-22.55t15.375-39.975v-88.15q0-21.525-15.375-39.975t-36.9-21.525l-97.375-20.5q-6.15-20.5-16.4-42.025l54.325-82q13.325-20.5 11.275-43.050t-19.475-38.95l-60.475-60.475q-19.475-19.475-46.125-19.475-19.475 0-35.875 11.275l-82 54.325q-21.525-10.25-42.025-16.4l-19.475-97.375q-4.1-22.55-22.55-36.9t-39.975-15.375h-88.15q-21.525 0-39.975 14.35t-21.525 37.925l-20.5 97.375q-20.5 6.15-42.025 16.4l-82-54.325q-16.4-11.275-35.875-11.275-26.65 0-46.125 19.475l-60.475 60.475q-15.375 15.375-18.45 38.95t10.25 43.050l54.325 82q-10.25 21.525-15.375 42.025l-98.4 20.5q-22.55 3.075-36.9 21.525t-15.375 39.975zM64.575 301.419l97.375-19.475q35.875-6.15 48.175-41 6.15-17.425 14.35-35.875 15.375-31.775-4.1-61.5l-56.375-84.050 62.525-62.525 84.050 56.375q15.375 10.25 33.825 10.25 16.4 0 27.675-6.15 18.45-8.2 35.875-14.35 34.85-12.3 41-48.175l19.475-98.4h88.15l20.5 98.4q5.125 35.875 39.975 48.175 17.425 6.15 35.875 14.35 11.275 6.15 27.675 6.15 18.45 0 33.825-10.25l84.050-56.375 62.525 62.525-56.375 84.050q-19.475 29.725-4.1 61.5 8.2 18.45 14.35 35.875 12.3 34.85 48.175 41l97.375 19.475v88.15l-97.375 20.5q-35.875 5.125-48.175 39.975-6.15 17.425-14.35 35.875-15.375 31.775 4.1 61.5l56.375 84.050-62.525 62.525-84.050-56.375q-15.375-10.25-33.825-10.25-16.4 0-27.675 6.15-18.45 8.2-35.875 14.35-34.85 12.3-39.975 48.175l-20.5 97.375h-88.15l-19.475-97.375q-6.15-35.875-41-48.175-17.425-6.15-35.875-14.35-11.275-6.15-27.675-6.15-18.45 0-33.825 10.25l-84.050 56.375-62.525-62.525 56.375-84.050q19.475-29.725 4.1-61.5-8.2-18.45-14.35-35.875-12.3-34.85-48.175-39.975l-97.375-20.5v-88.15zM288.025 345.494q0 92.25 66.625 157.85t157.85 66.625 157.85-66.625 66.625-157.85-66.625-157.85-157.85-66.625-157.85 66.625-66.625 157.85zM316.725 345.494q0-82 56.375-139.4t139.4-56.375 139.4 56.375 56.375 139.4-56.375 139.4-139.4 56.375-139.4-56.375-56.375-139.4zM384.375 345.494q0 54.325 36.9 91.225t91.225 36.9 91.225-37.925 36.9-91.225-36.9-90.2-91.225-36.9-91.225 36.9-36.9 91.225zM416.15 345.494q0-39.975 28.7-67.65t67.65-28.7 67.65 28.7 28.7 67.65-28.7 67.65-67.65 28.7-67.65-28.7-28.7-67.65z" />
<glyph unicode="&#xe828;" glyph-name="note" d="M0-38.882v768.751q0 39.975 27.675 67.65t68.675 28.7h672.401q25.625 0 46.125-18.45l191.675-191.675q18.45-20.5 18.45-46.125v-608.851q0-39.975-27.675-67.65t-68.675-28.7h-832.301q-39.975 0-68.675 28.7t-27.675 67.65zM64.575-38.882q0-14.35 8.2-23.575t23.575-8.2h832.301q14.35 0 23.575 8.2t8.2 23.575v577.076h-127.1q-41 0-68.675 27.675t-27.675 67.65v128.125h-640.626q-14.35 0-23.575-9.225t-8.2-22.55v-768.751zM128.125 41.068q0 16.4 16.4 16.4h735.951q16.4 0 16.4-16.4t-16.4-15.375h-735.951q-16.4 0-16.4 15.375zM128.125 137.418q0 16.4 16.4 16.4h735.951q16.4 0 16.4-16.4t-16.4-16.4h-735.951q-16.4 0-16.4 16.4zM128.125 233.769q0 15.375 16.4 15.375h735.951q16.4 0 16.4-15.375t-16.4-16.4h-735.951q-16.4 0-16.4 16.4zM128.125 329.094q0 16.4 16.4 16.4h735.951q16.4 0 16.4-16.4t-16.4-15.375h-735.951q-16.4 0-16.4 15.375zM128.125 441.844v191.675q0 14.35 9.225 23.575t22.55 8.2h224.475q14.35 0 22.55-8.2t9.225-23.575v-191.675q0-14.35-9.225-23.575t-22.55-8.2h-224.475q-13.325 0-22.55 8.2t-9.225 23.575zM192.7 473.619h159.9v128.125h-159.9v-128.125zM480.725 425.444q0 16.4 15.375 16.4h384.375q16.4 0 16.4-16.4t-16.4-15.375h-384.375q-15.375 0-15.375 15.375zM480.725 521.794q0 16.4 15.375 16.4h160.925q15.375 0 15.375-16.4t-15.375-16.4h-160.925q-15.375 0-15.375 16.4zM480.725 618.144q0 15.375 15.375 15.375h160.925q15.375 0 15.375-15.375t-15.375-16.4h-160.925q-15.375 0-15.375 16.4zM768.751 633.519q0-25.625 19.475-45.1t44.075-18.45h128.125l-191.675 191.675v-128.125z" />
<glyph unicode="&#xe829;" glyph-name="beaker" d="M2.050 349.594q10.25 50.225 56.375 69.7l434.6 174.25q-12.3 20.5-12.3 42.025 0 33.825 23.575 58.425l44.075 44.075q24.6 23.575 57.4 23.575t57.4-23.575l246-246q23.575-24.6 23.575-57.4t-23.575-57.4l-44.075-46.125q-24.6-21.525-56.375-21.525-23.575 0-44.075 12.3l-172.2-428.45q-17.425-48.175-69.7-58.425-8.2-2.050-18.45-2.050h-4.1q-37.925 0-63.55 27.675l-407.95 402.825q-36.9 35.875-26.65 86.1zM65.6 338.319q-3.075-16.4 8.2-28.7l406.925-402.825q10.25-10.25 21.525-10.25h8.2q16.4 4.1 24.6 20.5l149.65 380.275q-59.45 62.525-126.075 87.125t-149.65 33.825-126.075 23.575l-198.85-79.95q-15.375-6.15-18.45-23.575zM256.25 313.719q0 25.625 19.475 45.1t45.1 18.45 45.1-18.45 18.45-45.1-18.45-45.1-45.1-19.475-45.1 19.475-19.475 45.1zM288.025 313.719q0-14.35 9.225-23.575t23.575-8.2 22.55 8.2 9.225 23.575-9.225 22.55-22.55 9.225-23.575-9.225-9.225-22.55zM332.1 461.319q30.75-6.15 82-13.325 60.475-6.15 95.325-13.325t89.175-33.825 100.45-71.75l42.025 104.55 56.375-56.375q11.275-11.275 21.525 0l46.125 46.125q12.3 10.25 0 22.55l-248.050 248.050q-10.25 10.25-22.55 0l-46.125-46.125q-9.225-12.3 0-22.55l56.375-55.35zM384.375 121.018q0 14.35 9.225 23.575t22.55 9.225 23.575-9.225 9.225-23.575-9.225-22.55-23.575-9.225-22.55 9.225-9.225 22.55zM448.95 265.544q0 33.825 22.55 57.4t57.4 22.55 56.375-22.55 23.575-57.4-23.575-57.4-56.375-22.55-57.4 22.55-22.55 57.4zM480.725 265.544q0-20.5 14.35-33.825t33.825-14.35 33.825 14.35 14.35 33.825-14.35 33.825-33.825 14.35-33.825-14.35-14.35-33.825zM865.101 778.044q0 33.825 22.55 57.4t57.4 22.55 57.4-22.55 22.55-57.4-22.55-57.4-57.4-22.55-57.4 22.55-22.55 57.4zM896.876 601.744q0 14.35 9.225 22.55t22.55 9.225 23.575-9.225 9.225-22.55-9.225-22.55-23.575-9.225-22.55 9.225-9.225 22.55zM896.876 778.044q0-20.5 14.35-33.825t33.825-14.35 33.825 14.35 14.35 33.825-14.35 33.825-33.825 14.35-33.825-14.35-14.35-33.825z" />
<glyph unicode="&#xe82a;" glyph-name="truck" d="M0 313.719v351.575q0 41 27.675 68.675t68.675 27.675h480.725q39.975 0 67.65-27.675t27.675-68.675v-63.55h128.125q52.275 0 79.95-42.025l128.125-191.675q16.4-24.6 16.4-54.325v-192.7q0-39.975-27.675-67.65t-68.675-27.675h-35.875q-12.3-43.050-46.125-69.7t-77.9-26.65-77.9 26.65-46.125 69.7h-168.1q-12.3-43.050-46.125-69.7t-77.9-26.65-77.9 26.65-46.125 69.7h-35.875q-41 0-68.675 27.675t-27.675 67.65v96.35q-39.975 0-68.675 27.675t-27.675 68.675zM64.575 313.719q0-14.35 8.2-23.575t23.575-8.2h480.725q13.325 0 22.55 8.2t9.225 23.575v351.575q0 14.35-9.225 23.575t-22.55 9.225h-480.725q-14.35 0-23.575-9.225t-8.2-23.575v-351.575zM159.9 121.018q0-13.325 9.225-22.55t23.575-9.225h35.875q11.275 42.025 46.125 68.675t77.9 27.675 77.9-27.675 46.125-68.675h168.1q12.3 42.025 46.125 68.675t77.9 27.675 77.9-27.675 46.125-68.675h35.875q14.35 0 23.575 9.225t8.2 22.55v192.7q0 10.25-5.125 17.425l-128.125 192.7q-8.2 14.35-26.65 14.35h-128.125v-224.475q0-39.975-27.675-68.675t-67.65-27.675h-417.175v-96.35zM288.025 57.468q0-26.65 19.475-45.1t45.1-19.475 45.1 19.475 18.45 45.1-18.45 45.1-45.1 18.45-45.1-18.45-19.475-45.1zM705.201 57.468q0-26.65 18.45-45.1t45.1-19.475 45.1 19.475 18.45 45.1-18.45 45.1-45.1 18.45-45.1-18.45-18.45-45.1zM705.201 281.944v191.675q0 14.35 8.2 22.55t23.575 9.225h31.775q18.45 0 25.625-13.325l96.35-144.525q6.15-8.2 6.15-18.45v-47.15q0-14.35-9.225-23.575t-22.55-9.225h-128.125q-14.35 0-23.575 9.225t-8.2 23.575zM736.976 281.944h128.125v47.15l-96.35 144.525h-31.775v-191.675z" />
<glyph unicode="&#xe82b;" glyph-name="money" horiz-adv-x="1026" d="M3.075 235.819q31.775 99.425 109.675 177.325 60.475 62.525 208.075 148.625 132.225 75.85 182.45 126.075 56.375 56.375 75.85 124.025 6.15 16.4 16.4 27.675 14.35 12.3 29.725 16.4 35.875 8.2 62.525-16.4l319.8-319.8q26.65-27.675 16.4-64.575-31.775-101.475-110.7-177.325-59.45-62.525-208.075-148.625-132.225-75.85-181.425-126.075-56.375-54.325-76.875-124.025-6.15-16.4-15.375-27.675-14.35-12.3-30.75-16.4-35.875-8.2-61.5 16.4l-320.825 319.8q-25.625 27.675-15.375 64.575zM64.575 217.369l320.825-320.825q25.625 80.975 86.1 143.5t131.2 104.55l141.45 82t132.225 103.525 85.075 143.5l-319.8 319.8q-24.6-79.95-85.075-142.475t-132.225-104.55l-142.475-82t-131.2-103.525-86.1-143.5zM345.425 13.393l21.525 29.725q22.55 27.675 48.175 54.325 22.55 23.575 56.375 50.225 11.275 9.225 21.525 0 12.3-12.3 0-24.6h-2.050q-31.775-25.625-53.3-48.175-24.6-23.575-44.075-49.2l-20.5-28.7q-2.050-2.050-2.050-4.1-12.3-12.3-23.575 0-8.2 10.25-2.050 20.5zM373.1 381.369q2.050 18.45 10.25 33.825 8.2 18.45 19.475 32.8 0 2.050-5.125 5.125-4.1 2.050-4.1 7.175t4.1 10.25 8.2 5.125 7.175-4.1q4.1-4.1 8.2-6.15 8.2 8.2 20.5 16.4t28.7 12.3 29.725 1.025 24.6-15.375q8.2-8.2 8.2-18.45t-8.2-15.375q-5.125-6.15-15.375-4.1-6.15 2.050-18.45 4.1-9.225 4.1-20.5 3.075t-23.575-11.275q20.5-20.5 52.275-58.425 14.35 8.2 31.775 14.35 16.4 6.15 32.8 8.2t31.775-3.075 31.775-17.425q14.35-12.3 20.5-25.625 4.1-14.35 2.050-30.75 0-15.375-10.25-33.825-8.2-19.475-22.55-37.925 8.2-6.15 16.4-13.325 4.1-2.050 5.125-7.175t-3.075-9.225-9.225-5.125-9.225 3.075q-9.225 8.2-15.375 16.4-18.45-18.45-35.875-24.6-16.4-6.15-34.85-6.15-15.375 2.050-28.7 8.2t-20.5 15.375-8.2 17.425 8.2 16.4 13.325 7.175 13.325-3.075 13.325-8.2 13.325-7.175 17.425 0 20.5 12.3q-21.525 21.525-57.4 63.55-32.8-17.425-66.625-19.475-29.725-2.050-51.25 15.375-14.35 12.3-20.5 26.65t-4.1 29.725zM416.15 392.644q-1.025-7.175 1.025-14.35t8.2-10.25q10.25-10.25 22.55-9.225t33.825 10.25q-30.75 32.8-50.225 52.275-6.15-8.2-10.25-14.35t-5.125-14.35zM530.951 539.219q-9.225 10.25 0 22.55 2.050 2.050 4.1 2.050 32.8 25.625 54.325 48.175 23.575 23.575 44.075 50.225l19.475 27.675q2.050 4.1 4.1 4.1 12.3 12.3 22.55 0 10.25-10.25 2.050-22.55l-22.55-29.725q-21.525-27.675-48.175-54.325-21.525-23.575-55.35-49.2-12.3-10.25-24.6 1.025zM535.051 339.344q32.8-35.875 54.325-57.4 6.15 5.125 10.25 13.325t6.15 16.4 0 14.35-9.225 14.35-15.375 9.225-15.375 1.025-16.4-5.125q-4.1-2.050-14.35-6.15z" />
<glyph unicode="&#xe82c;" glyph-name="food" d="M0 105.643q0 33.825 23.575 56.375t56.375 23.575h86.1q22.55 124.025 119.925 206.025t226.525 82q104.55 0 190.65-56.375t129.15-147.6l146.575 71.75q12.3 6.15 24.6 2.050t17.425-16.4 2.050-23.575-16.4-18.45l-153.75-77.9q4.1-11.275 6.15-21.525h86.1q33.825 0 57.4-23.575t22.55-56.375q0-24.6-16.4-42.025l-111.725-126.075v-24.6q0-33.825-22.55-57.4t-57.4-22.55h-608.851q-33.825 0-56.375 22.55t-23.575 57.4v24.6l-111.725 126.075q-16.4 17.425-16.4 42.025zM64.575 105.643l128.125-144.525v-48.175q0-16.4 15.375-16.4h608.851q15.375 0 15.375 16.4v48.175l128.125 144.525q0 15.375-15.375 15.375h-865.101q-15.375 0-15.375-15.375zM197.825 185.593h34.85q21.525 97.375 99.425 160.925t180.4 63.55q86.1 0 156.825-47.15t105.575-123l27.675 15.375q-37.925 84.050-115.825 135.3t-174.25 51.25q-113.775 0-202.95-73.8t-111.725-182.45zM254.2 483.869q-16.4 39.975 16.4 115.825 25.625 62.525 13.325 92.25h-2.050v6.15q0 15.375 16.4 15.375 10.25 0 14.35-9.225 17.425-42.025-14.35-116.85-25.625-63.55-12.3-93.275v-4.1q0-16.4-15.375-16.4-10.25 0-14.35 8.2v2.050h-2.050zM264.45 185.593h33.825q20.5 69.7 78.925 114.8t135.3 45.1q67.65 0 123-36.9t80.975-97.375l30.75 14.35q-32.8 67.65-95.325 109.675t-139.4 42.025q-88.15 0-156.825-53.3t-91.225-138.375zM332.1 185.593h33.825q18.45 44.075 58.425 69.7t88.15 26.65 88.15-26.65 58.425-69.7h5.125l24.6 11.275q-22.55 52.275-69.7 85.075t-106.6 31.775q-62.525 0-110.7-35.875t-69.7-92.25zM402.825 185.593h37.925q29.725 31.775 71.75 31.775t69.7-31.775h39.975q-37.925 63.55-109.675 63.55t-109.675-63.55zM480.725 625.319v2.050q-16.4 39.975 13.325 116.85 28.7 61.5 14.35 92.25v5.125q0 16.4 14.35 16.4 12.3 0 15.375-10.25 18.45-42.025-13.325-115.825-26.65-64.575-14.35-94.3 2.050-2.050 2.050-4.1 0-15.375-16.4-15.375-9.225 0-15.375 7.175zM644.726 487.969v2.050q-16.4 39.975 16.4 113.775 25.625 63.55 11.275 92.25v6.15q0 15.375 16.4 15.375 10.25 0 14.35-9.225 17.425-41-14.35-116.85-26.65-61.5-14.35-92.25v-2.050q2.050-2.050 2.050-3.075 0-16.4-15.375-16.4-10.25 0-14.35 10.25h-2.050zM808.726 185.593h18.45q0 2.050-1.025 4.1t-1.025 4.1z" />
<glyph unicode="&#xe82d;" glyph-name="shop" d="M0 410.069v31.775q0 31.775 20.5 57.4l95.325 128.125q4.1 6.15 12.3 14.35v151.7q0 26.65 19.475 45.1t45.1 19.475h639.601q26.65 0 45.1-19.475t19.475-45.1v-151.7q8.2-8.2 12.3-14.35l95.325-128.125q20.5-25.625 20.5-57.4v-31.775q0-41-27.675-68.675t-68.675-27.675v-417.175q0-25.625-18.45-44.075t-45.1-19.475h-705.201q-25.625 0-45.1 19.475t-18.45 44.075v417.175q-39.975 0-68.675 27.675t-27.675 68.675zM64.575 410.069q0-14.35 8.2-23.575t23.575-9.225h59.45l128.125 224.475h-91.225q-16.4 0-26.65-12.3l-96.35-128.125q-5.125-9.225-5.125-19.475v-31.775zM159.9-103.457h208.075v320.825q0 14.35 9.225 22.55t23.575 9.225h239.85q14.35 0 22.55-9.225t9.225-22.55v-320.825h192.7v417.175h-705.201v-417.175zM192.7 377.269h133.25l64.575 224.475h-69.7zM192.7 665.294h639.601v128.125h-639.601v-128.125zM360.8 377.269h135.3v224.475h-71.75zM400.775-103.457h239.85v320.825h-239.85v-320.825zM528.901 377.269h135.3l-63.55 224.475h-71.75v-224.475zM634.476 601.744l64.575-224.475h133.25l-127.1 224.475h-70.725zM741.076 601.744l128.125-224.475h59.45q14.35 0 23.575 9.225t8.2 23.575v31.775q0 10.25-5.125 19.475l-96.35 128.125q-10.25 12.3-26.65 12.3h-91.225z" />
<glyph unicode="&#xe82e;" glyph-name="diamond" d="M0 501.294q0 28.7 18.45 46.125l164 161.95q17.425 20.5 44.075 20.5h571.951q26.65 0 44.075-20.5l164-161.95q18.45-17.425 18.45-44.075 0-23.575-16.4-44.075l-447.925-476.625q-20.5-21.525-48.175-21.525t-48.175 21.525l-447.925 476.625q-16.4 18.45-16.4 42.025zM64.575 505.394h137.35l86.1 86.1-73.8 62.525zM92.25 473.619l314.675-336.2-200.9 336.2h-113.775zM241.9 473.619l236.775-392.575-77.9 392.575h-158.875zM246 505.394h146.575l-79.95 66.625zM248.050 665.294l62.525-51.25 52.275 51.25h-114.8zM334.15 593.544l82-67.65 72.775 59.45-88.15 72.775zM432.55 473.619l79.95-398.725 79.95 398.725h-159.9zM440.75 505.394h143.5l-71.75 58.425zM440.75 665.294l71.75-59.45 69.7 59.45h-141.45zM538.126 585.344l70.725-59.45 82 67.65-66.625 64.575zM546.326 81.043l236.775 392.575h-158.875zM619.101 137.418l313.65 336.2h-113.775zM632.426 505.394h146.575l-66.625 66.625zM662.151 665.294l52.275-51.25 62.525 51.25h-114.8zM736.976 591.494l86.1-86.1h136.325l-148.625 148.625z" />
<glyph unicode="&#xe82f;" glyph-name="t-shirt" d="M4.1 581.244q-14.35 42.025 20.5 70.725l159.9 128.125q17.425 13.325 39.975 13.325h576.051q22.55 0 39.975-13.325l160.925-128.125q33.825-28.7 19.475-70.725l-63.55-191.675q-10.25-29.725-39.975-39.975-10.25-4.1-20.5-4.1-18.45 0-31.775 8.2v-392.575q0-25.625-19.475-45.1t-45.1-19.475h-576.051q-26.65 0-45.1 19.475t-19.475 45.1v392.575q-13.325-8.2-31.775-8.2-10.25 0-19.475 4.1-30.75 10.25-39.975 39.975zM64.575 601.744l63.55-191.675 96.35 63.55v-512.5h576.051v512.5l96.35-63.55 64.575 191.675-160.925 128.125h-134.275q-13.325-42.025-55.35-68.675t-98.4-27.675-98.4 27.675-55.35 68.675h-134.275zM392.575 729.869q14.35-27.675 46.125-46.125t73.8-18.45 73.8 18.45 46.125 46.125h-239.85z" />
<glyph unicode="&#xe900;" glyph-name="tiktok" d="M824.38 626.68c-7.564 3.92-13.745 7.571-19.722 11.508l0.822-0.508c-18.323 12.213-34.238 25.809-48.383 41.069l-0.157 0.171c-36.2 41.42-49.72 83.44-54.7 112.86h0.2c-4.16 24.42-2.44 40.22-2.18 40.22h-164.88v-637.56c0-8.56 0-17.020-0.36-25.38 0-1.040-0.1-2-0.16-3.12 0-0.46 0-0.94-0.1-1.42 0-0.12 0-0.24 0-0.36-3.73-47.689-30.842-88.316-69.763-110.76l-0.677-0.36c-19.554-11.32-43.017-18-68.041-18-0.063 0-0.126 0-0.188 0h0.010c-76.82 0-139.080 62.64-139.080 140s62.26 140 139.080 140c0.038 0 0.083 0 0.128 0 15.261 0 29.943-2.481 43.665-7.062l-0.973 0.282 0.2 167.88c-11.784 1.607-25.403 2.524-39.237 2.524-75.129 0-143.94-27.050-197.225-71.943l0.462 0.379c-28.059-24.47-51.588-53.245-69.761-85.444l-0.839-1.616c-6.96-12-33.22-60.22-36.4-138.48-2-44.42 11.34-90.44 17.7-109.46v-0.4c4-11.2 19.5-49.42 44.76-81.64 20.512-25.878 44.041-48.123 70.361-66.672l1.059-0.708v0.4l0.4-0.4c79.82-54.24 168.32-50.68 168.32-50.68 15.32 0.62 66.64 0 124.92 27.62 64.64 30.62 101.44 76.24 101.44 76.24 22.656 26.15 41.312 56.557 54.528 89.721l0.752 2.139c14.92 39.22 19.9 86.26 19.9 105.060v338.24c2-1.2 28.64-18.82 28.64-18.82s38.38-24.6 98.26-40.62c42.96-11.4 100.84-13.8 100.84-13.8v163.68c-20.28-2.2-61.46 4.2-103.62 25.22z" />
<glyph unicode="&#xe901;" glyph-name="activity" d="M939.585 366.849h-170.834c-17.084 0-34.166-12.813-38.438-29.896l-89.688-260.521-217.813 644.897c-4.271 17.084-21.354 29.896-38.438 29.896s-34.166-12.813-38.438-29.896l-119.584-354.479h-140.938c-25.625 0-42.709-17.084-42.709-42.709s17.084-42.709 42.709-42.709h170.834c17.084 0 34.166 12.813 38.438 29.896l89.688 260.521 217.813-649.167c4.271-17.084 21.354-29.896 38.438-29.896s34.166 12.813 38.438 29.896l119.584 354.479h140.938c25.625 0 42.709 17.084 42.709 42.709s-17.084 46.979-42.709 46.979z" />
<glyph unicode="&#xe902;" glyph-name="airplay" d="M854.167 751.224h-683.334c-72.604 0-128.125-55.521-128.125-128.125v-427.084c0-72.604 55.521-128.125 128.125-128.125h42.709c25.625 0 42.709 17.084 42.709 42.709s-17.084 42.709-42.709 42.709h-42.709c-25.625 0-42.709 17.084-42.709 42.709v427.084c0 25.625 17.084 42.709 42.709 42.709h683.334c25.625 0 42.709-17.084 42.709-42.709v-427.084c0-25.625-17.084-42.709-42.709-42.709h-42.709c-25.625 0-42.709-17.084-42.709-42.709s17.084-42.709 42.709-42.709h42.709c72.604 0 128.125 55.521 128.125 128.125v427.084c0 72.604-55.521 128.125-128.125 128.125zM546.667 221.64c-17.084 21.354-51.25 21.354-64.063 0l-213.542-256.25c-8.541-12.813-12.813-29.896-4.271-46.979 4.271-12.813 17.084-21.354 34.166-21.354h427.084c17.084 0 29.896 8.541 38.438 25.625s4.271 34.166-4.271 46.979l-213.542 251.979zM388.647-17.527l123.854 145.209 123.854-145.209h-247.709z" />
<glyph unicode="&#xe903;" glyph-name="alert-circle" d="M512.5 793.932c-260.521 0-469.792-209.271-469.792-469.792s209.271-469.792 469.792-469.792 469.792 209.271 469.792 469.792-209.271 469.792-469.792 469.792zM512.5-60.236c-213.542 0-384.375 170.834-384.375 384.375s170.834 384.375 384.375 384.375c213.542 0 384.375-170.834 384.375-384.375s-170.834-384.375-384.375-384.375zM512.5 537.681c-25.625 0-42.709-17.084-42.709-42.709v-170.834c0-25.625 17.084-42.709 42.709-42.709s42.709 17.084 42.709 42.709v170.834c0 25.625-17.084 42.709-42.709 42.709zM482.604 183.202c-8.541-8.541-12.813-17.084-12.813-29.896s4.271-21.354 12.813-29.896c8.541-8.541 17.084-12.813 29.896-12.813s21.354 4.271 29.896 12.813c8.541 8.541 12.813 21.354 12.813 29.896s-4.271 21.354-12.813 29.896c-17.084 17.084-42.709 17.084-59.791 0z" />
<glyph unicode="&#xe904;" glyph-name="alert-octagon" d="M969.48 529.14l-251.979 251.979c-4.271 8.541-17.084 12.813-29.896 12.813h-350.209c-12.813 0-25.625-4.271-29.896-12.813l-251.979-251.979c-8.541-4.271-12.813-17.084-12.813-29.896v-354.479c0-12.813 4.271-21.354 12.813-29.896l251.979-251.979c4.271-4.271 17.084-8.541 29.896-8.541h354.479c12.813 0 21.354 4.271 29.896 12.813l251.979 251.979c8.541 8.541 12.813 17.084 12.813 29.896v350.209c-4.271 12.813-8.541 25.625-17.084 29.896zM896.876 166.118l-226.354-226.354h-316.042l-226.354 226.354v316.042l226.354 226.354h320.313l222.084-226.354v-316.042zM512.5 537.681c-25.625 0-42.709-17.084-42.709-42.709v-170.834c0-25.625 17.084-42.709 42.709-42.709s42.709 17.084 42.709 42.709v170.834c0 25.625-17.084 42.709-42.709 42.709zM482.604 183.202c-8.541-8.541-12.813-17.084-12.813-29.896s4.271-21.354 12.813-29.896c8.541-8.541 17.084-12.813 29.896-12.813s21.354 4.271 29.896 12.813c8.541 8.541 12.813 21.354 12.813 29.896s-4.271 21.354-12.813 29.896c-17.084 17.084-42.709 17.084-59.791 0z" />
<glyph unicode="&#xe905;" glyph-name="alert-triangle" d="M982.292 89.243l-358.75 606.459c-17.084 29.896-46.979 51.25-81.146 59.791s-68.334 4.271-98.229-12.813c-17.084-8.541-34.166-25.625-42.709-42.709 0 0 0 0 0 0l-358.75-610.729c-34.166-59.791-12.813-140.938 46.979-175.104 17.084-12.813 38.438-17.084 59.791-17.084h726.042c34.166 0 68.334 12.813 89.688 38.438 25.625 25.625 38.438 55.521 38.438 89.688-4.271 21.354-8.541 46.979-21.354 64.063zM905.417-4.714c-8.541-8.541-21.354-12.813-29.896-12.813h-726.042c-8.541 0-12.813 0-21.354 4.271-21.354 12.813-25.625 38.438-17.084 59.791l363.022 602.188c4.271 4.271 8.541 12.813 12.813 12.813 21.354 12.813 46.979 4.271 59.791-12.813l363.022-602.188c4.271-4.271 4.271-12.813 4.271-21.354 4.271-12.813-4.271-21.354-8.541-29.896zM512.5 494.974c-25.625 0-42.709-17.084-42.709-42.709v-170.834c0-25.625 17.084-42.709 42.709-42.709s42.709 17.084 42.709 42.709v170.834c0 25.625-17.084 42.709-42.709 42.709zM482.604 140.493c-8.541-8.541-12.813-17.084-12.813-29.896s4.271-21.354 12.813-29.896c8.541-8.541 17.084-12.813 29.896-12.813s21.354 4.271 29.896 12.813c8.541 8.541 12.813 21.354 12.813 29.896s-4.271 21.354-12.813 29.896c-17.084 17.084-42.709 17.084-59.791 0z" />
<glyph unicode="&#xe906;" glyph-name="align-center" d="M256.25 452.265c-25.625 0-42.709-17.084-42.709-42.709s17.084-42.709 42.709-42.709h512.5c25.625 0 42.709 17.084 42.709 42.709s-17.084 42.709-42.709 42.709h-512.5zM128.125 537.681h768.751c25.625 0 42.709 17.084 42.709 42.709s-17.084 42.709-42.709 42.709h-768.751c-25.625 0-42.709-17.084-42.709-42.709s17.084-42.709 42.709-42.709zM896.876 281.431h-768.751c-25.625 0-42.709-17.084-42.709-42.709s17.084-42.709 42.709-42.709h768.751c25.625 0 42.709 17.084 42.709 42.709s-17.084 42.709-42.709 42.709zM768.751 110.598h-512.5c-25.625 0-42.709-17.084-42.709-42.709s17.084-42.709 42.709-42.709h512.5c25.625 0 42.709 17.084 42.709 42.709s-17.084 42.709-42.709 42.709z" />
<glyph unicode="&#xe907;" glyph-name="align-justify" d="M896.876 452.265h-768.751c-25.625 0-42.709-17.084-42.709-42.709s17.084-42.709 42.709-42.709h768.751c25.625 0 42.709 17.084 42.709 42.709s-17.084 42.709-42.709 42.709zM128.125 537.681h768.751c25.625 0 42.709 17.084 42.709 42.709s-17.084 42.709-42.709 42.709h-768.751c-25.625 0-42.709-17.084-42.709-42.709s17.084-42.709 42.709-42.709zM896.876 281.431h-768.751c-25.625 0-42.709-17.084-42.709-42.709s17.084-42.709 42.709-42.709h768.751c25.625 0 42.709 17.084 42.709 42.709s-17.084 42.709-42.709 42.709zM896.876 110.598h-768.751c-25.625 0-42.709-17.084-42.709-42.709s17.084-42.709 42.709-42.709h768.751c25.625 0 42.709 17.084 42.709 42.709s-17.084 42.709-42.709 42.709z" />
<glyph unicode="&#xe908;" glyph-name="align-left2" d="M128.125 366.849h597.917c25.625 0 42.709 17.084 42.709 42.709s-17.084 42.709-42.709 42.709h-597.917c-25.625 0-42.709-17.084-42.709-42.709s17.084-42.709 42.709-42.709zM128.125 537.681h768.751c25.625 0 42.709 17.084 42.709 42.709s-17.084 42.709-42.709 42.709h-768.751c-25.625 0-42.709-17.084-42.709-42.709s17.084-42.709 42.709-42.709zM896.876 281.431h-768.751c-25.625 0-42.709-17.084-42.709-42.709s17.084-42.709 42.709-42.709h768.751c25.625 0 42.709 17.084 42.709 42.709s-17.084 42.709-42.709 42.709zM726.042 110.598h-597.917c-25.625 0-42.709-17.084-42.709-42.709s17.084-42.709 42.709-42.709h597.917c25.625 0 42.709 17.084 42.709 42.709s-17.084 42.709-42.709 42.709z" />
<glyph unicode="&#xe909;" glyph-name="align-right2" d="M896.876 452.265h-597.917c-25.625 0-42.709-17.084-42.709-42.709s17.084-42.709 42.709-42.709h597.917c25.625 0 42.709 17.084 42.709 42.709s-17.084 42.709-42.709 42.709zM128.125 537.681h768.751c25.625 0 42.709 17.084 42.709 42.709s-17.084 42.709-42.709 42.709h-768.751c-25.625 0-42.709-17.084-42.709-42.709s17.084-42.709 42.709-42.709zM896.876 281.431h-768.751c-25.625 0-42.709-17.084-42.709-42.709s17.084-42.709 42.709-42.709h768.751c25.625 0 42.709 17.084 42.709 42.709s-17.084 42.709-42.709 42.709zM896.876 110.598h-597.917c-25.625 0-42.709-17.084-42.709-42.709s17.084-42.709 42.709-42.709h597.917c25.625 0 42.709 17.084 42.709 42.709s-17.084 42.709-42.709 42.709z" />
<glyph unicode="&#xe90a;" glyph-name="anchor" d="M939.585 366.849h-128.125c-25.625 0-42.709-17.084-42.709-42.709s17.084-42.709 42.709-42.709h81.146c-21.354-179.375-162.291-320.313-337.396-337.396v512.5c72.604 17.084 128.125 85.416 128.125 166.563 0 93.959-76.875 170.834-170.834 170.834s-170.834-76.875-170.834-170.834c0-81.146 55.521-145.209 128.125-166.563v-516.772c-179.375 21.354-320.313 162.291-337.396 337.396h81.146c25.625 0 42.709 17.084 42.709 42.709s-17.084 42.709-42.709 42.709h-128.125c-25.625 0-42.709-17.084-42.709-42.709 0-260.521 209.271-469.792 469.792-469.792s469.792 209.271 469.792 469.792c0 29.896-17.084 46.979-42.709 46.979zM427.084 623.099c0 46.979 38.438 85.416 85.416 85.416s85.416-38.438 85.416-85.416-38.438-85.416-85.416-85.416c-46.979 0-85.416 38.438-85.416 85.416z" />
<glyph unicode="&#xe90b;" glyph-name="aperture" d="M892.605 50.806c55.521 76.875 89.688 170.834 89.688 273.334 0 64.063-12.813 128.125-38.438 183.646 0 0 0 4.271 0 4.271-64.063 149.479-205 256.25-375.834 277.604 0 0-4.271 0-4.271 0-17.084 4.271-34.166 4.271-51.25 4.271-153.75 0-290.417-72.604-375.834-187.917 0-4.271-4.271-4.271-4.271-8.541-55.521-76.875-89.688-170.834-89.688-273.334 0-64.063 12.813-128.125 38.438-187.917 0 0 0-4.271 0-4.271 64.063-145.209 205-256.25 371.563-277.604 0 0 4.271 0 4.271 0 17.084 0 34.166-4.271 51.25-4.271 153.75 0 290.417 72.604 375.834 187.917 4.271 4.271 8.541 8.541 8.541 12.813zM585.104 196.015h-149.479l-72.604 128.125 72.604 128.125h149.479l72.604-128.125-72.604-128.125zM128.125 324.14c0 59.791 12.813 119.584 38.438 170.834l170.834-298.959h-187.917c-12.813 38.438-21.354 81.146-21.354 128.125zM683.334 452.265h187.917c12.813-38.438 21.354-81.146 21.354-128.125 0-59.791-12.813-119.584-38.438-170.834l-170.834 298.959zM832.813 537.681h-345.938l93.959 162.291c106.771-17.084 196.459-76.875 251.979-162.291zM486.875 708.515l-170.834-298.959-93.959 162.291c64.063 76.875 158.021 128.125 264.792 136.666zM192.188 110.598h345.938l-93.959-162.291c-106.771 17.084-196.459 76.875-251.979 162.291zM538.126-60.236l170.834 298.959 93.959-162.291c-64.063-76.875-158.021-128.125-264.792-136.666z" />
<glyph unicode="&#xe90c;" glyph-name="archive2" d="M982.292 751.224h-939.585c-25.625 0-42.709-17.084-42.709-42.709v-213.542c0-25.625 17.084-42.709 42.709-42.709h42.709v-512.5c0-25.625 17.084-42.709 42.709-42.709h768.751c25.625 0 42.709 17.084 42.709 42.709v512.5h42.709c25.625 0 42.709 17.084 42.709 42.709v213.542c0 25.625-17.084 42.709-42.709 42.709zM854.167-17.527h-683.334v469.792h683.334v-469.792zM939.585 537.681h-854.167v128.125h854.167v-128.125zM427.084 281.431h170.834c25.625 0 42.709 17.084 42.709 42.709s-17.084 42.709-42.709 42.709h-170.834c-25.625 0-42.709-17.084-42.709-42.709s17.084-42.709 42.709-42.709z" />
<glyph unicode="&#xe90d;" glyph-name="arrow-down2" d="M841.355 354.036c-17.084 17.084-42.709 17.084-59.791 0l-226.354-226.354v495.417c0 25.625-17.084 42.709-42.709 42.709s-42.709-17.084-42.709-42.709v-495.417l-226.354 226.354c-17.084 17.084-42.709 17.084-59.791 0s-17.084-42.709 0-59.791l298.959-298.959c4.271-4.271 8.541-8.541 12.813-8.541 4.271-4.271 12.813-4.271 17.084-4.271s12.813 0 17.084 4.271c4.271 4.271 8.541 4.271 12.813 8.541l298.959 298.959c17.084 17.084 17.084 42.709 0 59.791z" />
<glyph unicode="&#xe90e;" glyph-name="arrow-down-circle" d="M512.5 793.932c-260.521 0-469.792-209.271-469.792-469.792s209.271-469.792 469.792-469.792 469.792 209.271 469.792 469.792-209.271 469.792-469.792 469.792zM512.5-60.236c-213.542 0-384.375 170.834-384.375 384.375s170.834 384.375 384.375 384.375c213.542 0 384.375-170.834 384.375-384.375s-170.834-384.375-384.375-384.375zM653.438 354.036l-98.229-98.229v239.167c0 25.625-17.084 42.709-42.709 42.709s-42.709-17.084-42.709-42.709v-239.167l-98.229 98.229c-17.084 17.084-42.709 17.084-59.791 0s-17.084-42.709 0-59.791l170.834-170.834c4.271-4.271 8.541-8.541 12.813-8.541 4.271-4.271 12.813-4.271 17.084-4.271s12.813 0 17.084 4.271c4.271 4.271 8.541 4.271 12.813 8.541l170.834 170.834c17.084 17.084 17.084 42.709 0 59.791s-42.709 17.084-59.791 0z" />
<glyph unicode="&#xe90f;" glyph-name="arrow-down-left" d="M726.042 153.306h-324.584l354.479 354.479c17.084 17.084 17.084 42.709 0 59.791s-42.709 17.084-59.791 0l-354.479-354.479v324.584c0 25.625-17.084 42.709-42.709 42.709s-42.709-17.084-42.709-42.709v-427.084c0-4.271 0-12.813 4.271-17.084 4.271-8.541 12.813-17.084 21.354-21.354 4.271-4.271 12.813-4.271 17.084-4.271h427.084c25.625 0 42.709 17.084 42.709 42.709s-17.084 42.709-42.709 42.709z" />
<glyph unicode="&#xe910;" glyph-name="arrow-down-right" d="M768.751 537.681c0 25.625-17.084 42.709-42.709 42.709s-42.709-17.084-42.709-42.709v-324.584l-354.479 354.479c-17.084 17.084-42.709 17.084-59.791 0s-17.084-42.709 0-59.791l354.479-354.479h-324.584c-25.625 0-42.709-17.084-42.709-42.709s17.084-42.709 42.709-42.709h427.084c4.271 0 12.813 0 17.084 4.271 8.541 4.271 17.084 12.813 21.354 21.354 4.271 4.271 4.271 12.813 4.271 17.084v427.084z" />
<glyph unicode="&#xe911;" glyph-name="arrow-left2" d="M811.459 366.849h-495.417l226.354 226.354c17.084 17.084 17.084 42.709 0 59.791s-42.709 17.084-59.791 0l-298.959-298.959c-4.271-4.271-8.541-8.541-8.541-12.813-4.271-8.541-4.271-21.354 0-34.166 4.271-4.271 4.271-8.541 8.541-12.813l298.959-298.959c8.541-8.541 21.354-12.813 29.896-12.813s21.354 4.271 29.896 12.813c17.084 17.084 17.084 42.709 0 59.791l-226.354 226.354h495.417c25.625 0 42.709 17.084 42.709 42.709s-17.084 42.709-42.709 42.709z" />
<glyph unicode="&#xe912;" glyph-name="arrow-left-circle" d="M512.5 793.932c-260.521 0-469.792-209.271-469.792-469.792s209.271-469.792 469.792-469.792 469.792 209.271 469.792 469.792-209.271 469.792-469.792 469.792zM512.5-60.236c-213.542 0-384.375 170.834-384.375 384.375s170.834 384.375 384.375 384.375c213.542 0 384.375-170.834 384.375-384.375s-170.834-384.375-384.375-384.375zM683.334 366.849h-239.167l98.229 98.229c17.084 17.084 17.084 42.709 0 59.791s-42.709 17.084-59.791 0l-170.834-170.834c-4.271-4.271-8.541-8.541-8.541-12.813-4.271-8.541-4.271-21.354 0-34.166 4.271-4.271 4.271-8.541 8.541-12.813l170.834-170.834c8.541-8.541 21.354-12.813 29.896-12.813s21.354 4.271 29.896 12.813c17.084 17.084 17.084 42.709 0 59.791l-98.229 98.229h239.167c25.625 0 42.709 17.084 42.709 42.709s-17.084 42.709-42.709 42.709z" />
<glyph unicode="&#xe913;" glyph-name="arrow-right2" d="M849.897 307.056c4.271 8.541 4.271 21.354 0 34.166-4.271 4.271-4.271 8.541-8.541 12.813l-298.959 298.959c-17.084 17.084-42.709 17.084-59.791 0s-17.084-42.709 0-59.791l226.354-226.354h-495.417c-25.625 0-42.709-17.084-42.709-42.709s17.084-42.709 42.709-42.709h495.417l-226.354-226.354c-17.084-17.084-17.084-42.709 0-59.791 8.541-8.541 21.354-12.813 29.896-12.813s21.354 4.271 29.896 12.813l298.959 298.959c4.271 4.271 8.541 8.541 8.541 12.813z" />
<glyph unicode="&#xe914;" glyph-name="arrow-right-circle" d="M512.5 793.932c-260.521 0-469.792-209.271-469.792-469.792s209.271-469.792 469.792-469.792 469.792 209.271 469.792 469.792-209.271 469.792-469.792 469.792zM512.5-60.236c-213.542 0-384.375 170.834-384.375 384.375s170.834 384.375 384.375 384.375c213.542 0 384.375-170.834 384.375-384.375s-170.834-384.375-384.375-384.375zM721.772 341.223c-4.271 4.271-4.271 8.541-8.541 12.813l-170.834 170.834c-17.084 17.084-42.709 17.084-59.791 0s-17.084-42.709 0-59.791l98.229-98.229h-239.167c-25.625 0-42.709-17.084-42.709-42.709s17.084-42.709 42.709-42.709h239.167l-98.229-98.229c-17.084-17.084-17.084-42.709 0-59.791 8.541-8.541 21.354-12.813 29.896-12.813s21.354 4.271 29.896 12.813l170.834 170.834c4.271 4.271 8.541 8.541 8.541 12.813 4.271 12.813 4.271 21.354 0 34.166z" />
<glyph unicode="&#xe915;" glyph-name="arrow-up2" d="M841.355 354.036l-298.959 298.959c-4.271 4.271-8.541 8.541-12.813 8.541-8.541 4.271-21.354 4.271-34.166 0-4.271-4.271-8.541-4.271-12.813-8.541l-298.959-298.959c-17.084-17.084-17.084-42.709 0-59.791s42.709-17.084 59.791 0l226.354 226.354v-495.417c0-25.625 17.084-42.709 42.709-42.709s42.709 17.084 42.709 42.709v495.417l226.354-226.354c8.541-8.541 21.354-12.813 29.896-12.813s21.354 4.271 29.896 12.813c17.084 17.084 17.084 42.709 0 59.791z" />
<glyph unicode="&#xe916;" glyph-name="arrow-up-circle" d="M512.5 793.932c-260.521 0-469.792-209.271-469.792-469.792s209.271-469.792 469.792-469.792 469.792 209.271 469.792 469.792-209.271 469.792-469.792 469.792zM512.5-60.236c-213.542 0-384.375 170.834-384.375 384.375s170.834 384.375 384.375 384.375c213.542 0 384.375-170.834 384.375-384.375s-170.834-384.375-384.375-384.375zM542.397 524.869c-4.271 4.271-8.541 8.541-12.813 8.541-8.541 4.271-21.354 4.271-34.166 0-4.271-4.271-8.541-4.271-12.813-8.541l-170.834-170.834c-17.084-17.084-17.084-42.709 0-59.791s42.709-17.084 59.791 0l98.229 98.229v-239.167c0-25.625 17.084-42.709 42.709-42.709s42.709 17.084 42.709 42.709v239.167l98.229-98.229c8.541-8.541 21.354-12.813 29.896-12.813s21.354 4.271 29.896 12.813c17.084 17.084 17.084 42.709 0 59.791l-170.834 170.834z" />
<glyph unicode="&#xe917;" glyph-name="arrow-up-left" d="M401.459 494.974h324.584c25.625 0 42.709 17.084 42.709 42.709s-17.084 42.709-42.709 42.709h-427.084c-4.271 0-12.813 0-17.084-4.271-8.541-4.271-17.084-12.813-21.354-21.354-4.271-4.271-4.271-12.813-4.271-17.084v-427.084c0-25.625 17.084-42.709 42.709-42.709s42.709 17.084 42.709 42.709v324.584l354.479-354.479c8.541-8.541 21.354-12.813 29.896-12.813s21.354 4.271 29.896 12.813c17.084 17.084 17.084 42.709 0 59.791l-354.479 354.479z" />
<glyph unicode="&#xe918;" glyph-name="arrow-up-right" d="M764.48 554.765c-4.271 8.541-12.813 17.084-21.354 21.354-4.271 4.271-12.813 4.271-17.084 4.271h-427.084c-25.625 0-42.709-17.084-42.709-42.709s17.084-42.709 42.709-42.709h324.584l-354.479-354.479c-17.084-17.084-17.084-42.709 0-59.791 8.541-8.541 17.084-12.813 29.896-12.813s21.354 4.271 29.896 12.813l354.479 354.479v-324.584c0-25.625 17.084-42.709 42.709-42.709s42.709 17.084 42.709 42.709v427.084c0 4.271 0 12.813-4.271 17.084z" />
<glyph unicode="&#xe919;" glyph-name="at-sign" d="M512.5 793.932c-123.854 0-243.438-46.979-333.125-136.666s-136.666-209.271-136.666-333.125c0-260.521 209.271-469.792 469.792-469.792 102.5 0 205 34.166 286.146 98.229 17.084 12.813 21.354 42.709 8.541 59.791s-42.709 21.354-59.791 8.541c-68.334-51.25-149.479-81.146-234.896-81.146-213.542 0-384.375 170.834-384.375 384.375 0 102.5 38.438 200.729 111.041 273.334s170.834 111.041 273.334 111.041c213.542 0 384.375-170.834 384.375-384.375v-42.709c0-46.979-38.438-85.416-85.416-85.416s-85.416 38.438-85.416 85.416v213.542c0 25.625-17.084 42.709-42.709 42.709s-42.709-17.084-42.709-42.709v0c-34.166 25.625-81.146 42.709-128.125 42.709-119.584 0-213.542-93.959-213.542-213.542s93.959-213.542 213.542-213.542c64.063 0 119.584 29.896 158.021 72.604 29.896-42.709 81.146-72.604 140.938-72.604 93.959 0 170.834 76.875 170.834 170.834v42.709c0 260.521-209.271 469.792-469.792 469.792zM512.5 196.015c-72.604 0-128.125 55.521-128.125 128.125s55.521 128.125 128.125 128.125 128.125-55.521 128.125-128.125-55.521-128.125-128.125-128.125z" />
<glyph unicode="&#xe91a;" glyph-name="award" d="M854.167 494.974c0 187.917-153.75 341.667-341.667 341.667s-341.667-153.75-341.667-341.667c0-111.041 51.25-209.271 132.396-269.063l-46.979-367.292c-4.271-17.084 4.271-34.166 17.084-42.709s29.896-8.541 46.979 0l192.188 115.313 192.188-115.313c4.271-4.271 12.813-4.271 21.354-4.271s17.084 4.271 21.354 8.541 21.354 25.625 17.084 42.709l-46.979 363.022c85.416 59.791 136.666 158.021 136.666 269.063zM256.25 494.974c0 140.938 115.313 256.25 256.25 256.25s256.25-115.313 256.25-256.25-115.313-256.25-256.25-256.25-256.25 115.313-256.25 256.25zM670.522-64.507l-136.666 81.146c-12.813 8.541-29.896 8.541-42.709 0l-136.666-81.146 29.896 243.438c38.438-17.084 81.146-25.625 128.125-25.625s89.688 8.541 128.125 25.625l29.896-243.438z" />
<glyph unicode="&#xe91b;" glyph-name="bar-chart" d="M512.5 452.265c-25.625 0-42.709-17.084-42.709-42.709v-427.084c0-25.625 17.084-42.709 42.709-42.709s42.709 17.084 42.709 42.709v427.084c0 25.625-17.084 42.709-42.709 42.709zM768.751 708.515c-25.625 0-42.709-17.084-42.709-42.709v-683.334c0-25.625 17.084-42.709 42.709-42.709s42.709 17.084 42.709 42.709v683.334c0 25.625-17.084 42.709-42.709 42.709zM256.25 196.015c-25.625 0-42.709-17.084-42.709-42.709v-170.834c0-25.625 17.084-42.709 42.709-42.709s42.709 17.084 42.709 42.709v170.834c0 25.625-17.084 42.709-42.709 42.709z" />
<glyph unicode="&#xe91c;" glyph-name="bar-chart-2" d="M768.751 452.265c-25.625 0-42.709-17.084-42.709-42.709v-427.084c0-25.625 17.084-42.709 42.709-42.709s42.709 17.084 42.709 42.709v427.084c0 25.625-17.084 42.709-42.709 42.709zM512.5 708.515c-25.625 0-42.709-17.084-42.709-42.709v-683.334c0-25.625 17.084-42.709 42.709-42.709s42.709 17.084 42.709 42.709v683.334c0 25.625-17.084 42.709-42.709 42.709zM256.25 281.431c-25.625 0-42.709-17.084-42.709-42.709v-256.25c0-25.625 17.084-42.709 42.709-42.709s42.709 17.084 42.709 42.709v256.25c0 25.625-17.084 42.709-42.709 42.709z" />
<glyph unicode="&#xe91d;" glyph-name="battery2" d="M726.042 623.099h-597.917c-72.604 0-128.125-55.521-128.125-128.125v-341.667c0-72.604 55.521-128.125 128.125-128.125h597.917c72.604 0 128.125 55.521 128.125 128.125v341.667c0 72.604-55.521 128.125-128.125 128.125zM768.751 153.306c0-25.625-17.084-42.709-42.709-42.709h-597.917c-25.625 0-42.709 17.084-42.709 42.709v341.667c0 25.625 17.084 42.709 42.709 42.709h597.917c25.625 0 42.709-17.084 42.709-42.709v-341.667zM982.292 409.556c-25.625 0-42.709-17.084-42.709-42.709v-85.416c0-25.625 17.084-42.709 42.709-42.709s42.709 17.084 42.709 42.709v85.416c0 25.625-17.084 42.709-42.709 42.709z" />
<glyph unicode="&#xe91e;" glyph-name="battery-charging" d="M213.542 110.598h-85.416c-25.625 0-42.709 17.084-42.709 42.709v341.667c0 25.625 17.084 42.709 42.709 42.709h136.666c25.625 0 42.709 17.084 42.709 42.709s-17.084 42.709-42.709 42.709h-136.666c-72.604 0-128.125-55.521-128.125-128.125v-341.667c0-72.604 55.521-128.125 128.125-128.125h85.416c25.625 0 42.709 17.084 42.709 42.709s-17.084 42.709-42.709 42.709zM726.042 623.099h-85.416c-25.625 0-42.709-17.084-42.709-42.709s17.084-42.709 42.709-42.709h85.416c25.625 0 42.709-17.084 42.709-42.709v-341.667c0-25.625-17.084-42.709-42.709-42.709h-136.666c-25.625 0-42.709-17.084-42.709-42.709s17.084-42.709 42.709-42.709h136.666c72.604 0 128.125 55.521 128.125 128.125v341.667c0 72.604-55.521 128.125-128.125 128.125zM982.292 409.556c-25.625 0-42.709-17.084-42.709-42.709v-85.416c0-25.625 17.084-42.709 42.709-42.709s42.709 17.084 42.709 42.709v85.416c0 25.625-17.084 42.709-42.709 42.709zM593.647 345.494c-8.541 12.813-21.354 21.354-38.438 21.354h-175.104l128.125 187.917c12.813 21.354 8.541 46.979-12.813 59.791s-46.979 8.541-59.791-12.813l-170.834-256.25c-8.541-12.813-8.541-29.896 0-42.709 4.271-12.813 17.084-21.354 34.166-21.354h175.104l-128.125-187.917c-12.813-21.354-8.541-46.979 12.813-59.791 8.541-4.271 17.084-8.541 25.625-8.541 12.813 0 25.625 8.541 34.166 17.084l170.834 256.25c8.541 17.084 12.813 29.896 4.271 46.979z" />
<glyph unicode="&#xe91f;" glyph-name="bell2" d="M606.459-21.798c-21.354 12.813-46.979 4.271-59.791-17.084s-38.438-25.625-59.791-17.084c-8.541 4.271-12.813 8.541-17.084 17.084-12.813 21.354-38.438 25.625-59.791 17.084-21.354-12.813-25.625-38.438-17.084-59.791 12.813-21.354 25.625-34.166 46.979-46.979s42.709-17.084 64.063-17.084c42.709 0 85.416 21.354 111.041 64.063 21.354 21.354 12.813 46.979-8.541 59.791zM939.585 153.306c-46.979 0-85.416 38.438-85.416 85.416v213.542c0 187.917-153.75 341.667-341.667 341.667s-341.667-153.75-341.667-341.667v-213.542c0-46.979-38.438-85.416-85.416-85.416-25.625 0-42.709-17.084-42.709-42.709s17.084-42.709 42.709-42.709h854.167c25.625 0 42.709 17.084 42.709 42.709s-17.084 42.709-42.709 42.709zM234.896 153.306c12.813 25.625 21.354 55.521 21.354 85.416v213.542c0 140.938 115.313 256.25 256.25 256.25s256.25-115.313 256.25-256.25v-213.542c0-29.896 8.541-59.791 21.354-85.416h-555.209z" />
<glyph unicode="&#xe920;" glyph-name="bell-off" d="M606.459-21.798c-21.354 12.813-46.979 4.271-59.791-17.084s-38.438-25.625-59.791-17.084c-8.541 4.271-12.813 8.541-17.084 17.084-12.813 21.354-38.438 25.625-59.791 17.084-21.354-12.813-25.625-38.438-17.084-59.791 12.813-21.354 25.625-34.166 46.979-46.979s42.709-17.084 64.063-17.084c42.709 0 85.416 21.354 111.041 64.063 21.354 21.354 12.813 46.979-8.541 59.791zM388.647 674.349c123.854 68.334 277.604 25.625 350.209-98.229 17.084-34.166 29.896-81.146 29.896-123.854v-170.834c0-25.625 17.084-42.709 42.709-42.709s42.709 17.084 42.709 42.709v170.834c0 59.791-17.084 115.313-42.709 166.563-93.959 162.291-303.229 222.084-465.522 128.125-21.354-8.541-29.896-34.166-17.084-55.521s38.438-25.625 59.791-17.084zM1012.188-115.757l-256.25 256.25c0 0 0 0 0 0l-683.334 683.334c-17.084 17.084-42.709 17.084-59.791 0s-17.084-42.709 0-59.791l183.646-183.646c-17.084-42.709-25.625-85.416-25.625-128.125v-213.542c0-46.979-38.438-85.416-85.416-85.416-25.625 0-42.709-17.084-42.709-42.709s17.084-42.709 42.709-42.709h623.542l243.438-243.438c8.541-8.541 21.354-12.813 29.896-12.813s21.354 4.271 29.896 12.813c17.084 17.084 17.084 42.709 0 59.791zM234.896 153.306c12.813 25.625 21.354 55.521 21.354 85.416v213.542c0 21.354 4.271 42.709 8.541 59.791l358.75-358.75h-388.647z" />
<glyph unicode="&#xe921;" glyph-name="bluetooth1" d="M572.292 324.14l205 205c17.084 17.084 17.084 42.709 0 59.791l-234.896 234.896c-12.813 12.813-29.896 17.084-46.979 8.541-17.084-4.271-25.625-21.354-25.625-38.438v-367.292l-162.291 162.291c-17.084 17.084-42.709 17.084-59.791 0s-17.084-42.709 0-59.791l205-205-205-205c-17.084-17.084-17.084-42.709 0-59.791s42.709-17.084 59.791 0l162.291 162.291v-367.292c0-17.084 8.541-34.166 25.625-38.438 4.271-4.271 12.813-4.271 17.084-4.271 12.813 0 21.354 4.271 29.896 12.813l234.896 234.896c17.084 17.084 17.084 42.709 0 59.791l-205 205zM555.209 691.431l132.396-132.396-132.396-132.396v264.792zM555.209-43.152v264.792l132.396-132.396-132.396-132.396z" />
<glyph unicode="&#xe922;" glyph-name="book2" d="M854.167 793.932h-576.563c-81.146 0-149.479-68.334-149.479-149.479v-640.626c0-81.146 68.334-149.479 149.479-149.479h576.563c25.625 0 42.709 17.084 42.709 42.709v854.167c0 25.625-17.084 42.709-42.709 42.709zM277.604 708.515h533.854v-555.209h-533.854c-21.354 0-42.709-4.271-64.063-17.084v508.229c0 34.166 29.896 64.063 64.063 64.063zM277.604-60.236c-34.166 0-64.063 29.896-64.063 64.063s29.896 64.063 64.063 64.063h533.854v-128.125h-533.854z" />
<glyph unicode="&#xe923;" glyph-name="book-open" d="M939.585 751.224h-256.25c-68.334 0-132.396-34.166-170.834-85.416-38.438 51.25-102.5 85.416-170.834 85.416h-256.25c-25.625 0-42.709-17.084-42.709-42.709v-640.626c0-25.625 17.084-42.709 42.709-42.709h298.959c46.979 0 85.416-38.438 85.416-85.416 0-25.625 17.084-42.709 42.709-42.709s42.709 17.084 42.709 42.709c0 46.979 38.438 85.416 85.416 85.416h298.959c25.625 0 42.709 17.084 42.709 42.709v640.626c0 25.625-17.084 42.709-42.709 42.709zM469.792 89.243c-25.625 12.813-55.521 21.354-85.416 21.354h-256.25v555.209h213.542c72.604 0 128.125-55.521 128.125-128.125v-448.438zM896.876 110.598h-256.25c-29.896 0-59.791-8.541-85.416-21.354v448.438c0 72.604 55.521 128.125 128.125 128.125h213.542v-555.209z" />
<glyph unicode="&#xe924;" glyph-name="bookmark2" d="M726.042 751.224h-427.084c-72.604 0-128.125-55.521-128.125-128.125v-683.334c0-17.084 8.541-29.896 21.354-38.438s29.896-4.271 42.709 4.271l273.334 196.459 273.334-196.459c8.541-4.271 17.084-8.541 25.625-8.541s12.813 0 21.354 4.271c12.813 8.541 21.354 21.354 21.354 38.438v683.334c4.271 72.604-51.25 128.125-123.854 128.125zM768.751 20.911l-230.625 166.563c-8.541 4.271-17.084 8.541-25.625 8.541s-17.084-4.271-25.625-8.541l-230.625-166.563v602.188c0 25.625 17.084 42.709 42.709 42.709h427.084c25.625 0 42.709-17.084 42.709-42.709v-602.188z" />
<glyph unicode="&#xe925;" glyph-name="box2" d="M909.688 640.181l-341.667 170.834c0 0 0 0 0 0-34.166 17.084-76.875 17.084-115.313 0l-341.667-170.834c-42.709-21.354-68.334-64.063-68.334-111.041v-405.729c0-46.979 25.625-93.959 72.604-115.313l341.667-170.834c17.084-8.541 38.438-12.813 55.521-12.813 21.354 0 38.438 4.271 55.521 12.813l341.667 170.834c42.709 21.354 72.604 64.063 72.604 115.313v405.729c0 46.979-25.625 89.688-72.604 111.041zM495.417 738.411c4.271 4.271 12.813 4.271 17.084 4.271 8.541 0 12.813 0 17.084-4.271l316.042-158.021-333.125-166.563-333.125 166.563 316.042 158.021zM149.479 80.702c-12.813 8.541-21.354 25.625-21.354 38.438v392.917l341.667-170.834v-418.542l-320.313 158.021zM871.251 80.702l-316.042-158.021v418.542l341.667 170.834v-392.917c0-17.084-8.541-29.896-25.625-38.438z" />
<glyph unicode="&#xe926;" glyph-name="briefcase2" d="M854.167 580.39h-128.125v42.709c0 72.604-55.521 128.125-128.125 128.125h-170.834c-72.604 0-128.125-55.521-128.125-128.125v-42.709h-128.125c-72.604 0-128.125-55.521-128.125-128.125v-427.084c0-72.604 55.521-128.125 128.125-128.125h683.334c72.604 0 128.125 55.521 128.125 128.125v427.084c0 72.604-55.521 128.125-128.125 128.125zM384.375 623.099c0 25.625 17.084 42.709 42.709 42.709h170.834c25.625 0 42.709-17.084 42.709-42.709v-42.709h-256.25v42.709zM640.626 494.974v-512.5h-256.25v512.5h256.25zM128.125 25.181v427.084c0 25.625 17.084 42.709 42.709 42.709h128.125v-512.5h-128.125c-25.625 0-42.709 17.084-42.709 42.709zM896.876 25.181c0-25.625-17.084-42.709-42.709-42.709h-128.125v512.5h128.125c25.625 0 42.709-17.084 42.709-42.709v-427.084z" />
<glyph unicode="&#xe927;" glyph-name="calendar2" d="M811.459 708.515h-85.416v42.709c0 25.625-17.084 42.709-42.709 42.709s-42.709-17.084-42.709-42.709v-42.709h-256.25v42.709c0 25.625-17.084 42.709-42.709 42.709s-42.709-17.084-42.709-42.709v-42.709h-85.416c-72.604 0-128.125-55.521-128.125-128.125v-597.917c0-72.604 55.521-128.125 128.125-128.125h597.917c72.604 0 128.125 55.521 128.125 128.125v597.917c0 72.604-55.521 128.125-128.125 128.125zM213.542 623.099h85.416v-42.709c0-25.625 17.084-42.709 42.709-42.709s42.709 17.084 42.709 42.709v42.709h256.25v-42.709c0-25.625 17.084-42.709 42.709-42.709s42.709 17.084 42.709 42.709v42.709h85.416c25.625 0 42.709-17.084 42.709-42.709v-128.125h-683.334v128.125c0 25.625 17.084 42.709 42.709 42.709zM811.459-60.236h-597.917c-25.625 0-42.709 17.084-42.709 42.709v384.375h683.334v-384.375c0-25.625-17.084-42.709-42.709-42.709z" />
<glyph unicode="&#xe928;" glyph-name="camera2" d="M896.876 623.099h-149.479l-72.604 111.041c-8.541 8.541-21.354 17.084-34.166 17.084h-256.25c-12.813 0-25.625-8.541-34.166-17.084l-72.604-111.041h-149.479c-72.604 0-128.125-55.521-128.125-128.125v-469.792c0-72.604 55.521-128.125 128.125-128.125h768.751c72.604 0 128.125 55.521 128.125 128.125v469.792c0 72.604-55.521 128.125-128.125 128.125zM939.585 25.181c0-25.625-17.084-42.709-42.709-42.709h-768.751c-25.625 0-42.709 17.084-42.709 42.709v469.792c0 25.625 17.084 42.709 42.709 42.709h170.834c12.813 0 25.625 8.541 34.166 17.084l72.604 111.041h209.271l72.604-111.041c12.813-8.541 25.625-17.084 38.438-17.084h170.834c25.625 0 42.709-17.084 42.709-42.709v-469.792zM512.5 494.974c-119.584 0-213.542-93.959-213.542-213.542s93.959-213.542 213.542-213.542 213.542 93.959 213.542 213.542-93.959 213.542-213.542 213.542zM512.5 153.306c-72.604 0-128.125 55.521-128.125 128.125s55.521 128.125 128.125 128.125 128.125-55.521 128.125-128.125-55.521-128.125-128.125-128.125z" />
<glyph unicode="&#xe929;" glyph-name="camera-off" d="M926.772-30.339c0 0 0 0 0 0l-640.626 640.626c0 0 0 0 0 0l-213.542 213.542c-17.084 17.084-42.709 17.084-59.791 0s-17.084-42.709 0-59.791l140.938-140.938h-25.625c-72.604 0-128.125-55.521-128.125-128.125v-469.792c0-72.604 55.521-128.125 128.125-128.125h751.667l72.604-72.604c8.541-8.541 21.354-12.813 29.896-12.813s21.354 4.271 29.896 12.813c17.084 17.084 17.084 42.709 0 59.791l-85.416 85.416zM405.729 354.036c4.271 4.271 4.271 4.271 8.541 8.541l179.375-179.375c-17.084-12.813-38.438-25.625-59.791-29.896-34.166-4.271-68.334 0-93.959 21.354-29.896 21.354-46.979 46.979-55.521 81.146-4.271 34.166 4.271 68.334 21.354 98.229zM128.125-17.527c-25.625 0-42.709 17.084-42.709 42.709v469.792c0 25.625 17.084 42.709 42.709 42.709h111.041l115.313-115.313c-8.541-8.541-12.813-12.813-17.084-21.354-34.166-46.979-42.709-102.5-34.166-158.021s42.709-106.771 89.688-136.666c34.166-25.625 76.875-38.438 119.584-38.438 12.813 0 25.625 0 38.438 4.271 38.438 8.541 72.604 25.625 102.5 51.25l140.938-140.938h-666.251zM896.876 623.099h-149.479l-72.604 111.041c-8.541 8.541-21.354 17.084-34.166 17.084h-256.25c-25.625 0-42.709-17.084-42.709-42.709s17.084-42.709 42.709-42.709h234.896l72.604-111.041c8.541-8.541 21.354-17.084 34.166-17.084h170.834c25.625 0 42.709-17.084 42.709-42.709v-397.188c0-25.625 17.084-42.709 42.709-42.709s42.709 17.084 42.709 42.709v397.188c0 72.604-55.521 128.125-128.125 128.125z" />
<glyph unicode="&#xe92a;" glyph-name="cast" d="M93.959 191.743c-21.354 4.271-46.979-12.813-51.25-34.166s8.541-46.979 34.166-51.25c68.334-12.813 119.584-64.063 132.396-132.396 4.271-21.354 21.354-34.166 42.709-34.166 4.271 0 4.271 0 8.541 0 21.354 4.271 38.438 25.625 34.166 51.25-21.354 102.5-98.229 179.375-200.729 200.729zM854.167 708.515h-683.334c-72.604 0-128.125-55.521-128.125-128.125v-85.416c0-25.625 17.084-42.709 42.709-42.709s42.709 17.084 42.709 42.709v85.416c0 25.625 17.084 42.709 42.709 42.709h683.334c25.625 0 42.709-17.084 42.709-42.709v-512.5c0-25.625-17.084-42.709-42.709-42.709h-256.25c-25.625 0-42.709-17.084-42.709-42.709s17.084-42.709 42.709-42.709h256.25c72.604 0 128.125 55.521 128.125 128.125v512.5c0 72.604-55.521 128.125-128.125 128.125zM89.688 362.577c-21.354 4.271-42.709-12.813-46.979-38.438-4.271-21.354 12.813-42.709 38.438-46.979 158.021-17.084 281.875-140.938 303.229-303.229 0-17.084 17.084-34.166 38.438-34.166 0 0 4.271 0 4.271 0 21.354 4.271 38.438 25.625 38.438 46.979-21.354 200.729-175.104 354.479-375.834 375.834zM55.521 12.368c-8.541-8.541-12.813-17.084-12.813-29.896s4.271-21.354 12.813-29.896c8.541-8.541 17.084-12.813 29.896-12.813s21.354 4.271 29.896 12.813c8.541 8.541 12.813 17.084 12.813 29.896s-4.271 21.354-12.813 29.896c-17.084 17.084-42.709 17.084-59.791 0z" />
<glyph unicode="&#xe92b;" glyph-name="check2" d="M884.063 610.286c-17.084 17.084-42.709 17.084-59.791 0l-439.897-439.897-183.646 183.646c-17.084 17.084-42.709 17.084-59.791 0s-17.084-42.709 0-59.791l213.542-213.542c8.541-8.541 17.084-12.813 29.896-12.813s21.354 4.271 29.896 12.813l469.792 469.792c17.084 17.084 17.084 42.709 0 59.791z" />
<glyph unicode="&#xe92c;" glyph-name="check-circle" d="M939.585 405.286c-25.625 0-42.709-17.084-42.709-42.709v-38.438c0-213.542-170.834-384.375-384.375-384.375 0 0 0 0 0 0-213.542 0-384.375 170.834-384.375 384.375s170.834 384.375 384.375 384.375c0 0 0 0 0 0 55.521 0 106.771-12.813 158.021-34.166 21.354-8.541 46.979 0 55.521 21.354s0 46.979-21.354 55.521c-59.791 25.625-123.854 42.709-192.188 42.709 0 0 0 0 0 0-260.521 0-469.792-209.271-469.792-469.792s209.271-469.792 469.792-469.792c0 0 0 0 0 0 260.521 0 469.792 209.271 469.792 469.792v38.438c0 25.625-17.084 42.709-42.709 42.709zM414.272 396.744c-17.084 17.084-42.709 17.084-59.791 0s-17.084-42.709 0-59.791l128.125-128.125c8.541-8.541 17.084-12.813 29.896-12.813s21.354 4.271 29.896 12.813l427.084 427.084c17.084 17.084 17.084 42.709 0 59.791s-42.709 17.084-59.791 0l-397.188-397.188-98.229 98.229z" />
<glyph unicode="&#xe92d;" glyph-name="check-square" d="M969.48 695.703c-17.084 17.084-42.709 17.084-59.791 0l-397.188-397.188-98.229 98.229c-17.084 17.084-42.709 17.084-59.791 0s-17.084-42.709 0-59.791l128.125-128.125c8.541-8.541 21.354-12.813 29.896-12.813s21.354 4.271 29.896 12.813l427.084 427.084c17.084 17.084 17.084 42.709 0 59.791zM896.876 366.849c-25.625 0-42.709-17.084-42.709-42.709v-298.959c0-25.625-17.084-42.709-42.709-42.709h-597.917c-25.625 0-42.709 17.084-42.709 42.709v597.917c0 25.625 17.084 42.709 42.709 42.709h469.792c25.625 0 42.709 17.084 42.709 42.709s-17.084 42.709-42.709 42.709h-469.792c-72.604 0-128.125-55.521-128.125-128.125v-597.917c0-72.604 55.521-128.125 128.125-128.125h597.917c72.604 0 128.125 55.521 128.125 128.125v298.959c0 25.625-17.084 42.709-42.709 42.709z" />
<glyph unicode="&#xe92e;" glyph-name="chevron-down2" d="M798.647 482.161c-17.084 17.084-42.709 17.084-59.791 0l-226.354-226.354-226.354 226.354c-17.084 17.084-42.709 17.084-59.791 0s-17.084-42.709 0-59.791l256.25-256.25c8.541-8.541 21.354-12.813 29.896-12.813s21.354 4.271 29.896 12.813l256.25 256.25c17.084 17.084 17.084 42.709 0 59.791z" />
<glyph unicode="&#xe92f;" glyph-name="chevron-left2" d="M444.167 324.14l226.354 226.354c17.084 17.084 17.084 42.709 0 59.791s-42.709 17.084-59.791 0l-256.25-256.25c-17.084-17.084-17.084-42.709 0-59.791l256.25-256.25c8.541-8.541 21.354-12.813 29.896-12.813s21.354 4.271 29.896 12.813c17.084 17.084 17.084 42.709 0 59.791l-226.354 226.354z" />
<glyph unicode="&#xe930;" glyph-name="chevron-right2" d="M670.522 354.036l-256.25 256.25c-17.084 17.084-42.709 17.084-59.791 0s-17.084-42.709 0-59.791l226.354-226.354-226.354-226.354c-17.084-17.084-17.084-42.709 0-59.791 8.541-8.541 17.084-12.813 29.896-12.813s21.354 4.271 29.896 12.813l256.25 256.25c17.084 17.084 17.084 42.709 0 59.791z" />
<glyph unicode="&#xe931;" glyph-name="chevron-up2" d="M798.647 225.911l-256.25 256.25c-17.084 17.084-42.709 17.084-59.791 0l-256.25-256.25c-17.084-17.084-17.084-42.709 0-59.791s42.709-17.084 59.791 0l226.354 226.354 226.354-226.354c8.541-8.541 21.354-12.813 29.896-12.813s21.354 4.271 29.896 12.813c17.084 17.084 17.084 42.709 0 59.791z" />
<glyph unicode="&#xe932;" glyph-name="chevrons-down" d="M696.147 311.327l-183.646-183.646-183.646 183.646c-17.084 17.084-42.709 17.084-59.791 0s-17.084-42.709 0-59.791l213.542-213.542c8.541-8.541 21.354-12.813 29.896-12.813s21.354 4.271 29.896 12.813l213.542 213.542c17.084 17.084 17.084 42.709 0 59.791s-42.709 17.084-59.791 0zM482.604 336.952c8.541-8.541 21.354-12.813 29.896-12.813s21.354 4.271 29.896 12.813l213.542 213.542c17.084 17.084 17.084 42.709 0 59.791s-42.709 17.084-59.791 0l-183.646-183.646-183.646 183.646c-17.084 17.084-42.709 17.084-59.791 0s-17.084-42.709 0-59.791l213.542-213.542z" />
<glyph unicode="&#xe933;" glyph-name="chevrons-left" d="M316.042 324.14l183.646 183.646c17.084 17.084 17.084 42.709 0 59.791s-42.709 17.084-59.791 0l-213.542-213.542c-17.084-17.084-17.084-42.709 0-59.791l213.542-213.542c8.541-8.541 21.354-12.813 29.896-12.813s21.354 4.271 29.896 12.813c17.084 17.084 17.084 42.709 0 59.791l-183.646 183.646zM615.001 324.14l183.646 183.646c17.084 17.084 17.084 42.709 0 59.791s-42.709 17.084-59.791 0l-213.542-213.542c-17.084-17.084-17.084-42.709 0-59.791l213.542-213.542c8.541-8.541 21.354-12.813 29.896-12.813s21.354 4.271 29.896 12.813c17.084 17.084 17.084 42.709 0 59.791l-183.646 183.646z" />
<glyph unicode="&#xe934;" glyph-name="chevrons-right" d="M798.647 354.036l-213.542 213.542c-17.084 17.084-42.709 17.084-59.791 0s-17.084-42.709 0-59.791l183.646-183.646-183.646-183.646c-17.084-17.084-17.084-42.709 0-59.791 8.541-8.541 21.354-12.813 29.896-12.813s21.354 4.271 29.896 12.813l213.542 213.542c17.084 17.084 17.084 42.709 0 59.791zM499.688 354.036l-213.542 213.542c-17.084 17.084-42.709 17.084-59.791 0s-17.084-42.709 0-59.791l183.646-183.646-183.646-183.646c-17.084-17.084-17.084-42.709 0-59.791 8.541-8.541 17.084-12.813 29.896-12.813s21.354 4.271 29.896 12.813l213.542 213.542c17.084 17.084 17.084 42.709 0 59.791z" />
</font>
</defs>
</svg>
