<svg style="position: absolute; width: 0; height: 0; overflow: hidden;" version="1.1" xmlns="http://www.w3.org/2000/svg" xmlns:xlink="http://www.w3.org/1999/xlink">
<defs>
<symbol id="special_heading" viewBox="0 0 32 32">
<title>special_heading</title>
<path class="path1" d="M19.489 21.742c-0.112 0-0.225-0.026-0.327-0.081l-3.367-1.77-3.367 1.77c-0.237 0.124-0.524 0.104-0.741-0.054s-0.326-0.424-0.28-0.689l0.644-3.749-2.724-2.655c-0.192-0.187-0.261-0.467-0.178-0.722s0.304-0.441 0.568-0.479l3.764-0.547 1.683-3.412c0.118-0.24 0.363-0.392 0.631-0.392s0.513 0.152 0.631 0.392l1.683 3.412 3.764 0.547c0.265 0.038 0.485 0.224 0.569 0.479s0.014 0.535-0.178 0.722l-2.724 2.655 0.644 3.749c0.045 0.264-0.064 0.531-0.281 0.689-0.123 0.089-0.268 0.134-0.415 0.134zM15.795 18.392c0.113 0 0.225 0.027 0.327 0.081l2.432 1.279-0.465-2.707c-0.039-0.229 0.037-0.462 0.202-0.623l1.967-1.918-2.719-0.395c-0.229-0.033-0.427-0.177-0.529-0.385l-1.216-2.464-1.216 2.464c-0.102 0.208-0.3 0.352-0.53 0.385l-2.719 0.395 1.967 1.918c0.166 0.161 0.242 0.394 0.203 0.623l-0.465 2.707 2.432-1.279c0.103-0.054 0.215-0.081 0.328-0.081z"></path>
<path class="path2" d="M9.21 12.707h-8.443c-0.389 0-0.704-0.315-0.704-0.704s0.315-0.704 0.704-0.704h8.444c0.389 0 0.704 0.315 0.704 0.704s-0.315 0.704-0.704 0.704z"></path>
<path class="path3" d="M7.571 15.37h-3.91c-0.389 0-0.704-0.315-0.704-0.704s0.315-0.704 0.704-0.704h3.91c0.389 0 0.704 0.315 0.704 0.704s-0.315 0.704-0.704 0.704z"></path>
<path class="path4" d="M9.1 17.774h-2.214c-0.389 0-0.704-0.315-0.704-0.704s0.315-0.704 0.704-0.704h2.214c0.389 0 0.704 0.315 0.704 0.704s-0.315 0.704-0.704 0.704z"></path>
<path class="path5" d="M31.065 12.707h-8.444c-0.389 0-0.704-0.315-0.704-0.704s0.315-0.704 0.704-0.704h8.444c0.389 0 0.704 0.315 0.704 0.704s-0.315 0.704-0.704 0.704z"></path>
<path class="path6" d="M28.17 15.37h-3.91c-0.389 0-0.704-0.315-0.704-0.704s0.315-0.704 0.704-0.704h3.91c0.389 0 0.704 0.315 0.704 0.704s-0.315 0.704-0.704 0.704z"></path>
<path class="path7" d="M24.945 17.774h-2.214c-0.389 0-0.704-0.315-0.704-0.704s0.315-0.704 0.704-0.704h2.214c0.389 0 0.704 0.315 0.704 0.704s-0.315 0.704-0.704 0.704z"></path>
</symbol>
<symbol id="special_heading2" viewBox="0 0 32 32">
<title>special_heading2</title>
<path class="path1" d="M3.2 10.24h18.88v1.28h-18.88c-0.176 0.002-0.318 0.144-0.32 0.32v8.32c0.002 0.176 0.144 0.318 0.32 0.32h18.88v1.28h-18.88c-0.883-0.001-1.599-0.717-1.6-1.6v-8.32c0.001-0.883 0.717-1.599 1.6-1.6zM28.8 10.24h-4.16v1.28h4.16c0.176 0.002 0.318 0.144 0.32 0.32v8.32c-0.002 0.176-0.144 0.318-0.32 0.32h-4.16v1.28h4.16c0.883-0.001 1.599-0.717 1.6-1.6v-8.32c-0.001-0.883-0.717-1.599-1.6-1.6zM27.2 8v-1.28h-7.68v1.28h3.2v16.64h1.28v-16.64h3.2z"></path>
<path class="path2" d="M19.52 24h7.68v1.28h-7.68v-1.28z"></path>
</symbol>
<symbol id="special_heading3" viewBox="0 0 32 32">
<title>special_heading3</title>
<path class="path1" d="M3.2 6.4h25.6v3.2h-25.6v-3.2z"></path>
<path class="path2" d="M3.2 22.4h25.6v3.2h-25.6v-3.2z"></path>
<path class="path3" d="M11.733 11.733h8.533v8.533h-8.533v-8.533z"></path>
</symbol>
<symbol id="special_heading4" viewBox="0 0 32 32">
<title>special_heading4</title>
<path class="path1" d="M30.976 19.332h-29.952c-0.566 0-1.024 0.459-1.024 1.024s0.459 1.024 1.024 1.024h29.952c0.565 0 1.024-0.459 1.024-1.024s-0.459-1.024-1.024-1.024zM25.53 22.263h-19.060c-0.451 0-0.817 0.366-0.817 0.817s0.366 0.817 0.817 0.817h19.060c0.451 0 0.817-0.366 0.817-0.817s-0.366-0.817-0.817-0.817zM30.976 8.103h-29.952v8.169h29.952v-8.169zM28.975 14.271h-25.95v-4.167h25.95v4.167z"></path>
</symbol>
<symbol id="special_heading5" viewBox="0 0 32 32">
<title>special_heading5</title>
<path class="path1" d="M26.182 29.091h2.909v-2.909h-8.727v2.909h2.909v-1.455h2.909v1.455zM23.273 4.364h-2.909v2.909h8.727v-2.909h-2.909v1.455h-2.909v-1.455zM14.545 10.182h-11.636v5.818h2.909v-2.909h2.909v8.727h-2.909v2.909h8.727v-2.909h-2.909v-8.727h2.909v2.909h2.909v-5.818h-2.909zM23.273 7.273h2.909v18.909h-2.909v-18.909z"></path>
</symbol>
<symbol id="accordion" viewBox="0 0 32 32">
<title>accordion</title>
<path class="path1" d="M1.712 11.238h28.575c0.875 0 1.587-0.713 1.587-1.588s-0.712-1.588-1.587-1.588h-28.575c-0.875 0-1.587 0.713-1.587 1.588s0.713 1.588 1.587 1.588z"></path>
<path class="path2" d="M30.288 14.412h-28.575c-0.875 0-1.587 0.713-1.587 1.588s0.713 1.587 1.587 1.587h28.575c0.875 0 1.587-0.712 1.587-1.588s-0.712-1.588-1.587-1.588z"></path>
<path class="path3" d="M30.288 20.762h-28.575c-0.875 0-1.587 0.712-1.587 1.587s0.713 1.587 1.587 1.587h28.575c0.875 0 1.587-0.712 1.587-1.587s-0.712-1.587-1.587-1.587z"></path>
<path class="path4" d="M11.875 4.888h8.25c0.569 0 0.85-0.681 0.45-1.081l-4.125-3.494c-0.25-0.25-0.65-0.25-0.9 0l-4.125 3.494c-0.4 0.4-0.119 1.081 0.45 1.081z"></path>
<path class="path5" d="M20.125 27.113h-8.25c-0.569 0-0.85 0.681-0.45 1.081l4.125 3.494c0.25 0.25 0.65 0.25 0.9 0l4.125-3.494c0.4-0.4 0.119-1.081-0.45-1.081z"></path>
</symbol>
<symbol id="animated_module" viewBox="0 0 32 32">
<title>animated_module</title>
<path class="path1" d="M6.651 0.010h-6.651v32h6.651v-32zM5.651 31.010h-4.651v-30h4.651v30z"></path>
<path class="path2" d="M12.675 32.010h6.651v-32h-6.651v32zM13.675 1.010h4.651v30h-4.651v-30z"></path>
<path class="path3" d="M32 32.010v-32h-6.651v32h6.651zM26.349 1.010h4.651v30h-4.651v-30z"></path>
</symbol>
<symbol id="be_slider" viewBox="0 0 32 32">
<title>be_slider</title>
<path class="path1" d="M2.667 3.994v16.012c0 0.728 0.596 1.328 1.332 1.328h24.004c0.737 0 1.332-0.594 1.332-1.328v-16.012c0-0.728-0.596-1.327-1.332-1.327h-24.004c-0.737 0-1.332 0.594-1.332 1.327zM5.333 5.333h21.333v13.333h-21.333v-13.333zM16 29.333c1.473 0 2.667-1.194 2.667-2.667s-1.194-2.667-2.667-2.667c-1.473 0-2.667 1.194-2.667 2.667s1.194 2.667 2.667 2.667zM23.333 28.667c1.105 0 2-0.895 2-2s-0.895-2-2-2c-1.105 0-2 0.895-2 2s0.895 2 2 2zM8.667 28.667c1.105 0 2-0.895 2-2s-0.895-2-2-2c-1.105 0-2 0.895-2 2s0.895 2 2 2z"></path>
</symbol>
<symbol id="blog" viewBox="0 0 32 32">
<title>blog</title>
<path class="path1" d="M6.023 20.004c3.308 0 6 2.692 6 6.004h4.002c0-5.516-4.488-10.008-10.002-10.008v4.004z"></path>
<path class="path2" d="M8.002 28c0 2.211-1.791 4-4.002 4-2.209 0-4-1.789-4-4s1.791-4 4-4c2.211 0 4.002 1.789 4.002 4z"></path>
<path class="path3" d="M5.996 12c7.719 0 14.002 6.285 14.002 14.008h4.002c0-9.93-8.076-18.008-18.004-18.008v4z"></path>
<path class="path4" d="M5.996 4c12.132 0 22.004 9.871 22.004 22.008h4c0-14.344-11.664-26.008-26.004-26.008v4z"></path>
</symbol>
<symbol id="content_slider" viewBox="0 0 32 32">
<title>content_slider</title>
<path class="path1" d="M3.357 10.72v13.562c0.002 1.148 0.932 2.078 2.080 2.080h21.763c1.148-0.002 2.078-0.932 2.080-2.080v-13.562c-0.002-1.148-0.932-2.078-2.080-2.080h-21.76c0 0 0 0 0 0-1.149 0-2.081 0.931-2.083 2.080zM28.317 10.72v13.562c0 0.619-0.501 1.12-1.12 1.12h-21.757c-0.619 0-1.12-0.501-1.12-1.12v-13.562c0-0.619 0.501-1.12 1.12-1.12h21.76c0.617 0.002 1.117 0.503 1.117 1.12 0 0 0 0 0 0z"></path>
<path class="path2" d="M6.762 11.36c0 0.265-0.215 0.48-0.48 0.48s-0.48-0.215-0.48-0.48c0-0.265 0.215-0.48 0.48-0.48s0.48 0.215 0.48 0.48z"></path>
<path class="path3" d="M9.002 11.36c0 0.265-0.215 0.48-0.48 0.48s-0.48-0.215-0.48-0.48c0-0.265 0.215-0.48 0.48-0.48s0.48 0.215 0.48 0.48z"></path>
<path class="path4" d="M11.242 11.36c0 0.265-0.215 0.48-0.48 0.48s-0.48-0.215-0.48-0.48c0-0.265 0.215-0.48 0.48-0.48s0.48 0.215 0.48 0.48z"></path>
<path class="path5" d="M6.282 13.811h20.115c0.265 0 0.48-0.215 0.48-0.48s-0.215-0.48-0.48-0.48h-20.115c-0.265 0-0.48 0.215-0.48 0.48s0.215 0.48 0.48 0.48z"></path>
<path class="path6" d="M8.205 21.693c0.085 0.080 0.201 0.129 0.327 0.129 0.265 0 0.48-0.215 0.48-0.48 0-0.127-0.049-0.242-0.129-0.328l-1.92-1.92 1.92-1.92c0.080-0.085 0.129-0.201 0.129-0.327 0-0.265-0.215-0.48-0.48-0.48-0.127 0-0.242 0.049-0.328 0.129l-2.262 2.256c-0.087 0.087-0.14 0.207-0.14 0.339s0.054 0.252 0.14 0.339z"></path>
<path class="path7" d="M24.474 16.486c-0.085-0.080-0.201-0.129-0.327-0.129-0.265 0-0.48 0.215-0.48 0.48 0 0.127 0.049 0.242 0.129 0.328l1.92 1.92-1.92 1.92c-0.094 0.088-0.153 0.213-0.153 0.351 0 0.265 0.215 0.48 0.48 0.48 0.139 0 0.263-0.059 0.351-0.152l2.263-2.263c0.087-0.087 0.14-0.207 0.14-0.339s-0.054-0.252-0.14-0.339z"></path>
</symbol>
<symbol id="countdown" viewBox="0 0 32 32">
<title>countdown</title>
<path class="path1" d="M27.462 6.688h-22.925c-2.431 0-4.412 1.981-4.412 4.412v9.8c0 2.431 1.981 4.413 4.412 4.413h22.931c2.431 0 4.412-1.975 4.412-4.413v-9.8c-0.006-2.431-1.988-4.412-4.419-4.412zM30.113 20.9c0 1.456-1.188 2.644-2.644 2.644h-22.931c-1.456 0-2.644-1.188-2.644-2.644v-9.8c0-1.456 1.188-2.644 2.644-2.644h22.931c1.456 0 2.644 1.188 2.644 2.644v9.8z"></path>
<path class="path2" d="M6.175 11.431c-1.456 0-2.644 1.188-2.644 2.644v3.85c0 1.456 1.188 2.644 2.644 2.644s2.644-1.188 2.644-2.644v-3.85c0-1.456-1.188-2.644-2.644-2.644zM7.056 17.925c0 0.488-0.394 0.881-0.881 0.881s-0.881-0.394-0.881-0.881v-3.85c0-0.488 0.394-0.881 0.881-0.881s0.881 0.394 0.881 0.881v3.85z"></path>
<path class="path3" d="M12.787 11.431c-1.456 0-2.644 1.188-2.644 2.644v3.85c0 1.456 1.188 2.644 2.644 2.644s2.644-1.188 2.644-2.644v-3.85c0-1.456-1.188-2.644-2.644-2.644zM13.669 17.925c0 0.488-0.394 0.881-0.881 0.881s-0.881-0.394-0.881-0.881v-3.85c0-0.488 0.394-0.881 0.881-0.881s0.881 0.394 0.881 0.881v3.85z"></path>
<path class="path4" d="M22.144 11.431c-1.456 0-2.644 1.188-2.644 2.644v3.85c0 1.456 1.188 2.644 2.644 2.644s2.644-1.188 2.644-2.644v-3.85c0-1.456-1.188-2.644-2.644-2.644zM23.025 17.925c0 0.488-0.394 0.881-0.881 0.881s-0.881-0.394-0.881-0.881v-3.85c0-0.488 0.394-0.881 0.881-0.881s0.881 0.394 0.881 0.881v3.85z"></path>
<path class="path5" d="M18.344 13.681c0 0.487-0.395 0.881-0.881 0.881s-0.881-0.395-0.881-0.881c0-0.487 0.395-0.881 0.881-0.881s0.881 0.395 0.881 0.881z"></path>
<path class="path6" d="M18.344 18.319c0 0.487-0.395 0.881-0.881 0.881s-0.881-0.395-0.881-0.881c0-0.487 0.395-0.881 0.881-0.881s0.881 0.395 0.881 0.881z"></path>
<path class="path7" d="M27.594 11.919c-0.488 0-0.881 0.394-0.881 0.881v6.4c0 0.488 0.394 0.881 0.881 0.881s0.881-0.394 0.881-0.881v-6.4c0-0.488-0.394-0.881-0.881-0.881z"></path>
</symbol>
<symbol id="icon_card" viewBox="0 0 32 32">
<title>icon_card</title>
<path class="path1" d="M10 12h-5.333c-0.368 0-0.667 0.3-0.667 0.667v6.667c0 0.367 0.299 0.667 0.667 0.667h5.333c0.368 0 0.667-0.3 0.667-0.667v-6.667c0-0.367-0.299-0.667-0.667-0.667z"></path>
<path class="path2" d="M31.333 6.667h-30.667c-0.368 0-0.667 0.299-0.667 0.667v17.333c0 0.368 0.299 0.667 0.667 0.667h30.667c0.367 0 0.667-0.299 0.667-0.667v-17.333c0-0.368-0.3-0.667-0.667-0.667zM12 19.333c0 1.103-0.897 2-2 2h-5.333c-1.103 0-2-0.897-2-2v-6.667c0-1.103 0.897-2 2-2h5.333c1.103 0 2 0.897 2 2v6.667zM26.667 18.667h-12c-0.368 0-0.667-0.299-0.667-0.667 0-0.367 0.299-0.667 0.667-0.667h12c0.367 0 0.667 0.3 0.667 0.667 0 0.368-0.3 0.667-0.667 0.667zM26.667 14.667h-12c-0.368 0-0.667-0.299-0.667-0.667 0-0.367 0.299-0.667 0.667-0.667h12c0.367 0 0.667 0.3 0.667 0.667 0 0.368-0.3 0.667-0.667 0.667z"></path>
</symbol>
<symbol id="justified_gallery" viewBox="0 0 32 32">
<title>justified_gallery</title>
<path class="path1" d="M5.28 10.879h16v4.64h-16v-4.64z"></path>
<path class="path2" d="M5.28 16.479h4.8v4.64h-4.8v-4.64z"></path>
<path class="path3" d="M11.040 5.28h15.68v4.639h-15.68v-4.639z"></path>
<path class="path4" d="M11.040 16.479h15.68v4.64h-15.68v-4.64z"></path>
<path class="path5" d="M5.28 22.079h16v4.641h-16v-4.641z"></path>
<path class="path6" d="M22.24 22.079h4.48v4.641h-4.48v-4.641z"></path>
<path class="path7" d="M22.24 10.879h4.48v4.64h-4.48v-4.64z"></path>
<path class="path8" d="M5.28 5.28h4.8v4.639h-4.8v-4.639z"></path>
</symbol>
<symbol id="menu_card" viewBox="0 0 32 32">
<title>menu_card</title>
<path class="path1" d="M19.867 24.4h-7.733c-0.4 0-0.667-0.267-0.667-0.667v-5.4c-1.067-0.733-1.733-1.933-1.733-3.267 0-2.2 1.8-3.933 3.933-3.933 0.867 0 1.667 0.267 2.333 0.733 0.667-0.467 1.467-0.733 2.333-0.733 2.2 0 3.933 1.8 3.933 3.933 0 1.333-0.667 2.533-1.733 3.267v5.4c0 0.333-0.267 0.667-0.667 0.667zM12.8 23.067h6.4v-5.133c0-0.267 0.133-0.467 0.333-0.6 0.867-0.467 1.4-1.333 1.4-2.333 0-1.467-1.2-2.6-2.6-2.6-0.733 0-1.333 0.267-1.867 0.8-0.267 0.267-0.667 0.267-0.933 0-0.467-0.467-1.133-0.8-1.867-0.8-1.467 0-2.6 1.2-2.6 2.6 0 1 0.533 1.867 1.4 2.333 0.2 0.133 0.333 0.333 0.333 0.6 0 0 0 5.133 0 5.133z"></path>
<path class="path2" d="M13.667 19c-2.2 0-3.933-1.8-3.933-3.933 0-0.4 0.267-0.667 0.667-0.667s0.667 0.267 0.667 0.667c0 1.467 1.2 2.6 2.6 2.6 0.467 0 1-0.133 1.4-0.4 0.333-0.2 0.733-0.133 0.933 0.2s0.133 0.733-0.2 0.933c-0.667 0.333-1.4 0.6-2.133 0.6z"></path>
<path class="path3" d="M24.933 31.667h-17.867c-0.4 0-0.667-0.267-0.667-0.667v-24.733c0-0.4 0.267-0.667 0.667-0.667h17.867c0.4 0 0.667 0.267 0.667 0.667v24.733c0 0.4-0.267 0.667-0.667 0.667zM7.733 30.333h16.533v-23.4h-16.533v23.4z"></path>
<path class="path4" d="M7.067 6.933c-0.333 0-0.6-0.2-0.667-0.533-0.067-0.4 0.2-0.733 0.533-0.8 0.067 0 9.2-1.933 12.067-5 0.2-0.2 0.467-0.267 0.733-0.2s0.4 0.333 0.4 0.6v5.267c0 0.4-0.267 0.667-0.667 0.667s-0.667-0.267-0.667-0.667v-3.8c-3.8 2.8-11.267 4.333-11.6 4.4-0.067 0-0.067 0.067-0.133 0.067z"></path>
</symbol>
<symbol id="portfolio_details" viewBox="0 0 32 32">
<title>portfolio_details</title>
<path class="path1" d="M31 15h-18c-0.552 0-1-0.448-1-1s0.448-1 1-1h18c0.553 0 1 0.448 1 1s-0.447 1-1 1z"></path>
<path class="path2" d="M26 19h-13c-0.552 0-1-0.447-1-1s0.448-1 1-1h13c0.553 0 1 0.447 1 1s-0.447 1-1 1z"></path>
<path class="path3" d="M31 27h-18c-0.552 0-1-0.447-1-1s0.448-1 1-1h18c0.553 0 1 0.447 1 1s-0.447 1-1 1z"></path>
<path class="path4" d="M19 31h-6c-0.552 0-1-0.447-1-1s0.448-1 1-1h6c0.553 0 1 0.447 1 1s-0.447 1-1 1z"></path>
<path class="path5" d="M31 3h-18c-0.552 0-1-0.448-1-1s0.448-1 1-1h18c0.553 0 1 0.448 1 1s-0.447 1-1 1z"></path>
<path class="path6" d="M23 7h-10c-0.552 0-1-0.448-1-1s0.448-1 1-1h10c0.553 0 1 0.448 1 1s-0.447 1-1 1z"></path>
<path class="path7" d="M4 8c-2.206 0-4-1.794-4-4s1.794-4 4-4 4 1.794 4 4-1.794 4-4 4zM4 2c-1.103 0-2 0.897-2 2s0.897 2 2 2 2-0.897 2-2-0.897-2-2-2z"></path>
<path class="path8" d="M4 20c-2.206 0-4-1.794-4-4s1.794-4 4-4 4 1.794 4 4c0 2.206-1.794 4-4 4zM4 14c-1.103 0-2 0.897-2 2s0.897 2 2 2 2-0.897 2-2c0-1.103-0.897-2-2-2z"></path>
<path class="path9" d="M4 32c-2.206 0-4-1.794-4-4s1.794-4 4-4 4 1.794 4 4-1.794 4-4 4zM4 26c-1.103 0-2 0.897-2 2s0.897 2 2 2 2-0.897 2-2-0.897-2-2-2z"></path>
</symbol>
<symbol id="portfolio_navigation" viewBox="0 0 32 32">
<title>portfolio_navigation</title>
<path class="path1" d="M27.072 10.752c-0.256-0.352-0.736-0.48-1.12-0.224-0.352 0.256-0.48 0.736-0.224 1.12l2.368 3.552h-6.976c-0.384-2.496-2.528-4.416-5.12-4.416s-4.736 1.92-5.12 4.416h-6.976l2.368-3.552c0.256-0.352 0.16-0.864-0.224-1.12-0.352-0.256-0.864-0.16-1.12 0.224l-3.2 4.8c-0.192 0.256-0.192 0.608 0 0.896l3.2 4.8c0.16 0.224 0.416 0.352 0.672 0.352 0.16 0 0.32-0.032 0.448-0.128 0.352-0.256 0.48-0.736 0.224-1.12l-2.368-3.552h6.976c0.384 2.496 2.528 4.416 5.12 4.416s4.736-1.92 5.12-4.416h6.976l-2.368 3.552c-0.256 0.352-0.16 0.864 0.224 1.12 0.128 0.096 0.288 0.128 0.448 0.128 0.256 0 0.512-0.128 0.672-0.352l3.2-4.8c0.192-0.256 0.192-0.608 0-0.896l-3.2-4.8zM16 20.416c-2.432 0-4.416-1.984-4.416-4.416s1.984-4.384 4.416-4.384 4.416 1.952 4.416 4.384-1.984 4.416-4.416 4.416z"></path>
</symbol>
<symbol id="pricing_table" viewBox="0 0 32 32">
<title>pricing_table</title>
<path class="path1" d="M2.667 0v32h26.667v-32h-26.667zM8 0.667c0.369 0 0.667 0.298 0.667 0.667s-0.298 0.667-0.667 0.667-0.667-0.298-0.667-0.667 0.298-0.667 0.667-0.667zM6 0.667c0.369 0 0.667 0.298 0.667 0.667s-0.298 0.667-0.667 0.667-0.667-0.298-0.667-0.667 0.298-0.667 0.667-0.667zM4 0.667c0.369 0 0.667 0.298 0.667 0.667s-0.298 0.667-0.667 0.667-0.667-0.298-0.667-0.667 0.298-0.667 0.667-0.667zM28.667 31.333h-25.333v-28.667h25.333v28.667z"></path>
<path class="path2" d="M6.667 26h16v0.667h-16v-0.667z"></path>
<path class="path3" d="M6.667 24.667h18v0.667h-18v-0.667z"></path>
<path class="path4" d="M6.667 27.333h18v0.667h-18v-0.667z"></path>
<path class="path5" d="M6.667 28.667h18v0.667h-18v-0.667z"></path>
<path class="path6" d="M10.667 4.667h10.667v1.333h-10.667v-1.333z"></path>
<path class="path7" d="M12 8h-5.333v15.333h5.333v-15.333zM9.875 13.911c-0.112-0.089-0.317-0.191-0.613-0.309-0.359-0.143-0.619-0.277-0.777-0.403-0.261-0.209-0.391-0.465-0.391-0.769 0-0.265 0.091-0.5 0.273-0.703s0.459-0.324 0.832-0.363c0-0.511-0.012-0.909-0.035-1.195h0.461c-0.023 0.294-0.034 0.687-0.031 1.18 0.388 0.008 0.701 0.045 0.937 0.113l-0.121 0.567c-0.284-0.115-0.604-0.172-0.961-0.172-0.5 0-0.75 0.146-0.75 0.437 0 0.146 0.052 0.261 0.156 0.344s0.32 0.189 0.649 0.317c0.347 0.135 0.603 0.269 0.769 0.403 0.263 0.211 0.395 0.465 0.395 0.762 0 0.649-0.358 1.019-1.074 1.113 0 0.43 0.011 0.814 0.031 1.153h-0.461c0.021-0.351 0.030-0.728 0.027-1.129-0.419 0-0.815-0.043-1.187-0.129l0.121-0.574c0.339 0.13 0.699 0.195 1.082 0.195 0.581 0 0.871-0.149 0.871-0.445-0.001-0.155-0.068-0.286-0.203-0.393zM10.667 22h-2.667v-1.333h2.667v1.333zM11.333 20h-4v-0.667h4v0.667zM11.333 18.667h-4v-0.667h4v0.667z"></path>
<path class="path8" d="M20 23.333h5.333v-15.333h-5.333v15.333zM24 22h-2.667v-1.333h2.667v1.333zM23.208 13.911c-0.112-0.089-0.317-0.191-0.613-0.309-0.359-0.143-0.619-0.277-0.777-0.403-0.261-0.209-0.391-0.465-0.391-0.769 0-0.265 0.091-0.5 0.273-0.703s0.459-0.324 0.832-0.363c0-0.511-0.012-0.909-0.035-1.195h0.461c-0.023 0.294-0.034 0.687-0.031 1.18 0.388 0.008 0.701 0.045 0.937 0.113l-0.121 0.567c-0.284-0.115-0.604-0.172-0.961-0.172-0.5 0-0.75 0.146-0.75 0.437 0 0.146 0.052 0.261 0.156 0.344s0.32 0.189 0.649 0.317c0.347 0.135 0.603 0.269 0.769 0.403 0.263 0.211 0.395 0.465 0.395 0.762 0 0.649-0.358 1.019-1.074 1.113 0 0.43 0.011 0.814 0.031 1.153h-0.461c0.021-0.351 0.030-0.728 0.027-1.129-0.419 0-0.815-0.043-1.187-0.129l0.121-0.574c0.339 0.13 0.699 0.195 1.082 0.195 0.581 0 0.871-0.149 0.871-0.445-0.001-0.155-0.068-0.286-0.203-0.393zM20.667 18h4v0.667h-4v-0.667zM20.667 19.333h4v0.667h-4v-0.667z"></path>
<path class="path9" d="M18.667 23.333v-15.333h-5.333v15.333h5.333zM17.333 22h-2.667v-1.333h2.667v1.333zM16.541 13.911c-0.112-0.089-0.317-0.191-0.613-0.309-0.359-0.143-0.619-0.277-0.777-0.403-0.261-0.209-0.391-0.465-0.391-0.769 0-0.265 0.091-0.5 0.273-0.703s0.459-0.324 0.832-0.363c0-0.511-0.012-0.909-0.035-1.195h0.461c-0.023 0.294-0.034 0.687-0.031 1.18 0.388 0.008 0.701 0.045 0.937 0.113l-0.121 0.567c-0.284-0.115-0.604-0.172-0.961-0.172-0.5 0-0.75 0.146-0.75 0.437 0 0.146 0.052 0.261 0.156 0.344s0.32 0.189 0.649 0.317c0.347 0.135 0.603 0.269 0.769 0.403 0.263 0.211 0.395 0.465 0.395 0.762 0 0.649-0.358 1.019-1.074 1.113 0 0.43 0.011 0.814 0.031 1.153h-0.461c0.021-0.351 0.030-0.728 0.027-1.129-0.419 0-0.815-0.043-1.187-0.129l0.121-0.574c0.339 0.13 0.699 0.195 1.082 0.195 0.581 0 0.871-0.149 0.871-0.445-0.001-0.155-0.068-0.286-0.203-0.393zM14 18h4v0.667h-4v-0.667zM14 19.333h4v0.667h-4v-0.667z"></path>
</symbol>
<symbol id="recent_posts" viewBox="0 0 32 32">
<title>recent_posts</title>
<path class="path1" d="M5.76 1.92c-0.32-0-0.64 0.32-0.64 0.64v26.88c0 0.335 0.305 0.64 0.64 0.64h20.48c0.335-0 0.64-0.305 0.64-0.64v-19.84c0-0.17-0.069-0.34-0.19-0.46l-7.040-7.040c-0.119-0.115-0.284-0.181-0.45-0.18h-13.44zM6.4 3.2h12.16v6.4c0 0.353 0.287 0.64 0.64 0.64h6.4v18.56h-19.2v-25.6zM19.84 4.1l4.86 4.86h-4.86v-4.86zM16 13.44c-3.174 0-5.76 2.586-5.76 5.76s2.586 5.76 5.76 5.76c3.174 0 5.76-2.586 5.76-5.76s-2.586-5.76-5.76-5.76zM16 14.72c2.482 0 4.48 1.998 4.48 4.48s-1.998 4.48-4.48 4.48c-2.482 0-4.48-1.998-4.48-4.48s1.998-4.48 4.48-4.48zM16 15.68c-0.353 0-0.64 0.287-0.64 0.64v2.88c0 0.353 0.287 0.64 0.64 0.64h2.56c0.353 0 0.64-0.287 0.64-0.64s-0.287-0.64-0.64-0.64h-1.92v-2.24c0-0.353-0.287-0.64-0.64-0.64z"></path>
</symbol>
<symbol id="services" viewBox="0 0 32 32">
<title>services</title>
<path class="path1" d="M28.833 23.448h-10.681c-0.25 0-0.458 0.194-0.519 0.457-0.007-0.001-0.013-0.004-0.020-0.004h-0.898c-0.008 0-0.015 0.004-0.022 0.004-0.064-0.245-0.275-0.427-0.533-0.452v-6.785c0.311-0.029 0.556-0.288 0.556-0.607s-0.244-0.578-0.556-0.607v-6.785c0.259-0.024 0.469-0.207 0.533-0.452 0.008 0.001 0.015 0.004 0.022 0.004h0.898c0.007 0 0.013-0.003 0.020-0.004 0.061 0.263 0.269 0.457 0.519 0.457h10.681c0.297 0 0.539-0.275 0.539-0.613s-0.241-0.613-0.539-0.613h-10.681c-0.25 0-0.458 0.195-0.519 0.457-0.007-0.001-0.013-0.004-0.020-0.004h-0.898c-0.008 0-0.015 0.004-0.022 0.004-0.064-0.245-0.275-0.428-0.533-0.452v-3.738c0-0.088-0.072-0.16-0.16-0.16s-0.16 0.072-0.16 0.16v3.738c-0.311 0.029-0.556 0.288-0.556 0.607s0.244 0.578 0.556 0.607v6.785c-0.259 0.025-0.469 0.207-0.533 0.452-0.008-0.001-0.014-0.004-0.022-0.004h-0.898c-0.007 0-0.013 0.003-0.020 0.004-0.061-0.263-0.269-0.457-0.519-0.457h-10.68c-0.297 0-0.539 0.275-0.539 0.613s0.241 0.613 0.539 0.613h10.681c0.25 0 0.458-0.194 0.519-0.457 0.007 0.001 0.013 0.004 0.020 0.004h0.898c0.008 0 0.015-0.004 0.022-0.004 0.064 0.244 0.275 0.427 0.533 0.452v6.785c-0.311 0.029-0.556 0.288-0.556 0.607s0.244 0.578 0.556 0.607v3.615c0 0.088 0.072 0.16 0.16 0.16s0.16-0.072 0.16-0.16v-3.614c0.259-0.024 0.469-0.207 0.533-0.452 0.008 0.001 0.015 0.004 0.022 0.004h0.898c0.007 0 0.013-0.003 0.020-0.004 0.061 0.263 0.269 0.457 0.519 0.457h10.681c0.297 0 0.539-0.274 0.539-0.613s-0.242-0.613-0.539-0.613z"></path>
</symbol>
<symbol id="tabs" viewBox="0 0 32 32">
<title>tabs</title>
<path class="path1" d="M29.6 3.2h-16.8v-0.8c0-0.442-0.358-0.8-0.8-0.8h-9.6c-0.442 0-0.8 0.358-0.8 0.8v27.2c0 0.442 0.358 0.8 0.8 0.8h27.2c0.442 0 0.8-0.358 0.8-0.8v-25.6c0-0.442-0.358-0.8-0.8-0.8zM12.8 4.8h7.2v2.4h-7.2v-2.4zM28.8 28.8h-25.6v-25.6h8v4.8c0 0.442 0.358 0.8 0.8 0.8h16.8v20zM28.8 7.2h-7.2v-2.4h7.2v2.4z"></path>
<path class="path2" d="M4 10v17.6c0 0.221 0.179 0.4 0.4 0.4h23.2c0.221 0 0.4-0.179 0.4-0.4v-17.6c0-0.221-0.179-0.4-0.4-0.4h-23.2c-0.221 0-0.4 0.179-0.4 0.4zM4.8 10.4h22.4v16.8h-22.4v-16.8z"></path>
</symbol>
<symbol id="testimonials" viewBox="0 0 32 32">
<title>testimonials</title>
<path class="path1" d="M2.368 26.997c-0.503 0-0.986-0.097-1.394-0.35-0.373-0.231-0.996-0.8-0.974-2.004 0.028-1.525 1.346-2.209 2.134-2.617l0.25-0.131c1.038-0.56 1.827-1.065 2.482-1.592 0.869-0.699 1.45-1.369 1.673-1.747-0.157-0.031-0.314-0.042-0.479-0.054-0.244-0.018-0.486-0.037-0.718-0.081-1.163-0.221-2.272-0.8-3.125-1.63-2-1.948-2.583-5.223-1.385-7.787 1.136-2.432 3.71-4.004 6.557-4.004 2.204 0 4.202 0.958 5.625 2.7 1.643 2.008 2.336 4.869 1.811 7.468-0.868 4.296-4.262 8.353-9.078 10.849-0.539 0.279-2.029 0.98-3.379 0.98zM7.389 7c-2.106 0-3.924 1.092-4.744 2.851-0.849 1.818-0.442 4.134 0.968 5.508 0.575 0.56 1.321 0.95 2.101 1.098 0.157 0.030 0.323 0.039 0.489 0.051 0.341 0.024 0.728 0.052 1.125 0.183 0.961 0.317 1.216 0.98 1.283 1.347 0.191 1.053-0.647 2.339-2.491 3.824-0.752 0.604-1.638 1.175-2.787 1.794l-0.277 0.146c-0.726 0.376-1.051 0.593-1.056 0.879-0.004 0.206 0.036 0.275 0.037 0.276 0.23 0.159 1.469-0.032 2.789-0.716 3.307-1.715 7.156-5.103 8.039-9.47 0.41-2.025-0.126-4.25-1.398-5.805-0.735-0.897-2.037-1.966-4.078-1.966zM19.368 26.998c-0.503 0-0.986-0.098-1.395-0.351-0.373-0.232-0.996-0.8-0.974-2.004 0.028-1.525 1.347-2.209 2.135-2.617l0.249-0.131c1.038-0.559 1.827-1.065 2.483-1.592 0.9-0.727 1.458-1.379 1.673-1.747-0.157-0.031-0.315-0.042-0.479-0.054-0.243-0.018-0.485-0.037-0.718-0.081-1.163-0.221-2.272-0.8-3.125-1.63-2-1.948-2.583-5.223-1.386-7.786 1.154-2.47 3.667-4.005 6.558-4.005 2.203 0 4.201 0.959 5.625 2.7 1.643 2.008 2.337 4.87 1.812 7.468-0.869 4.297-4.263 8.353-9.079 10.849-0.54 0.279-2.029 0.98-3.379 0.981zM24.389 7c-2.105 0-3.923 1.093-4.744 2.851-0.849 1.818-0.441 4.134 0.969 5.508 0.574 0.56 1.32 0.95 2.101 1.098 0.157 0.029 0.322 0.039 0.488 0.051 0.341 0.024 0.728 0.052 1.126 0.183 0.961 0.317 1.216 0.979 1.283 1.346 0.191 1.051-0.646 2.338-2.49 3.824-0.755 0.606-1.641 1.177-2.789 1.795l-0.277 0.146c-0.725 0.376-1.050 0.593-1.055 0.879-0.004 0.206 0.036 0.275 0.037 0.276 0.227 0.159 1.468-0.031 2.789-0.716 3.307-1.715 7.155-5.103 8.038-9.47 0.41-2.025-0.126-4.25-1.398-5.805-0.735-0.897-2.037-1.966-4.078-1.966z"></path>
</symbol>
<symbol id="tweets" viewBox="0 0 32 32">
<title>tweets</title>
<path class="path1" d="M2.767 17.375c0.688 3.279 2.352 6.009 4.811 7.895 2.218 1.7 5.029 2.637 7.916 2.637 3.769 0 7.339-1.561 9.796-4.282 1.885-2.088 4.004-5.83 3.393-11.796-0.038-0.372-0.094-0.739-0.167-1.097 0.428-0.571 0.748-0.932 0.75-0.936 0.649-0.724 0.832-1.754 0.471-2.657s-1.202-1.524-2.171-1.603c-0.412-0.033-0.826-0.050-1.231-0.050-0.267 0-0.533 0.007-0.799 0.022-1.559-1.344-3.551-2.094-5.643-2.094-2.336 0-4.46 0.959-5.827 2.629-1.37 1.675-1.871 3.944-1.42 6.407-1.287-0.309-2.492-0.796-2.997-1.033-0.349-0.166-0.724-0.247-1.097-0.247-0.564 0-1.124 0.187-1.585 0.549-0.764 0.602-1.121 1.585-0.921 2.537 0.012 0.055 0.024 0.111 0.036 0.166-0.264-0.088-0.538-0.132-0.81-0.132-0.564 0-1.124 0.187-1.585 0.549-0.764 0.602-1.121 1.584-0.922 2.537zM5.273 16.849c0 0 2.755 1.308 5.397 1.529-0.979-1.245-1.726-2.788-2.117-4.649 0 0 3.285 1.559 6.121 1.559 0.24 0 0.476-0.011 0.707-0.035 0.114-0.83 0.068-1.857-0.188-3.124-0.814-4.032 1.812-6.156 4.702-6.156 1.683 0 3.454 0.72 4.687 2.203 0.562-0.085 1.147-0.131 1.754-0.131 0.335 0 0.676 0.014 1.024 0.042 0 0-0.794 0.887-1.625 2.153 0.195 0.56 0.333 1.176 0.402 1.849 0.896 8.751-4.894 13.258-10.643 13.258-4.524-0-9.023-2.79-10.221-8.498z"></path>
</symbol>
<symbol id="chart" viewBox="0 0 32 32">
<title>chart</title>
<path class="path1" d="M14.1 23.7c-2.9-0.7-5.2-3-5.8-5.8-0.1-0.3-0.4-0.6-0.7-0.6h-6.3c-0.2 0-0.4 0.1-0.6 0.3-0.1 0.2-0.2 0.4-0.2 0.6 0.9 6.9 6.4 12.4 13.3 13.3h0.1c0.2 0 0.4-0.1 0.5-0.2 0.2-0.1 0.3-0.4 0.3-0.6v-6.3c0-0.3-0.2-0.6-0.6-0.7z"></path>
<path class="path2" d="M15.9 0.5c-7.7 0-14.4 5.8-15.4 13.5 0 0.2 0 0.4 0.2 0.6 0.1 0.2 0.4 0.3 0.6 0.3h6.3c0.4 0 0.7-0.2 0.7-0.6 0.8-3.6 4-6.1 7.6-6.1 4.3 0 7.9 3.5 7.9 7.9 0 3.7-2.5 6.8-6.1 7.6-0.3 0.1-0.6 0.4-0.6 0.7v6.3c0 0.2 0.1 0.4 0.3 0.6 0.1 0.1 0.3 0.2 0.5 0.2h0.1c7.7-1 13.5-7.7 13.5-15.4 0-8.6-7-15.6-15.6-15.6z"></path>
</symbol>
<symbol id="clients" viewBox="0 0 32 32">
<title>clients</title>
<path class="path1" d="M18.765 16.466c2.227-1.043 3.773-3.297 3.774-5.919-0-3.611-2.927-6.539-6.539-6.539s-6.539 2.927-6.539 6.539c0 2.622 1.547 4.876 3.773 5.919-4.951 1.236-8.62 5.711-8.62 11.046 0 0.126 0.051 0.25 0.14 0.34s0.213 0.14 0.34 0.14h21.812c0.126 0 0.25-0.051 0.34-0.14s0.14-0.213 0.14-0.34c-0-5.335-3.669-9.81-8.621-11.046zM18.099 17.297l-1.37 2.054h-1.381l-1.169-2.104c0.591-0.104 1.199-0.162 1.82-0.162 0.719 0 1.421 0.073 2.099 0.212zM12.055 14.492c-1.010-1.011-1.634-2.403-1.634-3.945s0.624-2.933 1.634-3.945c1.011-1.010 2.403-1.634 3.945-1.634s2.934 0.624 3.945 1.634c1.010 1.011 1.634 2.403 1.634 3.945s-0.624 2.934-1.634 3.945c-1.011 1.010-2.403 1.634-3.945 1.634s-2.934-0.624-3.945-1.634zM5.586 27.032c0.122-2.689 1.26-5.11 3.042-6.892 1.252-1.252 2.821-2.184 4.576-2.671l1.356 2.441-1.484 7.123h-7.489zM14.056 27.032l1.4-6.72h1.155l1.68 6.72h-4.235zM19.281 27.032l-1.778-7.11 1.581-2.372c1.638 0.507 3.104 1.406 4.288 2.589 1.782 1.783 2.92 4.203 3.042 6.892h-7.133z"></path>
</symbol>
<symbol id="contact_form" viewBox="0 0 32 32">
<title>contact_form</title>
<path class="path1" d="M21.824 29.334h-19.003v-26.668h19.003v6.611l2.026-2.026v-5.597c0-0.559-0.453-1.013-1.013-1.013h-21.029c-0.559 0-1.013 0.454-1.013 1.013v28.694c0 0.559 0.454 1.013 1.013 1.013h21.029c0.559 0 1.013-0.453 1.013-1.013v-11.147l-2.026 2.026v8.108h0zM18.837 5.095h-13.030c-0.427 0-0.774 0.347-0.774 0.774s0.347 0.774 0.774 0.774h13.030c0.428 0 0.774-0.347 0.774-0.774s-0.347-0.774-0.774-0.774zM19.611 9.997c0-0.427-0.347-0.774-0.774-0.774h-13.030c-0.427 0-0.774 0.347-0.774 0.774s0.347 0.774 0.774 0.774h13.030c0.427 0 0.774-0.347 0.774-0.774zM17.748 13.352h-11.941c-0.427 0-0.774 0.347-0.774 0.774s0.347 0.774 0.774 0.774h10.393l1.548-1.548zM13.418 18.484c0.105-0.351 0.254-0.687 0.437-1.004h-8.048c-0.427 0-0.774 0.347-0.774 0.774s0.347 0.774 0.774 0.774h7.449l0.162-0.545zM12.606 23.157h-6.799c-0.427 0-0.774-0.347-0.774-0.774s0.347-0.774 0.774-0.774v0h6.689c-0.142 0.524-0.090 1.061 0.111 1.548zM31.205 8.031c0 0.573-0.228 1.123-0.633 1.528l-11.452 11.452c-0.312 0.312-0.697 0.542-1.12 0.668l-3.059 0.913c-0.035 0.011-0.071 0.016-0.105 0.016-0.096 0-0.19-0.038-0.26-0.108-0.096-0.096-0.131-0.236-0.092-0.365l0.913-3.059c0.127-0.423 0.356-0.808 0.668-1.12l11.452-11.452c0.405-0.405 0.955-0.633 1.528-0.633s1.123 0.228 1.528 0.634c0.405 0.405 0.633 0.955 0.633 1.528z"></path>
</symbol>
<symbol id="dropcap" viewBox="0 0 32 32">
<title>dropcap</title>
<path class="path1" d="M17.024 6.784h-5.664v18.4h5.664c4.192 0 5.664-4.96 5.664-9.216 0-4.224-1.472-9.184-5.664-9.184z"></path>
<path class="path2" d="M16 0.512c-8.608 0-15.616 6.976-15.616 15.616s7.008 15.584 15.616 15.584 15.616-6.976 15.616-15.616-7.008-15.584-15.616-15.584zM17.024 26.624h-6.4c-0.384 0-0.704-0.32-0.704-0.704v-19.84c0-0.384 0.32-0.704 0.704-0.704h6.368c4.32 0 7.072 4.16 7.072 10.624 0.032 6.464-2.752 10.624-7.040 10.624z"></path>
</symbol>
<symbol id="gallery" viewBox="0 0 32 32">
<title>gallery</title>
<path class="path1" d="M8.766 6.314c-1.268 0-2.297 1.028-2.297 2.297s1.028 2.297 2.297 2.297c1.268 0 2.297-1.028 2.297-2.297s-1.028-2.297-2.297-2.297v0zM27.803 27.803h-18.18v-2.829h15.35v-15.35h2.829v18.18zM4.291 22.377l8.032-6.455 3.937 5.085 6.117-5.435v6.805h-18.086zM4.197 4.197h18.18v7.9l-5.765 5.122-3.855-4.979-8.56 6.88v-14.923zM2.826 21.888v0zM24.974 7.026v-5.426h-23.374v23.374h5.426v5.426h23.374v-23.374h-5.426z"></path>
</symbol>
<symbol id="grids" viewBox="0 0 32 32">
<title>grids</title>
<path class="path1" d="M3.45 2.88c-0.322 0.037-0.57 0.307-0.57 0.636 0 0.001 0 0.003 0 0.004v24.96c0 0.353 0.287 0.64 0.64 0.64h24.96c0.353-0 0.64-0.287 0.64-0.64v-24.96c-0-0.353-0.287-0.64-0.64-0.64h-24.96c-0.010-0.001-0.023-0.001-0.035-0.001s-0.025 0-0.037 0.001zM4.16 4.16h11.2v11.2h-11.2v-11.2zM16.64 4.16h11.2v11.2h-11.2v-11.2zM4.16 16.64h11.2v11.2h-11.2v-11.2zM16.64 16.64h11.2v11.2h-11.2v-11.2z"></path>
</symbol>
<symbol id="image_slider" viewBox="0 0 32 32">
<title>image_slider</title>
<path class="path1" d="M28.907 15.929c-0.107 0-0.213-0.036-0.284-0.142-0.107-0.142-0.071-0.391 0.071-0.498l1.671-1.244-1.671-1.244c-0.142-0.107-0.178-0.356-0.071-0.498s0.356-0.178 0.498-0.071l2.062 1.529c0.107 0.071 0.142 0.178 0.142 0.284s-0.071 0.213-0.142 0.284l-2.062 1.529c-0.071 0.036-0.142 0.071-0.213 0.071z"></path>
<path class="path2" d="M3.093 15.929c-0.071 0-0.142-0.036-0.213-0.071l-2.062-1.529c-0.107-0.071-0.142-0.178-0.142-0.284s0.071-0.213 0.142-0.284l2.062-1.529c0.142-0.107 0.391-0.071 0.498 0.071s0.071 0.391-0.071 0.498l-1.671 1.244 1.671 1.244c0.142 0.107 0.178 0.356 0.071 0.498-0.071 0.071-0.178 0.142-0.284 0.142z"></path>
<path class="path3" d="M26.098 20.124h-20.267c-0.213 0-0.356-0.142-0.356-0.356v-14.222c0-0.213 0.142-0.356 0.356-0.356h20.267c0.213 0 0.356 0.142 0.356 0.356v14.258c0 0.178-0.178 0.32-0.356 0.32zM6.187 19.413h19.556v-13.511h-19.556v13.511z"></path>
<path class="path4" d="M11.093 27.022h-5.262c-0.213 0-0.356-0.142-0.356-0.356v-3.804c0-0.213 0.142-0.356 0.356-0.356h5.262c0.213 0 0.356 0.142 0.356 0.356v3.804c0 0.178-0.178 0.356-0.356 0.356zM6.187 26.311h4.551v-3.093h-4.551v3.093z"></path>
<path class="path5" d="M18.596 27.022h-5.262c-0.213 0-0.356-0.142-0.356-0.356v-3.804c0-0.213 0.142-0.356 0.356-0.356h5.262c0.213 0 0.356 0.142 0.356 0.356v3.804c0 0.178-0.178 0.356-0.356 0.356zM13.689 26.311h4.551v-3.093h-4.551v3.093z"></path>
<path class="path6" d="M26.098 27.022h-5.262c-0.213 0-0.356-0.142-0.356-0.356v-3.804c0-0.213 0.142-0.356 0.356-0.356h5.262c0.213 0 0.356 0.142 0.356 0.356v3.804c0 0.178-0.178 0.356-0.356 0.356zM21.191 26.311h4.551v-3.093h-4.551v3.093z"></path>
</symbol>
<symbol id="newsletter" viewBox="0 0 32 32">
<title>newsletter</title>
<path class="path1" d="M11.456 9.856l-0.704-0.896h-8.672l-0.704 0.896z"></path>
<path class="path2" d="M14.016 13.152l-0.672-0.864h-8.704l-0.672 0.864z"></path>
<path class="path3" d="M16.608 16.48l-0.704-0.896h-8.704l-0.672 0.896z"></path>
<path class="path4" d="M19.168 19.776l-0.704-0.896h-8.672l-0.704 0.896z"></path>
<path class="path5" d="M12.352 22.176l-0.704 0.896h10.080l-0.704-0.896z"></path>
<path class="path6" d="M12.384 8.928l8.672 11.232h1.216l7.36-9.696v11.616h-7.36l0.736 0.96h7.616v-14.112h-18.24zM21.664 19.36l-7.328-9.472h14.528l-7.2 9.472z"></path>
</symbol>
<symbol id="portfolio" viewBox="0 0 32 32">
<title>portfolio</title>
<path class="path1" d="M21.135 16.251h-10.27c-0.237 0-0.43-0.193-0.43-0.43s0.193-0.43 0.43-0.43h10.269c0.237 0 0.43 0.193 0.43 0.43s-0.192 0.43-0.43 0.43z"></path>
<path class="path2" d="M17.37 17.827h-2.74c-0.237 0-0.43-0.193-0.43-0.43s0.193-0.43 0.43-0.43h2.74c0.237 0 0.43 0.193 0.43 0.43s-0.193 0.43-0.43 0.43z"></path>
<path class="path3" d="M10.84 25.26h-5.431c-0.237 0-0.43-0.193-0.43-0.43v-5.431c0-0.237 0.193-0.43 0.43-0.43h5.432c0.237 0 0.43 0.193 0.43 0.43v5.431c-0 0.237-0.193 0.43-0.43 0.43zM5.839 24.4h4.572v-4.571h-4.572v4.571z"></path>
<path class="path4" d="M18.716 25.26h-5.432c-0.237 0-0.43-0.193-0.43-0.43v-5.431c0-0.237 0.193-0.43 0.43-0.43h5.432c0.237 0 0.43 0.193 0.43 0.43v5.431c0 0.237-0.193 0.43-0.43 0.43zM13.714 24.4h4.572v-4.571h-4.572v4.571z"></path>
<path class="path5" d="M26.591 25.26h-5.431c-0.237 0-0.43-0.193-0.43-0.43v-5.431c0-0.237 0.193-0.43 0.43-0.43h5.431c0.237 0 0.43 0.193 0.43 0.43v5.431c0 0.237-0.193 0.43-0.43 0.43zM21.589 24.4h4.571v-4.571h-4.571v4.571z"></path>
<path class="path6" d="M16 14.403c-0.902 0-1.635-0.733-1.635-1.635s0.733-1.635 1.635-1.635c0.901 0 1.635 0.733 1.635 1.635s-0.733 1.635-1.635 1.635zM16 11.993c-0.427 0-0.775 0.348-0.775 0.775s0.348 0.775 0.775 0.775 0.775-0.348 0.775-0.775c0-0.428-0.348-0.775-0.775-0.775z"></path>
<path class="path7" d="M29.97 4.945h-27.94c-0.239 0-0.43 0.191-0.43 0.43v21.251c0 0.239 0.191 0.43 0.43 0.43h27.94c0.236 0 0.43-0.191 0.43-0.43v-21.251c0-0.239-0.194-0.43-0.43-0.43zM29.54 26.195h-27.080v-16.49h27.080v16.49zM29.54 8.845h-27.080v-3.040h27.080v3.040z"></path>
<path class="path8" d="M4.89 7.268c0 0.372-0.302 0.673-0.675 0.673s-0.675-0.301-0.675-0.673c0-0.372 0.302-0.673 0.675-0.673s0.675 0.301 0.675 0.673z"></path>
<path class="path9" d="M7.049 7.268c0 0.372-0.302 0.673-0.675 0.673s-0.675-0.301-0.675-0.673c0-0.372 0.302-0.673 0.675-0.673s0.675 0.301 0.675 0.673z"></path>
<path class="path10" d="M9.207 7.268c0 0.372-0.302 0.673-0.675 0.673s-0.675-0.301-0.675-0.673c0-0.372 0.302-0.673 0.675-0.673s0.675 0.301 0.675 0.673z"></path>
</symbol>
<symbol id="process" viewBox="0 0 32 32">
<title>process</title>
<path class="path1" d="M12.882 15.767l-1.528-1.534c-0.125-0.125-0.327-0.126-0.453-0.001s-0.126 0.327-0.001 0.452l0.992 0.996h-5.828c-0.152-0.853-0.897-1.503-1.793-1.503-1.005 0-1.822 0.818-1.822 1.823s0.818 1.822 1.822 1.822c0.896 0 1.641-0.65 1.793-1.502h5.83l-1 0.995c-0.125 0.124-0.126 0.327-0.001 0.452 0.062 0.063 0.145 0.094 0.227 0.094s0.164-0.031 0.226-0.093l1.546-1.539c0.060-0.060 0.094-0.141 0.094-0.226 0-0.001-0-0.001-0-0.002s0-0.001 0-0.002c0-0.092-0.041-0.174-0.104-0.233zM4.271 17.182c-0.652 0-1.182-0.53-1.182-1.182s0.53-1.183 1.182-1.183 1.183 0.531 1.183 1.183c0 0.652-0.531 1.182-1.183 1.182z"></path>
<path class="path2" d="M27.728 14.177c-1.005 0-1.822 0.818-1.822 1.823s0.818 1.822 1.822 1.822 1.823-0.818 1.823-1.822c0-1.005-0.818-1.823-1.823-1.823zM27.728 17.182c-0.652 0-1.182-0.53-1.182-1.182s0.53-1.183 1.182-1.183 1.183 0.531 1.183 1.183c0 0.652-0.531 1.182-1.183 1.182z"></path>
<path class="path3" d="M24.531 15.767l-1.528-1.534c-0.125-0.125-0.327-0.126-0.453-0.001s-0.126 0.327-0.001 0.452l0.992 0.996h-5.668c-0.152-0.853-0.897-1.503-1.793-1.503-1.005 0-1.822 0.818-1.822 1.823s0.818 1.822 1.822 1.822c0.896 0 1.642-0.65 1.793-1.502h5.67l-1 0.995c-0.125 0.124-0.126 0.327-0.001 0.452 0.062 0.063 0.145 0.094 0.227 0.094s0.164-0.031 0.226-0.093l1.546-1.539c0.060-0.060 0.094-0.141 0.094-0.226 0-0.001-0-0.001-0-0.002s0-0.001 0-0.002c-0-0.093-0.041-0.175-0.104-0.233zM16.080 17.182c-0.652 0-1.182-0.53-1.182-1.182s0.53-1.183 1.182-1.183c0.652 0 1.183 0.531 1.183 1.183s-0.531 1.182-1.183 1.182z"></path>
</symbol>
<symbol id="rotates" viewBox="0 0 32 32">
<title>rotates</title>
<path class="path1" d="M4 4l-1.333 9.733 9.2-3.067z"></path>
<path class="path2" fill="none" stroke="#000" stroke-width="2.6667" stroke-miterlimit="10" stroke-linecap="butt" stroke-linejoin="round" d="M7.733 7.2c2.133-2 5.067-3.2 8.267-3.2 6.667 0 12 5.333 12 12"></path>
<path class="path3" fill="none" stroke="#000" stroke-width="2.6667" stroke-miterlimit="10" stroke-linecap="butt" stroke-linejoin="round" d="M28 16c0 6.667-5.333 12-12 12-4.267 0-7.867-2.133-10-5.467"></path>
<path class="path4" fill="none" stroke="#000" stroke-width="2.6667" stroke-miterlimit="10" stroke-linecap="butt" stroke-linejoin="round" d="M5.6 10.133c2-3.733 5.867-6.133 10.4-6.133 6.667 0 12 5.333 12 12"></path>
</symbol>
<symbol id="skills" viewBox="0 0 32 32">
<title>skills</title>
<path class="path1" d="M27.171 11.741h-22.342c-0.883 0.003-1.597 0.717-1.6 1.6v5.338c0.003 0.883 0.717 1.597 1.6 1.6h22.342c0.883-0.003 1.597-0.717 1.6-1.6v-5.338c-0.003-0.883-0.717-1.597-1.6-1.6zM4.602 18.902c-0.061-0.061-0.093-0.138-0.093-0.224v-1.299l4.358-4.358h1.821l-5.955 5.955c-0.048-0.013-0.093-0.038-0.131-0.074zM12.499 13.021h1.811l-5.978 5.978h-1.811l5.978-5.978zM16.118 13.021h1.811l-5.978 5.978h-1.811l5.978-5.978zM19.722 13.037v1.786l-4.173 4.176h-1.786l5.958-5.962zM19.722 16.634v2.365h-2.365l2.365-2.365zM4.602 13.117c0.061-0.061 0.138-0.093 0.227-0.096h2.227l-2.547 2.547v-2.227c0-0.086 0.035-0.163 0.093-0.224zM27.398 18.902c-0.061 0.061-0.138 0.093-0.224 0.096h-6.173v-5.978h6.17c0.086 0 0.163 0.035 0.224 0.096s0.093 0.138 0.096 0.224v5.338c0 0.086-0.035 0.163-0.093 0.224z"></path>
</symbol>
<symbol id="special_subtitle" viewBox="0 0 32 32">
<title>special_subtitle</title>
<path class="path1" d="M7.333 16.333c-0.367 0-0.667-0.3-0.667-0.667v-5.877c0-0.277 0.008-0.545 0.016-0.803 0.021-0.776 0.040-1.508-0.195-1.751-0.139-0.141-0.455-0.173-0.692-0.173-0.481 0-0.793 0.145-0.92 0.437-0.151 0.336-0.544 0.489-0.88 0.336-0.336-0.148-0.487-0.544-0.336-0.88 0.348-0.78 1.128-1.227 2.139-1.227 0.732 0 1.267 0.191 1.644 0.579 0.632 0.645 0.603 1.607 0.575 2.716-0.007 0.247-0.015 0.503-0.015 0.765v5.877c-0.003 0.367-0.303 0.667-0.669 0.667z"></path>
<path class="path2" d="M5.995 17.008c-1.049 0-3.836 0-3.836-2.803 0-2.027 2.064-5.084 5.175-5.084 0.367 0 0.667 0.299 0.667 0.667v6.544c0 0.368-0.3 0.667-0.667 0.667l-1.339 0.009zM6.667 10.524c-1.959 0.408-3.175 2.524-3.175 3.685 0 1.099 0.632 1.472 2.503 1.472l0.672-0.007v-5.151z"></path>
<path class="path3" d="M10 16.333c-0.367 0-0.667-0.3-0.667-0.667v-12c0-0.367 0.3-0.667 0.667-0.667s0.667 0.3 0.667 0.667v12c0 0.367-0.3 0.667-0.667 0.667z"></path>
<path class="path4" d="M12.345 17.008l-2.345-0.008c-0.367 0-0.667-0.3-0.667-0.667v-6.544c0-0.367 0.3-0.667 0.667-0.667 2.935 0 5.697 2.861 5.697 5.084 0 1.137-0.393 1.937-1.169 2.383-0.644 0.368-1.429 0.419-2.183 0.419zM10.667 15.667l1.679 0.008c0.541 0 1.145-0.028 1.52-0.245 0.139-0.080 0.503-0.287 0.503-1.224 0-1.271-1.716-3.296-3.697-3.687l-0.004 5.148z"></path>
<path class="path5" d="M11.381 26.284c-0.173 0-0.345-0.068-0.472-0.195-0.205-0.203-0.251-0.521-0.12-0.779l2.732-5.24c0.029-0.060 0.071-0.115 0.12-0.163l10.361-10.361c0.128-0.128 0.297-0.195 0.472-0.195v0c0.177 0 0.348 0.071 0.472 0.195l2.507 2.508c0.26 0.259 0.26 0.684 0 0.943l-10.361 10.361c-0.047 0.048-0.101 0.089-0.164 0.12l-5.237 2.731c-0.1 0.048-0.204 0.075-0.309 0.075zM14.656 20.777l-1.704 3.269 3.269-1.703 9.815-9.813-1.563-1.567-9.817 9.813z"></path>
<path class="path6" d="M27.452 12.999l-0.943-0.943 1.592-1.595c0.317-0.313 0.527-0.716 0.572-1.101 0.023-0.191 0.025-0.549-0.229-0.803-0.425-0.421-1.299-0.271-1.908 0.34l-1.591 1.592-0.943-0.943 1.591-1.592c1.139-1.139 2.84-1.293 3.793-0.34 0.475 0.476 0.696 1.171 0.609 1.904-0.083 0.689-0.42 1.359-0.953 1.888l-1.591 1.592z"></path>
<path class="path7" d="M15.381 19.113l2.51 2.507-0.942 0.943-2.51-2.507 0.942-0.943z"></path>
<path class="path8" d="M30.667 29h-29.333c-0.367 0-0.667-0.3-0.667-0.667s0.3-0.667 0.667-0.667h29.333c0.367 0 0.667 0.3 0.667 0.667s-0.3 0.667-0.667 0.667z"></path>
</symbol>
<symbol id="team" viewBox="0 0 32 32">
<title>team</title>
<path class="path1" d="M22.302 12.234c0-1.659 1.345-3.003 3.003-3.003s3.003 1.345 3.003 3.003c0 1.659-1.345 3.003-3.003 3.003s-3.003-1.345-3.003-3.003zM25.865 16.443c-3.44 0-6.228 2.554-6.228 5.711 0 0.001 0 0.002 0 0.003 0 0.186 0.016 0.368 0.046 0.545-0.003 0.122 0.151 0.116 0.293 0.116h11.772c0.142 0 0.277 0 0.295-0.135 0.027-0.176 0.043-0.38 0.043-0.587 0-0.010-0-0.020-0-0.030 0.012-3.131-2.775-5.629-6.191-5.629zM13.846 22.812c0.004-0.078 0.007-0.17 0.007-0.262s-0.003-0.183-0.008-0.274c-0.017-1.672-0.679-3.198-1.75-4.335 1.124-0.935 2.581-1.505 4.172-1.505 0.016 0 0.033 0 0.049 0-0.002 0-0.002 0-0.001 0 1.442 0 2.777 0.461 3.865 1.244-1.209 1.115-1.952 2.703-1.964 4.464 0 0.131 0 0.691 0 0.691h-4.412zM16.308 15.237c1.659 0 3.003-1.345 3.003-3.003s-1.345-3.003-3.003-3.003c-1.659 0-3.003 1.345-3.003 3.003 0 0 0 0 0 0 0 1.659 1.345 3.003 3.003 3.003 0.009 0 0.017-0 0.026-0zM3.766 12.234c0-1.659 1.345-3.003 3.003-3.003s3.003 1.345 3.003 3.003c0 1.659-1.345 3.003-3.003 3.003-1.651-0.010-2.985-1.351-2.985-3.003 0-0 0-0 0-0zM6.228 16.443c-3.44 0-6.228 2.554-6.228 5.711 0 0.001 0 0.002 0 0.003 0 0.186 0.016 0.368 0.046 0.545-0.003 0.122 0.151 0.116 0.293 0.116h11.772c0.142 0 0.277 0 0.295-0.135 0.027-0.176 0.043-0.38 0.043-0.587 0-0.010-0-0.020-0-0.030 0.012-3.131-2.775-5.629-6.246-5.629z"></path>
</symbol>
<symbol id="typed" viewBox="0 0 32 32">
<title>typed</title>
<path class="path1" d="M16.687 21.038h-0.011v-4.372h2.509v-1.333h-2.509v-4.372h0.011c0-1.363 2.547-1.695 2.573-1.698l-0.075-0.662-0.074-0.662c-0.934 0.104-2.3 0.504-3.102 1.372-0.802-0.868-2.168-1.267-3.102-1.372l-0.148 1.325c0.026 0.003 2.572 0.326 2.572 1.698h0.011v4.372h-2.509v1.333h2.51v4.372h-0.011c0 1.363-2.548 1.695-2.574 1.698l0.149 1.325c0.934-0.105 2.3-0.504 3.102-1.372 0.802 0.868 2.168 1.267 3.102 1.372l0.148-1.325c-0.026-0.003-2.572-0.326-2.572-1.698z"></path>
</symbol>
<symbol id="svg_icon" viewBox="0 0 50 50">
    <title>SVG Icon</title>
    <path d="M42.042,13.723c-0.124,0.017-0.247,0.037-0.383,0.037c-0.089,0-0.167-0.018-0.251-0.025v30.859c0,1.102-0.896,2-2,2H10.575  c-1.103,0-2-0.898-2-2V5.426c0-1.103,0.897-2,2-2h22.519c-0.653-0.454-0.991-1.219-1.014-2H10.575c-2.205,0-4,1.794-4,4v39.167  c0,2.205,1.795,4,4,4h28.833c2.207,0,4-1.795,4-4v-30.09C42.817,14.401,42.362,14.115,42.042,13.723z"></path><path d="M42.407,15.531c-0.004,0-0.012,0.001-0.021,0H32.21c-0.563,0-1.018-0.448-1.018-1V2.407c0-0.422,0.27-0.798,0.674-0.941  c0.402-0.144,0.855-0.021,1.129,0.305L43.067,13.77c0.22,0.184,0.357,0.457,0.357,0.762C43.425,15.083,42.97,15.531,42.407,15.531z   M33.228,13.531h7.001l-7.001-8.34V13.531z"></path><path d="M34.213,32.635H15.771c-2.206,0-4-1.794-4-4V23.26c0-2.206,1.794-4,4-4h18.441c2.206,0,4,1.794,4,4v5.375  C38.213,30.841,36.419,32.635,34.213,32.635z M15.771,21.26c-1.103,0-2,0.897-2,2v5.375c0,1.103,0.897,2,2,2h18.441  c1.103,0,2-0.897,2-2V23.26c0-1.103-0.897-2-2-2H15.771z"></path><path d="M20.59,24.108c-0.045,0.072-0.092,0.126-0.142,0.162s-0.113,0.054-0.191,0.054c-0.069,0-0.143-0.022-0.223-0.065  s-0.169-0.092-0.27-0.146c-0.101-0.054-0.215-0.103-0.344-0.146s-0.276-0.065-0.441-0.065c-0.285,0-0.497,0.061-0.637,0.183  c-0.14,0.121-0.209,0.286-0.209,0.493c0,0.132,0.042,0.241,0.126,0.328c0.084,0.087,0.194,0.162,0.331,0.225  c0.136,0.063,0.292,0.121,0.468,0.173c0.176,0.053,0.355,0.111,0.538,0.175c0.183,0.064,0.362,0.141,0.538,0.228  c0.175,0.087,0.332,0.198,0.468,0.333c0.137,0.135,0.247,0.299,0.331,0.492s0.126,0.428,0.126,0.7c0,0.304-0.053,0.587-0.158,0.851  s-0.257,0.494-0.457,0.691c-0.2,0.195-0.446,0.35-0.738,0.463c-0.292,0.112-0.625,0.169-0.997,0.169  c-0.204,0-0.412-0.021-0.623-0.063c-0.212-0.042-0.417-0.102-0.614-0.178c-0.198-0.076-0.384-0.167-0.558-0.271  c-0.174-0.105-0.326-0.223-0.455-0.352l0.45-0.711c0.036-0.051,0.083-0.094,0.142-0.129c0.059-0.033,0.122-0.051,0.191-0.051  c0.09,0,0.181,0.028,0.272,0.085c0.092,0.058,0.195,0.12,0.311,0.188c0.116,0.07,0.248,0.133,0.398,0.189  c0.15,0.057,0.327,0.086,0.531,0.086c0.276,0,0.491-0.061,0.644-0.183s0.229-0.313,0.229-0.578c0-0.153-0.042-0.277-0.126-0.374  c-0.084-0.096-0.194-0.175-0.331-0.238c-0.137-0.063-0.292-0.118-0.466-0.166c-0.174-0.049-0.353-0.102-0.536-0.16  s-0.361-0.131-0.536-0.216c-0.174-0.085-0.329-0.198-0.465-0.337c-0.137-0.141-0.247-0.314-0.331-0.522  c-0.084-0.208-0.126-0.466-0.126-0.772c0-0.246,0.05-0.486,0.148-0.72c0.099-0.234,0.245-0.442,0.437-0.625s0.428-0.329,0.707-0.439  c0.279-0.109,0.599-0.164,0.958-0.164c0.201,0,0.397,0.016,0.587,0.047c0.19,0.031,0.371,0.078,0.542,0.139  c0.171,0.062,0.331,0.135,0.479,0.221s0.281,0.182,0.398,0.29L20.59,24.108z"></path><path d="M27.686,22.776l-2.627,6.557h-1.377l-2.628-6.557h1.224c0.132,0,0.239,0.031,0.319,0.092  c0.081,0.062,0.143,0.14,0.185,0.236l1.27,3.51c0.06,0.152,0.118,0.32,0.176,0.502c0.057,0.182,0.109,0.371,0.162,0.568  c0.041-0.197,0.088-0.387,0.141-0.568s0.109-0.35,0.17-0.502l1.26-3.51c0.033-0.084,0.092-0.16,0.178-0.227  c0.084-0.068,0.191-0.102,0.316-0.102H27.686z"></path><path d="M31.115,25.936h2.331v2.768c-0.336,0.246-0.693,0.424-1.073,0.535c-0.379,0.111-0.776,0.167-1.19,0.167  c-0.54,0-1.031-0.085-1.474-0.255c-0.442-0.169-0.821-0.403-1.136-0.701c-0.315-0.299-0.559-0.652-0.729-1.063  s-0.256-0.854-0.256-1.334c0-0.489,0.081-0.938,0.242-1.348c0.162-0.409,0.395-0.763,0.695-1.06  c0.302-0.297,0.666-0.528,1.094-0.693s0.905-0.248,1.434-0.248c0.272,0,0.529,0.022,0.77,0.067s0.461,0.106,0.663,0.185  c0.203,0.078,0.388,0.171,0.557,0.279c0.168,0.108,0.317,0.225,0.449,0.351l-0.44,0.67c-0.069,0.105-0.158,0.17-0.268,0.194  c-0.11,0.024-0.228-0.003-0.354-0.081c-0.12-0.072-0.233-0.134-0.34-0.187c-0.106-0.052-0.216-0.095-0.326-0.128  c-0.111-0.033-0.229-0.057-0.352-0.072c-0.123-0.015-0.261-0.022-0.413-0.022c-0.285,0-0.542,0.05-0.77,0.151  c-0.229,0.101-0.423,0.242-0.583,0.425c-0.161,0.183-0.284,0.403-0.371,0.659s-0.131,0.542-0.131,0.857  c0,0.348,0.048,0.656,0.144,0.927c0.097,0.271,0.232,0.498,0.408,0.685c0.175,0.186,0.385,0.327,0.63,0.425  c0.244,0.098,0.515,0.146,0.812,0.146c0.184,0,0.349-0.018,0.498-0.053c0.148-0.037,0.293-0.084,0.434-0.145v-0.994h-0.647  c-0.097,0-0.171-0.025-0.226-0.077c-0.054-0.051-0.081-0.115-0.081-0.193V25.936z"></path>
</symbol>  
</defs>
</svg>
