<?xml version="1.0" standalone="no"?>
<!DOCTYPE svg PUBLIC "-//W3C//DTD SVG 20010904//EN"
 "http://www.w3.org/TR/2001/REC-SVG-20010904/DTD/svg10.dtd">
<svg version="1.0" xmlns="http://www.w3.org/2000/svg"
 width="140.000000pt" height="140.000000pt" viewBox="0 0 140.000000 140.000000"
 preserveAspectRatio="xMidYMid meet">

<g transform="translate(0.000000,140.000000) scale(0.100000,-0.100000)"
fill="#5e35b1" stroke="none">
<path d="M81 1382 c-19 -9 -44 -30 -55 -45 -21 -28 -21 -37 -21 -637 0 -600 0
-609 21 -637 47 -65 28 -63 674 -63 646 0 627 -2 674 63 21 28 21 37 21 637 0
600 0 609 -21 637 -47 65 -28 63 -674 63 -537 0 -588 -1 -619 -18z m725 -246
c160 -42 287 -174 324 -335 27 -114 -6 -259 -81 -359 l-28 -37 62 -62 61 -63
-187 0 -187 0 0 187 0 187 64 -63 c40 -40 69 -61 76 -56 7 4 23 31 36 59 63
135 3 300 -131 362 -27 13 -62 24 -77 24 l-28 0 0 85 c0 97 -1 97 96 71z
m-176 -181 c0 -102 -4 -185 -8 -185 -4 0 -34 27 -67 60 -67 67 -71 67 -105
-12 -69 -160 28 -348 193 -376 l42 -8 3 -83 3 -84 -48 6 c-112 13 -224 79
-295 172 -111 145 -117 355 -15 507 l40 60 -64 64 -63 64 192 0 192 0 0 -185z"/>
</g>
</svg>
